<svg width="18" height="23" viewBox="0 0 18 23" fill="none" xmlns="http://www.w3.org/2000/svg">
<path fill-rule="evenodd" clip-rule="evenodd" d="M16.5 8.40126C16.5 12.188 13.567 14.3662 11.369 16.4754C10.5071 17.3194 9.71535 18.2189 9 19.1667C8.28718 18.2207 7.49736 17.3232 6.637 16.4816C4.439 14.3734 1.5 12.1916 1.5 8.40126C1.5 4.68526 4.85786 1.67285 9 1.67285C13.1421 1.67285 16.5 4.68526 16.5 8.40126Z" stroke="black" stroke-width="1.5" stroke-linecap="round" stroke-linejoin="round"/>
<path d="M12.75 20.5124L16.5 21.8581" stroke="black" stroke-width="1.5" stroke-linecap="round" stroke-linejoin="round"/>
<path d="M1.5 16.4753L3.375 17.1482" stroke="black" stroke-width="1.5" stroke-linecap="round" stroke-linejoin="round"/>
<path d="M5.25 20.5124L1.5 21.8581" stroke="black" stroke-width="1.5" stroke-linecap="round" stroke-linejoin="round"/>
<path d="M16.5 16.4753L14.625 17.1482" stroke="black" stroke-width="1.5" stroke-linecap="round" stroke-linejoin="round"/>
<path fill-rule="evenodd" clip-rule="evenodd" d="M9 11.0926C10.6569 11.0926 12 9.88766 12 8.40126C12 6.91486 10.6569 5.7099 9 5.7099C7.34315 5.7099 6 6.91486 6 8.40126C6 9.88766 7.34315 11.0926 9 11.0926Z" stroke="black" stroke-width="1.5" stroke-linecap="round" stroke-linejoin="round"/>
</svg>
