<svg width="141" height="22" viewBox="0 0 141 22" fill="none" xmlns="http://www.w3.org/2000/svg">
<g clip-path="url(#clip0)">
<path d="M10.7485 4.98295C10.7564 4.8472 10.7884 4.69548 10.8363 4.53577C10.8922 4.36807 10.9641 4.22433 11.0279 4.12052C11.2436 4.07261 11.4432 3.97678 11.6109 3.84902C11.7866 3.97678 11.9862 4.06462 12.2018 4.12052C12.2657 4.22433 12.3376 4.36009 12.3935 4.53577C12.4414 4.69548 12.4653 4.8472 12.4813 4.98295H10.7485ZM20.8022 12.2338C20.7463 12.1699 20.6984 12.098 20.6425 12.0182V6.83559C20.6425 5.68568 19.788 4.88713 18.5662 4.88713H14.5575C14.4697 4.75138 14.326 4.51181 14.2381 4.24829C14.1982 4.13649 14.1742 4.00873 14.1583 3.87297C14.4936 3.42579 14.5975 2.84285 14.4298 2.30782C14.286 1.84466 13.9586 1.46136 13.5034 1.23776C13.224 1.09403 12.9125 1.02216 12.6011 1.02216C12.4174 1.02216 12.2258 1.04611 12.0501 1.10201C11.8984 1.14194 11.7546 1.20582 11.6189 1.27769C11.4831 1.20582 11.3394 1.14194 11.1877 1.10201C11.012 1.04611 10.8203 1.02216 10.6367 1.02216C10.3252 1.02216 10.0138 1.09403 9.7343 1.23776C9.28711 1.46934 8.95971 1.84466 8.80799 2.30782C8.64029 2.84285 8.7441 3.42579 9.07949 3.87297C9.06352 4.00873 9.03158 4.13649 8.99964 4.24829C8.91978 4.51181 8.77604 4.75138 8.68022 4.88713H4.91107C3.45771 4.88713 2.59528 5.62978 2.59528 6.8835V11.8345C1.96443 12.681 0 15.4759 0 17.3764C0 18.1989 0.319419 19.0294 0.902359 19.7162C1.42142 20.331 2.0922 20.7543 2.69909 20.8501C2.99456 20.898 3.31397 20.922 3.67332 20.922C4.51978 20.922 5.47804 20.7942 6.59601 20.6425C8.04937 20.4428 9.85408 20.1953 11.9463 20.1953C13.727 20.1953 15.1405 20.4428 16.3942 20.6585C17.3844 20.8341 18.2388 20.9779 19.0853 20.9779C19.5485 20.9779 19.9797 20.93 20.3949 20.8341C21.0976 20.6744 21.7604 20.2512 22.2476 19.6363C22.7826 18.9655 23.0621 18.143 23.0621 17.2487C23.0541 15.428 22.1517 13.9267 20.8022 12.2338Z" fill="white"/>
<path d="M18.5423 5.65372H18.2069H4.87114C3.77713 5.65372 3.4098 6.13285 3.4098 6.83557V12.0581C2.196 13.6312 0.814514 16.0029 0.814514 17.3445C0.814514 18.7419 2.02032 19.8998 2.79491 20.0196C4.71941 20.323 7.62613 19.3488 11.9143 19.3488C15.8512 19.3488 18.0632 20.4987 20.1713 20.0196C21.1855 19.788 22.1757 18.7419 22.1757 17.2247C22.1757 15.7074 21.465 14.4058 20.0915 12.6889C19.9717 12.5452 19.8599 12.3855 19.7561 12.2098V6.78766C19.7561 6.10889 19.3249 5.65372 18.5423 5.65372Z" fill="white"/>
<path d="M10.2693 4.5118C10.3811 4.16843 10.5488 3.92088 10.6766 3.76117C11.0838 3.73721 11.4432 3.48966 11.5949 3.11435C11.7387 3.48966 12.106 3.73721 12.5053 3.76117C12.633 3.91289 12.8007 4.16843 12.9125 4.5118C13.0722 5.03086 13.0243 5.502 13.0004 5.64574H10.1815C10.1495 5.502 10.1016 5.03086 10.2693 4.5118ZM20.0995 12.6889C19.9797 12.5452 19.8679 12.3855 19.7641 12.2098V6.77968C19.7641 6.1089 19.3328 5.64574 18.5423 5.64574H13.1601L13.9107 5.43013C13.9107 5.43013 13.5593 4.97496 13.3837 4.42396C13.2799 4.08857 13.2479 3.7452 13.2399 3.52959C13.5514 3.28204 13.6951 2.87478 13.5673 2.48349C13.3996 1.95645 12.8167 1.66099 12.2577 1.81271C11.9303 1.90854 11.6907 2.13213 11.5789 2.41162C11.4671 2.13213 11.2276 1.90055 10.9002 1.81271C10.3492 1.653 9.75826 1.94847 9.59056 2.48349C9.46279 2.87478 9.60653 3.28204 9.91796 3.52959C9.90998 3.7452 9.87804 4.08857 9.77423 4.42396C9.59855 4.97496 9.2392 5.43013 9.2392 5.43013L9.98983 5.64574H4.87114C3.77713 5.64574 3.4098 6.12487 3.4098 6.82759V12.0501C2.196 13.6232 0.814514 15.9949 0.814514 17.3365C0.814514 18.7339 2.02032 19.8918 2.79491 20.0116C4.71942 20.3151 7.62613 19.3408 11.9143 19.3408C15.8512 19.3408 18.0632 20.4908 20.1793 20.0116C21.1935 19.78 22.1837 18.7339 22.1837 17.2167C22.1837 15.6995 21.473 14.3978 20.0995 12.6889Z" fill="#1B1D1D"/>
<path d="M11.7307 2.77096L11.8345 3.03448C11.9463 3.30598 12.2098 3.49764 12.5212 3.51361L12.641 3.52159L12.7129 3.60943C12.8087 3.72921 12.9365 3.9049 13.0483 4.13647C13.0083 3.9049 12.9924 3.69727 12.9844 3.53756L12.9764 3.41778L13.0722 3.33793C13.3118 3.14627 13.4076 2.83484 13.3198 2.54736C13.2559 2.35571 13.1281 2.20399 12.9365 2.10816C12.7528 2.01234 12.5372 1.99636 12.3376 2.05226C12.106 2.11615 11.9223 2.28384 11.8265 2.49945L11.7307 2.77096ZM10.6047 2.02831C10.4769 2.02831 10.3492 2.06025 10.2374 2.11615C10.0537 2.21197 9.91796 2.3637 9.85408 2.55535C9.76624 2.84283 9.86206 3.14627 10.1016 3.34591L10.1975 3.42577L10.1895 3.54555C10.1815 3.70526 10.1655 3.91288 10.1256 4.14446C10.2294 3.91288 10.3572 3.7372 10.461 3.61742L10.5328 3.52958L10.6526 3.52159C10.9641 3.50562 11.2276 3.31397 11.3394 3.04246L11.4432 2.77894L11.3394 2.50744C11.2515 2.29183 11.0679 2.12413 10.8363 2.06025C10.7564 2.03629 10.6846 2.02831 10.6047 2.02831ZM9.67041 5.29437L9.88602 5.35825C9.88602 5.20653 9.894 5.01488 9.92595 4.81524C9.84609 4.99092 9.75027 5.15862 9.67041 5.29437ZM13.2479 4.80725C13.2798 5.01488 13.2878 5.19854 13.2878 5.35027L13.5034 5.28638C13.4236 5.15862 13.3278 4.99092 13.2479 4.80725ZM11.9143 19.1013C13.8069 19.1013 15.2762 19.3568 16.5699 19.5884C17.9593 19.8279 19.0613 20.0196 20.1154 19.78C21.0098 19.5724 21.9201 18.6301 21.9201 17.2247C21.9201 15.8751 21.3691 14.6853 19.8918 12.8406C19.772 12.6969 19.6602 12.5292 19.5405 12.3376L19.5005 12.2817V6.77967C19.5005 6.2127 19.1651 5.89328 18.5423 5.89328H4.87114C3.81705 5.89328 3.67332 6.36442 3.67332 6.82758V12.1299L3.6254 12.1938C2.39564 13.7989 1.07803 16.0828 1.07803 17.3445C1.07803 18.6621 2.23593 19.6762 2.83484 19.772C3.74518 19.9158 4.91106 19.7561 6.38838 19.5564C7.88166 19.3488 9.73429 19.1013 11.9143 19.1013Z" fill="white"/>
<path d="M3.40979 12.106V6.83557C3.40979 6.13285 3.77712 5.65372 4.87113 5.65372H18.5423C19.3328 5.65372 19.7641 6.10889 19.7641 6.78766V12.2417" fill="white"/>
<path d="M20.0196 12.2417H19.5085V6.78766C19.5085 6.22069 19.1572 5.89328 18.5423 5.89328H4.87114C3.80908 5.89328 3.66534 6.36443 3.66534 6.83557V12.114H3.15427V6.83557C3.15427 6.18875 3.44973 5.41415 4.87114 5.41415H18.5423C19.4367 5.41415 20.0196 5.95717 20.0196 6.78766V12.2417Z" fill="#1B1D1D"/>
<path d="M5.35825 7.18692H17.8156C17.8156 7.18692 18.726 10.972 20.0995 12.6889C21.473 14.3978 22.1837 15.7074 22.1837 17.2247C22.1837 18.7419 21.1935 19.788 20.1793 20.0196C18.0632 20.4987 15.8512 19.3488 11.9143 19.3488C7.62613 19.3488 4.71942 20.323 2.79491 20.0196C2.02032 19.8998 0.814514 18.7419 0.814514 17.3445C0.814514 15.947 2.31579 13.4396 3.56152 11.8664C4.80726 10.2933 5.35825 7.18692 5.35825 7.18692Z" fill="#E2001E"/>
<path d="M11.9143 19.1092C13.8069 19.1092 15.2682 19.3648 16.5699 19.5964C17.9594 19.8359 19.0614 20.0276 20.1154 19.788C21.0178 19.5804 21.9281 18.6381 21.9281 17.2247C21.9281 15.8751 21.3771 14.6853 19.8998 12.8406C18.6701 11.3074 17.8236 8.23302 17.616 7.43447H5.57387C5.43013 8.16115 4.86317 10.6367 3.76117 12.0181C2.45954 13.6631 1.07006 16.0907 1.07006 17.3445C1.07006 18.6621 2.22796 19.6842 2.83485 19.78C3.75318 19.9238 4.91906 19.7641 6.38839 19.5644C7.88168 19.3568 9.73431 19.1092 11.9143 19.1092ZM19.0614 20.3789C18.2708 20.3789 17.4403 20.2352 16.4741 20.0675C15.1964 19.8439 13.759 19.5884 11.9143 19.5884C9.77424 19.5884 7.93758 19.8359 6.46825 20.0435C4.95101 20.2512 3.7452 20.4189 2.755 20.2592C1.87659 20.1234 0.55899 18.8857 0.55899 17.3445C0.55899 15.8991 2.00436 13.4156 3.35391 11.7227C4.55173 10.2214 5.10273 7.17894 5.11072 7.14699L5.14266 6.94736H18.0153L18.0632 7.13901C18.0712 7.17894 18.9815 10.9002 20.2991 12.5452C21.5768 14.1423 22.4312 15.5557 22.4312 17.2247C22.4312 18.8857 21.3212 20.0116 20.2272 20.2592C19.8439 20.347 19.4606 20.3789 19.0614 20.3789Z" fill="#1B1D1D"/>
<path d="M11.6109 3.05843C11.7786 2.53139 11.4672 1.98039 10.9082 1.82068C10.3572 1.66098 9.76625 1.96442 9.59855 2.48348C9.47079 2.87477 9.61452 3.28203 9.92596 3.53756C9.91797 3.75317 9.88603 4.09655 9.78222 4.43194C9.60654 4.98294 9.24719 5.43811 9.24719 5.43811L10.1735 5.70163C10.1735 5.70163 10.0617 5.14264 10.2534 4.51978C10.3652 4.1764 10.5329 3.92885 10.6606 3.76914C11.0998 3.7372 11.4831 3.46569 11.6109 3.05843Z" fill="#1B1D1D"/>
<path d="M11.563 3.05843C11.3953 2.53139 11.7067 1.98039 12.2657 1.82068C12.8167 1.66098 13.4076 1.96442 13.5753 2.48348C13.7031 2.87477 13.5594 3.28203 13.2479 3.53756C13.2559 3.75317 13.2879 4.09655 13.3917 4.43194C13.5673 4.98294 13.9267 5.43811 13.9267 5.43811L13.0004 5.70163C13.0004 5.70163 13.1122 5.14264 12.9205 4.51978C12.8087 4.1764 12.641 3.92885 12.5133 3.76914C12.0741 3.7372 11.6908 3.46569 11.563 3.05843Z" fill="#1B1D1D"/>
<path d="M11.2276 2.51541C11.2276 2.69908 11.0679 2.8508 10.8683 2.8508C10.6686 2.8508 10.5089 2.69908 10.5089 2.51541C10.5089 2.33175 10.6686 2.18002 10.8683 2.18002C11.0679 2.18002 11.2276 2.32376 11.2276 2.51541Z" fill="white"/>
<path d="M13.2798 2.51541C13.2798 2.69908 13.1201 2.8508 12.9205 2.8508C12.7209 2.8508 12.5612 2.69908 12.5612 2.51541C12.5612 2.33175 12.7209 2.18002 12.9205 2.18002C13.1201 2.18002 13.2798 2.32376 13.2798 2.51541Z" fill="white"/>
<path d="M7.3067 12.4254C7.3067 12.4254 7.49835 12.4254 7.7459 12.2737C7.93755 12.1539 8.41668 11.9463 8.792 11.8744C9.343 11.7626 9.85407 11.7706 10.2613 11.8505C10.6766 11.9303 10.8043 11.9782 10.8043 11.9782C10.8043 11.9782 10.9161 11.9383 11.012 11.8984C11.1238 11.8505 11.2755 11.7946 11.1956 11.7706C11.1158 11.7546 10.9002 11.6828 10.9002 11.6828C10.9002 11.6828 11.1397 11.3234 11.1797 10.6127C11.2276 9.76624 10.5408 8.48058 9.27113 8.65626C8.07331 8.82396 7.56224 10.0697 7.56224 10.8283C7.56224 11.5869 7.9136 11.9463 7.9136 11.9463C7.9136 11.9463 7.71396 12.0341 7.56224 12.1699C7.39454 12.2976 7.3067 12.4254 7.3067 12.4254Z" fill="#1B1D1D"/>
<path d="M8.12125 11.8345C8.12125 11.8345 8.257 11.7866 8.40074 11.7466C8.54448 11.7067 8.64829 11.6907 8.64829 11.6907C8.64829 11.6907 8.22506 11.3553 8.17715 10.8443C8.13722 10.429 8.24902 10.2374 8.24902 10.2374C8.24902 10.2374 8.40873 10.6127 8.79203 10.6446C9.11943 10.6686 9.28713 10.5089 9.32706 10.2773C9.36698 10.0537 9.17533 9.79019 8.91181 9.75824C8.68822 9.7263 8.46462 9.82213 8.46462 9.82213C8.46462 9.82213 8.72814 9.42285 9.3031 9.42285C9.87805 9.42285 10.5169 9.7822 10.469 10.6287C10.4291 11.4033 10.0378 11.5869 10.0378 11.5869C10.0378 11.5869 10.1176 11.5869 10.2614 11.5949C10.4051 11.6029 10.5009 11.6189 10.5009 11.6189C10.5009 11.6189 10.8683 11.1876 10.8683 10.5408C10.8683 9.90198 10.461 8.93574 9.40691 8.9597C8.35283 8.98365 7.78586 10.1815 7.78586 10.8922C7.79384 11.6029 8.12125 11.8345 8.12125 11.8345Z" fill="white"/>
<path d="M15.6356 12.2178C15.955 12.4254 16.1147 12.2976 15.971 12.1539C15.8272 12.0102 15.4679 11.8345 15.4679 11.8345C15.4679 11.8345 15.7953 11.571 15.8192 10.8044C15.8432 10.0378 15.3401 8.54447 14.0145 8.52051C12.6969 8.48857 12.2418 9.59855 12.1619 10.3172C12.082 11.0359 12.5372 11.5949 12.5372 11.5949C12.5372 11.5949 12.2976 11.6428 12.4015 11.7387C12.5053 11.8345 12.5372 11.9064 12.8486 11.8744C13.1681 11.8425 13.6312 11.6828 14.5096 11.8425C15.396 12.0022 15.6356 12.2178 15.6356 12.2178Z" fill="#1B1D1D"/>
<path d="M14.6294 11.547C14.6294 11.547 14.7572 11.571 14.8929 11.6109C15.0367 11.6508 15.1485 11.6908 15.1485 11.6908C15.1485 11.6908 15.5238 11.2835 15.5238 10.5888C15.5238 9.75028 14.8211 8.81598 13.9906 8.81598C13.0323 8.81598 12.4494 9.49474 12.4574 10.437C12.4653 11.3793 12.7927 11.5151 12.7927 11.5151C12.7927 11.5151 12.9445 11.4991 13.0483 11.4831C13.1521 11.4751 13.3118 11.4672 13.3118 11.4672C13.3118 11.4672 12.8566 11.1797 12.8407 10.437C12.8247 9.69438 13.4795 9.23921 14.0065 9.23921C14.5336 9.23921 14.9329 9.69438 14.8929 9.69438C14.853 9.69438 14.6693 9.60654 14.5096 9.59856C14.3579 9.59057 14.0305 9.71834 14.0065 10.0138C13.9826 10.3172 14.2701 10.461 14.5096 10.4849C14.9888 10.5249 15.0846 10.0777 15.0846 10.0777C15.0846 10.0777 15.1804 10.2454 15.1485 10.6606C15.0926 11.2835 14.6294 11.547 14.6294 11.547Z" fill="white"/>
<path d="M6.75572 13.5913C6.75572 13.5913 7.3706 13.9666 7.88167 14.0385C8.39274 14.1104 9.68639 14.3739 11.3474 14.286C13.0004 14.1982 15.396 13.6392 15.5877 13.5114C15.7793 13.3837 15.8272 13.2479 15.947 13.1521C16.0668 13.0563 16.1546 12.8566 16.3862 13.184C16.6178 13.5114 16.6817 13.6232 16.7456 13.767C16.8094 13.9107 16.6178 14.0385 16.4261 14.0545C16.2425 14.0784 16.0109 14.2301 15.9869 14.5096C15.963 14.7891 14.4138 17.7038 11.9782 17.8396C9.55064 17.9753 7.9775 16.0748 7.32269 15.0606C6.66788 14.0465 6.40436 14.2062 6.42033 13.9267C6.44429 13.6632 6.604 13.5035 6.75572 13.5913Z" fill="#1B1D1D"/>
<path d="M7.53829 14.2142C7.53829 14.2142 9.92595 14.7811 11.523 14.6853C13.1201 14.5895 15.1325 14.1103 15.4439 13.9267C15.7553 13.743 15.9151 13.9506 15.7474 14.2381C15.5797 14.5256 15.2523 14.9568 14.5975 15.3241C13.9426 15.6915 13.2 15.8512 13.2 15.8512C13.2 15.8512 13.8308 15.7554 14.1982 15.7474C14.5655 15.7394 14.5336 16.1546 14.1822 16.4421C13.8308 16.7296 13.2559 17.4483 11.7466 17.5202C10.2374 17.584 9.31905 16.6817 9.11941 16.4581C8.91978 16.2345 8.89582 16.0907 9.22322 16.1147C9.55063 16.1387 10.0298 16.0668 10.0298 16.0668C10.0298 16.0668 9.48675 15.955 8.87985 15.7713C8.27295 15.5877 8.06533 15.5956 7.80181 15.0926C7.5303 14.6054 7.25081 14.1503 7.53829 14.2142Z" fill="white"/>
<path d="M11.5151 13.3278C11.7067 13.3597 12.0661 13.3437 12.2657 13.2878C12.4334 13.2399 12.5372 13.176 12.6091 13.1441C12.6809 13.1042 12.5851 13.2559 12.4254 13.3278C12.0501 13.5114 11.5869 13.5594 11.1957 13.4795C10.8842 13.4156 10.6686 13.3118 10.5888 13.192C10.5009 13.0563 10.5728 12.8726 10.7245 12.7927C10.8762 12.7049 11.028 12.6889 11.1158 12.6889C11.2036 12.6889 10.8363 12.8087 10.7884 12.9285C10.7245 13.0563 10.9481 13.2399 11.5151 13.3278Z" fill="#1B1D1D"/>
<path d="M7.68205 11.3074C7.68205 11.3074 7.33867 11.1317 7.06717 10.988C6.80365 10.8523 6.84357 10.7644 7.15501 10.8363C7.46644 10.9082 7.72996 10.9561 7.72996 10.9561L7.68205 11.3074Z" fill="#1B1D1D"/>
<path d="M7.64213 10.7724C7.64213 10.7724 7.30674 10.5808 7.04321 10.429C6.77969 10.2773 6.82761 10.1974 7.13904 10.2773C7.45047 10.3572 7.70601 10.421 7.70601 10.421L7.64213 10.7724Z" fill="#1B1D1D"/>
<path d="M15.7713 11.3074C15.7713 11.3074 16.1147 11.1317 16.3862 10.988C16.6497 10.8523 16.6098 10.7644 16.2984 10.8363C15.9869 10.9082 15.7234 10.9561 15.7234 10.9561L15.7713 11.3074Z" fill="#1B1D1D"/>
<path d="M15.8113 10.7724C15.8113 10.7724 16.1466 10.5808 16.4102 10.429C16.6737 10.2773 16.6258 10.1974 16.3143 10.2773C16.0029 10.3651 15.7474 10.421 15.7474 10.421L15.8113 10.7724Z" fill="#1B1D1D"/>
<path d="M36.3659 21.433C30.3049 21.433 25.3779 16.7535 25.3779 11.004C25.3779 5.25444 30.3049 0.574951 36.3659 0.574951H84.2628C90.3158 0.574951 95.2508 5.25444 95.2508 11.004C95.2508 16.7535 90.3238 21.433 84.2628 21.433H36.3659Z" fill="#E2001E"/>
<path d="M84.2628 0H36.3659C29.9775 0 24.7789 4.93503 24.7789 11.004C24.7789 17.073 29.9775 22.008 36.3659 22.008H84.2628C90.6512 22.008 95.8497 17.073 95.8497 11.004C95.8497 4.93503 90.6512 0 84.2628 0ZM84.2628 1.14192C89.9724 1.14192 94.6439 5.57387 94.6439 10.996C94.6439 16.4181 89.9724 20.8501 84.2628 20.8501H36.3659C30.6562 20.8501 25.9847 16.4181 25.9847 10.996C25.9847 5.57387 30.6562 1.14192 36.3659 1.14192H84.2628Z" fill="white"/>
<path d="M86.8261 21.4091L89.086 20.339C92.7913 18.5822 95.1869 15.0447 95.1869 11.3234V10.5648C95.1869 6.92342 92.8552 3.41779 89.2537 1.62904L87.0976 0.55899H128.878C134.931 0.55899 139.858 5.2305 139.858 10.98C139.858 16.7296 134.931 21.4011 128.878 21.4011H86.8261V21.4091Z" fill="#508D2C"/>
<path d="M128.87 0H89.5252H84.6541L88.9663 2.13212C92.3761 3.81706 94.5801 7.13103 94.5801 10.5648V11.3234C94.5801 14.829 92.3122 18.167 88.8145 19.828L84.2868 21.976H89.3416H128.862C135.242 21.976 140.433 17.049 140.433 10.988C140.449 4.92704 135.258 0 128.87 0ZM128.87 1.13394C134.579 1.13394 139.251 5.56588 139.251 10.988C139.251 16.4102 134.579 20.8421 128.87 20.8421H89.3576C93.0389 19.0933 95.7859 15.4759 95.7859 11.3234V10.5648C95.7859 6.47623 93.1187 2.90672 89.5332 1.13394H128.87Z" fill="white"/>
<path d="M103.947 17.7757C101.032 17.7757 98.7245 15.6755 98.7245 11.3873C98.7245 7.09908 101.024 4.9989 103.947 4.9989C105.097 4.9989 106.159 5.27041 106.79 5.6617L105.856 7.9695C105.512 7.72994 104.977 7.52231 104.346 7.52231C102.853 7.52231 101.879 8.88783 101.879 11.3474C101.879 13.8069 102.853 15.1884 104.346 15.1884C104.977 15.1884 105.52 14.9648 105.856 14.7252L106.79 17.0969C106.167 17.5042 105.153 17.7757 103.947 17.7757Z" fill="white"/>
<path d="M112.172 5.20654H109.114V17.5761H112.172V5.20654Z" fill="white"/>
<path d="M119.862 7.62614V17.5681H116.796V7.62614H114.312V5.20654H122.346V7.62614H119.862Z" fill="white"/>
<path d="M130.028 12.7688V17.5681H126.969V12.7688L123.256 5.20654H126.53L128.478 9.85409H128.51L130.459 5.20654H133.749L130.028 12.7688Z" fill="white"/>
<path d="M37.963 7.67405H37.4599V11.6987C39.6878 11.555 40.167 11.004 40.167 9.42287C40.167 8.00944 39.5281 7.67405 37.963 7.67405ZM33.3953 16.3543V4.95898H37.8831C41.0534 4.95898 44.2236 5.42214 44.2236 9.351C44.2236 13.0403 41.6123 14.1822 37.4519 14.2541V17.8156H34.5452C33.7786 17.8156 33.3873 17.3125 33.3873 16.4102" fill="white"/>
<path d="M50.3564 7.45844H49.8374V10.8523C50.4363 10.8363 51.3866 10.7964 51.9296 10.5568C52.4486 10.3332 52.784 9.89401 52.784 8.97568C52.776 7.72995 52.1931 7.45844 50.3564 7.45844ZM52.5445 17.8156L52.233 15.963C51.9775 14.4936 51.6102 13.6472 51.0352 13.1521L49.8374 13.224V17.8156H46.9786C45.7808 17.8156 45.7808 16.3543 45.7808 16.3543V4.95898H50.4603C53.2632 4.95898 56.8087 5.14265 56.8087 8.81597C56.8087 10.6926 55.9223 11.8984 54.6446 12.3456C55.571 12.8966 56.0182 14.0385 56.3056 15.1405L57.0004 17.8236H52.5445V17.8156Z" fill="white"/>
<path d="M63.9557 7.44248C62.4465 7.44248 62.0232 8.60038 62.0232 11.3953C62.0232 14.1503 62.4305 15.3401 63.9557 15.3401C65.4091 15.3401 65.8882 14.3499 65.8882 11.3953C65.8882 8.70419 65.5049 7.44248 63.9557 7.44248ZM63.9557 17.9993C61.073 17.9993 57.9586 17.081 57.9586 11.3873C57.9586 5.60582 61.2886 4.77533 63.9557 4.77533C66.7826 4.77533 69.9528 5.76553 69.9528 11.3873C69.9528 17.3205 66.5909 17.9993 63.9557 17.9993Z" fill="white"/>
<path d="M81.7713 7.8098H75.9739V10.0138H79.8069V12.7289H75.9739V17.8156H73.0911C71.8933 17.8156 71.8933 16.3543 71.8933 16.3543V4.95898H81.7793L81.7713 7.8098Z" fill="white"/>
<path d="M84.3267 17.8156C83.1289 17.8156 83.1289 16.3543 83.1289 16.3543V4.95898H86.0276C87.2254 4.95898 87.2254 6.17278 87.2254 6.17278V17.8156H84.3267Z" fill="white"/>
</g>
<defs>
<clipPath id="clip0">
<rect width="140.449" height="22" fill="white"/>
</clipPath>
</defs>
</svg>
