<svg width="81" height="22" viewBox="0 0 81 22" fill="none" xmlns="http://www.w3.org/2000/svg">
<path d="M11.1556 3.49708C11.2423 3.20159 11.3724 2.97547 11.4821 2.81873C11.8138 2.76734 12.1122 2.59776 12.3265 2.34852C12.5408 2.59776 12.8418 2.76734 13.1709 2.81873C13.2806 2.97547 13.4082 3.20159 13.4974 3.49708C13.5663 3.72319 13.5969 3.94417 13.6071 4.13431H11.0434C11.0561 3.94417 11.0867 3.72319 11.1556 3.49708ZM22.0714 12.4543C21.9923 12.3516 21.9107 12.2334 21.8291 12.1049V6.05116C21.8291 4.90259 21.0485 4.13174 19.8878 4.13174H14.9592C14.8393 3.93903 14.6531 3.60757 14.5434 3.23756C14.4541 2.9395 14.4158 2.6363 14.4031 2.40761C14.7602 2.04018 14.8954 1.50572 14.7449 1.00981C14.5663 0.413688 14.0102 0 13.3929 0C13.2551 0 13.1173 0.0205559 12.9847 0.0616678C12.727 0.138753 12.5 0.287783 12.3291 0.485634C12.1582 0.287783 11.9311 0.141322 11.6709 0.0616678C11.5357 0.0205559 11.398 0 11.2602 0C10.6429 0 10.0867 0.413688 9.90816 1.00981C9.75765 1.50829 9.89286 2.04275 10.2526 2.40761C10.2398 2.63887 10.2015 2.94207 10.1148 3.23756C10.0026 3.60757 9.81888 3.93903 9.69643 4.13174H5.02806C3.62755 4.13174 2.82398 4.8512 2.82398 6.10511V11.8993C1.72194 13.4487 0 16.3445 0 18.174C0 20.1474 1.58163 21.6737 2.66837 21.8561C2.97449 21.9075 3.30357 21.9306 3.67602 21.9306C4.58163 21.9306 5.6148 21.7816 6.80867 21.6094C8.47959 21.3679 10.375 21.093 12.6786 21.093C14.6505 21.093 16.2066 21.3808 17.5765 21.6326C18.6378 21.8278 19.5536 21.9974 20.4541 21.9974C20.9388 21.9974 21.3801 21.9486 21.8036 21.8458C23.1224 21.5272 24.4592 20.1166 24.4592 18.0327C24.4617 16.0208 23.5077 14.3455 22.0714 12.4543Z" fill="white"/>
<path d="M34.148 21.6274C29.4235 21.6274 25.5816 17.7758 25.5816 13.0402C25.5816 8.30461 29.426 4.45294 34.148 4.45294H72.0918C76.8163 4.45294 80.6582 8.30461 80.6582 13.0402C80.6582 17.7758 76.8163 21.6274 72.0918 21.6274H34.148Z" fill="#E12228"/>
<path d="M72.0919 4.11121H34.148C29.2347 4.11121 25.2398 8.11705 25.2398 13.0402C25.2398 17.9633 29.2373 21.9718 34.148 21.9718H72.0919C77.0051 21.9718 81 17.9659 81 13.0402C81 8.11705 77.0026 4.11121 72.0919 4.11121ZM72.0919 4.79726C76.6148 4.79726 80.3163 8.50761 80.3163 13.0402C80.3163 17.5728 76.6148 21.2831 72.0919 21.2831H34.148C29.625 21.2831 25.9235 17.5728 25.9235 13.0402C25.9235 8.50761 29.625 4.79726 34.148 4.79726H72.0919Z" fill="white"/>
<path d="M35.4107 10.224H35.0127V13.5875C36.7755 13.4667 37.1581 13.0042 37.1581 11.6835C37.1581 10.5015 36.653 10.224 35.4107 10.224ZM31.7959 17.4828V7.95001H35.352C37.8648 7.95001 40.3775 8.33544 40.3775 11.6218C40.3775 14.7103 38.3087 15.6611 35.0153 15.7227V18.7033H32.7143C32.1071 18.7033 31.7959 18.2794 31.7959 17.5291" fill="white"/>
<path d="M45.2347 10.039H44.8214V12.8809C45.2959 12.8655 46.0484 12.8346 46.477 12.6342C46.8928 12.4492 47.1505 12.0818 47.1505 11.3135C47.1479 10.2703 46.6888 10.039 45.2347 10.039ZM46.9643 18.7033L46.7194 17.1514C46.5178 15.9232 46.227 15.2165 45.7678 14.8003L44.8189 14.862V18.7008H42.551C41.602 18.7008 41.602 17.4803 41.602 17.4803V7.94745H45.3112C47.5331 7.94745 50.3367 8.10162 50.3367 11.1747C50.3367 12.7421 49.6326 13.7545 48.6199 14.1245C49.3546 14.5844 49.7092 15.5377 49.9387 16.4602L50.4898 18.7008H46.9643V18.7033Z" fill="white"/>
<path d="M56.0077 10.0236C54.8112 10.0236 54.4771 10.9923 54.4771 13.328C54.4771 15.6328 54.7985 16.6298 56.0077 16.6298C57.1582 16.6298 57.5408 15.7999 57.5408 13.328C57.5383 11.0848 57.2322 10.0236 56.0077 10.0236ZM56.0077 18.8576C53.7245 18.8576 51.2577 18.0893 51.2577 13.328C51.2577 8.48966 53.8929 7.79846 56.0077 7.79846C58.2449 7.79846 60.7577 8.62841 60.7577 13.328C60.7577 18.2897 58.0919 18.8576 56.0077 18.8576Z" fill="white"/>
<path d="M70.1174 10.3319H65.523V12.1743H68.5561V14.4483H65.523V18.7033H63.2398C62.2908 18.7033 62.2908 17.4828 62.2908 17.4828V7.95001H70.1225L70.1174 10.3319Z" fill="white"/>
<path d="M72.1429 18.7033C71.1939 18.7033 71.1939 17.4828 71.1939 17.4828V7.95001H73.4924C74.4413 7.95001 74.4413 8.96753 74.4413 8.96753V18.7033H72.1429Z" fill="white"/>
<path d="M3.44131 12.1794V6.12308C3.44131 5.31883 3.83927 4.76639 5.02805 4.76639H19.8877C20.7449 4.76639 21.2143 5.29313 21.2143 6.06655V12.3284" fill="white"/>
<path d="M21.4923 12.331H20.9362V6.06919C20.9362 5.41911 20.5536 5.04653 19.8878 5.04653H5.02806C3.875 5.04653 3.71939 5.59127 3.71939 6.12315V12.1794H3.16327V6.12315C3.16327 5.378 3.48725 4.48895 5.02806 4.48895H19.8878C20.8622 4.48895 21.4923 5.1082 21.4923 6.06919V12.331Z" fill="#1B1C1C"/>
<path d="M5.55865 6.53424H19.0995C19.0995 6.53424 20.0918 10.8818 21.5842 12.8475C23.0765 14.8131 23.8495 16.3086 23.8495 18.0533C23.8495 19.798 22.7678 21.0005 21.6683 21.2651C19.3699 21.8176 16.9668 20.4943 12.6862 20.4943C8.02804 20.4943 4.86478 21.6146 2.77549 21.2651C1.926 21.1212 0.614777 19.7954 0.614777 18.192C0.614777 16.5861 2.24488 13.7057 3.59692 11.907C4.95151 10.1058 5.55865 6.53424 5.55865 6.53424Z" fill="#E12228"/>
<path d="M12.6811 20.2142C14.7347 20.2142 16.3316 20.5097 17.7398 20.7692C18.7577 20.9568 19.6378 21.1187 20.4566 21.1187C20.8699 21.1187 21.2449 21.0775 21.5995 20.9928C22.5791 20.7564 23.5689 19.672 23.5689 18.0507C23.5689 16.5013 22.9719 15.1343 21.3597 13.0145C20.0255 11.2544 19.102 7.72903 18.8776 6.81172H5.78827C5.62756 7.64681 5.01276 10.4887 3.81889 12.074C2.40307 13.9601 0.895417 16.7454 0.895417 18.192C0.895417 19.7029 2.15817 20.8797 2.81634 20.9902C3.07399 21.0339 3.3546 21.0544 3.67858 21.0544C4.52042 21.0544 5.52297 20.9105 6.68368 20.7409C8.30103 20.5046 10.3138 20.2142 12.6811 20.2142ZM20.4566 21.6762C19.5867 21.6762 18.6837 21.5092 17.6403 21.3165C16.2551 21.0621 14.6837 20.7718 12.6811 20.7718C10.3546 20.7718 8.36225 21.0596 6.76276 21.2908C5.58164 21.463 4.55868 21.6094 3.67858 21.6094C3.32654 21.6094 3.01276 21.5837 2.7245 21.5375C1.77297 21.3782 0.339294 19.9624 0.339294 18.192C0.339294 16.5347 1.91327 13.6851 3.37756 11.7374C4.67348 10.0133 5.27807 6.52137 5.28317 6.48797L5.32399 6.25671H19.3189L19.3674 6.47255C19.3776 6.51623 20.3648 10.7842 21.801 12.6804C23.1939 14.5176 24.1225 16.1338 24.1225 18.0533C24.1225 19.9624 22.9158 21.2497 21.727 21.5349C21.3291 21.63 20.9133 21.6762 20.4566 21.6762Z" fill="#1B1C1C"/>
<path d="M12.352 1.79349C12.5332 1.18966 12.1913 0.552427 11.5893 0.369993C10.9873 0.187559 10.3521 0.529302 10.1684 1.13313C10.0332 1.58793 10.1888 2.05558 10.5281 2.34079C10.5204 2.58747 10.4898 2.97803 10.3725 3.36602C10.1811 4.00326 9.79593 4.52229 9.79593 4.52229L10.801 4.82549C10.801 4.82549 10.676 4.18055 10.8929 3.46366C11.0102 3.07053 11.1939 2.78275 11.3316 2.60545C11.7959 2.57462 12.2117 2.26628 12.352 1.79349Z" fill="#1B1C1C"/>
<path d="M12.2985 1.79349C12.1174 1.18966 12.4592 0.552427 13.0612 0.369993C13.6633 0.187559 14.301 0.529302 14.4822 1.13313C14.6174 1.58793 14.4617 2.05558 14.1225 2.34079C14.1301 2.58747 14.1607 2.97803 14.2806 3.36602C14.4694 4.00326 14.8572 4.52229 14.8572 4.52229L13.8521 4.82549C13.8521 4.82549 13.9745 4.18055 13.7602 3.46366C13.6429 3.07053 13.4592 2.78275 13.3189 2.60545C12.8572 2.57462 12.4413 2.26628 12.2985 1.79349Z" fill="#1B1C1C"/>
<path d="M11.9311 1.16915C11.9311 1.38242 11.7577 1.55715 11.5434 1.55715C11.3291 1.55715 11.1582 1.38242 11.1582 1.16915C11.1582 0.955884 11.3316 0.781158 11.5434 0.781158C11.7602 0.781158 11.9311 0.955884 11.9311 1.16915Z" fill="white"/>
<path d="M14.1709 1.16915C14.1709 1.38242 13.9949 1.55715 13.7831 1.55715C13.5689 1.55715 13.3954 1.38242 13.3954 1.16915C13.3954 0.955884 13.5689 0.781158 13.7831 0.781158C13.9949 0.781158 14.1709 0.955884 14.1709 1.16915Z" fill="white"/>
<path d="M7.6709 12.5443C7.6709 12.5443 7.88008 12.5443 8.15049 12.367C8.35457 12.2308 8.88008 11.9918 9.2857 11.907C9.88519 11.7811 10.4388 11.7888 10.8826 11.8762C11.3316 11.9636 11.4745 12.0227 11.4745 12.0227C11.4745 12.0227 11.5995 11.9738 11.6964 11.9327C11.8214 11.8788 11.9847 11.8094 11.8979 11.7888C11.8087 11.7657 11.574 11.6861 11.574 11.6861C11.574 11.6861 11.8342 11.2724 11.875 10.4578C11.9235 9.48658 11.1862 8.01169 9.79845 8.21211C8.49743 8.40225 7.94131 9.83089 7.94131 10.702C7.94131 11.573 8.32141 11.9841 8.32141 11.9841C8.32141 11.9841 8.10967 12.0843 7.94131 12.2411C7.77294 12.4004 7.6709 12.5443 7.6709 12.5443Z" fill="#1B1C1C"/>
<path d="M8.56123 11.866C8.56123 11.866 8.71174 11.8146 8.8699 11.7683C9.02551 11.7246 9.14286 11.7015 9.14286 11.7015C9.14286 11.7015 8.68623 11.3161 8.6301 10.7277C8.58419 10.2498 8.71174 10.0365 8.71174 10.0365C8.71174 10.0365 8.88266 10.4707 9.30102 10.5016C9.65561 10.5298 9.84184 10.3448 9.88521 10.0776C9.92602 9.82322 9.72449 9.52002 9.43113 9.4789C9.18878 9.4455 8.94133 9.55342 8.94133 9.55342C8.94133 9.55342 9.22959 9.09605 9.8546 9.09605C10.4796 9.09605 11.1735 9.50974 11.125 10.481C11.0791 11.3752 10.6607 11.5808 10.6607 11.5808C10.6607 11.5808 10.7475 11.5782 10.9031 11.5885C11.0587 11.5987 11.1633 11.6142 11.1633 11.6142C11.1633 11.6142 11.5612 11.1157 11.5612 10.3782C11.5612 9.64078 11.1174 8.5359 9.96939 8.56673C8.81888 8.59757 8.20663 9.96454 8.20663 10.7816C8.20663 11.5962 8.56123 11.866 8.56123 11.866Z" fill="white"/>
<path d="M16.7296 12.3078C17.0791 12.5494 17.2526 12.3978 17.097 12.2282C16.9388 12.0612 16.551 11.8582 16.551 11.8582C16.551 11.8582 16.9056 11.5575 16.9311 10.6736C16.9541 9.79229 16.4082 8.08358 14.972 8.05017C13.5332 8.01677 13.0434 9.28867 12.9541 10.116C12.8648 10.9409 13.3648 11.5781 13.3648 11.5781C13.3648 11.5781 13.1097 11.6346 13.2194 11.7451C13.3317 11.8556 13.3648 11.9352 13.7092 11.9018C14.0536 11.8684 14.5561 11.6783 15.5128 11.8684C16.472 12.0612 16.7296 12.3078 16.7296 12.3078Z" fill="#1B1C1C"/>
<path d="M15.6378 11.537C15.6378 11.537 15.7806 11.5652 15.9286 11.6089C16.0867 11.6577 16.2066 11.7014 16.2066 11.7014C16.2066 11.7014 16.6174 11.2364 16.6174 10.4321C16.6199 9.47111 15.852 8.39963 14.9541 8.39963C13.9107 8.39963 13.2755 9.18332 13.2883 10.2651C13.301 11.3468 13.6556 11.5036 13.6556 11.5036C13.6556 11.5036 13.8214 11.4805 13.9337 11.4702C14.0434 11.4599 14.2245 11.447 14.2245 11.447C14.2245 11.447 13.7117 11.113 13.6888 10.2625C13.6684 9.41458 14.3827 8.8904 14.9541 8.8904C15.5255 8.8904 15.9617 9.41458 15.9184 9.41458C15.875 9.41458 15.6735 9.31437 15.5051 9.30409C15.3367 9.29124 14.9822 9.4377 14.9541 9.78459C14.926 10.1315 15.2373 10.2959 15.5051 10.3216C16.0281 10.3679 16.1301 9.85139 16.1301 9.85139C16.1301 9.85139 16.2373 10.0415 16.1964 10.522C16.1352 11.2364 15.6378 11.537 15.6378 11.537Z" fill="white"/>
<path d="M7.07654 13.8829C7.07654 13.8829 7.75001 14.3172 8.30103 14.3994C8.8546 14.4816 10.2653 14.7874 12.0663 14.6872C13.8674 14.5844 16.4668 13.9446 16.676 13.8007C16.8878 13.6568 16.9388 13.5001 17.0663 13.3921C17.1939 13.2817 17.2908 13.0504 17.5434 13.4281C17.7934 13.8058 17.8623 13.9317 17.9311 14.0962C17.9975 14.2606 17.7883 14.4045 17.5867 14.4302C17.3852 14.4533 17.1327 14.6358 17.1097 14.9518C17.0867 15.2704 15.3954 18.6159 12.7551 18.7752C10.1123 18.9345 8.40562 16.7479 7.69644 15.5839C6.98725 14.4225 6.69644 14.5998 6.71939 14.2812C6.7398 13.9626 6.90817 13.7827 7.07654 13.8829Z" fill="#1B1C1C"/>
<path d="M7.92602 14.5999C7.92602 14.5999 10.5255 15.25 12.2576 15.1395C13.9898 15.0316 16.1837 14.4817 16.5204 14.2658C16.8546 14.0526 17.0357 14.2967 16.852 14.6256C16.6684 14.9545 16.3112 15.4478 15.602 15.8718C14.8929 16.2983 14.0816 16.4756 14.0816 16.4756C14.0816 16.4756 14.7679 16.3677 15.1658 16.3574C15.5663 16.3471 15.5281 16.8251 15.1454 17.1565C14.7628 17.4854 14.1403 18.3154 12.5 18.3924C10.8597 18.4695 9.86479 17.4315 9.64285 17.1771C9.42347 16.9201 9.39541 16.7583 9.75255 16.7865C10.1071 16.8122 10.6352 16.7351 10.6352 16.7351C10.6352 16.7351 10.0459 16.6118 9.3852 16.4011C8.72194 16.193 8.50255 16.2007 8.20918 15.6225C7.91326 15.0444 7.61224 14.5254 7.92602 14.5999Z" fill="white"/>
<path d="M12.2475 13.5797C12.4566 13.6106 12.8444 13.6003 13.0612 13.5309C13.2423 13.4744 13.3597 13.4076 13.4362 13.3639C13.5128 13.3202 13.4107 13.4872 13.2321 13.5797C12.824 13.7904 12.3265 13.8444 11.8929 13.7493C11.5536 13.6748 11.3214 13.5566 11.2321 13.4179C11.1327 13.2611 11.2168 13.053 11.3776 12.9553C11.5459 12.8551 11.7015 12.8346 11.8036 12.8371C11.9031 12.8397 11.5 12.9708 11.4464 13.1121C11.3903 13.2714 11.6352 13.4847 12.2475 13.5797Z" fill="#1B1C1C"/>
<path d="M8.08162 11.2646C8.08162 11.2646 7.70407 11.0591 7.41581 10.8998C7.12499 10.7405 7.17346 10.6403 7.51275 10.7225C7.85203 10.8047 8.13775 10.8587 8.13775 10.8587L8.08162 11.2646Z" fill="#1B1C1C"/>
<path d="M8.04081 10.6506C8.04081 10.6506 7.67346 10.4296 7.3903 10.2574C7.10713 10.0879 7.15816 9.98764 7.49489 10.0853C7.82907 10.1829 8.11224 10.2497 8.11224 10.2497L8.04081 10.6506Z" fill="#1B1C1C"/>
<path d="M16.8775 11.2646C16.8775 11.2646 17.2525 11.0591 17.5434 10.8998C17.8342 10.7405 17.7857 10.6403 17.4464 10.7225C17.1071 10.8047 16.8214 10.8587 16.8214 10.8587L16.8775 11.2646Z" fill="#1B1C1C"/>
<path d="M16.9184 10.6506C16.9184 10.6506 17.2857 10.4296 17.5689 10.2574C17.8495 10.0879 17.801 9.98764 17.4643 10.0853C17.1301 10.1829 16.8469 10.2497 16.8469 10.2497L16.9184 10.6506Z" fill="#1B1C1C"/>
</svg>
