<?xml version="1.0" standalone="no"?>
<!DOCTYPE svg PUBLIC "-//W3C//DTD SVG 1.1//EN" "http://www.w3.org/Graphics/SVG/1.1/DTD/svg11.dtd" >
<svg xmlns="http://www.w3.org/2000/svg">
<metadata>
This is a custom SVG webfont generated by Font Squirrel.
Copyright   : Generated in 2009 by FontLab Studio Copyright info pending
</metadata>
<defs>
<font id="webfontQZlnbth5" horiz-adv-x="1085" >
<font-face units-per-em="2048" ascent="1536" descent="-512" />
<missing-glyph horiz-adv-x="481" />
<glyph unicode=" "  horiz-adv-x="481" />
<glyph unicode="&#x09;" horiz-adv-x="481" />
<glyph unicode="&#xa0;" horiz-adv-x="481" />
<glyph unicode="!" horiz-adv-x="673" d="M272 0v207h136v-207h-136zM276 461l-2 971h129l-2 -971h-125z" />
<glyph unicode="&#x22;" horiz-adv-x="612" d="M528 946h-114l-4 481h122zM211 946h-117l-2 481h123z" />
<glyph unicode="#" d="M1059 377h-234v-377h-114v377h-342v-377h-115v377h-234v106h234v402h-234v106h234v375h115v-375h342v375h114v-375h234v-106h-234v-402h234v-106zM711 483v402h-342v-402h342z" />
<glyph unicode="$" d="M375 -231l33 223q-137 8 -275 26l10 117q145 -18 283 -29l82 541q-211 45 -300 119t-89 258q0 190 114.5 270t335.5 80q33 0 49 -2l39 246h82l-39 -250q135 -8 271 -27l-6 -114q-154 16 -281 24l-76 -499q117 -25 182.5 -46.5t121 -61.5t77 -100.5t21.5 -154.5 q0 -213 -109.5 -309t-327.5 -96q-12 0 -39.5 1t-41.5 1l-35 -232zM879 387q0 121 -60.5 165t-228.5 79l-82 -531h63q154 0 231 68.5t77 218.5zM250 1026q0 -123 59.5 -172t216.5 -84l76 487h-33q-160 0 -239.5 -51t-79.5 -180z" />
<glyph unicode="%" d="M272.5 1348q-63.5 0 -90 -46.5t-26.5 -142.5q0 -199 116 -198q63 0 89 48t26 148q0 98 -25.5 144.5t-89 46.5zM336 12l346 1434l96 -25l-348 -1431zM51 1159q0 279 221 279q219 0 220 -281q0 -143 -58.5 -215t-161.5 -72q-104 0 -162.5 72t-58.5 217zM629 289 q0 279 219 278.5t219 -280.5q0 -143 -58.5 -215t-161 -72t-160.5 72t-58 217zM731 289q0 -199 117 -199q63 0 89 48t26 149q0 98 -26 144t-89 46q-117 0 -117 -188z" />
<glyph unicode="&#x26;" horiz-adv-x="1433" d="M662 1430q168 0 253.5 -82t85.5 -230q0 -143 -74.5 -227t-248.5 -156l330 -327q41 123 61 284l119 -2q-29 -221 -86 -364l266 -258l-78 -86l-248 239q-82 -129 -191.5 -185t-268.5 -56q-477 0 -478 446q0 295 324 408q-106 121 -106 292q0 137 94 220.5t246 83.5zM586 94 q246 0 364 207l-442 447q-279 -86 -279 -320q1 -334 357 -334zM444 1116q0 -150 93 -239l63 -64q156 61 216.5 123.5t60.5 175.5q0 207 -215 207q-102 0 -160 -55.5t-58 -147.5z" />
<glyph unicode="'" horiz-adv-x="204" d="M39 977l-2 450h123l-4 -450h-117z" />
<glyph unicode="(" horiz-adv-x="532" d="M287 1536h129q-23 -59 -54.5 -158.5t-86 -344.5t-54.5 -417q0 -342 178 -829l17 -43h-129q-23 51 -55.5 139t-88 319.5t-55.5 414t50 411.5t100 369z" />
<glyph unicode=")" horiz-adv-x="532" d="M213 -246h-129q23 59 54.5 158.5t86 344.5t54.5 417q0 342 -179 829l-16 43h129q23 -51 55.5 -139t88 -319.5t55.5 -413.5t-50.5 -411.5t-99.5 -368.5z" />
<glyph unicode="*" d="M907 1042h-284l88 -270l-97 -29l-88 273l-233 -170l-57 78l233 170l-231 170l59 82l231 -170l90 270l99 -31l-90 -270h280v-103z" />
<glyph unicode="+" d="M102 543v123h375v376h131v-376h377v-123h-377v-379h-131v379h-375z" />
<glyph unicode="," horiz-adv-x="348" d="M70 -252l90 455h135l-109 -455h-116z" />
<glyph unicode="-" horiz-adv-x="901" d="M143 496v116h615v-116h-615z" />
<glyph unicode="." horiz-adv-x="507" d="M174 0v207h135v-207h-135z" />
<glyph unicode="/" d="M197 29l569 1417l117 -43l-572 -1417z" />
<glyph unicode="0" d="M541 1372q117 0 200.5 -33.5t148 -112.5t97.5 -223.5t33 -353.5q0 -371 -124 -520t-353 -149q-113 0 -196 31.5t-149.5 105t-100.5 208t-34 326.5q0 209 34 353.5t99.5 223.5t148.5 111.5t196 32.5zM541 1255q-178 0 -261 -130t-83 -476q0 -315 86 -434t260 -119t259 119 t85 436q0 233 -40 368.5t-112.5 185.5t-193.5 50z" />
<glyph unicode="1" d="M160 1069l415 283h121v-1352h-125v1210l-352 -241z" />
<glyph unicode="2" d="M973 0h-864v115l430 438q141 141 203.5 238.5t62.5 214.5q0 131 -78 189t-229 58l-369 -47l-12 113q225 53 401 53q418 0 418 -356q0 -147 -65.5 -257t-198.5 -243l-398 -397h699v-119z" />
<glyph unicode="3" d="M129 1325q219 47 397 47q217 0 316.5 -84t99.5 -262q0 -53 -14.5 -100t-34 -76t-47 -55.5t-46.5 -37.5l-42 -24l-25 -12q82 -27 129 -58.5t81 -102.5t34 -179q0 -401 -428 -401q-90 0 -199.5 12t-173.5 24l-65 11l16 112l68 -11q43 -7 152.5 -18.5t191.5 -11.5 q307 4 307 277q0 145 -77 205.5t-214 66.5h-266v115h264q92 0 175 69.5t83 184.5q0 127 -68.5 183t-220.5 56q-80 0 -175 -11t-150 -21l-54 -11z" />
<glyph unicode="4" d="M717 -6v264h-651v102l417 992h138l-410 -977h506v454h127v-454h172v-117h-172v-264h-127z" />
<glyph unicode="5" d="M170 1352h764v-119h-649l-35 -473q172 88 317 88q197 0 310.5 -95.5t113.5 -303.5q0 -229 -120.5 -347t-323.5 -118q-84 0 -192.5 13t-174.5 28l-65 12l14 113q240 -49 414 -50q141 0 229 89.5t88 254.5q0 287 -303 287q-70 0 -150.5 -23.5t-125.5 -45.5l-45 -23l-107 18 z" />
<glyph unicode="6" d="M948 1333l-12 -112q-184 35 -344 34q-377 0 -379 -505q203 90 352 90q211 0 327 -101.5t116 -306.5q0 -213 -123 -332.5t-338 -119.5q-229 0 -347 182t-118 522q0 688 510 688zM557 725q-156 0 -346 -84q4 -250 86 -397.5t250 -147.5q154 0 242 88t88 248q0 147 -85 220 t-235 73z" />
<glyph unicode="7" d="M119 1233v119h807v-195l-520 -1180l-121 39l510 1153v64h-676z" />
<glyph unicode="8" d="M549 1374q223 0 353 -88t130 -260q0 -127 -59.5 -197.5t-190.5 -119.5q131 -47 201 -124t70 -214q0 -391 -504 -391q-223 0 -360.5 87t-137.5 281q0 145 64.5 223t189.5 138q-119 53 -175 123.5t-56 195.5q0 170 126 258t349 88zM549 94q176 0 272.5 63.5t96.5 217.5 q0 125 -69 181t-202 91h-213q-123 -33 -185.5 -98.5t-62.5 -186.5q1 -268 363 -268zM549 1257q-170 0 -255 -56t-85 -185q0 -102 54 -160.5t171 -97.5h213q125 35 186.5 95t61.5 161q0 129 -87 186t-259 57z" />
<glyph unicode="9" d="M139 23l17 110q184 -37 342 -37q381 0 387 498q-223 -78 -369 -78q-201 0 -315.5 105.5t-114.5 310.5t128 322.5t327 117.5q236 0 354.5 -180t118.5 -524q0 -371 -133 -529.5t-383 -158.5zM526 631q137 0 361 74q-4 262 -89 407t-257 145q-143 0 -233.5 -87t-90.5 -238 q0 -150 81 -225.5t228 -75.5z" />
<glyph unicode=":" horiz-adv-x="333" d="M135 676v209h135v-209h-135zM135 0v207h135v-207h-135z" />
<glyph unicode=";" horiz-adv-x="385" d="M59 -248l95 461h137l-121 -461h-111zM143 676v209h136v-209h-136z" />
<glyph unicode="&#x3c;" d="M862 973l-563 -359l563 -374v-136l-680 443v127l680 430v-131z" />
<glyph unicode="=" d="M123 696v123h840v-123h-840zM123 332v121h840v-121h-840z" />
<glyph unicode="&#x3e;" d="M782 614l-563 359v131l680 -430v-127l-680 -443v136z" />
<glyph unicode="?" horiz-adv-x="790" d="M768 1110q0 -92 -58.5 -186.5t-127 -158t-127 -142t-58.5 -146.5v-78h-125q-4 84 -4 95q0 66 38 134t92 126l109 113q54 56 92 118t38 117q0 127 -63.5 178t-217.5 51q-43 0 -119.5 -12t-132.5 -25l-55 -10l-16 113q217 57 332 57q209 0 306 -79t97 -265zM266 2v203h135 v-203h-135z" />
<glyph unicode="@" horiz-adv-x="2017" d="M1905 625v-35q0 -164 -17.5 -277.5t-44 -178t-75 -99.5t-95.5 -45t-119 -10q-98 0 -149 22.5t-80 95.5q-221 -117 -371 -116q-55 0 -98 8t-94 38.5t-85 85t-56.5 151.5t-22.5 233q0 276 92 410t328 134q45 0 108.5 -13t102.5 -25l41 -15v35h121v-410q0 -256 14 -361.5 t44 -133t105 -27.5q61 0 95 12.5t68 59.5t47.5 150.5t13.5 275.5v37q0 389 -172 562t-574 173q-410 0 -602 -191.5t-192 -635.5q0 -465 185 -648.5t609 -183.5l293 21l6 -117q-201 -20 -299 -21q-238 0 -401.5 45t-283.5 151.5t-177 292t-57 460.5q0 498 229 720t690 222 q459 0 666 -208t207 -644zM958 98q141 0 332 101q-20 109 -20 385v297q-135 47 -236 47q-182 0 -247.5 -102.5t-65.5 -333.5q0 -125 20.5 -208t59.5 -121t74.5 -51.5t82.5 -13.5z" />
<glyph unicode="A" horiz-adv-x="1236" d="M74 0l409 1427h277l405 -1427h-127l-120 391h-603l-114 -391h-127zM575 1315l-229 -807h545l-229 807h-87z" />
<glyph unicode="B" horiz-adv-x="1271" d="M205 1427h483q201 0 309.5 -90t108.5 -260q0 -262 -186 -342q236 -76 235 -334q0 -401 -436 -401h-514v1427zM702 670h-372v-555h385q143 0 227 71.5t84 219.5q0 82 -35 138t-90 81.5t-103.5 35t-95.5 9.5zM684 1313h-354v-531h372q137 0 206 76t69 207q0 248 -293 248z " />
<glyph unicode="C" horiz-adv-x="1095" d="M993 135l6 -115q-217 -41 -374 -40q-154 0 -255.5 49t-155.5 149.5t-74.5 225t-20.5 305.5q0 182 20.5 308t73.5 228.5t155.5 152.5t256.5 50q82 0 176 -10.5t147 -20.5l53 -10l-8 -115q-211 37 -358 37q-123 0 -202 -41t-118 -129t-52 -189.5t-13 -260.5q0 -125 8 -210 t31.5 -166t65.5 -128t112 -76t170 -29q57 0 146 9.5t151 17.5z" />
<glyph unicode="D" horiz-adv-x="1323" d="M702 0h-497v1427h497q139 0 240.5 -54t157 -153.5t81 -218t25.5 -266.5q0 -150 -24.5 -274.5t-79.5 -232t-158 -168t-242 -60.5zM1075 735q0 115 -17.5 212t-58.5 182t-116.5 133.5t-180.5 48.5h-372v-1194h372q104 0 181.5 55t117 148.5t57 195.5t17.5 219z" />
<glyph unicode="E" horiz-adv-x="1161" d="M205 0v1427h831v-116h-706v-527h583v-114h-583v-553h706v-117h-831z" />
<glyph unicode="F" horiz-adv-x="1140" d="M205 0v1427h833v-116h-708v-592h585v-115h-585v-604h-125z" />
<glyph unicode="G" horiz-adv-x="1251" d="M725 612v113h379v-698q-285 -47 -447 -47q-299 0 -416.5 185t-117.5 546q0 178 23.5 305t82 228.5t165 152.5t261.5 51q92 0 205 -13.5t178 -25.5l66 -12l-6 -115q-250 47 -432 47q-102 0 -175 -28.5t-119 -79t-73 -130t-36 -168.5t-9 -212q0 -154 16.5 -258.5 t60.5 -189.5t126 -125t207 -40q55 0 130.5 8.5t129 16.5t55.5 8v481h-254z" />
<glyph unicode="H" horiz-adv-x="1409" d="M1079 0v659h-749v-659h-125v1427h125v-649h749v649h125v-1427h-125z" />
<glyph unicode="I" horiz-adv-x="489" d="M182 0v1427h125v-1427h-125z" />
<glyph unicode="J" horiz-adv-x="626" d="M442 1430l2 -1211q0 -121 -16 -191.5t-62.5 -110.5t-109.5 -52t-176 -12v114q145 0 191 50.5t46 218.5v1194h125z" />
<glyph unicode="K" horiz-adv-x="1218" d="M971 0l-414 645l-227 -4v-641h-125v1427h125v-669l223 4l395 665h148l-430 -714l456 -713h-151z" />
<glyph unicode="L" horiz-adv-x="1062" d="M961 0h-756v1427h125v-1308h631v-119z" />
<glyph unicode="M" horiz-adv-x="1740" d="M205 0v1427h231l434 -1249l439 1249h227v-1427h-125v1292h-29l-440 -1245h-147l-437 1245h-28v-1292h-125z" />
<glyph unicode="N" horiz-adv-x="1413" d="M205 0v1427h246l585 -1302h47v1302h127v-1427h-243l-592 1303h-45v-1303h-125z" />
<glyph unicode="O" horiz-adv-x="1337" d="M668 96q236 0 325.5 139.5t89.5 471.5q0 322 -94 473t-321.5 151t-320.5 -150.5t-93 -473.5q0 -326 91.5 -468.5t322.5 -142.5zM668 -20q-297 0 -421 175t-124 551.5t126 559t419 182.5q295 0 420.5 -182.5t125.5 -558.5q0 -385 -123.5 -556t-422.5 -171z" />
<glyph unicode="P" horiz-adv-x="1247" d="M702 496h-372v-496h-125v1427h497q442 0 443 -446q0 -225 -112 -355t-331 -130zM330 612h372q158 0 236 101.5t78 267.5q0 330 -314 330h-372v-699z" />
<glyph unicode="Q" horiz-adv-x="1337" d="M1026 -293l-166 295q-86 -23 -192 -22q-160 0 -268.5 47t-168 145t-84 225t-24.5 310q0 180 24.5 309t85 230.5t169 151.5t266.5 50q307 0 426.5 -185.5t119.5 -555.5q0 -262 -51 -424t-180 -236l160 -283zM668 96q129 0 212 37t127 119t60 187.5t16 267.5q0 154 -17 261 t-61 193t-128 128t-209 42q-242 0 -328 -152.5t-86 -471.5q0 -158 16.5 -262.5t60.5 -187.5t127 -122t210 -39z" />
<glyph unicode="R" horiz-adv-x="1280" d="M745 563l-49 -2h-366v-561h-125v1427h497q442 0 443 -423q0 -344 -273 -416l291 -588h-139zM1016 1003.5q0 149.5 -79 228.5t-235 79h-372v-635h375q164 0 237.5 89t73.5 238.5z" />
<glyph unicode="S" horiz-adv-x="1093" d="M963 1413l-9 -113q-274 33 -393 33q-156 0 -237.5 -64.5t-81.5 -187.5q0 -139 75.5 -196.5t276.5 -98.5q219 -47 310 -124.5t91 -247.5q0 -223 -107.5 -326.5t-332.5 -103.5q-74 0 -180.5 8t-177.5 16l-70 10l10 115q270 -33 412 -33q319 0 319 306q0 119 -71.5 175 t-255.5 93q-233 49 -329.5 132t-96.5 273q0 184 114.5 278.5t327.5 94.5z" />
<glyph unicode="T" horiz-adv-x="1013" d="M18 1309v118h975v-118h-422v-1309h-125v1309h-428z" />
<glyph unicode="U" horiz-adv-x="1316" d="M301 418q0 -317 350 -318q365 0 365 318v1009h125v-1009q0 -436 -490 -436q-475 0 -475 436v1009h125v-1009z" />
<glyph unicode="V" horiz-adv-x="1202" d="M999 1427h129l-372 -1427h-303l-379 1427h129l348 -1312h106z" />
<glyph unicode="W" horiz-adv-x="1820" d="M92 1427h127l270 -1312h66l285 1292h141l291 -1292h67l263 1312h127l-291 -1427h-258l-271 1241l-260 -1241h-258z" />
<glyph unicode="X" horiz-adv-x="1189" d="M223 1427l373 -626l371 626h143l-428 -718l428 -709h-143l-369 618l-375 -618h-143l434 709l-434 718h143z" />
<glyph unicode="Y" horiz-adv-x="1122" d="M625 612v-612h-125v612l-447 815h142l368 -677l363 677h141z" />
<glyph unicode="Z" horiz-adv-x="1167" d="M133 1311v116h901v-172l-755 -1097v-41h755v-119h-901v172l756 1096v45h-756z" />
<glyph unicode="[" horiz-adv-x="614" d="M498 1534v-117h-285v-1552h285v-117h-410v1786h410z" />
<glyph unicode="\" horiz-adv-x="1083" d="M909 20l-125 -20l-620 1415l127 21z" />
<glyph unicode="]" horiz-adv-x="614" d="M90 1417v117h410v-1786h-410v117h285v1552h-285z" />
<glyph unicode="^" d="M834 672l-299 557l-287 -557h-133l354 680h129l371 -680h-135z" />
<glyph unicode="_" d="M55 -172h975v-115h-975v115z" />
<glyph unicode="`" horiz-adv-x="1116" d="M324 1522l426 -195l-43 -100l-431 182z" />
<glyph unicode="a" horiz-adv-x="1064" d="M872 715v-535q29 -80 136 -92l-9 -106q-150 0 -225 81q-174 -84 -368 -83q-125 0 -204 85t-79 224q0 272 305 303l322 31v94q0 111 -48.5 161t-144.5 50q-72 0 -166 -7.5t-153 -15.5l-58 -6l-6 107q227 37 387 36.5t235.5 -80t75.5 -247.5zM750 522l-308 -26 q-195 -18 -194 -205q0 -88 48 -146.5t122 -58.5q78 0 161 17.5t126 35.5l45 17v366z" />
<glyph unicode="b" horiz-adv-x="1105" d="M631 1042q197 0 279.5 -133t82.5 -379q0 -272 -105.5 -411t-369.5 -139q-57 0 -135 5t-127 11l-49 4v1479h123v-504q141 67 301 67zM516 88q109 0 181.5 33t107.5 97.5t48 136t13 173.5q0 190 -54 297t-189 107q-160 0 -293 -62v-772q125 -10 186 -10z" />
<glyph unicode="c" horiz-adv-x="894" d="M549 1042q43 0 105.5 -5t103.5 -11l39 -6l-6 -109q-145 20 -224 21q-174 0 -243.5 -94.5t-69.5 -307.5q0 -236 64.5 -337t250.5 -101l226 17l4 -107q-156 -23 -252 -22q-240 0 -330 126.5t-90 423.5q0 268 99.5 390t322.5 122z" />
<glyph unicode="d" horiz-adv-x="1105" d="M913 1479v-1479h-122v66q-156 -86 -306 -86q-358 0 -358 524q0 270 102.5 404t323.5 134q90 0 238 -24v461h122zM496 90q59 0 132.5 20.5t116.5 41.5l46 20v741q-129 20 -232 21q-164 0 -235.5 -108.5t-71.5 -325.5q0 -410 244 -410z" />
<glyph unicode="e" horiz-adv-x="1038" d="M520 90q66 0 157 4t150 8l58 7l4 -101q-211 -29 -375 -28q-211 0 -303 136t-92 392q0 270 109.5 402t303.5 132q393 0 394 -483l-4 -98h-678q4 -371 276 -371zM244 561h559q0 199 -66.5 287t-204.5 88q-135 0 -211.5 -91t-76.5 -284z" />
<glyph unicode="f" horiz-adv-x="679" d="M317 915v-915h-120v915h-131v109h131v104q0 203 61 287t207 84l182 -12v-105q-104 6 -164 7q-92 0 -129 -58.5t-37 -204.5v-102h310v-109h-310z" />
<glyph unicode="g" horiz-adv-x="1048" d="M530 -489q-213 0 -316 73.5t-103 245.5q0 82 42 139.5t126 120.5q-53 33 -54 137q0 16 17.5 57.5t33.5 73.5l17 33q-168 84 -168 305q0 162 100.5 255t259.5 93q45 0 91.5 -6t70.5 -14l23 -6l313 6v-109h-207q80 -76 80 -219q0 -342 -377 -342q-47 0 -96 8 q-39 -100 -39 -126q0 -47 14.5 -65.5t62.5 -27t167 -8.5q211 0 299 -58.5t88 -223.5q0 -170 -117 -256t-328 -86zM580 29l-218 8q-72 -59 -100.5 -98t-28.5 -101q0 -117 74 -168t225 -51q154 0 235 58.5t81 171t-59 146.5t-209 34zM479 459q252 0 252 237q0 242 -248 242 q-113 0 -174 -63.5t-61 -178.5q0 -237 231 -237z" />
<glyph unicode="h" horiz-adv-x="1157" d="M313 0h-120v1479h120v-508q172 72 314 71q201 0 270.5 -113.5t69.5 -396.5v-532h-123v530q0 223 -45 312.5t-187 89.5q-137 0 -299 -70v-862z" />
<glyph unicode="i" horiz-adv-x="466" d="M172 0v1024h123v-1024h-123zM172 1276v154h123v-154h-123z" />
<glyph unicode="j" horiz-adv-x="495" d="M201 12v1012h123v-1014q0 -184 -61.5 -274t-258.5 -199l-53 105q158 92 204 160.5t46 209.5zM201 1274v153h123v-153h-123z" />
<glyph unicode="k" horiz-adv-x="1007" d="M330 0h-123v1479h123v-873l155 4l324 414h141l-356 -469l358 -555h-139l-326 492l-157 -7v-485z" />
<glyph unicode="l" horiz-adv-x="483" d="M180 0v1479h123v-1479h-123z" />
<glyph unicode="m" horiz-adv-x="1777" d="M344 0h-121v1024h121v-74q158 92 295 92q98 0 155.5 -25.5t102.5 -76.5q215 102 365 102q201 0 270.5 -113.5t69.5 -396.5v-532h-123v526q0 227 -44 316.5t-188 89.5q-137 0 -305 -88q39 -102 39 -312v-532h-123v528q0 221 -49 312.5t-184 91.5q-137 0 -281 -88v-844z " />
<glyph unicode="n" horiz-adv-x="1167" d="M330 0h-123v1024h123v-74q158 92 313 92q201 0 270.5 -113.5t69.5 -396.5v-532h-123v530q0 223 -45 312.5t-186 89.5q-68 0 -142.5 -21.5t-115.5 -42.5l-41 -22v-846z" />
<glyph unicode="o" horiz-adv-x="1079" d="M543 1042q219 0 317 -128t98 -388q0 -276 -91 -411t-324 -135q-238 0 -330 131t-92 417q0 266 95.5 390t326.5 124zM543 88q174 0 231 105.5t57 332.5q0 209 -67.5 308.5t-220.5 99.5q-164 0 -230.5 -94.5t-66.5 -311.5q0 -236 60.5 -338t236.5 -102z" />
<glyph unicode="p" horiz-adv-x="1107" d="M207 -461v1485h123v-74q141 92 305 92q360 0 360 -518q0 -283 -103.5 -413.5t-334.5 -130.5q-131 0 -227 22v-463h-123zM623 932q-66 0 -139.5 -21.5t-114.5 -44.5l-39 -22v-733q121 -23 221 -23q174 0 246.5 105.5t72.5 334.5q0 193 -63 298.5t-184 105.5z" />
<glyph unicode="q" horiz-adv-x="1103" d="M512 -20q-207 0 -296 131t-89 383q0 283 107.5 415.5t355.5 132.5l323 -18v-1485h-122v506q-125 -65 -279 -65zM592 934q-188 0 -263 -105.5t-75 -330.5q0 -199 59.5 -303.5t202.5 -104.5q68 0 136.5 16.5t103.5 32.5l35 17v766q-133 12 -199 12z" />
<glyph unicode="r" horiz-adv-x="727" d="M188 0v1024h123v-145q164 125 359 165v-124q-180 -39 -359 -154v-766h-123z" />
<glyph unicode="s" horiz-adv-x="995" d="M831 1010l-4 -107q-215 31 -344 31q-231 0 -231 -176q0 -76 51 -112t205 -60q207 -33 282.5 -90.5t75.5 -198.5q0 -172 -99 -244.5t-286 -72.5l-344 36l8 107q221 -35 326 -35q139 0 204.5 44t65.5 159q0 88 -52 120.5t-218 61.5q-188 33 -266 90.5t-78 190.5 q0 152 101.5 220t248.5 68q70 0 158 -8t143 -16z" />
<glyph unicode="t" horiz-adv-x="749" d="M659 913h-323v-501q0 -186 30.5 -254t131.5 -68l172 10l8 -104q-119 -18 -191 -19q-150 0 -212 83t-62 288v565h-150v109h150v324h123v-324h323v-109z" />
<glyph unicode="u" horiz-adv-x="1142" d="M827 1024h123v-1024h-123v72q-156 -92 -297 -92q-199 0 -269.5 112.5t-70.5 396.5v535h123v-530q0 -231 45 -317.5t187 -86.5q61 0 132 21.5t109 44.5l41 20v848z" />
<glyph unicode="v" horiz-adv-x="985" d="M68 1024h129l258 -920h73l265 920h125l-295 -1024h-263z" />
<glyph unicode="w" horiz-adv-x="1552" d="M70 1024h125l221 -913h47l248 893h131l248 -893h47l221 913h125l-252 -1024h-232l-225 844l-227 -844h-228z" />
<glyph unicode="x" horiz-adv-x="940" d="M72 1024h135l262 -422l264 422h133l-323 -512l323 -512h-137l-260 422l-260 -422h-135l321 512z" />
<glyph unicode="y" horiz-adv-x="985" d="M66 1024h124l265 -909h73l267 909h125l-437 -1485h-125l140 461h-138z" />
<glyph unicode="z" horiz-adv-x="983" d="M121 913v111h739l2 -111l-596 -802h596v-111h-737l-4 111l598 802h-598z" />
<glyph unicode="{" horiz-adv-x="610" d="M348 348q0 -37 -7 -119t-7 -120q0 -125 54 -184.5t202 -67.5l-4 -117q-203 8 -292 92t-89 268q0 43 7 136.5t7 115.5q0 92 -46 145.5t-161 86.5v106q115 29 161 82t46 148q0 27 -7 124t-7 138q0 186 88 269t293 91l4 -117q-150 -8 -203 -65t-53 -184q0 -35 7 -127.5 t7 -120.5q0 -129 -45 -190.5t-160 -98.5q113 -37 159 -100.5t46 -190.5z" />
<glyph unicode="|" d="M469 -512v2048h125v-2048h-125z" />
<glyph unicode="}" horiz-adv-x="610" d="M246 928q0 37 7 118.5t7 120.5q0 125 -54 184.5t-202 67.5l4 117q203 -8 292 -92t89 -268q0 -43 -7 -136.5t-7 -115.5q0 -92 46 -145.5t161 -86.5v-106q-115 -29 -161 -82t-46 -148q0 -27 7 -124t7 -138q0 -186 -88 -269t-293 -91l-4 116q150 8 203 65.5t53 184.5 q0 35 -7 127t-7 121q0 129 45 190.5t160 98.5q-113 37 -159 100.5t-46 190.5z" />
<glyph unicode="~" d="M936 766l14 -121q-12 -12 -32.5 -29.5t-77 -47t-103.5 -29.5q-63 0 -202.5 53t-182.5 53q-80 0 -202 -102l-17 119q12 12 34.5 30.5t81 48t107.5 29.5q66 0 203 -52t180 -52q78 0 197 100z" />
<glyph unicode="&#xa1;" horiz-adv-x="673" d="M408 1022v-207h-136v207h136zM403 561l3 -971h-130l3 971h124z" />
<glyph unicode="&#xa2;" horiz-adv-x="894" d="M459 -170v248q-193 8 -278 101t-85 329q0 221 91.5 326.5t269.5 113.5v252h110v-256l219 -20l-6 -113q-195 16 -272 16q-156 0 -218.5 -71.5t-62.5 -247.5q0 -180 61.5 -244.5t235.5 -64.5l260 14l4 -113q-133 -16 -219 -20v-250h-110z" />
<glyph unicode="&#xa3;" d="M907 1362l-4 -107q-215 20 -278 21q-109 0 -149 -61.5t-40 -247.5v-115h451v-113h-451v-624h342l160 32l23 -110l-166 -35q-106 0 -342 -1t-342 -1v115h204v624h-163v113h163v115q0 246 67 336t224 90z" />
<glyph unicode="&#xa4;" horiz-adv-x="1083" d="M895 76l-143 143q-94 -66 -210 -65.5t-210 67.5l-142 -145l-88 88l146 141q-68 94 -68 210t66 210l-144 143l88 88l142 -145q94 66 209.5 66t210.5 -66l143 145l88 -88l-145 -143q66 -94 65.5 -210t-65.5 -210l145 -141zM369 342q72 -70 173 -70t173 70q72 72 71.5 174 t-72 172t-173 70t-172.5 -70q-70 -70 -70 -172t70 -174z" />
<glyph unicode="&#xa5;" horiz-adv-x="1105" d="M96 651v111h314l-375 590h141l379 -598l373 598h143l-371 -590h308v-111h-369l-21 -35v-161h392v-109h-392v-346h-126v346h-394v109h394v161l-21 35h-375z" />
<glyph unicode="&#xa6;" d="M467 1536h125v-848h-125v848zM467 358h125v-870h-125v870z" />
<glyph unicode="&#xa7;" d="M883 1309l-6 -105q-219 27 -318 27q-135 0 -199.5 -48t-64.5 -153q0 -113 63.5 -153.5t233.5 -69.5q178 -33 255 -91.5t77 -201.5q0 -55 -19.5 -118.5t-37 -97.5t-29.5 -50q76 -59 75 -199q0 -336 -376 -336q-57 0 -146.5 8.5t-148.5 16.5l-60 8l13 104q223 -31 335 -30 q264 0 265 223q0 102 -62.5 136t-234.5 63q-184 31 -267.5 94t-83.5 207q0 82 45.5 157.5t71.5 96.5q-90 68 -90 229q0 158 98.5 235.5t280.5 77.5zM547 702q-150 27 -199 50q-78 -117 -78 -193q0 -96 59.5 -140t198.5 -67q147 -25 217 -55l17 33q12 25 25.5 76t13.5 94 q0 100 -57.5 138.5t-196.5 63.5z" />
<glyph unicode="&#xa8;" horiz-adv-x="1556" d="M207 1290v162h119v-162h-119zM608 1290v162h119v-162h-119z" />
<glyph unicode="&#xa9;" d="M20 889q0 227 149.5 386t373 159t374 -159t150.5 -386t-150.5 -385t-374 -158t-373 158t-149.5 385zM86 889q0 -201 130 -339t326.5 -138t327.5 138t131 339t-131 340t-327.5 139t-326.5 -139t-130 -340zM692 657l2 -65q-88 -16 -151 -17q-127 0 -175.5 79t-48.5 233 q0 156 47.5 235.5t176.5 79.5l151 -14l-2 -66q-84 14 -149 15q-100 0 -129 -57.5t-29 -192.5q0 -127 33 -186.5t125 -59.5z" />
<glyph unicode="&#xaa;" d="M711 1167v-260q12 -43 67 -51l-6 -80q-80 4 -123 43q-125 -43 -231 -43q-74 0 -117 47t-43 129q0 154 168 166l192 12v39q0 53 -20 76t-72 23l-227 -15l-4 84q164 18 240 19q176 -1 176 -189zM618 1053l-180 -11q-45 -2 -65.5 -23.5t-20.5 -68.5q0 -88 76 -88 q35 0 83 7.5t79 15.5l28 8v160z" />
<glyph unicode="&#xab;" horiz-adv-x="1046" d="M473 717l-264 -203l264 -223v-131l-371 299v104l371 283v-129zM924 717l-262 -203l262 -223v-131l-371 299v104l371 283v-129z" />
<glyph unicode="&#xac;" d="M131 698h827v-456h-120v338h-707v118z" />
<glyph unicode="&#xad;" horiz-adv-x="901" d="M143 496v116h615v-116h-615z" />
<glyph unicode="&#xae;" d="M20 889q0 227 149.5 386t373 159t374 -159t150.5 -386t-150.5 -385t-374 -158t-373 158t-149.5 385zM86 889q0 -201 130 -339t326.5 -138t327.5 138t131 339t-131 340t-327.5 139t-326.5 -139t-130 -340zM696 565l-135 269h-162v-269h-65v645h186q131 0 183.5 -41 t52.5 -143q0 -156 -121 -186l133 -275h-72zM563 899q70 0 98.5 27.5t28.5 99.5q0 68 -39 93.5t-125 25.5h-127v-246h164z" />
<glyph unicode="&#xaf;" horiz-adv-x="933" d="M176 1305v108h578v-108h-578z" />
<glyph unicode="&#xb0;" d="M213 1155q0 127 80 206t207 79t205.5 -79t78.5 -206t-78.5 -206t-205.5 -79t-207 79t-80 206zM305 1155q0 -90 53.5 -143.5t141.5 -53.5q90 0 144 54.5t54 142.5q0 90 -54 144.5t-144 54.5q-88 0 -141.5 -54.5t-53.5 -144.5z" />
<glyph unicode="&#xb1;" d="M100 584v123h377v309h131v-309h377v-123h-377v-283h-131v283h-377zM100 223h885v-123h-885v123z" />
<glyph unicode="&#xb2;" horiz-adv-x="542" d="M467 979h-418v98l189 191q55 55 80.5 94t25.5 86q0 84 -106 84l-177 -21l-6 101q117 25 203 24q199 0 199 -180q0 -68 -31 -121t-98 -116l-135 -140h274v-100z" />
<glyph unicode="&#xb3;" horiz-adv-x="542" d="M63 1616q115 20 205 20q209 0 209 -168q0 -102 -88 -155q55 -18 81 -49t26 -109q0 -197 -215 -197l-226 23l6 96q115 -16 209 -16q111 0 111 96q0 100 -105 100h-133v97h131q33 0 62 30.5t29 73.5q0 78 -105 78l-190 -16z" />
<glyph unicode="&#xb4;" horiz-adv-x="1169" d="M276 1327l426 195l48 -113l-431 -182z" />
<glyph unicode="&#xb5;" d="M184 -467v1491h123v-539q0 -225 45 -310t189 -85q135 0 280 84v850h123v-1024h-123v72q-156 -92 -291 -92q-82 0 -137 26.5t-68.5 46t-17.5 31.5v-551h-123z" />
<glyph unicode="&#x3bc;" d="M184 -467v1491h123v-539q0 -225 45 -310t189 -85q135 0 280 84v850h123v-1024h-123v72q-156 -92 -291 -92q-82 0 -137 26.5t-68.5 46t-17.5 31.5v-551h-123z" />
<glyph unicode="&#xb6;" d="M782 0v1329h-258v-1329h-112v694h-15q-164 0 -272.5 102.5t-108.5 264.5q0 164 108.5 268.5t272.5 104.5h674v-105h-176v-1329h-113z" />
<glyph unicode="&#xb7;" horiz-adv-x="507" d="M174 520v207h135v-207h-135z" />
<glyph unicode="&#xb8;" horiz-adv-x="1705" d="M1149 -260q0 -168 -182 -168l-172 12l4 84q84 -8 145 -8q92 0 92 84q0 76 -92 76h-96v182h78v-108q121 0 172 -32t51 -122z" />
<glyph unicode="&#xb9;" horiz-adv-x="542" d="M68 1477l206 141h105v-639h-111v518l-149 -102z" />
<glyph unicode="&#xba;" d="M514 1356q125 0 186.5 -68.5t61.5 -218.5q0 -293 -248 -293t-248 293q0 287 248 287zM514 866q82 0 116 46t34 157q0 109 -35 153t-115 44t-114.5 -45t-34.5 -152q0 -109 34.5 -156t114.5 -47z" />
<glyph unicode="&#xbb;" horiz-adv-x="1046" d="M838 520l-265 201v129l371 -283v-104l-371 -299v133zM385 520l-262 201v129l371 -283v-104l-371 -299v133z" />
<glyph unicode="&#xbf;" horiz-adv-x="790" d="M33 -86q0 92 58.5 186.5t127 158t126.5 142t58 146.5v78h125q4 -84 4 -95q0 -66 -37.5 -134t-92.5 -126l-108 -113q-54 -56 -92 -118t-38 -117q0 -127 63.5 -178t216.5 -51q43 0 120 12t132 25l56 10l16 -113q-217 -57 -332 -57q-209 0 -306 79t-97 265zM535 1022v-203 h-136v203h136z" />
<glyph unicode="&#xc0;" horiz-adv-x="1236" d="M74 0l409 1427h277l405 -1427h-127l-120 391h-603l-114 -391h-127zM575 1315l-229 -807h545l-229 807h-87zM406 1905l425 -195l-43 -98l-430 180z" />
<glyph unicode="&#xc1;" horiz-adv-x="1236" d="M74 0l409 1427h277l405 -1427h-127l-120 391h-603l-114 -391h-127zM575 1315l-229 -807h545l-229 807h-87zM389 1716l426 195l47 -113l-430 -182z" />
<glyph unicode="&#xc2;" horiz-adv-x="1236" d="M74 0l409 1427h277l405 -1427h-127l-120 391h-603l-114 -391h-127zM575 1315l-229 -807h545l-229 807h-87zM289 1636l274 269h109l272 -269h-145l-181 170l-180 -170h-149z" />
<glyph unicode="&#xc3;" horiz-adv-x="1236" d="M74 0l409 1427h277l405 -1427h-127l-120 391h-603l-114 -391h-127zM575 1315l-229 -807h545l-229 807h-87zM948 1870l33 -94q-109 -117 -182 -117q-51 0 -177 60.5t-155 60.5q-20 0 -61 -25.5t-72 -52.5l-31 -27l-31 97q117 119 195 118q53 0 178 -59t152 -59 q40 0 151 98z" />
<glyph unicode="&#xc4;" horiz-adv-x="1236" d="M74 0l409 1427h277l405 -1427h-127l-120 391h-603l-114 -391h-127zM575 1315l-229 -807h545l-229 807h-87zM352 1694v161h119v-161h-119zM766 1694v161h119v-161h-119z" />
<glyph unicode="&#xc5;" horiz-adv-x="1236" d="M846 1536q0 -100 -72 -160l391 -1376h-127l-120 391h-603l-114 -391h-127l393 1374q-74 55 -74 162q0 94 62.5 149.5t163 55.5t164 -55.5t63.5 -149.5zM575 1315l-229 -807h545l-229 807h-87zM498 1536q0 -92 84 -109h73q86 16 86 109q0 111 -123 111q-120 0 -120 -111z " />
<glyph unicode="&#xc6;" horiz-adv-x="1716" d="M758 0v391h-469l-117 -391h-127l410 1427h1134v-116h-706v-527h583v-114h-583v-553h706v-117h-831zM547 1311l-230 -803h441v803h-211z" />
<glyph unicode="&#xc7;" horiz-adv-x="1099" d="M872 -260q0 -168 -182 -168l-172 12l4 84q84 -8 146 -8q92 0 92 84q0 76 -92 76h-97v162q-262 16 -357 194t-95 533q0 182 20.5 308t73.5 228.5t155.5 152.5t256.5 50q82 0 176 -10.5t147 -20.5l53 -10l-8 -115q-211 37 -358 37q-123 0 -202 -41t-118 -129t-52 -189.5 t-13 -260.5q0 -125 8 -210t31.5 -166t65.5 -128t112 -76t170 -29q57 0 146 9.5t151 17.5l59 8l6 -115q-197 -37 -350 -40v-86q121 0 172 -32t51 -122z" />
<glyph unicode="&#xc8;" horiz-adv-x="1161" d="M205 0v1427h831v-116h-706v-527h583v-114h-583v-553h706v-117h-831zM416 1905l426 -195l-43 -98l-430 180z" />
<glyph unicode="&#xc9;" horiz-adv-x="1161" d="M205 0v1427h831v-116h-706v-527h583v-114h-583v-553h706v-117h-831zM420 1716l426 195l47 -113l-430 -182z" />
<glyph unicode="&#xca;" horiz-adv-x="1161" d="M205 0v1427h831v-116h-706v-527h583v-114h-583v-553h706v-117h-831zM295 1638l274 269h109l272 -269h-145l-180 170l-181 -170h-149z" />
<glyph unicode="&#xcb;" horiz-adv-x="1161" d="M205 0v1427h831v-116h-706v-527h583v-114h-583v-553h706v-117h-831zM375 1694v161h119v-161h-119zM788 1694v161h119v-161h-119z" />
<glyph unicode="&#xcc;" horiz-adv-x="489" d="M182 0v1427h125v-1427h-125zM35 1905l426 -195l-43 -98l-430 180z" />
<glyph unicode="&#xcd;" horiz-adv-x="489" d="M182 0v1427h125v-1427h-125zM23 1716l426 195l47 -113l-430 -182z" />
<glyph unicode="&#xce;" horiz-adv-x="489" d="M182 0v1427h125v-1427h-125zM-84 1638l274 269h109l272 -269h-145l-180 170l-180 -170h-150z" />
<glyph unicode="&#xcf;" horiz-adv-x="489" d="M182 0v1427h125v-1427h-125zM-6 1700v162h119v-162h-119zM408 1700v162h118v-162h-118z" />
<glyph unicode="&#xd0;" horiz-adv-x="1323" d="M47 655v119h158v653h497q139 0 240.5 -54t157 -153.5t81 -218t25.5 -266.5q0 -150 -24.5 -274.5t-79.5 -232t-157.5 -168t-242.5 -60.5h-497v655h-158zM1075 735q0 115 -17.5 212t-58.5 182t-116.5 133.5t-180.5 48.5h-372v-537h327v-119h-327v-538h372q104 0 181.5 55 t117 148.5t57 195.5t17.5 219z" />
<glyph unicode="&#xd1;" horiz-adv-x="1413" d="M205 0v1427h246l585 -1302h47v1302h127v-1427h-243l-592 1303h-45v-1303h-125zM1038 1866l33 -94q-109 -117 -182 -117q-51 0 -177 60.5t-155 60.5q-20 0 -61 -26t-72 -52l-31 -27l-31 96q117 119 195 119q53 0 178 -59.5t152 -59.5q40 1 151 99z" />
<glyph unicode="&#xd2;" horiz-adv-x="1337" d="M668 96q236 0 325.5 139.5t89.5 471.5q0 322 -94 473t-321.5 151t-320.5 -150.5t-93 -473.5q0 -326 91.5 -468.5t322.5 -142.5zM668 -20q-297 0 -421 175t-124 551.5t126 559t419 182.5q295 0 420.5 -182.5t125.5 -558.5q0 -385 -123.5 -556t-422.5 -171zM477 1905 l426 -195l-43 -98l-430 180z" />
<glyph unicode="&#xd3;" horiz-adv-x="1337" d="M668 96q236 0 325.5 139.5t89.5 471.5q0 322 -94 473t-321.5 151t-320.5 -150.5t-93 -473.5q0 -326 91.5 -468.5t322.5 -142.5zM668 -20q-297 0 -421 175t-124 551.5t126 559t419 182.5q295 0 420.5 -182.5t125.5 -558.5q0 -385 -123.5 -556t-422.5 -171zM424 1716 l426 195l47 -113l-430 -182z" />
<glyph unicode="&#xd4;" horiz-adv-x="1337" d="M668 96q236 0 325.5 139.5t89.5 471.5q0 322 -94 473t-321.5 151t-320.5 -150.5t-93 -473.5q0 -326 91.5 -468.5t322.5 -142.5zM668 -20q-297 0 -421 175t-124 551.5t126 559t419 182.5q295 0 420.5 -182.5t125.5 -558.5q0 -385 -123.5 -556t-422.5 -171zM344 1645 l274 268h109l272 -268h-145l-180 170l-180 -170h-150z" />
<glyph unicode="&#xd5;" horiz-adv-x="1337" d="M668 96q236 0 325.5 139.5t89.5 471.5q0 322 -94 473t-321.5 151t-320.5 -150.5t-93 -473.5q0 -326 91.5 -468.5t322.5 -142.5zM668 -20q-297 0 -421 175t-124 551.5t126 559t419 182.5q295 0 420.5 -182.5t125.5 -558.5q0 -385 -123.5 -556t-422.5 -171zM999 1866 l33 -94q-109 -117 -182 -117q-51 0 -177 60.5t-155 60.5q-20 0 -61 -26t-72 -52l-31 -27l-30 96q117 119 194 119q51 0 176 -59.5t154 -59.5q40 1 151 99z" />
<glyph unicode="&#xd6;" horiz-adv-x="1337" d="M668 96q236 0 325.5 139.5t89.5 471.5q0 322 -94 473t-321.5 151t-320.5 -150.5t-93 -473.5q0 -326 91.5 -468.5t322.5 -142.5zM668 -20q-297 0 -421 175t-124 551.5t126 559t419 182.5q295 0 420.5 -182.5t125.5 -558.5q0 -385 -123.5 -556t-422.5 -171zM418 1694v161 h119v-161h-119zM831 1694v161h119v-161h-119z" />
<glyph unicode="&#xd7;" d="M262 958l291 -296l303 296l86 -86l-297 -303l297 -290l-92 -93l-297 297l-297 -299l-88 88l299 297l-297 297z" />
<glyph unicode="&#xd8;" horiz-adv-x="1343" d="M668 -20q-150 0 -258 45l-121 -258l-92 40l125 269q-199 156 -199 631q0 377 126 559t419 182q162 0 272 -55l111 235l92 -37l-119 -256q190 -168 190 -628q0 -385 -123.5 -556t-422.5 -171zM254 707q0 -379 125 -510l508 1083q-90 51 -219 51q-227 0 -320.5 -150 t-93.5 -474zM668 96q236 0 325.5 139.5t89.5 471.5q0 365 -118 505l-504 -1077q80 -39 207 -39z" />
<glyph unicode="&#xd9;" horiz-adv-x="1316" d="M301 418q0 -317 350 -318q365 0 365 318v1009h125v-1009q0 -436 -490 -436q-475 0 -475 436v1009h125v-1009zM463 1905l426 -195l-43 -98l-430 180z" />
<glyph unicode="&#xda;" horiz-adv-x="1316" d="M301 418q0 -317 350 -318q365 0 365 318v1009h125v-1009q0 -436 -490 -436q-475 0 -475 436v1009h125v-1009zM416 1716l426 195l47 -113l-430 -182z" />
<glyph unicode="&#xdb;" horiz-adv-x="1316" d="M301 418q0 -317 350 -318q365 0 365 318v1009h125v-1009q0 -436 -490 -436q-475 0 -475 436v1009h125v-1009zM332 1636l274 269h109l272 -269h-145l-180 170l-181 -170h-149z" />
<glyph unicode="&#xdc;" horiz-adv-x="1316" d="M301 418q0 -317 350 -318q365 0 365 318v1009h125v-1009q0 -436 -490 -436q-475 0 -475 436v1009h125v-1009zM408 1700v162h118v-162h-118zM821 1700v162h119v-162h-119z" />
<glyph unicode="&#xdd;" horiz-adv-x="1122" d="M625 612v-612h-125v612l-447 815h142l368 -677l363 677h141zM340 1716l426 195l47 -113l-430 -182z" />
<glyph unicode="&#xde;" horiz-adv-x="1247" d="M702 379q160 0 237 98t77 264q0 330 -314 330h-372v-692h372zM702 258h-372v-258h-125v1427h125v-237h372q442 0 443 -449q0 -225 -111 -354t-332 -129z" />
<glyph unicode="&#xdf;" horiz-adv-x="1226" d="M313 0h-125v1128q0 205 91.5 288t293.5 83q207 0 293 -66.5t86 -220.5q0 -102 -36.5 -158.5t-116.5 -97.5q-76 -39 -102.5 -64.5t-26.5 -64.5q0 -23 8 -38t48 -43.5t120 -67.5q158 -80 211 -136.5t53 -164.5q0 -219 -91 -307t-302 -88l-238 16l8 106q188 -8 224 -8 q154 0 212 61.5t58 215.5q0 70 -45 110.5t-182 106.5q-129 59 -171 108.5t-42 126.5q0 76 35.5 116t128.5 87q66 31 92 70t26 108q0 100 -55 139t-194.5 39t-200 -56t-60.5 -220v-1108z" />
<glyph unicode="&#xe0;" horiz-adv-x="1093" d="M872 715v-535q29 -80 136 -92l-9 -106q-150 0 -225 81q-174 -84 -368 -83q-125 0 -204 85t-79 224q0 272 305 303l322 31v94q0 111 -48.5 161t-144.5 50q-72 0 -166 -7.5t-153 -15.5l-58 -6l-6 107q227 37 387 36.5t235.5 -80t75.5 -247.5zM750 522l-308 -26 q-195 -18 -194 -205q0 -88 48 -146.5t122 -58.5q78 0 161 17.5t126 35.5l45 17v366zM324 1522l426 -195l-43 -100l-431 182z" />
<glyph unicode="&#xe1;" horiz-adv-x="1093" d="M872 715v-535q29 -80 136 -92l-9 -106q-150 0 -225 81q-174 -84 -368 -83q-125 0 -204 85t-79 224q0 272 305 303l322 31v94q0 111 -48.5 161t-144.5 50q-72 0 -166 -7.5t-153 -15.5l-58 -6l-6 107q227 37 387 36.5t235.5 -80t75.5 -247.5zM750 522l-308 -26 q-195 -18 -194 -205q0 -88 48 -146.5t122 -58.5q78 0 161 17.5t126 35.5l45 17v366zM326 1327l426 195l47 -113l-430 -182z" />
<glyph unicode="&#xe2;" horiz-adv-x="1093" d="M872 715v-535q29 -80 136 -92l-9 -106q-150 0 -225 81q-174 -84 -368 -83q-125 0 -204 85t-79 224q0 272 305 303l322 31v94q0 111 -48.5 161t-144.5 50q-72 0 -166 -7.5t-153 -15.5l-58 -6l-6 107q227 37 387 36.5t235.5 -80t75.5 -247.5zM750 522l-308 -26 q-195 -18 -194 -205q0 -88 48 -146.5t122 -58.5q78 0 161 17.5t126 35.5l45 17v366zM203 1219l252 290h98l256 -290h-139l-164 184l-164 -184h-139z" />
<glyph unicode="&#xe3;" horiz-adv-x="1093" d="M872 715v-535q29 -80 136 -92l-9 -106q-150 0 -225 81q-174 -84 -368 -83q-125 0 -204 85t-79 224q0 272 305 303l322 31v94q0 111 -48.5 161t-144.5 50q-72 0 -166 -7.5t-153 -15.5l-58 -6l-6 107q227 37 387 36.5t235.5 -80t75.5 -247.5zM750 522l-308 -26 q-195 -18 -194 -205q0 -88 48 -146.5t122 -58.5q78 0 161 17.5t126 35.5l45 17v366zM803 1462l28 -96q-92 -98 -165 -98q-47 0 -160 52t-144 52q-20 0 -57 -22.5t-63 -44.5l-27 -23l-31 96q102 104 181 105q49 0 160.5 -51.5t140.5 -51.5q18 0 52 20.5t60 41.5z" />
<glyph unicode="&#xe4;" horiz-adv-x="1093" d="M872 715v-535q29 -80 136 -92l-9 -106q-150 0 -225 81q-174 -84 -368 -83q-125 0 -204 85t-79 224q0 272 305 303l322 31v94q0 111 -48.5 161t-144.5 50q-72 0 -166 -7.5t-153 -15.5l-58 -6l-6 107q227 37 387 36.5t235.5 -80t75.5 -247.5zM750 522l-308 -26 q-195 -18 -194 -205q0 -88 48 -146.5t122 -58.5q78 0 161 17.5t126 35.5l45 17v366zM276 1290v162h119v-162h-119zM678 1290v162h119v-162h-119z" />
<glyph unicode="&#xe5;" horiz-adv-x="1093" d="M872 715v-535q29 -80 136 -92l-9 -106q-150 0 -225 81q-174 -84 -368 -83q-125 0 -204 85t-79 224q0 272 305 303l322 31v94q0 111 -48.5 161t-144.5 50q-72 0 -166 -7.5t-153 -15.5l-58 -6l-6 107q227 37 387 36.5t235.5 -80t75.5 -247.5zM750 522l-308 -26 q-195 -18 -194 -205q0 -88 48 -146.5t122 -58.5q78 0 161 17.5t126 35.5l45 17v366zM317 1366q0 86 60.5 145.5t148.5 59.5q86 0 144.5 -59.5t58.5 -145.5q0 -88 -58.5 -147.5t-144.5 -59.5q-88 0 -148.5 59.5t-60.5 147.5zM416 1366q0 -47 31.5 -81t78.5 -34q45 0 77 34 t32 81t-32 80t-77 33q-47 0 -78.5 -33t-31.5 -80z" />
<glyph unicode="&#xe6;" horiz-adv-x="1695" d="M1165 90q63 0 156.5 4t153.5 8l61 7l4 -101q-219 -29 -383 -28q-205 0 -301 114l-70 -31q-188 -84 -395 -83q-129 0 -201.5 79.5t-72.5 229.5q0 160 82 221t284 86l277 27v94q0 211 -195 211l-387 -21l-6 109q236 27 395 26q223 0 281 -168q98 168 332 168 q199 0 298 -117.5t99 -365.5l-4 -98h-690q0 -186 64 -278.5t218 -92.5zM406 86q174 0 397 86q-47 113 -47 348l-326 -28q-96 -10 -142 -58.5t-46 -142.5q0 -98 44 -151.5t120 -53.5zM881 561h573q0 201 -65.5 288t-210.5 87q-295 0 -297 -375z" />
<glyph unicode="&#xe7;" horiz-adv-x="894" d="M766 -260q0 -168 -182 -168l-172 12l4 84q84 -8 145 -8q92 0 92 84q0 76 -92 76h-96v164q-190 18 -264 146t-74 400q0 268 99.5 390t322.5 122q43 0 105.5 -5t103.5 -11l39 -6l-6 -109q-145 20 -224 21q-174 0 -243.5 -94.5t-69.5 -307.5q0 -236 64.5 -337t250.5 -101 l226 17l4 -107q-156 -23 -252 -22h-4v-86q121 0 172 -32t51 -122z" />
<glyph unicode="&#xe8;" horiz-adv-x="1038" d="M520 90q66 0 157 4t150 8l58 7l4 -101q-211 -29 -375 -28q-211 0 -303 136t-92 392q0 270 109.5 402t303.5 132q393 0 394 -483l-4 -98h-678q4 -371 276 -371zM244 561h559q0 199 -66.5 287t-204.5 88q-135 0 -211.5 -91t-76.5 -284zM319 1522l426 -195l-43 -100 l-430 182z" />
<glyph unicode="&#xe9;" horiz-adv-x="1038" d="M520 90q66 0 157 4t150 8l58 7l4 -101q-211 -29 -375 -28q-211 0 -303 136t-92 392q0 270 109.5 402t303.5 132q393 0 394 -483l-4 -98h-678q4 -371 276 -371zM244 561h559q0 199 -66.5 287t-204.5 88q-135 0 -211.5 -91t-76.5 -284zM293 1327l426 195l47 -113l-430 -182 z" />
<glyph unicode="&#xea;" horiz-adv-x="1038" d="M520 90q66 0 157 4t150 8l58 7l4 -101q-211 -29 -375 -28q-211 0 -303 136t-92 392q0 270 109.5 402t303.5 132q393 0 394 -483l-4 -98h-678q4 -371 276 -371zM244 561h559q0 199 -66.5 287t-204.5 88q-135 0 -211.5 -91t-76.5 -284zM225 1219l252 290h98l256 -290h-139 l-164 184l-163 -184h-140z" />
<glyph unicode="&#xeb;" horiz-adv-x="1038" d="M520 90q66 0 157 4t150 8l58 7l4 -101q-211 -29 -375 -28q-211 0 -303 136t-92 392q0 270 109.5 402t303.5 132q393 0 394 -483l-4 -98h-678q4 -371 276 -371zM244 561h559q0 199 -66.5 287t-204.5 88q-135 0 -211.5 -91t-76.5 -284zM287 1290v162h119v-162h-119z M688 1290v162h119v-162h-119z" />
<glyph unicode="&#xec;" horiz-adv-x="538" d="M207 0v1024h123v-1024h-123zM6 1522l426 -195l-43 -100l-430 182z" />
<glyph unicode="&#xed;" horiz-adv-x="534" d="M86 1327l426 195l47 -113l-430 -182zM207 0v1024h123v-1024h-123z" />
<glyph unicode="&#xee;" horiz-adv-x="538" d="M207 0v1024h123v-1024h-123zM-37 1219l252 290h98l256 -290h-139l-164 184l-164 -184h-139z" />
<glyph unicode="&#xef;" horiz-adv-x="538" d="M35 1290v162h119v-162h-119zM436 1290v162h119v-162h-119zM207 0v1024h123v-1024h-123z" />
<glyph unicode="&#xf0;" d="M322 1094l-58 80l189 131q-115 49 -248 84l31 104q199 -49 325 -111l205 144l57 -80l-166 -117q344 -207 344 -606q0 -403 -106.5 -572t-353.5 -169q-213 0 -332 120.5t-119 346.5q0 195 116 311.5t310 116.5q156 0 356 -80q-12 289 -319 458zM522 764q-139 0 -221 -88 t-82 -227q0 -168 82 -260.5t240 -92.5q180 0 254.5 129t76.5 459q-203 80 -350 80z" />
<glyph unicode="&#xf1;" horiz-adv-x="1175" d="M334 0h-123v1024h123v-74q158 92 313 92q201 0 270.5 -113.5t69.5 -396.5v-532h-123v530q0 223 -45 312.5t-186 89.5q-68 0 -142.5 -21.5t-115.5 -42.5l-41 -22v-846zM901 1462l29 -96q-92 -98 -166 -98q-47 0 -159.5 52t-143.5 52q-20 0 -57 -22.5t-64 -44.5l-27 -23 l-30 96q102 104 180 105q49 0 160.5 -51.5t140.5 -51.5q18 0 52 20.5t61 41.5z" />
<glyph unicode="&#xf2;" horiz-adv-x="1093" d="M543 1042q219 0 317 -128t98 -388q0 -276 -91 -411t-324 -135q-238 0 -330 131t-92 417q0 266 95.5 390t326.5 124zM543 88q174 0 231 105.5t57 332.5q0 209 -67.5 308.5t-220.5 99.5q-164 0 -230.5 -94.5t-66.5 -311.5q0 -236 60.5 -338t236.5 -102zM289 1522l426 -195 l-43 -100l-430 182z" />
<glyph unicode="&#xf3;" horiz-adv-x="1093" d="M543 1042q219 0 317 -128t98 -388q0 -276 -91 -411t-324 -135q-238 0 -330 131t-92 417q0 266 95.5 390t326.5 124zM543 88q174 0 231 105.5t57 332.5q0 209 -67.5 308.5t-220.5 99.5q-164 0 -230.5 -94.5t-66.5 -311.5q0 -236 60.5 -338t236.5 -102zM324 1327l426 195 l47 -113l-430 -182z" />
<glyph unicode="&#xf4;" horiz-adv-x="1093" d="M543 1042q219 0 317 -128t98 -388q0 -276 -91 -411t-324 -135q-238 0 -330 131t-92 417q0 266 95.5 390t326.5 124zM543 88q174 0 231 105.5t57 332.5q0 209 -67.5 308.5t-220.5 99.5q-164 0 -230.5 -94.5t-66.5 -311.5q0 -236 60.5 -338t236.5 -102zM223 1219l252 290 h98l256 -290h-139l-164 184l-164 -184h-139z" />
<glyph unicode="&#xf5;" horiz-adv-x="1093" d="M543 1042q219 0 317 -128t98 -388q0 -276 -91 -411t-324 -135q-238 0 -330 131t-92 417q0 266 95.5 390t326.5 124zM543 88q174 0 231 105.5t57 332.5q0 209 -67.5 308.5t-220.5 99.5q-164 0 -230.5 -94.5t-66.5 -311.5q0 -236 60.5 -338t236.5 -102zM817 1462l29 -96 q-92 -98 -166 -98q-47 0 -159.5 52t-143.5 52q-20 0 -57 -22.5t-64 -44.5l-27 -23l-30 96q102 104 180 105q49 0 160.5 -51.5t140.5 -51.5q18 0 52 20.5t59 41.5z" />
<glyph unicode="&#xf6;" horiz-adv-x="1093" d="M543 1042q219 0 317 -128t98 -388q0 -276 -91 -411t-324 -135q-238 0 -330 131t-92 417q0 266 95.5 390t326.5 124zM543 88q174 0 231 105.5t57 332.5q0 209 -67.5 308.5t-220.5 99.5q-164 0 -230.5 -94.5t-66.5 -311.5q0 -236 60.5 -338t236.5 -102zM295 1290v162h119 v-162h-119zM696 1290v162h119v-162h-119z" />
<glyph unicode="&#xf7;" d="M477 866v191h129v-191h-129zM123 543v125h838v-125h-838zM477 150v190h129v-190h-129z" />
<glyph unicode="&#xf8;" horiz-adv-x="1079" d="M543 1042q84 0 155 -22l-6 -16l-10 -29l-25 -60q-49 18 -114 19q-164 0 -230.5 -94.5t-66.5 -311.5q0 -299 100 -383l-27 -65l-16 -27l-8 -18q-94 55 -134 176t-40 317q0 266 95.5 390t326.5 124zM543 88q174 0 231 105.5t57 332.5q0 248 -98 344l31 74l14 27l4 12 q176 -111 176 -457q0 -276 -91 -411t-324 -135q-98 0 -162 20l10 25l8 26l21 53q47 -16 123 -16zM346 145l311 770q37 -12 76 -45l-313 -766q-41 12 -74 41zM287 -231l-88 30l96 236q33 -20 86 -35zM698 1020l90 219l89 -31l-95 -225q-37 25 -84 37z" />
<glyph unicode="&#xf9;" horiz-adv-x="1142" d="M827 1024h123v-1024h-123v72q-156 -92 -297 -92q-199 0 -269.5 112.5t-70.5 396.5v535h123v-530q0 -231 45 -317.5t187 -86.5q61 0 132 21.5t109 44.5l41 20v848zM315 1522l426 -195l-43 -100l-430 182z" />
<glyph unicode="&#xfa;" horiz-adv-x="1142" d="M827 1024h123v-1024h-123v72q-156 -92 -297 -92q-199 0 -269.5 112.5t-70.5 396.5v535h123v-530q0 -231 45 -317.5t187 -86.5q61 0 132 21.5t109 44.5l41 20v848zM350 1327l426 195l47 -113l-430 -182z" />
<glyph unicode="&#xfb;" horiz-adv-x="1142" d="M827 1024h123v-1024h-123v72q-156 -92 -297 -92q-199 0 -269.5 112.5t-70.5 396.5v535h123v-530q0 -231 45 -317.5t187 -86.5q61 0 132 21.5t109 44.5l41 20v848zM250 1219l252 290h98l256 -290h-139l-164 184l-164 -184h-139z" />
<glyph unicode="&#xfc;" horiz-adv-x="1142" d="M827 1024h123v-1024h-123v72q-156 -92 -297 -92q-199 0 -269.5 112.5t-70.5 396.5v535h123v-530q0 -231 45 -317.5t187 -86.5q61 0 132 21.5t109 44.5l41 20v848zM322 1290v162h118v-162h-118zM723 1290v162h119v-162h-119z" />
<glyph unicode="&#xfd;" horiz-adv-x="983" d="M53 1024h125l264 -909h74l266 909h125l-436 -1485h-125l139 461h-137zM301 1327l426 195l47 -113l-430 -182z" />
<glyph unicode="&#xfe;" horiz-adv-x="1120" d="M555 88q172 0 243.5 106.5t71.5 335.5q0 193 -64.5 297.5t-184.5 104.5q-68 0 -140.5 -20.5t-111.5 -41.5l-39 -20v-739q119 -23 225 -23zM629 1042q367 0 366 -512q0 -287 -102 -418.5t-334 -131.5l-229 16v-457h-123v1940h123v-523q141 86 299 86z" />
<glyph unicode="&#xff;" horiz-adv-x="985" d="M66 1024h124l265 -909h73l267 909h125l-437 -1485h-125l140 461h-138zM240 1290v162h118v-162h-118zM641 1290v162h119v-162h-119z" />
<glyph unicode="&#x100;" horiz-adv-x="1236" d="M74 0l409 1427h277l405 -1427h-127l-120 391h-603l-114 -391h-127zM575 1315l-229 -807h545l-229 807h-87zM309 1702v108h619v-108h-619z" />
<glyph unicode="&#x101;" horiz-adv-x="1064" d="M872 715v-535q29 -80 136 -92l-9 -106q-150 0 -225 81q-174 -84 -368 -83q-125 0 -204 85t-79 224q0 272 305 303l322 31v94q0 111 -48.5 161t-144.5 50q-72 0 -166 -7.5t-153 -15.5l-58 -6l-6 107q227 37 387 36.5t235.5 -80t75.5 -247.5zM750 522l-308 -26 q-195 -18 -194 -205q0 -88 48 -146.5t122 -58.5q78 0 161 17.5t126 35.5l45 17v366zM244 1305v108h577v-108h-577z" />
<glyph unicode="&#x102;" horiz-adv-x="1236" d="M74 0l409 1427h277l405 -1427h-127l-120 391h-603l-114 -391h-127zM575 1315l-229 -807h545l-229 807h-87zM309 1892h125q2 -70 54.5 -111.5t127.5 -41.5q78 0 130.5 42t54.5 111h125q-4 -117 -90 -188.5t-220 -71.5q-131 0 -217 71.5t-90 188.5z" />
<glyph unicode="&#x103;" horiz-adv-x="1064" d="M872 715v-535q29 -80 136 -92l-9 -106q-150 0 -225 81q-174 -84 -368 -83q-125 0 -204 85t-79 224q0 272 305 303l322 31v94q0 111 -48.5 161t-144.5 50q-72 0 -166 -7.5t-153 -15.5l-58 -6l-6 107q227 37 387 36.5t235.5 -80t75.5 -247.5zM750 522l-308 -26 q-195 -18 -194 -205q0 -88 48 -146.5t122 -58.5q78 0 161 17.5t126 35.5l45 17v366zM221 1493h125q4 -76 53.5 -123t132.5 -47q88 0 136.5 46t50.5 124h125q-4 -125 -87 -203t-225 -78q-139 0 -223 78t-88 203z" />
<glyph unicode="&#x104;" horiz-adv-x="1236" d="M1200 -295l12 -104q-84 -18 -149 -19q-78 0 -128 47t-50 127q0 106 153 244l-120 391h-603l-114 -391h-127l409 1427h277l405 -1427h-4q-23 -16 -86 -96t-63 -121q0 -39 23.5 -64.5t60.5 -25.5zM575 1315l-229 -807h545l-229 807h-87z" />
<glyph unicode="&#x105;" horiz-adv-x="1064" d="M993 -295l13 -104q-84 -18 -150 -19q-78 0 -128 47t-50 127q0 45 40 108.5t69.5 95.5t54.5 52q-39 18 -68 51q-174 -84 -368 -83q-125 0 -204 85t-79 224q0 272 305 303l322 31v94q0 111 -48.5 161t-144.5 50q-72 0 -166 -7.5t-153 -15.5l-58 -6l-6 107q227 37 387 36.5 t235.5 -80t75.5 -247.5v-535q29 -80 136 -92l-9 -106q-23 0 -59 4q-135 -143 -135 -203q0 -39 23.5 -64.5t60.5 -25.5zM750 522l-308 -26q-195 -18 -194 -205q0 -88 48 -146.5t122 -58.5q78 0 161 17.5t126 35.5l45 17v366z" />
<glyph unicode="&#x106;" horiz-adv-x="1095" d="M993 135l6 -115q-217 -41 -374 -40q-154 0 -255.5 49t-155.5 149.5t-74.5 225t-20.5 305.5q0 182 20.5 308t73.5 228.5t155.5 152.5t256.5 50q82 0 176 -10.5t147 -20.5l53 -10l-8 -115q-211 37 -358 37q-123 0 -202 -41t-118 -129t-52 -189.5t-13 -260.5q0 -125 8 -210 t31.5 -166t65.5 -128t112 -76t170 -29q57 0 146 9.5t151 17.5zM356 1716l426 195l47 -113l-430 -182z" />
<glyph unicode="&#x107;" horiz-adv-x="894" d="M549 1042q43 0 105.5 -5t103.5 -11l39 -6l-6 -109q-145 20 -224 21q-174 0 -243.5 -94.5t-69.5 -307.5q0 -236 64.5 -337t250.5 -101l226 17l4 -107q-156 -23 -252 -22q-240 0 -330 126.5t-90 423.5q0 268 99.5 390t322.5 122zM242 1327l426 195l47 -113l-430 -182z" />
<glyph unicode="&#x108;" horiz-adv-x="1095" d="M993 135l6 -115q-217 -41 -374 -40q-154 0 -255.5 49t-155.5 149.5t-74.5 225t-20.5 305.5q0 182 20.5 308t73.5 228.5t155.5 152.5t256.5 50q82 0 176 -10.5t147 -20.5l53 -10l-8 -115q-211 37 -358 37q-123 0 -202 -41t-118 -129t-52 -189.5t-13 -260.5q0 -125 8 -210 t31.5 -166t65.5 -128t112 -76t170 -29q57 0 146 9.5t151 17.5zM297 1636l274 269h109l272 -269h-145l-180 170l-181 -170h-149z" />
<glyph unicode="&#x109;" horiz-adv-x="894" d="M549 1042q43 0 105.5 -5t103.5 -11l39 -6l-6 -109q-145 20 -224 21q-174 0 -243.5 -94.5t-69.5 -307.5q0 -236 64.5 -337t250.5 -101l226 17l4 -107q-156 -23 -252 -22q-240 0 -330 126.5t-90 423.5q0 268 99.5 390t322.5 122zM174 1219l252 290h98l256 -290h-139 l-164 184l-164 -184h-139z" />
<glyph unicode="&#x10a;" horiz-adv-x="1095" d="M993 135l6 -115q-217 -41 -374 -40q-154 0 -255.5 49t-155.5 149.5t-74.5 225t-20.5 305.5q0 182 20.5 308t73.5 228.5t155.5 152.5t256.5 50q82 0 176 -10.5t147 -20.5l53 -10l-8 -115q-211 37 -358 37q-123 0 -202 -41t-118 -129t-52 -189.5t-13 -260.5q0 -125 8 -210 t31.5 -166t65.5 -128t112 -76t170 -29q57 0 146 9.5t151 17.5zM532 1694v153h123v-153h-123z" />
<glyph unicode="&#x10b;" horiz-adv-x="894" d="M549 1042q43 0 105.5 -5t103.5 -11l39 -6l-6 -109q-145 20 -224 21q-174 0 -243.5 -94.5t-69.5 -307.5q0 -236 64.5 -337t250.5 -101l226 17l4 -107q-156 -23 -252 -22q-240 0 -330 126.5t-90 423.5q0 268 99.5 390t322.5 122zM426 1276v154h123v-154h-123z" />
<glyph unicode="&#x10c;" horiz-adv-x="1095" d="M993 135l6 -115q-217 -41 -374 -40q-154 0 -255.5 49t-155.5 149.5t-74.5 225t-20.5 305.5q0 182 20.5 308t73.5 228.5t155.5 152.5t256.5 50q82 0 176 -10.5t147 -20.5l53 -10l-8 -115q-211 37 -358 37q-123 0 -202 -41t-118 -129t-52 -189.5t-13 -260.5q0 -125 8 -210 t31.5 -166t65.5 -128t112 -76t170 -29q57 0 146 9.5t151 17.5zM930 1911l-273 -269h-108l-275 269h148l182 -172l178 172h148z" />
<glyph unicode="&#x10d;" horiz-adv-x="894" d="M549 1042q43 0 105.5 -5t103.5 -11l39 -6l-6 -109q-145 20 -224 21q-174 0 -243.5 -94.5t-69.5 -307.5q0 -236 64.5 -337t250.5 -101l226 17l4 -107q-156 -23 -252 -22q-240 0 -330 126.5t-90 423.5q0 268 99.5 390t322.5 122zM426 1219l-252 290h137l166 -182l164 182 h139l-254 -290h-100z" />
<glyph unicode="&#x10e;" horiz-adv-x="1323" d="M702 0h-497v1427h497q139 0 240.5 -54t157 -153.5t81 -218t25.5 -266.5q0 -150 -24.5 -274.5t-79.5 -232t-158 -168t-242 -60.5zM1075 735q0 115 -17.5 212t-58.5 182t-116.5 133.5t-180.5 48.5h-372v-1194h372q104 0 181.5 55t117 148.5t57 195.5t17.5 219zM940 1911 l-272 -269h-109l-274 269h147l182 -172l179 172h147z" />
<glyph unicode="&#x10f;" horiz-adv-x="1480" d="M913 1479v-1479h-122v66q-156 -86 -306 -86q-358 0 -358 524q0 270 102.5 404t323.5 134q90 0 238 -24v461h122zM496 90q59 0 132.5 20.5t116.5 41.5l46 20v741q-129 20 -232 21q-164 0 -235.5 -108.5t-71.5 -325.5q0 -410 244 -410zM1311 1427v-464h-119v464h119z" />
<glyph unicode="&#x110;" horiz-adv-x="1323" d="M47 655v119h158v653h497q139 0 240.5 -54t157 -153.5t81 -218t25.5 -266.5q0 -150 -24.5 -274.5t-79.5 -232t-157.5 -168t-242.5 -60.5h-497v655h-158zM1075 735q0 115 -17.5 212t-58.5 182t-116.5 133.5t-180.5 48.5h-372v-537h327v-119h-327v-538h372q104 0 181.5 55 t117 148.5t57 195.5t17.5 219z" />
<glyph unicode="&#x111;" horiz-adv-x="1105" d="M416 1274v108h375v97h122v-97h80v-108h-80v-1274h-122v66q-156 -86 -306 -86q-358 0 -358 524q0 270 102.5 404t323.5 134q90 0 238 -24v256h-375zM496 90q59 0 132.5 20.5t116.5 41.5l46 20v741q-129 20 -232 21q-164 0 -235.5 -108.5t-71.5 -325.5q0 -410 244 -410z " />
<glyph unicode="&#x112;" horiz-adv-x="1161" d="M205 0v1427h831v-116h-706v-527h583v-114h-583v-553h706v-117h-831zM287 1688v108h618v-108h-618z" />
<glyph unicode="&#x113;" horiz-adv-x="1038" d="M520 90q66 0 157 4t150 8l58 7l4 -101q-211 -29 -375 -28q-211 0 -303 136t-92 392q0 270 109.5 402t303.5 132q393 0 394 -483l-4 -98h-678q4 -371 276 -371zM244 561h559q0 199 -66.5 287t-204.5 88q-135 0 -211.5 -91t-76.5 -284zM246 1305v108h577v-108h-577z" />
<glyph unicode="&#x114;" horiz-adv-x="1161" d="M205 0v1427h831v-116h-706v-527h583v-114h-583v-553h706v-117h-831zM328 1894h125q2 -70 54 -111.5t128 -41.5q78 0 130 42t54 111h125q-4 -117 -90 -188.5t-219 -71.5q-131 0 -217 71.5t-90 188.5z" />
<glyph unicode="&#x115;" horiz-adv-x="1038" d="M520 90q66 0 157 4t150 8l58 7l4 -101q-211 -29 -375 -28q-211 0 -303 136t-92 392q0 270 109.5 402t303.5 132q393 0 394 -483l-4 -98h-678q4 -371 276 -371zM244 561h559q0 199 -66.5 287t-204.5 88q-135 0 -211.5 -91t-76.5 -284zM219 1493h125q4 -76 53 -123t133 -47 q88 0 136.5 46t50.5 124h125q-4 -125 -87 -203t-225 -78q-139 0 -223 78t-88 203z" />
<glyph unicode="&#x116;" horiz-adv-x="1161" d="M205 0v1427h831v-116h-706v-527h583v-114h-583v-553h706v-117h-831zM559 1694v153h123v-153h-123z" />
<glyph unicode="&#x117;" horiz-adv-x="1038" d="M520 90q66 0 157 4t150 8l58 7l4 -101q-211 -29 -375 -28q-211 0 -303 136t-92 392q0 270 109.5 402t303.5 132q393 0 394 -483l-4 -98h-678q4 -371 276 -371zM244 561h559q0 199 -66.5 287t-204.5 88q-135 0 -211.5 -91t-76.5 -284zM457 1276v154h123v-154h-123z" />
<glyph unicode="&#x118;" horiz-adv-x="1161" d="M205 0v1427h831v-116h-706v-527h583v-114h-583v-553h706v-117h-47q-23 -16 -86 -96t-63 -121q0 -39 23.5 -64.5t60.5 -25.5l104 12l12 -104q-84 -18 -149 -19q-78 0 -128 47t-50 127q0 59 50 129t101 115h-659z" />
<glyph unicode="&#x119;" horiz-adv-x="1038" d="M895 -293l12 -104q-84 -18 -149 -19q-78 0 -128 47t-50 127q0 98 139 232q-109 -10 -205 -10q-211 0 -303 136t-92 392q0 270 109.5 402t303.5 132q393 0 394 -483l-4 -98h-678q4 -371 276 -371q66 0 157 4t150 8l58 7l4 -101q-14 -2 -31 -4q-152 -152 -151 -219 q0 -39 23.5 -64.5t60.5 -25.5zM244 561h559q0 199 -66.5 287t-204.5 88q-135 0 -211.5 -91t-76.5 -284z" />
<glyph unicode="&#x11a;" horiz-adv-x="1161" d="M205 0v1427h831v-116h-706v-527h583v-114h-583v-553h706v-117h-831zM967 1919l-273 -268h-108l-275 268h148l182 -172l178 172h148z" />
<glyph unicode="&#x11b;" horiz-adv-x="1038" d="M520 90q66 0 157 4t150 8l58 7l4 -101q-211 -29 -375 -28q-211 0 -303 136t-92 392q0 270 109.5 402t303.5 132q393 0 394 -483l-4 -98h-678q4 -371 276 -371zM244 561h559q0 199 -66.5 287t-204.5 88q-135 0 -211.5 -91t-76.5 -284zM467 1219l-252 290h137l166 -182 l164 182h139l-254 -290h-100z" />
<glyph unicode="&#x11c;" horiz-adv-x="1251" d="M725 612v113h379v-698q-285 -47 -447 -47q-299 0 -416.5 185t-117.5 546q0 178 23.5 305t82 228.5t165 152.5t261.5 51q92 0 205 -13.5t178 -25.5l66 -12l-6 -115q-250 47 -432 47q-102 0 -175 -28.5t-119 -79t-73 -130t-36 -168.5t-9 -212q0 -154 16.5 -258.5 t60.5 -189.5t126 -125t207 -40q55 0 130.5 8.5t129 16.5t55.5 8v481h-254zM324 1636l274 269h109l272 -269h-145l-181 170l-180 -170h-149z" />
<glyph unicode="&#x11d;" horiz-adv-x="1048" d="M530 -489q-213 0 -316 73.5t-103 245.5q0 82 42 139.5t126 120.5q-53 33 -54 137q0 16 17.5 57.5t33.5 73.5l17 33q-168 84 -168 305q0 162 100.5 255t259.5 93q45 0 91.5 -6t70.5 -14l23 -6l313 6v-109h-207q80 -76 80 -219q0 -342 -377 -342q-47 0 -96 8 q-39 -100 -39 -126q0 -47 14.5 -65.5t62.5 -27t167 -8.5q211 0 299 -58.5t88 -223.5q0 -170 -117 -256t-328 -86zM580 29l-218 8q-72 -59 -100.5 -98t-28.5 -101q0 -117 74 -168t225 -51q154 0 235 58.5t81 171t-59 146.5t-209 34zM479 459q252 0 252 237q0 242 -248 242 q-113 0 -174 -63.5t-61 -178.5q0 -237 231 -237zM223 1219l252 290h98l256 -290h-139l-164 184l-164 -184h-139z" />
<glyph unicode="&#x11e;" horiz-adv-x="1251" d="M725 612v113h379v-698q-285 -47 -447 -47q-299 0 -416.5 185t-117.5 546q0 178 23.5 305t82 228.5t165 152.5t261.5 51q92 0 205 -13.5t178 -25.5l66 -12l-6 -115q-250 47 -432 47q-102 0 -175 -28.5t-119 -79t-73 -130t-36 -168.5t-9 -212q0 -154 16.5 -258.5 t60.5 -189.5t126 -125t207 -40q55 0 130.5 8.5t129 16.5t55.5 8v481h-254zM358 1892h125q2 -70 54.5 -111.5t128.5 -41.5q78 0 130 42t54 111h125q-4 -117 -90 -188.5t-219 -71.5q-131 0 -217.5 71.5t-90.5 188.5z" />
<glyph unicode="&#x11f;" horiz-adv-x="1048" d="M530 -489q-213 0 -316 73.5t-103 245.5q0 82 42 139.5t126 120.5q-53 33 -54 137q0 16 17.5 57.5t33.5 73.5l17 33q-168 84 -168 305q0 162 100.5 255t259.5 93q45 0 91.5 -6t70.5 -14l23 -6l313 6v-109h-207q80 -76 80 -219q0 -342 -377 -342q-47 0 -96 8 q-39 -100 -39 -126q0 -47 14.5 -65.5t62.5 -27t167 -8.5q211 0 299 -58.5t88 -223.5q0 -170 -117 -256t-328 -86zM580 29l-218 8q-72 -59 -100.5 -98t-28.5 -101q0 -117 74 -168t225 -51q154 0 235 58.5t81 171t-59 146.5t-209 34zM479 459q252 0 252 237q0 242 -248 242 q-113 0 -174 -63.5t-61 -178.5q0 -237 231 -237zM213 1493h125q4 -76 53 -123t133 -47q88 0 136.5 46t50.5 124h125q-4 -125 -87 -203t-225 -78q-139 0 -223 78t-88 203z" />
<glyph unicode="&#x120;" horiz-adv-x="1251" d="M725 612v113h379v-698q-285 -47 -447 -47q-299 0 -416.5 185t-117.5 546q0 178 23.5 305t82 228.5t165 152.5t261.5 51q92 0 205 -13.5t178 -25.5l66 -12l-6 -115q-250 47 -432 47q-102 0 -175 -28.5t-119 -79t-73 -130t-36 -168.5t-9 -212q0 -154 16.5 -258.5 t60.5 -189.5t126 -125t207 -40q55 0 130.5 8.5t129 16.5t55.5 8v481h-254zM569 1700v153h123v-153h-123z" />
<glyph unicode="&#x121;" horiz-adv-x="1048" d="M530 -489q-213 0 -316 73.5t-103 245.5q0 82 42 139.5t126 120.5q-53 33 -54 137q0 16 17.5 57.5t33.5 73.5l17 33q-168 84 -168 305q0 162 100.5 255t259.5 93q45 0 91.5 -6t70.5 -14l23 -6l313 6v-109h-207q80 -76 80 -219q0 -342 -377 -342q-47 0 -96 8 q-39 -100 -39 -126q0 -47 14.5 -65.5t62.5 -27t167 -8.5q211 0 299 -58.5t88 -223.5q0 -170 -117 -256t-328 -86zM580 29l-218 8q-72 -59 -100.5 -98t-28.5 -101q0 -117 74 -168t225 -51q154 0 235 58.5t81 171t-59 146.5t-209 34zM479 459q252 0 252 237q0 242 -248 242 q-113 0 -174 -63.5t-61 -178.5q0 -237 231 -237zM463 1276v154h123v-154h-123z" />
<glyph unicode="&#x122;" horiz-adv-x="1251" d="M725 612v113h379v-698q-285 -47 -447 -47q-299 0 -416.5 185t-117.5 546q0 178 23.5 305t82 228.5t165 152.5t261.5 51q92 0 205 -13.5t178 -25.5l66 -12l-6 -115q-250 47 -432 47q-102 0 -175 -28.5t-119 -79t-73 -130t-36 -168.5t-9 -212q0 -154 16.5 -258.5 t60.5 -189.5t126 -125t207 -40q55 0 130.5 8.5t129 16.5t55.5 8v481h-254zM522 -569l82 409h123l-100 -409h-105z" />
<glyph unicode="&#x123;" horiz-adv-x="1048" d="M530 -489q-213 0 -316 73.5t-103 245.5q0 82 42 139.5t126 120.5q-53 33 -54 137q0 16 17.5 57.5t33.5 73.5l17 33q-168 84 -168 305q0 162 100.5 255t259.5 93q45 0 91.5 -6t70.5 -14l23 -6l313 6v-109h-207q80 -76 80 -219q0 -342 -377 -342q-47 0 -96 8 q-39 -100 -39 -126q0 -47 14.5 -65.5t62.5 -27t167 -8.5q211 0 299 -58.5t88 -223.5q0 -170 -117 -256t-328 -86zM580 29l-218 8q-72 -59 -100.5 -98t-28.5 -101q0 -117 74 -168t225 -51q154 0 235 58.5t81 171t-59 146.5t-209 34zM479 459q252 0 252 237q0 242 -248 242 q-113 0 -174 -63.5t-61 -178.5q0 -237 231 -237zM602 1620l-82 -412h-123l99 412h106z" />
<glyph unicode="&#x124;" horiz-adv-x="1409" d="M1079 0v659h-749v-659h-125v1427h125v-649h749v649h125v-1427h-125zM377 1634l274 269h109l272 -269h-145l-180 170l-181 -170h-149z" />
<glyph unicode="&#x125;" horiz-adv-x="1157" d="M313 0h-120v1479h120v-508q172 72 314 71q201 0 270.5 -113.5t69.5 -396.5v-532h-123v530q0 223 -45 312.5t-187 89.5q-137 0 -299 -70v-862zM276 1509l252 291h99l256 -291h-140l-163 185l-164 -185h-140z" />
<glyph unicode="&#x126;" horiz-adv-x="1409" d="M33 1051v108h172v268h125v-268h749v268h125v-268h201v-108h-201v-1051h-125v659h-749v-659h-125v1051h-172zM330 778h749v273h-749v-273z" />
<glyph unicode="&#x127;" horiz-adv-x="1157" d="M55 1212v109h138v158h120v-158h320v-109h-320v-241q172 72 314 71q201 0 270.5 -113.5t69.5 -396.5v-532h-123v530q0 223 -45 312.5t-187 89.5q-137 0 -299 -70v-862h-120v1212h-138z" />
<glyph unicode="&#x128;" horiz-adv-x="489" d="M182 0v1427h125v-1427h-125zM578 1862l32 -95q-109 -117 -182 -116q-51 0 -177 60.5t-155 60.5q-20 0 -61 -26t-72 -52l-31 -27l-30 96q117 119 194 119q51 0 176 -59.5t154 -59.5q41 1 152 99z" />
<glyph unicode="&#x129;" horiz-adv-x="538" d="M207 0v1024h123v-1024h-123zM561 1462l29 -96q-92 -98 -166 -98q-47 0 -159.5 52t-143.5 52q-20 0 -57 -22.5t-64 -44.5l-27 -23l-30 96q102 104 180 105q49 0 160.5 -51.5t140.5 -51.5q18 0 52 20.5t61 41.5z" />
<glyph unicode="&#x12a;" horiz-adv-x="489" d="M182 0v1427h125v-1427h-125zM-63 1708v109h618v-109h-618z" />
<glyph unicode="&#x12b;" horiz-adv-x="538" d="M207 0v1024h123v-1024h-123zM-18 1305v108h577v-108h-577z" />
<glyph unicode="&#x12c;" horiz-adv-x="489" d="M182 0v1427h125v-1427h-125zM-63 1892h124q2 -70 54.5 -111.5t128.5 -41.5q78 0 130 42t54 111h125q-4 -117 -90 -188.5t-219 -71.5q-131 0 -217 71.5t-90 188.5z" />
<glyph unicode="&#x12d;" horiz-adv-x="538" d="M207 0v1024h123v-1024h-123zM-43 1493h125q4 -76 53 -123t133 -47q88 0 136.5 46t50.5 124h125q-4 -125 -87 -203t-225 -78q-139 0 -223 78t-88 203z" />
<glyph unicode="&#x12e;" horiz-adv-x="489" d="M344 -295l12 -104q-84 -18 -149 -19q-78 0 -128 47t-50 127q0 106 153 244v1427h125v-1427h-2q-23 -16 -86 -96t-63 -121q0 -39 23.5 -64.5t60.5 -25.5z" />
<glyph unicode="&#x12f;" horiz-adv-x="466" d="M332 -295l12 -104q-84 -18 -149 -19q-78 0 -128.5 47t-50.5 127q0 61 54.5 134t101.5 112v1022h123v-1024h-2q-23 -16 -86.5 -96t-63.5 -121q0 -39 23.5 -64.5t60.5 -25.5zM172 1276v154h123v-154h-123z" />
<glyph unicode="&#x130;" horiz-adv-x="489" d="M182 0v1427h125v-1427h-125zM182 1694v153h123v-153h-123z" />
<glyph unicode="&#x131;" horiz-adv-x="538" d="M207 0v1024h123v-1024h-123z" />
<glyph unicode="&#x132;" horiz-adv-x="1116" d="M931 1430l2 -1211q0 -121 -16 -191.5t-62.5 -110.5t-109.5 -52t-176 -12v114q145 0 191 50.5t46 218.5v1194h125zM182 0v1427h125v-1427h-125z" />
<glyph unicode="&#x133;" horiz-adv-x="962" d="M668 12v1012h123v-1014q0 -184 -61.5 -274t-258.5 -199l-53 105q158 92 204 160.5t46 209.5zM668 1274v153h123v-153h-123zM172 0v1024h123v-1024h-123zM172 1276v154h123v-154h-123z" />
<glyph unicode="&#x134;" horiz-adv-x="626" d="M442 1430l2 -1211q0 -121 -16 -191.5t-62.5 -110.5t-109.5 -52t-176 -12v114q145 0 191 50.5t46 218.5v1194h125zM-14 1634l274 269h109l272 -269h-145l-181 170l-180 -170h-149z" />
<glyph unicode="&#x135;" horiz-adv-x="495" d="M201 12v1012h123v-1014q0 -184 -61.5 -274t-258.5 -199l-53 105q158 92 204 160.5t46 209.5zM-55 1219l252 290h98l256 -290h-139l-164 184l-164 -184h-139z" />
<glyph unicode="&#x136;" horiz-adv-x="1218" d="M971 0l-414 645l-227 -4v-641h-125v1427h125v-669l223 4l395 665h148l-430 -714l456 -713h-151zM506 -569l82 409h123l-101 -409h-104z" />
<glyph unicode="&#x137;" horiz-adv-x="1007" d="M330 0h-123v1479h123v-873l155 4l324 414h141l-356 -469l358 -555h-139l-326 492l-157 -7v-485zM399 -569l82 409h123l-100 -409h-105z" />
<glyph unicode="&#x139;" horiz-adv-x="1062" d="M961 0h-756v1427h125v-1308h631v-119zM297 1716l426 195l47 -113l-430 -182z" />
<glyph unicode="&#x13a;" horiz-adv-x="483" d="M180 0v1479h123v-1479h-123zM6 1634l426 195l47 -113l-430 -182z" />
<glyph unicode="&#x13b;" horiz-adv-x="1062" d="M961 0h-756v1427h125v-1308h631v-119zM428 -569l82 409h123l-101 -409h-104z" />
<glyph unicode="&#x13c;" horiz-adv-x="483" d="M180 0v1479h123v-1479h-123zM137 -569l82 409h123l-100 -409h-105z" />
<glyph unicode="&#x13d;" horiz-adv-x="1062" d="M961 0h-756v1427h125v-1308h631v-119zM903 1427v-464h-119v464h119z" />
<glyph unicode="&#x13e;" horiz-adv-x="823" d="M180 0v1479h123v-1479h-123zM688 1427v-464h-119v464h119z" />
<glyph unicode="&#x13f;" horiz-adv-x="1062" d="M514 620v207h135v-207h-135zM961 0h-756v1427h125v-1308h631v-119z" />
<glyph unicode="&#x140;" horiz-adv-x="991" d="M657 520v207h135v-207h-135zM180 0v1479h123v-1479h-123z" />
<glyph unicode="&#x141;" d="M55 500l-63 92l209 147v688h125v-602l381 269l65 -93l-446 -313v-567h657v-121h-782v600z" />
<glyph unicode="&#x142;" horiz-adv-x="483" d="M180 0v602l-139 -96l-61 88l200 139v746h123v-662l146 103l61 -86l-207 -146v-688h-123z" />
<glyph unicode="&#x143;" horiz-adv-x="1413" d="M205 0v1427h246l585 -1302h47v1302h127v-1427h-243l-592 1303h-45v-1303h-125zM469 1716l426 195l47 -113l-430 -182z" />
<glyph unicode="&#x144;" horiz-adv-x="1167" d="M330 0h-123v1024h123v-74q158 92 313 92q201 0 270.5 -113.5t69.5 -396.5v-532h-123v530q0 223 -45 312.5t-186 89.5q-68 0 -142.5 -21.5t-115.5 -42.5l-41 -22v-846zM346 1327l426 195l47 -113l-430 -182z" />
<glyph unicode="&#x145;" horiz-adv-x="1413" d="M205 0v1427h246l585 -1302h47v1302h127v-1427h-243l-592 1303h-45v-1303h-125zM604 -569l82 409h123l-100 -409h-105z" />
<glyph unicode="&#x146;" horiz-adv-x="1167" d="M330 0h-123v1024h123v-74q158 92 313 92q201 0 270.5 -113.5t69.5 -396.5v-532h-123v530q0 223 -45 312.5t-186 89.5q-68 0 -142.5 -21.5t-115.5 -42.5l-41 -22v-846zM479 -569l82 409h123l-100 -409h-105z" />
<glyph unicode="&#x147;" horiz-adv-x="1413" d="M205 0v1427h246l585 -1302h47v1302h127v-1427h-243l-592 1303h-45v-1303h-125zM1034 1903l-272 -269h-109l-274 269h147l183 -172l178 172h147z" />
<glyph unicode="&#x148;" horiz-adv-x="1167" d="M330 0h-123v1024h123v-74q158 92 313 92q201 0 270.5 -113.5t69.5 -396.5v-532h-123v530q0 223 -45 312.5t-186 89.5q-68 0 -142.5 -21.5t-115.5 -42.5l-41 -22v-846zM532 1219l-251 290h137l166 -182l164 182h139l-254 -290h-101z" />
<glyph unicode="&#x14a;" horiz-adv-x="1413" d="M205 0v1427h246l585 -1302h47v1302h127v-1435q0 -121 -16 -191.5t-62.5 -110.5t-110 -52.5t-175.5 -12.5v115q143 0 189 49t48 211h-116l-592 1303h-45v-1303h-125z" />
<glyph unicode="&#x14b;" horiz-adv-x="1167" d="M350 0h-121v1024h121v-74q160 92 316 92q199 0 269.5 -114.5t70.5 -395.5v-540q0 -184 -62.5 -274.5t-259.5 -198.5l-51 104q156 92 203 159.5t47 207.5v540q0 223 -45 312.5t-187 89.5q-68 0 -143.5 -21.5t-116.5 -42.5l-41 -22v-846z" />
<glyph unicode="&#x14c;" horiz-adv-x="1337" d="M668 96q236 0 325.5 139.5t89.5 471.5q0 322 -94 473t-321.5 151t-320.5 -150.5t-93 -473.5q0 -326 91.5 -468.5t322.5 -142.5zM668 -20q-297 0 -421 175t-124 551.5t126 559t419 182.5q295 0 420.5 -182.5t125.5 -558.5q0 -385 -123.5 -556t-422.5 -171zM358 1702v108 h619v-108h-619z" />
<glyph unicode="&#x14d;" horiz-adv-x="1079" d="M543 1042q219 0 317 -128t98 -388q0 -276 -91 -411t-324 -135q-238 0 -330 131t-92 417q0 266 95.5 390t326.5 124zM543 88q174 0 231 105.5t57 332.5q0 209 -67.5 308.5t-220.5 99.5q-164 0 -230.5 -94.5t-66.5 -311.5q0 -236 60.5 -338t236.5 -102zM250 1305v108h577 v-108h-577z" />
<glyph unicode="&#x14e;" horiz-adv-x="1337" d="M668 96q236 0 325.5 139.5t89.5 471.5q0 322 -94 473t-321.5 151t-320.5 -150.5t-93 -473.5q0 -326 91.5 -468.5t322.5 -142.5zM668 -20q-297 0 -421 175t-124 551.5t126 559t419 182.5q295 0 420.5 -182.5t125.5 -558.5q0 -385 -123.5 -556t-422.5 -171zM360 1892h125 q2 -70 54.5 -111.5t128.5 -41.5q78 0 130 42t54 111h125q-4 -117 -90 -188.5t-219 -71.5q-131 0 -217.5 71.5t-90.5 188.5z" />
<glyph unicode="&#x14f;" horiz-adv-x="1079" d="M543 1042q219 0 317 -128t98 -388q0 -276 -91 -411t-324 -135q-238 0 -330 131t-92 417q0 266 95.5 390t326.5 124zM543 88q174 0 231 105.5t57 332.5q0 209 -67.5 308.5t-220.5 99.5q-164 0 -230.5 -94.5t-66.5 -311.5q0 -236 60.5 -338t236.5 -102zM227 1493h125 q4 -76 53.5 -123t133.5 -47q88 0 136 46t50 124h125q-4 -125 -87 -203t-224 -78q-139 0 -223.5 78t-88.5 203z" />
<glyph unicode="&#x150;" horiz-adv-x="1337" d="M668 96q236 0 325.5 139.5t89.5 471.5q0 322 -94 473t-321.5 151t-320.5 -150.5t-93 -473.5q0 -326 91.5 -468.5t322.5 -142.5zM668 -20q-297 0 -421 175t-124 551.5t126 559t419 182.5q295 0 420.5 -182.5t125.5 -558.5q0 -385 -123.5 -556t-422.5 -171zM682 1657 l328 235l88 -67l-334 -234zM279 1659l327 235l86 -69l-332 -232z" />
<glyph unicode="&#x151;" horiz-adv-x="1079" d="M543 1042q219 0 317 -128t98 -388q0 -276 -91 -411t-324 -135q-238 0 -330 131t-92 417q0 266 95.5 390t326.5 124zM543 88q174 0 231 105.5t57 332.5q0 209 -67.5 308.5t-220.5 99.5q-164 0 -230.5 -94.5t-66.5 -311.5q0 -236 60.5 -338t236.5 -102zM598 1276l309 258 l84 -76l-313 -256zM209 1276l311 258l82 -76l-313 -256z" />
<glyph unicode="&#x152;" horiz-adv-x="1902" d="M1778 -2h-822q-225 -18 -305 -18q-299 0 -417.5 178t-118.5 549q0 375 122.5 558t413.5 183q152 0 301 -21h826v-116h-701v-527h578v-114h-578v-553h701v-119zM662 98q61 0 290 17v1194q-287 20 -290 20q-233 0 -324.5 -149.5t-91.5 -471t88 -466t328 -144.5z" />
<glyph unicode="&#x153;" horiz-adv-x="1794" d="M1264 90q63 0 156 4t153 8l61 7l4 -101q-219 -29 -383 -28q-252 0 -340 190q-41 -98 -125.5 -144t-232.5 -46q-250 0 -340 124.5t-90 423.5q0 272 97.5 393t332.5 121q279 0 363 -211q94 211 356 211q201 0 300 -116.5t99 -366.5l-4 -98h-690q0 -186 64.5 -278.5 t218.5 -92.5zM557 88q96 0 156.5 26.5t91.5 87t40 133.5t9 191q0 219 -69.5 313.5t-227.5 94.5q-174 0 -238.5 -88t-64.5 -318q0 -246 57.5 -343t245.5 -97zM979 561h573q0 203 -64.5 288t-209.5 85q-297 0 -299 -373z" />
<glyph unicode="&#x154;" horiz-adv-x="1280" d="M745 563l-49 -2h-366v-561h-125v1427h497q442 0 443 -423q0 -344 -273 -416l291 -588h-139zM1016 1003.5q0 149.5 -79 228.5t-235 79h-372v-635h375q164 0 237.5 89t73.5 238.5zM403 1716l426 195l48 -113l-431 -182z" />
<glyph unicode="&#x155;" horiz-adv-x="727" d="M188 0v1024h123v-145q164 125 359 165v-124q-180 -39 -359 -154v-766h-123zM158 1327l426 195l47 -113l-430 -182z" />
<glyph unicode="&#x156;" horiz-adv-x="1280" d="M745 563l-49 -2h-366v-561h-125v1427h497q442 0 443 -423q0 -344 -273 -416l291 -588h-139zM1016 1003.5q0 149.5 -79 228.5t-235 79h-372v-635h375q164 0 237.5 89t73.5 238.5zM539 -569l82 409h122l-100 -409h-104z" />
<glyph unicode="&#x157;" horiz-adv-x="727" d="M188 0v1024h123v-145q164 125 359 165v-124q-180 -39 -359 -154v-766h-123zM262 -569l82 409h123l-100 -409h-105z" />
<glyph unicode="&#x158;" horiz-adv-x="1280" d="M745 563l-49 -2h-366v-561h-125v1427h497q442 0 443 -423q0 -344 -273 -416l291 -588h-139zM1016 1003.5q0 149.5 -79 228.5t-235 79h-372v-635h375q164 0 237.5 89t73.5 238.5zM969 1903l-273 -269h-108l-275 269h148l182 -172l178 172h148z" />
<glyph unicode="&#x159;" horiz-adv-x="727" d="M188 0v1024h123v-145q164 125 359 165v-124q-180 -39 -359 -154v-766h-123zM344 1219l-252 290h137l166 -182l164 182h139l-254 -290h-100z" />
<glyph unicode="&#x15a;" horiz-adv-x="1093" d="M963 1413l-9 -113q-274 33 -393 33q-156 0 -237.5 -64.5t-81.5 -187.5q0 -139 75.5 -196.5t276.5 -98.5q219 -47 310 -124.5t91 -247.5q0 -223 -107.5 -326.5t-332.5 -103.5q-74 0 -180.5 8t-177.5 16l-70 10l10 115q270 -33 412 -33q319 0 319 306q0 119 -71.5 175 t-255.5 93q-233 49 -329.5 132t-96.5 273q0 184 114.5 278.5t327.5 94.5zM311 1716l426 195l47 -113l-430 -182z" />
<glyph unicode="&#x15b;" horiz-adv-x="995" d="M831 1010l-4 -107q-215 31 -344 31q-231 0 -231 -176q0 -76 51 -112t205 -60q207 -33 282.5 -90.5t75.5 -198.5q0 -172 -99 -244.5t-286 -72.5l-344 36l8 107q221 -35 326 -35q139 0 204.5 44t65.5 159q0 88 -52 120.5t-218 61.5q-188 33 -266 90.5t-78 190.5 q0 152 101.5 220t248.5 68q70 0 158 -8t143 -16zM262 1327l426 195l47 -113l-430 -182z" />
<glyph unicode="&#x15c;" horiz-adv-x="1093" d="M963 1413l-9 -113q-274 33 -393 33q-156 0 -237.5 -64.5t-81.5 -187.5q0 -139 75.5 -196.5t276.5 -98.5q219 -47 310 -124.5t91 -247.5q0 -223 -107.5 -326.5t-332.5 -103.5q-74 0 -180.5 8t-177.5 16l-70 10l10 115q270 -33 412 -33q319 0 319 306q0 119 -71.5 175 t-255.5 93q-233 49 -329.5 132t-96.5 273q0 184 114.5 278.5t327.5 94.5zM225 1636l275 269h108l273 -269h-146l-180 170l-180 -170h-150z" />
<glyph unicode="&#x15d;" horiz-adv-x="995" d="M831 1010l-4 -107q-215 31 -344 31q-231 0 -231 -176q0 -76 51 -112t205 -60q207 -33 282.5 -90.5t75.5 -198.5q0 -172 -99 -244.5t-286 -72.5l-344 36l8 107q221 -35 326 -35q139 0 204.5 44t65.5 159q0 88 -52 120.5t-218 61.5q-188 33 -266 90.5t-78 190.5 q0 152 101.5 220t248.5 68q70 0 158 -8t143 -16zM195 1219l251 290h99l256 -290h-139l-164 184l-164 -184h-139z" />
<glyph unicode="&#x15e;" horiz-adv-x="1093" d="M817 -260q0 -168 -182 -168l-172 12l4 84q84 -8 145 -8q92 0 93 84q0 76 -93 76h-96v164q-164 4 -389 34l10 115q270 -33 412 -33q319 0 319 306q0 119 -71.5 175t-255.5 93q-233 49 -329.5 132t-96.5 273q0 184 114.5 278.5t327.5 94.5l406 -39l-9 -113q-274 33 -393 33 q-156 0 -237.5 -64.5t-81.5 -187.5q0 -139 75.5 -196.5t276.5 -98.5q219 -47 310 -124.5t91 -247.5q0 -213 -98 -316.5t-303 -111.5v-92q121 0 172 -32t51 -122z" />
<glyph unicode="&#x15f;" horiz-adv-x="995" d="M739 -260q0 -168 -182 -168l-172 12l4 84q84 -8 146 -8q92 0 92 84q0 76 -92 76h-97v162q-57 2 -132 11l-122 15l-47 8l8 107q221 -35 326 -35q139 0 204.5 44t65.5 159q0 88 -52 120.5t-218 61.5q-188 33 -266 90.5t-78 190.5q0 152 101.5 220t248.5 68q70 0 158 -8 t143 -16l53 -8l-4 -107q-215 31 -344 31q-231 0 -231 -176q0 -76 51 -112t205 -60q207 -33 282.5 -90.5t75.5 -198.5q0 -162 -90 -235.5t-260 -79.5v-88q121 0 172 -32t51 -122z" />
<glyph unicode="&#x160;" horiz-adv-x="1093" d="M963 1413l-9 -113q-274 33 -393 33q-156 0 -237.5 -64.5t-81.5 -187.5q0 -139 75.5 -196.5t276.5 -98.5q219 -47 310 -124.5t91 -247.5q0 -223 -107.5 -326.5t-332.5 -103.5q-74 0 -180.5 8t-177.5 16l-70 10l10 115q270 -33 412 -33q319 0 319 306q0 119 -71.5 175 t-255.5 93q-233 49 -329.5 132t-96.5 273q0 184 114.5 278.5t327.5 94.5zM897 1911l-272 -269h-109l-274 269h147l182 -172l179 172h147z" />
<glyph unicode="&#x161;" horiz-adv-x="995" d="M831 1010l-4 -107q-215 31 -344 31q-231 0 -231 -176q0 -76 51 -112t205 -60q207 -33 282.5 -90.5t75.5 -198.5q0 -172 -99 -244.5t-286 -72.5l-344 36l8 107q221 -35 326 -35q139 0 204.5 44t65.5 159q0 88 -52 120.5t-218 61.5q-188 33 -266 90.5t-78 190.5 q0 152 101.5 220t248.5 68q70 0 158 -8t143 -16zM453 1219l-252 290h137l166 -182l164 182h139l-254 -290h-100z" />
<glyph unicode="&#x162;" horiz-adv-x="1013" d="M18 1309v118h975v-118h-422v-1309h-125v1309h-428zM403 -569l82 409h123l-100 -409h-105z" />
<glyph unicode="&#x163;" horiz-adv-x="749" d="M659 913h-323v-501q0 -186 30.5 -254t131.5 -68l172 10l8 -104q-119 -18 -191 -19q-150 0 -212 83t-62 288v565h-150v109h150v324h123v-324h323v-109zM272 -569l82 409h123l-100 -409h-105z" />
<glyph unicode="&#x164;" horiz-adv-x="1013" d="M18 1309v118h975v-118h-422v-1309h-125v1309h-428zM836 1903l-273 -269h-108l-275 269h148l182 -172l178 172h148z" />
<glyph unicode="&#x165;" horiz-adv-x="1091" d="M659 913h-323v-501q0 -186 30.5 -254t131.5 -68l172 10l8 -104q-119 -18 -191 -19q-150 0 -212 83t-62 288v565h-150v109h150v324h123v-324h323v-109zM954 1427v-464h-118v464h118z" />
<glyph unicode="&#x166;" horiz-adv-x="1013" d="M109 639v109h337v561h-428v118h975v-118h-422v-561h367v-109h-367v-639h-125v639h-337z" />
<glyph unicode="&#x167;" horiz-adv-x="749" d="M94 551v108h119v254h-150v109h150v324h123v-324h323v-109h-323v-254h321v-108h-321v-139q0 -186 30.5 -254t131.5 -68l172 10l8 -104q-119 -18 -191 -19q-150 0 -212 83t-62 288v203h-119z" />
<glyph unicode="&#x168;" horiz-adv-x="1316" d="M301 418q0 -317 350 -318q365 0 365 318v1009h125v-1009q0 -436 -490 -436q-475 0 -475 436v1009h125v-1009zM983 1868l33 -94q-109 -117 -182 -117q-51 0 -177.5 60.5t-154.5 60.5q-20 0 -61.5 -27t-71.5 -51l-31 -27l-31 96q117 119 195 119q51 0 176 -59.5t153 -59.5 q41 1 152 99z" />
<glyph unicode="&#x169;" horiz-adv-x="1142" d="M827 1024h123v-1024h-123v72q-156 -92 -297 -92q-199 0 -269.5 112.5t-70.5 396.5v535h123v-530q0 -231 45 -317.5t187 -86.5q61 0 132 21.5t109 44.5l41 20v848zM862 1462l29 -96q-92 -98 -166 -98q-47 0 -159.5 52t-143.5 52q-20 0 -57 -22.5t-64 -44.5l-27 -23l-30 96 q102 104 180 105q49 0 160.5 -51.5t140.5 -51.5q18 0 52 20.5t59 41.5z" />
<glyph unicode="&#x16a;" horiz-adv-x="1316" d="M301 418q0 -317 350 -318q365 0 365 318v1009h125v-1009q0 -436 -490 -436q-475 0 -475 436v1009h125v-1009zM348 1702v108h619v-108h-619z" />
<glyph unicode="&#x16b;" horiz-adv-x="1142" d="M827 1024h123v-1024h-123v72q-156 -92 -297 -92q-199 0 -269.5 112.5t-70.5 396.5v535h123v-530q0 -231 45 -317.5t187 -86.5q61 0 132 21.5t109 44.5l41 20v848zM283 1305v108h577v-108h-577z" />
<glyph unicode="&#x16c;" horiz-adv-x="1316" d="M301 418q0 -317 350 -318q365 0 365 318v1009h125v-1009q0 -436 -490 -436q-475 0 -475 436v1009h125v-1009zM350 1892h125q2 -70 54.5 -111.5t127.5 -41.5q78 0 130.5 42t54.5 111h125q-4 -117 -90 -188.5t-220 -71.5q-131 0 -217 71.5t-90 188.5z" />
<glyph unicode="&#x16d;" horiz-adv-x="1142" d="M827 1024h123v-1024h-123v72q-156 -92 -297 -92q-199 0 -269.5 112.5t-70.5 396.5v535h123v-530q0 -231 45 -317.5t187 -86.5q61 0 132 21.5t109 44.5l41 20v848zM258 1493h125q4 -76 53 -123t133 -47q88 0 136.5 46t50.5 124h125q-4 -125 -87 -203t-225 -78 q-139 0 -223 78t-88 203z" />
<glyph unicode="&#x16e;" horiz-adv-x="1316" d="M301 418q0 -317 350 -318q365 0 365 318v1009h125v-1009q0 -436 -490 -436q-475 0 -475 436v1009h125v-1009zM885 1735q0 -96 -63.5 -151.5t-164 -55.5t-163 55t-62.5 152q0 94 62.5 149t163 55t164 -55t63.5 -149zM537 1735q0 -53 31.5 -83t88.5 -30q59 0 91 29.5 t32 83.5q0 111 -123 110q-120 1 -120 -110z" />
<glyph unicode="&#x16f;" horiz-adv-x="1142" d="M827 1024h123v-1024h-123v72q-156 -92 -297 -92q-199 0 -269.5 112.5t-70.5 396.5v535h123v-530q0 -231 45 -317.5t187 -86.5q61 0 132 21.5t109 44.5l41 20v848zM375 1325q0 86 60.5 145.5t148.5 59.5q86 0 144 -59.5t58 -145.5q0 -88 -58 -147.5t-144 -59.5 q-88 0 -148.5 59.5t-60.5 147.5zM473 1325q0 -47 32 -81t79 -34q45 0 76.5 34t31.5 81t-31.5 80t-76.5 33q-47 0 -79 -33t-32 -80z" />
<glyph unicode="&#x170;" horiz-adv-x="1316" d="M301 418q0 -317 350 -318q365 0 365 318v1009h125v-1009q0 -436 -490 -436q-475 0 -475 436v1009h125v-1009zM715 1616l327 235l88 -67l-333 -234zM311 1618l328 235l86 -69l-332 -232z" />
<glyph unicode="&#x171;" horiz-adv-x="1142" d="M827 1024h123v-1024h-123v72q-156 -92 -297 -92q-199 0 -269.5 112.5t-70.5 396.5v535h123v-530q0 -231 45 -317.5t187 -86.5q61 0 132 21.5t109 44.5l41 20v848zM647 1276l309 258l84 -76l-313 -256zM258 1276l311 258l82 -76l-313 -256z" />
<glyph unicode="&#x172;" horiz-adv-x="1316" d="M877 -295l12 -104q-84 -18 -150 -19q-78 0 -128 47t-50 127q0 94 133 228q-14 -2 -43 -2q-475 0 -475 436v1009h125v-1009q0 -317 350 -318q365 0 365 318v1009h125v-1009q0 -344 -301 -416q-152 -152 -152 -219q0 -39 23.5 -64.5t60.5 -25.5z" />
<glyph unicode="&#x173;" horiz-adv-x="1142" d="M979 -295l12 -104q-84 -18 -149 -19q-78 0 -128 47t-50 127q0 45 37.5 106.5t70.5 95.5t55 52v62q-156 -92 -297 -92q-199 0 -269.5 112.5t-70.5 396.5v535h123v-530q0 -231 45 -317.5t187 -86.5q61 0 132 21.5t109 44.5l41 20v848h123v-1024h-10q-23 -16 -86 -96 t-63 -121q0 -39 23.5 -64.5t59.5 -25.5z" />
<glyph unicode="&#x174;" horiz-adv-x="1820" d="M92 1427h127l270 -1312h66l285 1292h141l291 -1292h67l263 1312h127l-291 -1427h-258l-271 1241l-260 -1241h-258zM582 1636l274 269h109l272 -269h-145l-181 170l-180 -170h-149z" />
<glyph unicode="&#x175;" horiz-adv-x="1552" d="M70 1024h125l221 -913h47l248 893h131l248 -893h47l221 913h125l-252 -1024h-232l-225 844l-227 -844h-228zM473 1219l252 290h98l256 -290h-139l-164 184l-164 -184h-139z" />
<glyph unicode="&#x176;" horiz-adv-x="1122" d="M625 612v-612h-125v612l-447 815h142l368 -677l363 677h141zM233 1636l275 269h108l273 -269h-146l-180 170l-180 -170h-150z" />
<glyph unicode="&#x177;" horiz-adv-x="985" d="M66 1024h124l265 -909h73l267 909h125l-437 -1485h-125l140 461h-138zM190 1219l252 290h99l256 -290h-140l-163 184l-164 -184h-140z" />
<glyph unicode="&#x178;" horiz-adv-x="1122" d="M625 612v-612h-125v612l-447 815h142l368 -677l363 677h141zM307 1692v161h119v-161h-119zM721 1692v161h119v-161h-119z" />
<glyph unicode="&#x179;" horiz-adv-x="1167" d="M133 1311v116h901v-172l-755 -1097v-41h755v-119h-901v172l756 1096v45h-756zM346 1716l426 195l47 -113l-430 -182z" />
<glyph unicode="&#x17a;" horiz-adv-x="983" d="M121 913v111h739l2 -111l-596 -802h596v-111h-737l-4 111l598 802h-598zM270 1327l426 195l47 -113l-430 -182z" />
<glyph unicode="&#x17b;" horiz-adv-x="1167" d="M133 1311v116h901v-172l-755 -1097v-41h755v-119h-901v172l756 1096v45h-756zM520 1694v153h123v-153h-123z" />
<glyph unicode="&#x17c;" horiz-adv-x="983" d="M121 913v111h739l2 -111l-596 -802h596v-111h-737l-4 111l598 802h-598zM430 1276v154h123v-154h-123z" />
<glyph unicode="&#x17d;" horiz-adv-x="1167" d="M133 1311v116h901v-172l-755 -1097v-41h755v-119h-901v172l756 1096v45h-756zM926 1901l-273 -269h-108l-275 269h148l182 -172l178 172h148z" />
<glyph unicode="&#x17e;" horiz-adv-x="983" d="M121 913v111h739l2 -111l-596 -802h596v-111h-737l-4 111l598 802h-598zM422 1219l-252 290h137l166 -182l164 182h139l-254 -290h-100z" />
<glyph unicode="&#x17f;" horiz-adv-x="995" d="M831 1010l-4 -107q-215 31 -344 31q-231 0 -231 -176q0 -76 51 -112t205 -60q207 -33 282.5 -90.5t75.5 -198.5q0 -172 -99 -244.5t-286 -72.5l-344 36l8 107q221 -35 326 -35q139 0 204.5 44t65.5 159q0 88 -52 120.5t-218 61.5q-188 33 -266 90.5t-78 190.5 q0 152 101.5 220t248.5 68q70 0 158 -8t143 -16z" />
<glyph unicode="&#x189;" horiz-adv-x="1323" d="M47 655v119h158v653h497q139 0 240.5 -54t157 -153.5t81 -218t25.5 -266.5q0 -150 -24.5 -274.5t-79.5 -232t-157.5 -168t-242.5 -60.5h-497v655h-158zM1075 735q0 115 -17.5 212t-58.5 182t-116.5 133.5t-180.5 48.5h-372v-537h327v-119h-327v-538h372q104 0 181.5 55 t117 148.5t57 195.5t17.5 219z" />
<glyph unicode="&#x192;" d="M580 -135q0 -201 -73 -284t-216 -83q-33 0 -67 3t-52 7l-18 5l2 100q78 -6 135 -6q168 0 168 258v868h-232v113h232v125q0 242 60.5 334t207.5 92q178 0 242 -15l-2 -102q-158 4 -222 4q-166 0 -165 -258v-180h352v-113h-352v-868z" />
<glyph unicode="&#x1a0;" horiz-adv-x="1337" d="M729 993l90 455h135l-109 -455h-116zM668 96q236 0 325.5 139.5t89.5 471.5q0 322 -94 473t-321.5 151t-320.5 -150.5t-93 -473.5q0 -326 91.5 -468.5t322.5 -142.5zM668 -20q-297 0 -421 175t-124 551.5t126 559t419 182.5q295 0 420.5 -182.5t125.5 -558.5 q0 -385 -123.5 -556t-422.5 -171z" />
<glyph unicode="&#x1a1;" horiz-adv-x="1079" d="M605 588l90 455h135l-109 -455h-116zM543 1042q219 0 317 -128t98 -388q0 -276 -91 -411t-324 -135q-238 0 -330 131t-92 417q0 266 95.5 390t326.5 124zM543 88q174 0 231 105.5t57 332.5q0 209 -67.5 308.5t-220.5 99.5q-164 0 -230.5 -94.5t-66.5 -311.5 q0 -236 60.5 -338t236.5 -102z" />
<glyph unicode="&#x1af;" horiz-adv-x="1316" d="M1203 993l90 455h135l-109 -455h-116zM301 418q0 -317 350 -318q365 0 365 318v1009h125v-1009q0 -436 -490 -436q-475 0 -475 436v1009h125v-1009z" />
<glyph unicode="&#x1b0;" horiz-adv-x="1142" d="M1012 588l90 455h135l-109 -455h-116zM827 1024h123v-1024h-123v72q-156 -92 -297 -92q-199 0 -269.5 112.5t-70.5 396.5v535h123v-530q0 -231 45 -317.5t187 -86.5q61 0 132 21.5t109 44.5l41 20v848z" />
<glyph unicode="&#x1c0;" d="M469 -512v2048h125v-2048h-125z" />
<glyph unicode="&#x1c1;" horiz-adv-x="2170" d="M1554 -512v2048h125v-2048h-125zM469 -512v2048h125v-2048h-125z" />
<glyph unicode="&#x1c4;" horiz-adv-x="2490" d="M1456 1311v116h901v-172l-755 -1097v-41h755v-119h-901v172l756 1096v45h-756zM2249 1901l-273 -269h-108l-275 269h148l182 -172l178 172h148zM702 0h-497v1427h497q139 0 240.5 -54t157 -153.5t81 -218t25.5 -266.5q0 -150 -24.5 -274.5t-79.5 -232t-158 -168 t-242 -60.5zM1075 735q0 115 -17.5 212t-58.5 182t-116.5 133.5t-180.5 48.5h-372v-1194h372q104 0 181.5 55t117 148.5t57 195.5t17.5 219z" />
<glyph unicode="&#x1c5;" horiz-adv-x="2306" d="M1444 913v111h739l2 -111l-596 -802h596v-111h-737l-4 111l598 802h-598zM1745 1219l-252 290h137l166 -182l164 182h139l-254 -290h-100zM702 0h-497v1427h497q139 0 240.5 -54t157 -153.5t81 -218t25.5 -266.5q0 -150 -24.5 -274.5t-79.5 -232t-158 -168t-242 -60.5z M1075 735q0 115 -17.5 212t-58.5 182t-116.5 133.5t-180.5 48.5h-372v-1194h372q104 0 181.5 55t117 148.5t57 195.5t17.5 219z" />
<glyph unicode="&#x1c6;" horiz-adv-x="2088" d="M1227 913v111h739l2 -111l-596 -802h596v-111h-737l-4 111l598 802h-598zM1528 1219l-252 290h137l166 -182l164 182h139l-254 -290h-100zM913 1479v-1479h-122v66q-156 -86 -306 -86q-358 0 -358 524q0 270 102.5 404t323.5 134q90 0 238 -24v461h122zM496 90 q59 0 132.5 20.5t116.5 41.5l46 20v741q-129 20 -232 21q-164 0 -235.5 -108.5t-71.5 -325.5q0 -410 244 -410z" />
<glyph unicode="&#x1c7;" horiz-adv-x="1689" d="M1505 1430l2 -1211q0 -121 -16 -191.5t-62.5 -110.5t-109.5 -52t-176 -12v114q145 0 191 50.5t46 218.5v1194h125zM961 0h-756v1427h125v-1308h631v-119z" />
<glyph unicode="&#x1c8;" horiz-adv-x="1558" d="M1264 12v1012h123v-1014q0 -184 -61.5 -274t-258.5 -199l-53 105q158 92 204 160.5t46 209.5zM1264 1274v153h123v-153h-123zM961 0h-756v1427h125v-1308h631v-119z" />
<glyph unicode="&#x1c9;" horiz-adv-x="978" d="M684 12v1012h123v-1014q0 -184 -61.5 -274t-258.5 -199l-53 105q158 92 204 160.5t46 209.5zM684 1274v153h123v-153h-123zM180 0v1479h123v-1479h-123z" />
<glyph unicode="&#x1ca;" horiz-adv-x="2039" d="M1855 1430l2 -1211q0 -121 -16 -191.5t-62.5 -110.5t-109.5 -52t-176 -12v114q145 0 191 50.5t46 218.5v1194h125zM205 0v1427h246l585 -1302h47v1302h127v-1427h-243l-592 1303h-45v-1303h-125z" />
<glyph unicode="&#x1cb;" horiz-adv-x="1908" d="M1614 12v1012h123v-1014q0 -184 -61.5 -274t-258.5 -199l-53 105q158 92 204 160.5t46 209.5zM1614 1274v153h123v-153h-123zM205 0v1427h246l585 -1302h47v1302h127v-1427h-243l-592 1303h-45v-1303h-125z" />
<glyph unicode="&#x1cc;" horiz-adv-x="1662" d="M1368 12v1012h123v-1014q0 -184 -61.5 -274t-258.5 -199l-53 105q158 92 204 160.5t46 209.5zM1368 1274v153h123v-153h-123zM330 0h-123v1024h123v-74q158 92 313 92q201 0 270.5 -113.5t69.5 -396.5v-532h-123v530q0 223 -45 312.5t-186 89.5q-68 0 -142.5 -21.5 t-115.5 -42.5l-41 -22v-846z" />
<glyph unicode="&#x1cd;" horiz-adv-x="1236" d="M948 1839l-272 -269h-109l-274 269h147l183 -172l178 172h147zM74 0l409 1427h277l405 -1427h-127l-120 391h-603l-114 -391h-127zM575 1315l-229 -807h545l-229 807h-87z" />
<glyph unicode="&#x1ce;" horiz-adv-x="1064" d="M509 1166l-251 290h137l166 -182l164 182h139l-254 -290h-101zM872 715v-535q29 -80 136 -92l-9 -106q-150 0 -225 81q-174 -84 -368 -83q-125 0 -204 85t-79 224q0 272 305 303l322 31v94q0 111 -48.5 161t-144.5 50q-72 0 -166 -7.5t-153 -15.5l-58 -6l-6 107 q227 37 387 36.5t235.5 -80t75.5 -247.5zM750 522l-308 -26q-195 -18 -194 -205q0 -88 48 -146.5t122 -58.5q78 0 161 17.5t126 35.5l45 17v366z" />
<glyph unicode="&#x1cf;" horiz-adv-x="489" d="M571 1839l-272 -269h-109l-274 269h147l183 -172l178 172h147zM182 0v1427h125v-1427h-125z" />
<glyph unicode="&#x1d0;" horiz-adv-x="538" d="M217 1166l-251 290h137l166 -182l164 182h139l-254 -290h-101zM207 0v1024h123v-1024h-123z" />
<glyph unicode="&#x1d1;" horiz-adv-x="1337" d="M995 1839l-272 -269h-109l-274 269h147l183 -172l178 172h147zM668 96q236 0 325.5 139.5t89.5 471.5q0 322 -94 473t-321.5 151t-320.5 -150.5t-93 -473.5q0 -326 91.5 -468.5t322.5 -142.5zM668 -20q-297 0 -421 175t-124 551.5t126 559t419 182.5q295 0 420.5 -182.5 t125.5 -558.5q0 -385 -123.5 -556t-422.5 -171z" />
<glyph unicode="&#x1d2;" horiz-adv-x="1079" d="M491 1166l-251 290h137l166 -182l164 182h139l-254 -290h-101zM543 1042q219 0 317 -128t98 -388q0 -276 -91 -411t-324 -135q-238 0 -330 131t-92 417q0 266 95.5 390t326.5 124zM543 88q174 0 231 105.5t57 332.5q0 209 -67.5 308.5t-220.5 99.5q-164 0 -230.5 -94.5 t-66.5 -311.5q0 -236 60.5 -338t236.5 -102z" />
<glyph unicode="&#x1d3;" horiz-adv-x="1316" d="M985 1839l-272 -269h-109l-274 269h147l183 -172l178 172h147zM301 418q0 -317 350 -318q365 0 365 318v1009h125v-1009q0 -436 -490 -436q-475 0 -475 436v1009h125v-1009z" />
<glyph unicode="&#x1d4;" horiz-adv-x="1142" d="M518 1166l-251 290h137l166 -182l164 182h139l-254 -290h-101zM827 1024h123v-1024h-123v72q-156 -92 -297 -92q-199 0 -269.5 112.5t-70.5 396.5v535h123v-530q0 -231 45 -317.5t187 -86.5q61 0 132 21.5t109 44.5l41 20v848z" />
<glyph unicode="&#x1d5;" horiz-adv-x="1316" d="M365 1985v108h618v-108h-618zM301 418q0 -317 350 -318q365 0 365 318v1009h125v-1009q0 -436 -490 -436q-475 0 -475 436v1009h125v-1009zM408 1700v162h118v-162h-118zM821 1700v162h119v-162h-119z" />
<glyph unicode="&#x1d6;" horiz-adv-x="1142" d="M293 1575v108h578v-108h-578zM827 1024h123v-1024h-123v72q-156 -92 -297 -92q-199 0 -269.5 112.5t-70.5 396.5v535h123v-530q0 -231 45 -317.5t187 -86.5q61 0 132 21.5t109 44.5l41 20v848zM322 1290v162h118v-162h-118zM723 1290v162h119v-162h-119z" />
<glyph unicode="&#x1d7;" horiz-adv-x="1316" d="M630 2085l426 195l48 -113l-431 -182zM301 418q0 -317 350 -318q365 0 365 318v1009h125v-1009q0 -436 -490 -436q-475 0 -475 436v1009h125v-1009zM408 1700v162h118v-162h-118zM821 1700v162h119v-162h-119z" />
<glyph unicode="&#x1d8;" horiz-adv-x="1142" d="M538 1675l426 195l48 -113l-431 -182zM827 1024h123v-1024h-123v72q-156 -92 -297 -92q-199 0 -269.5 112.5t-70.5 396.5v535h123v-530q0 -231 45 -317.5t187 -86.5q61 0 132 21.5t109 44.5l41 20v848zM322 1290v162h118v-162h-118zM723 1290v162h119v-162h-119z" />
<glyph unicode="&#x1d9;" horiz-adv-x="1316" d="M1001 2253l-272 -269h-109l-274 269h147l183 -172l178 172h147zM301 418q0 -317 350 -318q365 0 365 318v1009h125v-1009q0 -436 -490 -436q-475 0 -475 436v1009h125v-1009zM408 1700v162h118v-162h-118zM821 1700v162h119v-162h-119z" />
<glyph unicode="&#x1da;" horiz-adv-x="1142" d="M530 1575l-251 290h137l166 -182l164 182h139l-254 -290h-101zM827 1024h123v-1024h-123v72q-156 -92 -297 -92q-199 0 -269.5 112.5t-70.5 396.5v535h123v-530q0 -231 45 -317.5t187 -86.5q61 0 132 21.5t109 44.5l41 20v848zM322 1290v162h118v-162h-118zM723 1290v162 h119v-162h-119z" />
<glyph unicode="&#x1db;" horiz-adv-x="1316" d="M291 2278l426 -195l-43 -98l-431 180zM301 418q0 -317 350 -318q365 0 365 318v1009h125v-1009q0 -436 -490 -436q-475 0 -475 436v1009h125v-1009zM408 1700v162h118v-162h-118zM821 1700v162h119v-162h-119z" />
<glyph unicode="&#x1dc;" horiz-adv-x="1142" d="M199 1870l426 -195l-43 -100l-431 182zM827 1024h123v-1024h-123v72q-156 -92 -297 -92q-199 0 -269.5 112.5t-70.5 396.5v535h123v-530q0 -231 45 -317.5t187 -86.5q61 0 132 21.5t109 44.5l41 20v848zM322 1290v162h118v-162h-118zM723 1290v162h119v-162h-119z" />
<glyph unicode="&#x1de;" horiz-adv-x="1236" d="M310 1979v108h618v-108h-618zM74 0l409 1427h277l405 -1427h-127l-120 391h-603l-114 -391h-127zM575 1315l-229 -807h545l-229 807h-87zM352 1694v161h119v-161h-119zM766 1694v161h119v-161h-119z" />
<glyph unicode="&#x1df;" horiz-adv-x="1093" d="M248 1575v108h578v-108h-578zM872 715v-535q29 -80 136 -92l-9 -106q-150 0 -225 81q-174 -84 -368 -83q-125 0 -204 85t-79 224q0 272 305 303l322 31v94q0 111 -48.5 161t-144.5 50q-72 0 -166 -7.5t-153 -15.5l-58 -6l-6 107q227 37 387 36.5t235.5 -80t75.5 -247.5z M750 522l-308 -26q-195 -18 -194 -205q0 -88 48 -146.5t122 -58.5q78 0 161 17.5t126 35.5l45 17v366zM276 1290v162h119v-162h-119zM678 1290v162h119v-162h-119z" />
<glyph unicode="&#x1e2;" horiz-adv-x="1716" d="M713 1571v108h618v-108h-618zM758 0v391h-469l-117 -391h-127l410 1427h1134v-116h-706v-527h583v-114h-583v-553h706v-117h-831zM547 1311l-230 -803h441v803h-211z" />
<glyph unicode="&#x1e3;" horiz-adv-x="1695" d="M586 1166v108h578v-108h-578zM1165 90q63 0 156.5 4t153.5 8l61 7l4 -101q-219 -29 -383 -28q-205 0 -301 114l-70 -31q-188 -84 -395 -83q-129 0 -201.5 79.5t-72.5 229.5q0 160 82 221t284 86l277 27v94q0 211 -195 211l-387 -21l-6 109q236 27 395 26q223 0 281 -168 q98 168 332 168q199 0 298 -117.5t99 -365.5l-4 -98h-690q0 -186 64 -278.5t218 -92.5zM406 86q174 0 397 86q-47 113 -47 348l-326 -28q-96 -10 -142 -58.5t-46 -142.5q0 -98 44 -151.5t120 -53.5zM881 561h573q0 201 -65.5 288t-210.5 87q-295 0 -297 -375z" />
<glyph unicode="&#x1e6;" horiz-adv-x="1251" d="M983 1839l-272 -269h-109l-274 269h147l183 -172l178 172h147zM725 612v113h379v-698q-285 -47 -447 -47q-299 0 -416.5 185t-117.5 546q0 178 23.5 305t82 228.5t165 152.5t261.5 51q92 0 205 -13.5t178 -25.5l66 -12l-6 -115q-250 47 -432 47q-102 0 -175 -28.5 t-119 -79t-73 -130t-36 -168.5t-9 -212q0 -154 16.5 -258.5t60.5 -189.5t126 -125t207 -40q55 0 130.5 8.5t129 16.5t55.5 8v481h-254z" />
<glyph unicode="&#x1e7;" horiz-adv-x="1048" d="M434 1168l-251 290h137l166 -182l164 182h139l-254 -290h-101zM530 -489q-213 0 -316 73.5t-103 245.5q0 82 42 139.5t126 120.5q-53 33 -54 137q0 16 17.5 57.5t33.5 73.5l17 33q-168 84 -168 305q0 162 100.5 255t259.5 93q45 0 91.5 -6t70.5 -14l23 -6l313 6v-109 h-207q80 -76 80 -219q0 -342 -377 -342q-47 0 -96 8q-39 -100 -39 -126q0 -47 14.5 -65.5t62.5 -27t167 -8.5q211 0 299 -58.5t88 -223.5q0 -170 -117 -256t-328 -86zM580 29l-218 8q-72 -59 -100.5 -98t-28.5 -101q0 -117 74 -168t225 -51q154 0 235 58.5t81 171t-59 146.5 t-209 34zM479 459q252 0 252 237q0 242 -248 242q-113 0 -174 -63.5t-61 -178.5q0 -237 231 -237z" />
<glyph unicode="&#x1e8;" horiz-adv-x="1218" d="M977 1839l-272 -269h-109l-274 269h147l183 -172l178 172h147zM971 0l-414 645l-227 -4v-641h-125v1427h125v-669l223 4l395 665h148l-430 -714l456 -713h-151z" />
<glyph unicode="&#x1e9;" horiz-adv-x="1007" d="M217 1602l-251 290h137l166 -182l164 182h139l-254 -290h-101zM330 0h-123v1479h123v-873l155 4l324 414h141l-356 -469l358 -555h-139l-326 492l-157 -7v-485z" />
<glyph unicode="&#x1ea;" horiz-adv-x="1337" d="M764 -315l12 -104q-84 -18 -149 -19q-78 0 -128 47t-50 127q0 102 157 250l11 8l110 -12q-152 -152 -151 -219q0 -39 23.5 -64.5t60.5 -25.5zM668 96q236 0 325.5 139.5t89.5 471.5q0 322 -94 473t-321.5 151t-320.5 -150.5t-93 -473.5q0 -326 91.5 -468.5t322.5 -142.5z M668 -20q-297 0 -421 175t-124 551.5t126 559t419 182.5q295 0 420.5 -182.5t125.5 -558.5q0 -385 -123.5 -556t-422.5 -171z" />
<glyph unicode="&#x1eb;" horiz-adv-x="1079" d="M641 -315l12 -104q-84 -18 -149 -19q-78 0 -128 47t-50 127q0 102 157 250l11 8l110 -12q-152 -152 -151 -219q0 -39 23.5 -64.5t60.5 -25.5zM543 1042q219 0 317 -128t98 -388q0 -276 -91 -411t-324 -135q-238 0 -330 131t-92 417q0 266 95.5 390t326.5 124zM543 88 q174 0 231 105.5t57 332.5q0 209 -67.5 308.5t-220.5 99.5q-164 0 -230.5 -94.5t-66.5 -311.5q0 -236 60.5 -338t236.5 -102z" />
<glyph unicode="&#x1ec;" horiz-adv-x="1337" d="M359 1571v108h618v-108h-618zM764 -315l12 -104q-84 -18 -149 -19q-78 0 -128 47t-50 127q0 102 157 250l11 8l110 -12q-152 -152 -151 -219q0 -39 23.5 -64.5t60.5 -25.5zM668 96q236 0 325.5 139.5t89.5 471.5q0 322 -94 473t-321.5 151t-320.5 -150.5t-93 -473.5 q0 -326 91.5 -468.5t322.5 -142.5zM668 -20q-297 0 -421 175t-124 551.5t126 559t419 182.5q295 0 420.5 -182.5t125.5 -558.5q0 -385 -123.5 -556t-422.5 -171z" />
<glyph unicode="&#x1ed;" horiz-adv-x="1079" d="M254 1166v108h578v-108h-578zM641 -315l12 -104q-84 -18 -149 -19q-78 0 -128 47t-50 127q0 102 157 250l11 8l110 -12q-152 -152 -151 -219q0 -39 23.5 -64.5t60.5 -25.5zM543 1042q219 0 317 -128t98 -388q0 -276 -91 -411t-324 -135q-238 0 -330 131t-92 417 q0 266 95.5 390t326.5 124zM543 88q174 0 231 105.5t57 332.5q0 209 -67.5 308.5t-220.5 99.5q-164 0 -230.5 -94.5t-66.5 -311.5q0 -236 60.5 -338t236.5 -102z" />
<glyph unicode="&#x1f0;" horiz-adv-x="495" d="M210 1166l-251 290h137l166 -182l164 182h139l-254 -290h-101zM201 12v1012h123v-1014q0 -184 -61.5 -274t-258.5 -199l-53 105q158 92 204 160.5t46 209.5z" />
<glyph unicode="&#x1f1;" horiz-adv-x="2490" d="M1456 1311v116h901v-172l-755 -1097v-41h755v-119h-901v172l756 1096v45h-756zM702 0h-497v1427h497q139 0 240.5 -54t157 -153.5t81 -218t25.5 -266.5q0 -150 -24.5 -274.5t-79.5 -232t-158 -168t-242 -60.5zM1075 735q0 115 -17.5 212t-58.5 182t-116.5 133.5 t-180.5 48.5h-372v-1194h372q104 0 181.5 55t117 148.5t57 195.5t17.5 219z" />
<glyph unicode="&#x1f2;" horiz-adv-x="2306" d="M1444 913v111h739l2 -111l-596 -802h596v-111h-737l-4 111l598 802h-598zM702 0h-497v1427h497q139 0 240.5 -54t157 -153.5t81 -218t25.5 -266.5q0 -150 -24.5 -274.5t-79.5 -232t-158 -168t-242 -60.5zM1075 735q0 115 -17.5 212t-58.5 182t-116.5 133.5t-180.5 48.5 h-372v-1194h372q104 0 181.5 55t117 148.5t57 195.5t17.5 219z" />
<glyph unicode="&#x1f3;" horiz-adv-x="2088" d="M1227 913v111h739l2 -111l-596 -802h596v-111h-737l-4 111l598 802h-598zM913 1479v-1479h-122v66q-156 -86 -306 -86q-358 0 -358 524q0 270 102.5 404t323.5 134q90 0 238 -24v461h122zM496 90q59 0 132.5 20.5t116.5 41.5l46 20v741q-129 20 -232 21 q-164 0 -235.5 -108.5t-71.5 -325.5q0 -410 244 -410z" />
<glyph unicode="&#x1f4;" horiz-adv-x="1251" d="M612 1671l426 195l48 -113l-431 -182zM725 612v113h379v-698q-285 -47 -447 -47q-299 0 -416.5 185t-117.5 546q0 178 23.5 305t82 228.5t165 152.5t261.5 51q92 0 205 -13.5t178 -25.5l66 -12l-6 -115q-250 47 -432 47q-102 0 -175 -28.5t-119 -79t-73 -130t-36 -168.5 t-9 -212q0 -154 16.5 -258.5t60.5 -189.5t126 -125t207 -40q55 0 130.5 8.5t129 16.5t55.5 8v481h-254z" />
<glyph unicode="&#x1f5;" horiz-adv-x="1048" d="M442 1268l426 195l48 -113l-431 -182zM530 -489q-213 0 -316 73.5t-103 245.5q0 82 42 139.5t126 120.5q-53 33 -54 137q0 16 17.5 57.5t33.5 73.5l17 33q-168 84 -168 305q0 162 100.5 255t259.5 93q45 0 91.5 -6t70.5 -14l23 -6l313 6v-109h-207q80 -76 80 -219 q0 -342 -377 -342q-47 0 -96 8q-39 -100 -39 -126q0 -47 14.5 -65.5t62.5 -27t167 -8.5q211 0 299 -58.5t88 -223.5q0 -170 -117 -256t-328 -86zM580 29l-218 8q-72 -59 -100.5 -98t-28.5 -101q0 -117 74 -168t225 -51q154 0 235 58.5t81 171t-59 146.5t-209 34zM479 459 q252 0 252 237q0 242 -248 242q-113 0 -174 -63.5t-61 -178.5q0 -237 231 -237z" />
<glyph unicode="&#x1f8;" horiz-adv-x="1413" d="M324 1864l426 -195l-43 -98l-431 180zM205 0v1427h246l585 -1302h47v1302h127v-1427h-243l-592 1303h-45v-1303h-125z" />
<glyph unicode="&#x1f9;" horiz-adv-x="1167" d="M213 1461l426 -195l-43 -100l-431 182zM330 0h-123v1024h123v-74q158 92 313 92q201 0 270.5 -113.5t69.5 -396.5v-532h-123v530q0 223 -45 312.5t-186 89.5q-68 0 -142.5 -21.5t-115.5 -42.5l-41 -22v-846z" />
<glyph unicode="&#x1fa;" horiz-adv-x="1236" d="M842 1536q0 -98 -70 -156l393 -1380h-127l-120 391h-603l-114 -391h-127l393 1370q-78 55 -78 166q0 94 62.5 149.5t163 55.5t164 -55.5t63.5 -149.5zM575 1315l-229 -807h545l-229 807h-87zM377 1905l426 194l47 -112l-430 -183zM494 1536q0 -92 84 -109h73 q86 16 86 109q0 111 -123 111q-120 0 -120 -111z" />
<glyph unicode="&#x1fb;" horiz-adv-x="1064" d="M872 715v-535q29 -80 136 -92l-9 -106q-150 0 -225 81q-174 -84 -368 -83q-125 0 -204 85t-79 224q0 272 305 303l322 31v94q0 111 -48.5 161t-144.5 50q-72 0 -166 -7.5t-153 -15.5l-58 -6l-6 107q227 37 387 36.5t235.5 -80t75.5 -247.5zM750 522l-308 -26 q-195 -18 -194 -205q0 -88 48 -146.5t122 -58.5q78 0 161 17.5t126 35.5l45 17v366zM326 1325q0 86 60 145.5t149 59.5q86 0 144 -59.5t58 -145.5q0 -88 -58 -147.5t-144 -59.5q-88 0 -148.5 59.5t-60.5 147.5zM424 1325q0 -47 31.5 -81t79.5 -34q45 0 76.5 34t31.5 81 t-31.5 80t-76.5 33q-47 0 -79 -33t-32 -80zM297 1587l426 195l47 -113l-430 -182z" />
<glyph unicode="&#x1fc;" horiz-adv-x="1716" d="M758 0v391h-469l-117 -391h-127l410 1427h1134v-116h-706v-527h583v-114h-583v-553h706v-117h-831zM547 1311l-230 -803h441v803h-211zM621 1716l426 195l47 -113l-430 -182z" />
<glyph unicode="&#x1fd;" horiz-adv-x="1695" d="M1165 90q63 0 156.5 4t153.5 8l61 7l4 -101q-219 -29 -383 -28q-205 0 -301 114l-70 -31q-188 -84 -395 -83q-129 0 -201.5 79.5t-72.5 229.5q0 160 82 221t284 86l277 27v94q0 211 -195 211l-387 -21l-6 109q236 27 395 26q223 0 281 -168q98 168 332 168 q199 0 298 -117.5t99 -365.5l-4 -98h-690q0 -186 64 -278.5t218 -92.5zM406 86q174 0 397 86q-47 113 -47 348l-326 -28q-96 -10 -142 -58.5t-46 -142.5q0 -98 44 -151.5t120 -53.5zM881 561h573q0 201 -65.5 288t-210.5 87q-295 0 -297 -375zM631 1327l426 195l47 -113 l-430 -182z" />
<glyph unicode="&#x1fe;" horiz-adv-x="1343" d="M420 1716l426 195l47 -113l-430 -182zM668 96q236 0 325.5 139.5t89.5 471.5q0 322 -94 473t-321.5 151t-320.5 -150.5t-93 -473.5q0 -326 91.5 -468.5t322.5 -142.5zM668 -20q-297 0 -421 175t-124 551.5t126 559t419 182.5q295 0 420.5 -182.5t125.5 -558.5 q0 -385 -123.5 -556t-422.5 -171z" />
<glyph unicode="&#x1ff;" horiz-adv-x="1079" d="M543 1042q84 0 155 -22l-6 -16l-10 -29l-25 -60q-49 18 -114 19q-164 0 -230.5 -94.5t-66.5 -311.5q0 -299 100 -383l-27 -65l-16 -27l-8 -18q-94 55 -134 176t-40 317q0 266 95.5 390t326.5 124zM543 88q174 0 231 105.5t57 332.5q0 248 -98 344l31 74l14 27l4 12 q176 -111 176 -457q0 -276 -91 -411t-324 -135q-98 0 -162 20l10 25l8 26l21 53q47 -16 123 -16zM346 145q33 -29 74 -41l313 766q-39 33 -76 45zM303 1327l426 195l47 -113l-430 -182zM199 -201l88 -30l94 231q-53 14 -86 35zM788 1239l-90 -219q47 -12 84 -37l95 225z" />
<glyph unicode="&#x202;" horiz-adv-x="1236" d="M311 1571h125q4 76 53.5 123t133.5 47q88 0 136 -46t50 -124h125q-4 125 -87 203t-224 78q-139 0 -223.5 -78t-88.5 -203zM74 0l409 1427h277l405 -1427h-127l-120 391h-603l-114 -391h-127zM575 1315l-229 -807h545l-229 807h-87z" />
<glyph unicode="&#x203;" horiz-adv-x="1064" d="M249 1165h125q4 76 53.5 123t133.5 47q88 0 136 -46t50 -124h125q-4 125 -87 203t-224 78q-139 0 -223.5 -78t-88.5 -203zM872 715v-535q29 -80 136 -92l-9 -106q-150 0 -225 81q-174 -84 -368 -83q-125 0 -204 85t-79 224q0 272 305 303l322 31v94q0 111 -48.5 161 t-144.5 50q-72 0 -166 -7.5t-153 -15.5l-58 -6l-6 107q227 37 387 36.5t235.5 -80t75.5 -247.5zM750 522l-308 -26q-195 -18 -194 -205q0 -88 48 -146.5t122 -58.5q78 0 161 17.5t126 35.5l45 17v366z" />
<glyph unicode="&#x206;" horiz-adv-x="1161" d="M309 1571h125q4 76 53.5 123t133.5 47q88 0 136 -46t50 -124h125q-4 125 -87 203t-224 78q-139 0 -223.5 -78t-88.5 -203zM205 0v1427h831v-116h-706v-527h583v-114h-583v-553h706v-117h-831z" />
<glyph unicode="&#x207;" horiz-adv-x="1038" d="M221 1165h125q4 76 53.5 123t133.5 47q88 0 136 -46t50 -124h125q-4 125 -87 203t-224 78q-139 0 -223.5 -78t-88.5 -203zM520 90q66 0 157 4t150 8l58 7l4 -101q-211 -29 -375 -28q-211 0 -303 136t-92 392q0 270 109.5 402t303.5 132q393 0 394 -483l-4 -98h-678 q4 -371 276 -371zM244 561h559q0 199 -66.5 287t-204.5 88q-135 0 -211.5 -91t-76.5 -284z" />
<glyph unicode="&#x20a;" horiz-adv-x="489" d="M-66 1571h125q4 76 53.5 123t133.5 47q88 0 136 -46t50 -124h125q-4 125 -87 203t-224 78q-139 0 -223.5 -78t-88.5 -203zM182 0v1427h125v-1427h-125z" />
<glyph unicode="&#x20b;" horiz-adv-x="538" d="M-43 1165h125q4 76 53.5 123t133.5 47q88 0 136 -46t50 -124h125q-4 125 -87 203t-224 78q-139 0 -223.5 -78t-88.5 -203zM207 0v1024h123v-1024h-123z" />
<glyph unicode="&#x20e;" horiz-adv-x="1337" d="M356 1571h125q4 76 53.5 123t133.5 47q88 0 136 -46t50 -124h125q-4 125 -87 203t-224 78q-139 0 -223.5 -78t-88.5 -203zM668 96q236 0 325.5 139.5t89.5 471.5q0 322 -94 473t-321.5 151t-320.5 -150.5t-93 -473.5q0 -326 91.5 -468.5t322.5 -142.5zM668 -20 q-297 0 -421 175t-124 551.5t126 559t419 182.5q295 0 420.5 -182.5t125.5 -558.5q0 -385 -123.5 -556t-422.5 -171z" />
<glyph unicode="&#x20f;" horiz-adv-x="1079" d="M231 1165h125q4 76 53.5 123t133.5 47q88 0 136 -46t50 -124h125q-4 125 -87 203t-224 78q-139 0 -223.5 -78t-88.5 -203zM543 1042q219 0 317 -128t98 -388q0 -276 -91 -411t-324 -135q-238 0 -330 131t-92 417q0 266 95.5 390t326.5 124zM543 88q174 0 231 105.5 t57 332.5q0 209 -67.5 308.5t-220.5 99.5q-164 0 -230.5 -94.5t-66.5 -311.5q0 -236 60.5 -338t236.5 -102z" />
<glyph unicode="&#x212;" horiz-adv-x="1280" d="M143 1571h125q4 76 53.5 123t133.5 47q88 0 136 -46t50 -124h125q-4 125 -87 203t-224 78q-139 0 -223.5 -78t-88.5 -203zM745 563l-49 -2h-366v-561h-125v1427h497q442 0 443 -423q0 -344 -273 -416l291 -588h-139zM1016 1003.5q0 149.5 -79 228.5t-235 79h-372v-635 h375q164 0 237.5 89t73.5 238.5z" />
<glyph unicode="&#x213;" horiz-adv-x="727" d="M118 1167h125q4 76 53.5 123t133.5 47q88 0 136 -46t50 -124h125q-4 125 -87 203t-224 78q-139 0 -223.5 -78t-88.5 -203zM188 0v1024h123v-145q164 125 359 165v-124q-180 -39 -359 -154v-766h-123z" />
<glyph unicode="&#x216;" horiz-adv-x="1316" d="M348 1571h125q4 76 53.5 123t133.5 47q88 0 136 -46t50 -124h125q-4 125 -87 203t-224 78q-139 0 -223.5 -78t-88.5 -203zM301 418q0 -317 350 -318q365 0 365 318v1009h125v-1009q0 -436 -490 -436q-475 0 -475 436v1009h125v-1009z" />
<glyph unicode="&#x217;" horiz-adv-x="1142" d="M258 1165h125q4 76 53.5 123t133.5 47q88 0 136 -46t50 -124h125q-4 125 -87 203t-224 78q-139 0 -223.5 -78t-88.5 -203zM827 1024h123v-1024h-123v72q-156 -92 -297 -92q-199 0 -269.5 112.5t-70.5 396.5v535h123v-530q0 -231 45 -317.5t187 -86.5q61 0 132 21.5 t109 44.5l41 20v848z" />
<glyph unicode="&#x218;" horiz-adv-x="1093" d="M963 1413l-9 -113q-274 33 -393 33q-156 0 -237.5 -64.5t-81.5 -187.5q0 -139 75.5 -196.5t276.5 -98.5q219 -47 310 -124.5t91 -247.5q0 -223 -107.5 -326.5t-332.5 -103.5q-74 0 -180.5 8t-177.5 16l-70 10l10 115q270 -33 412 -33q319 0 319 306q0 119 -71.5 175 t-255.5 93q-233 49 -329.5 132t-96.5 273q0 184 114.5 278.5t327.5 94.5zM444 -569l82 409h123l-100 -409h-105z" />
<glyph unicode="&#x219;" horiz-adv-x="995" d="M831 1010l-4 -107q-215 31 -344 31q-231 0 -231 -176q0 -76 51 -112t205 -60q207 -33 282.5 -90.5t75.5 -198.5q0 -172 -99 -244.5t-286 -72.5l-344 36l8 107q221 -35 326 -35q139 0 204.5 44t65.5 159q0 88 -52 120.5t-218 61.5q-188 33 -266 90.5t-78 190.5 q0 152 101.5 220t248.5 68q70 0 158 -8t143 -16zM395 -569l82 409h123l-100 -409h-105z" />
<glyph unicode="&#x21a;" horiz-adv-x="1013" d="M405 -532l82 409h123l-100 -409h-105zM18 1309v118h975v-118h-422v-1309h-125v1309h-428z" />
<glyph unicode="&#x21b;" horiz-adv-x="749" d="M385 -555l82 409h123l-100 -409h-105zM659 913h-323v-501q0 -186 30.5 -254t131.5 -68l172 10l8 -104q-119 -18 -191 -19q-150 0 -212 83t-62 288v565h-150v109h150v324h123v-324h323v-109z" />
<glyph unicode="&#x21e;" horiz-adv-x="1409" d="M1032 1839l-272 -269h-109l-274 269h147l183 -172l178 172h147zM1079 0v659h-749v-659h-125v1427h125v-649h749v649h125v-1427h-125z" />
<glyph unicode="&#x21f;" horiz-adv-x="1157" d="M528 1602l-251 290h137l166 -182l164 182h139l-254 -290h-101zM313 0h-120v1479h120v-508q172 72 314 71q201 0 270.5 -113.5t69.5 -396.5v-532h-123v530q0 223 -45 312.5t-187 89.5q-137 0 -299 -70v-862z" />
<glyph unicode="&#x226;" horiz-adv-x="1236" d="M561 1570v154h123v-154h-123zM74 0l409 1427h277l405 -1427h-127l-120 391h-603l-114 -391h-127zM575 1315l-229 -807h545l-229 807h-87z" />
<glyph unicode="&#x227;" horiz-adv-x="1064" d="M500 1165v154h123v-154h-123zM872 715v-535q29 -80 136 -92l-9 -106q-150 0 -225 81q-174 -84 -368 -83q-125 0 -204 85t-79 224q0 272 305 303l322 31v94q0 111 -48.5 161t-144.5 50q-72 0 -166 -7.5t-153 -15.5l-58 -6l-6 107q227 37 387 36.5t235.5 -80t75.5 -247.5z M750 522l-308 -26q-195 -18 -194 -205q0 -88 48 -146.5t122 -58.5q78 0 161 17.5t126 35.5l45 17v366z" />
<glyph unicode="&#x228;" horiz-adv-x="1161" d="M883 -248q0 -168 -182 -168l-172 12l4 84q84 -8 145 -8q92 0 92 84q0 76 -92 76h-96v182h78v-108q121 0 172 -32t51 -122zM205 0v1427h831v-116h-706v-527h583v-114h-583v-553h706v-117h-831z" />
<glyph unicode="&#x229;" horiz-adv-x="1038" d="M776 -268q0 -168 -182 -168l-172 12l4 84q84 -8 145 -8q92 0 92 84q0 76 -92 76h-96v182h78v-108q121 0 172 -32t51 -122zM520 90q66 0 157 4t150 8l58 7l4 -101q-211 -29 -375 -28q-211 0 -303 136t-92 392q0 270 109.5 402t303.5 132q393 0 394 -483l-4 -98h-678 q4 -371 276 -371zM244 561h559q0 199 -66.5 287t-204.5 88q-135 0 -211.5 -91t-76.5 -284z" />
<glyph unicode="&#x22a;" horiz-adv-x="1337" d="M375 1979v108h618v-108h-618zM668 96q236 0 325.5 139.5t89.5 471.5q0 322 -94 473t-321.5 151t-320.5 -150.5t-93 -473.5q0 -326 91.5 -468.5t322.5 -142.5zM668 -20q-297 0 -421 175t-124 551.5t126 559t419 182.5q295 0 420.5 -182.5t125.5 -558.5q0 -385 -123.5 -556 t-422.5 -171zM418 1694v161h119v-161h-119zM831 1694v161h119v-161h-119z" />
<glyph unicode="&#x22b;" horiz-adv-x="1093" d="M266 1575v108h578v-108h-578zM543 1042q219 0 317 -128t98 -388q0 -276 -91 -411t-324 -135q-238 0 -330 131t-92 417q0 266 95.5 390t326.5 124zM543 88q174 0 231 105.5t57 332.5q0 209 -67.5 308.5t-220.5 99.5q-164 0 -230.5 -94.5t-66.5 -311.5q0 -236 60.5 -338 t236.5 -102zM295 1290v162h119v-162h-119zM696 1290v162h119v-162h-119z" />
<glyph unicode="&#x22c;" horiz-adv-x="1337" d="M209 2010v108h618v-108h-618zM668 96q236 0 325.5 139.5t89.5 471.5q0 322 -94 473t-321.5 151t-320.5 -150.5t-93 -473.5q0 -326 91.5 -468.5t322.5 -142.5zM668 -20q-297 0 -421 175t-124 551.5t126 559t419 182.5q295 0 420.5 -182.5t125.5 -558.5q0 -385 -123.5 -556 t-422.5 -171zM999 1866l33 -94q-109 -117 -182 -117q-51 0 -177 60.5t-155 60.5q-20 0 -61 -26t-72 -52l-31 -27l-30 96q117 119 194 119q51 0 176 -59.5t154 -59.5q40 1 151 99z" />
<glyph unicode="&#x22d;" horiz-adv-x="1093" d="M90 1606v108h578v-108h-578zM543 1042q219 0 317 -128t98 -388q0 -276 -91 -411t-324 -135q-238 0 -330 131t-92 417q0 266 95.5 390t326.5 124zM543 88q174 0 231 105.5t57 332.5q0 209 -67.5 308.5t-220.5 99.5q-164 0 -230.5 -94.5t-66.5 -311.5q0 -236 60.5 -338 t236.5 -102zM817 1462l29 -96q-92 -98 -166 -98q-47 0 -159.5 52t-143.5 52q-20 0 -57 -22.5t-64 -44.5l-27 -23l-30 96q102 104 180 105q49 0 160.5 -51.5t140.5 -51.5q18 0 52 20.5t59 41.5z" />
<glyph unicode="&#x22e;" horiz-adv-x="1337" d="M606 1570v154h123v-154h-123zM668 96q236 0 325.5 139.5t89.5 471.5q0 322 -94 473t-321.5 151t-320.5 -150.5t-93 -473.5q0 -326 91.5 -468.5t322.5 -142.5zM668 -20q-297 0 -421 175t-124 551.5t126 559t419 182.5q295 0 420.5 -182.5t125.5 -558.5q0 -385 -123.5 -556 t-422.5 -171z" />
<glyph unicode="&#x22f;" horiz-adv-x="1079" d="M481 1165v154h123v-154h-123zM543 1042q219 0 317 -128t98 -388q0 -276 -91 -411t-324 -135q-238 0 -330 131t-92 417q0 266 95.5 390t326.5 124zM543 88q174 0 231 105.5t57 332.5q0 209 -67.5 308.5t-220.5 99.5q-164 0 -230.5 -94.5t-66.5 -311.5q0 -236 60.5 -338 t236.5 -102z" />
<glyph unicode="&#x230;" horiz-adv-x="1337" d="M359 1848v108h618v-108h-618zM606 1570v154h123v-154h-123zM668 96q236 0 325.5 139.5t89.5 471.5q0 322 -94 473t-321.5 151t-320.5 -150.5t-93 -473.5q0 -326 91.5 -468.5t322.5 -142.5zM668 -20q-297 0 -421 175t-124 551.5t126 559t419 182.5q295 0 420.5 -182.5 t125.5 -558.5q0 -385 -123.5 -556t-422.5 -171z" />
<glyph unicode="&#x237;" horiz-adv-x="495" d="M201 12v1012h123v-1014q0 -184 -61.5 -274t-258.5 -199l-53 105q158 92 204 160.5t46 209.5z" />
<glyph unicode="&#x2c6;" horiz-adv-x="1705" d="M537 1219l251 290h99l256 -290h-139l-164 184l-164 -184h-139z" />
<glyph unicode="&#x2c7;" horiz-adv-x="1705" d="M788 1219l-251 290h137l166 -182l164 182h139l-254 -290h-101z" />
<glyph unicode="&#x2d8;" horiz-adv-x="933" d="M143 1493h125q4 -76 53.5 -123t133.5 -47q88 0 136 46t50 124h125q-4 -125 -87 -203t-224 -78q-139 0 -223.5 78t-88.5 203z" />
<glyph unicode="&#x2d9;" horiz-adv-x="466" d="M172 1276v154h123v-154h-123z" />
<glyph unicode="&#x2da;" horiz-adv-x="1705" d="M342 1325q0 86 60.5 145.5t148.5 59.5q86 0 144.5 -59.5t58.5 -145.5q0 -88 -58.5 -147.5t-144.5 -59.5q-88 0 -148.5 59.5t-60.5 147.5zM440 1325q0 -47 32 -81t79 -34q45 0 76.5 34t31.5 81t-31.5 80t-76.5 33q-47 0 -79 -33t-32 -80z" />
<glyph unicode="&#x2db;" horiz-adv-x="909" d="M686 -295l12 -104q-84 -18 -149 -19q-78 0 -128 47t-50 127q0 102 157 250l11 8l110 -12q-152 -152 -151 -219q0 -39 23.5 -64.5t60.5 -25.5z" />
<glyph unicode="&#x2dc;" horiz-adv-x="909" d="M764 1462l29 -96q-92 -98 -166 -98q-47 0 -160 52t-143 52q-20 0 -57.5 -22.5t-63.5 -44.5l-27 -23l-31 96q102 104 181 105q49 0 160.5 -51.5t140.5 -51.5q18 0 52 20.5t58 41.5z" />
<glyph unicode="&#x2dd;" horiz-adv-x="1423" d="M684 1276l309 258l84 -76l-313 -256zM295 1276l311 258l82 -76l-313 -256z" />
<glyph unicode="&#x300;" horiz-adv-x="1116" d="M324 1522l426 -195l-43 -100l-431 182z" />
<glyph unicode="&#x301;" horiz-adv-x="1705" d="M276 1327l426 195l48 -113l-431 -182z" />
<glyph unicode="&#x304;" horiz-adv-x="933" d="M176 1305v108h578v-108h-578z" />
<glyph unicode="&#x326;" horiz-adv-x="348" d="M61 -569l82 409h123l-100 -409h-105z" />
<glyph unicode="&#x394;" d="M88 98l342 1268h232l344 -1270v-96h-918v98zM569 1251h-47l-303 -1136h653z" />
<glyph unicode="&#x2206;" d="M88 98l342 1268h232l344 -1270v-96h-918v98zM569 1251h-47l-303 -1136h653z" />
<glyph unicode="&#x3a9;" d="M59 88h267q-25 39 -63 105.5t-100.5 243.5t-62.5 321q0 324 94.5 469t348.5 145t347 -145.5t93 -468.5q0 -143 -56.5 -310t-111.5 -264l-57 -96h268v-106h-397v86q10 16 24.5 42.5t54.5 107.5t69.5 158t54 176t24.5 179q0 281 -61.5 399.5t-251.5 118.5 q-82 0 -139.5 -22.5t-91 -60.5t-52 -106.5t-25 -142t-6.5 -186.5q0 -127 56.5 -293t111.5 -268l58 -102v-86h-396v106z" />
<glyph unicode="&#x2126;" d="M59 88h267q-25 39 -63 105.5t-100.5 243.5t-62.5 321q0 324 94.5 469t348.5 145t347 -145.5t93 -468.5q0 -143 -56.5 -310t-111.5 -264l-57 -96h268v-106h-397v86q10 16 24.5 42.5t54.5 107.5t69.5 158t54 176t24.5 179q0 281 -61.5 399.5t-251.5 118.5 q-82 0 -139.5 -22.5t-91 -60.5t-52 -106.5t-25 -142t-6.5 -186.5q0 -127 56.5 -293t111.5 -268l58 -102v-86h-396v106z" />
<glyph unicode="&#x3c0;" d="M768 315v637h-418l-59 -952h-72l60 952q-195 -4 -271 -26v71q51 10 128 16.5t128 8.5l51 2h443q195 0 295 33v-72q-70 -25 -213 -31v-639q0 -154 41 -199.5t161 -45.5v-70q-158 0 -216 64.5t-58 250.5z" />
<glyph unicode="&#x410;" horiz-adv-x="1236" d="M74 0l409 1427h277l405 -1427h-127l-120 391h-603l-114 -391h-127zM575 1315l-229 -807h545l-229 807h-87z" />
<glyph unicode="&#x412;" horiz-adv-x="1271" d="M205 1427h483q201 0 309.5 -90t108.5 -260q0 -262 -186 -342q236 -76 235 -334q0 -401 -436 -401h-514v1427zM702 670h-372v-555h385q143 0 227 71.5t84 219.5q0 82 -35 138t-90 81.5t-103.5 35t-95.5 9.5zM684 1313h-354v-531h372q137 0 206 76t69 207q0 248 -293 248z " />
<glyph unicode="&#x415;" horiz-adv-x="1161" d="M205 0v1427h831v-116h-706v-527h583v-114h-583v-553h706v-117h-831z" />
<glyph unicode="&#x41a;" horiz-adv-x="1218" d="M971 0l-414 645l-227 -4v-641h-125v1427h125v-669l223 4l395 665h148l-430 -714l456 -713h-151z" />
<glyph unicode="&#x41c;" horiz-adv-x="1740" d="M205 0v1427h231l434 -1249l439 1249h227v-1427h-125v1292h-29l-440 -1245h-147l-437 1245h-28v-1292h-125z" />
<glyph unicode="&#x41d;" horiz-adv-x="1409" d="M1079 0v659h-749v-659h-125v1427h125v-649h749v649h125v-1427h-125z" />
<glyph unicode="&#x41e;" horiz-adv-x="1337" d="M668 96q236 0 325.5 139.5t89.5 471.5q0 322 -94 473t-321.5 151t-320.5 -150.5t-93 -473.5q0 -326 91.5 -468.5t322.5 -142.5zM668 -20q-297 0 -421 175t-124 551.5t126 559t419 182.5q295 0 420.5 -182.5t125.5 -558.5q0 -385 -123.5 -556t-422.5 -171z" />
<glyph unicode="&#x420;" horiz-adv-x="1247" d="M702 496h-372v-496h-125v1427h497q442 0 443 -446q0 -225 -112 -355t-331 -130zM330 612h372q158 0 236 101.5t78 267.5q0 330 -314 330h-372v-699z" />
<glyph unicode="&#x421;" horiz-adv-x="1095" d="M993 135l6 -115q-217 -41 -374 -40q-154 0 -255.5 49t-155.5 149.5t-74.5 225t-20.5 305.5q0 182 20.5 308t73.5 228.5t155.5 152.5t256.5 50q82 0 176 -10.5t147 -20.5l53 -10l-8 -115q-211 37 -358 37q-123 0 -202 -41t-118 -129t-52 -189.5t-13 -260.5q0 -125 8 -210 t31.5 -166t65.5 -128t112 -76t170 -29q57 0 146 9.5t151 17.5z" />
<glyph unicode="&#x422;" horiz-adv-x="1013" d="M18 1309v118h975v-118h-422v-1309h-125v1309h-428z" />
<glyph unicode="&#x425;" horiz-adv-x="1189" d="M223 1427l373 -626l371 626h143l-428 -718l428 -709h-143l-369 618l-375 -618h-143l434 709l-434 718h143z" />
<glyph unicode="&#x430;" horiz-adv-x="1064" d="M872 715v-535q29 -80 136 -92l-9 -106q-150 0 -225 81q-174 -84 -368 -83q-125 0 -204 85t-79 224q0 272 305 303l322 31v94q0 111 -48.5 161t-144.5 50q-72 0 -166 -7.5t-153 -15.5l-58 -6l-6 107q227 37 387 36.5t235.5 -80t75.5 -247.5zM750 522l-308 -26 q-195 -18 -194 -205q0 -88 48 -146.5t122 -58.5q78 0 161 17.5t126 35.5l45 17v366z" />
<glyph unicode="&#x435;" horiz-adv-x="1038" d="M520 90q66 0 157 4t150 8l58 7l4 -101q-211 -29 -375 -28q-211 0 -303 136t-92 392q0 270 109.5 402t303.5 132q393 0 394 -483l-4 -98h-678q4 -371 276 -371zM244 561h559q0 199 -66.5 287t-204.5 88q-135 0 -211.5 -91t-76.5 -284z" />
<glyph unicode="&#x43e;" horiz-adv-x="1079" d="M543 1042q219 0 317 -128t98 -388q0 -276 -91 -411t-324 -135q-238 0 -330 131t-92 417q0 266 95.5 390t326.5 124zM543 88q174 0 231 105.5t57 332.5q0 209 -67.5 308.5t-220.5 99.5q-164 0 -230.5 -94.5t-66.5 -311.5q0 -236 60.5 -338t236.5 -102z" />
<glyph unicode="&#x43f;" d="M768 315v637h-418l-59 -952h-72l60 952q-195 -4 -271 -26v71q51 10 128 16.5t128 8.5l51 2h443q195 0 295 33v-72q-70 -25 -213 -31v-639q0 -154 41 -199.5t161 -45.5v-70q-158 0 -216 64.5t-58 250.5z" />
<glyph unicode="&#x440;" horiz-adv-x="1107" d="M207 -461v1485h123v-74q141 92 305 92q360 0 360 -518q0 -283 -103.5 -413.5t-334.5 -130.5q-131 0 -227 22v-463h-123zM623 932q-66 0 -139.5 -21.5t-114.5 -44.5l-39 -22v-733q121 -23 221 -23q174 0 246.5 105.5t72.5 334.5q0 193 -63 298.5t-184 105.5z" />
<glyph unicode="&#x441;" horiz-adv-x="894" d="M549 1042q43 0 105.5 -5t103.5 -11l39 -6l-6 -109q-145 20 -224 21q-174 0 -243.5 -94.5t-69.5 -307.5q0 -236 64.5 -337t250.5 -101l226 17l4 -107q-156 -23 -252 -22q-240 0 -330 126.5t-90 423.5q0 268 99.5 390t322.5 122z" />
<glyph unicode="&#x443;" horiz-adv-x="985" d="M66 1024h124l265 -909h73l267 909h125l-437 -1485h-125l140 461h-138z" />
<glyph unicode="&#x445;" horiz-adv-x="940" d="M72 1024h135l262 -422l264 422h133l-323 -512l323 -512h-137l-260 422l-260 -422h-135l321 512z" />
<glyph unicode="&#x1e00;" horiz-adv-x="1236" d="M846 -328q0 -96 -63.5 -151.5t-164 -55.5t-163 55.5t-62.5 151.5q0 94 62.5 149.5t163 55.5t164 -55.5t63.5 -149.5zM498 -328q0 -53 31.5 -82.5t89.5 -29.5q59 0 90.5 29.5t31.5 82.5q0 111 -122 111q-121 0 -121 -111zM74 0l409 1427h277l405 -1427h-127l-120 391h-603 l-114 -391h-127zM575 1315l-229 -807h545l-229 807h-87z" />
<glyph unicode="&#x1e01;" horiz-adv-x="1064" d="M199 -348q0 86 60.5 145.5t148.5 59.5q86 0 144.5 -59.5t58.5 -145.5q0 -88 -58.5 -147.5t-144.5 -59.5q-88 0 -148.5 59.5t-60.5 147.5zM297 -348q0 -47 32 -81t79 -34q45 0 76.5 34t31.5 81t-31.5 80t-76.5 33q-47 0 -79 -33t-32 -80zM872 715v-535q29 -80 136 -92 l-9 -106q-150 0 -225 81q-174 -84 -368 -83q-125 0 -204 85t-79 224q0 272 305 303l322 31v94q0 111 -48.5 161t-144.5 50q-72 0 -166 -7.5t-153 -15.5l-58 -6l-6 107q227 37 387 36.5t235.5 -80t75.5 -247.5zM750 522l-308 -26q-195 -18 -194 -205q0 -88 48 -146.5 t122 -58.5q78 0 161 17.5t126 35.5l45 17v366z" />
<glyph unicode="&#x1e02;" horiz-adv-x="1271" d="M618 1570v154h123v-154h-123zM205 1427h483q201 0 309.5 -90t108.5 -260q0 -262 -186 -342q236 -76 235 -334q0 -401 -436 -401h-514v1427zM702 670h-372v-555h385q143 0 227 71.5t84 219.5q0 82 -35 138t-90 81.5t-103.5 35t-95.5 9.5zM684 1313h-354v-531h372 q137 0 206 76t69 207q0 248 -293 248z" />
<glyph unicode="&#x1e03;" horiz-adv-x="1105" d="M539 1602v154h123v-154h-123zM631 1042q197 0 279.5 -133t82.5 -379q0 -272 -105.5 -411t-369.5 -139q-57 0 -135 5t-127 11l-49 4v1479h123v-504q141 67 301 67zM516 88q109 0 181.5 33t107.5 97.5t48 136t13 173.5q0 190 -54 297t-189 107q-160 0 -293 -62v-772 q125 -10 186 -10z" />
<glyph unicode="&#x1e04;" horiz-adv-x="1271" d="M401 -277v154h123v-154h-123zM205 1427h483q201 0 309.5 -90t108.5 -260q0 -262 -186 -342q236 -76 235 -334q0 -401 -436 -401h-514v1427zM702 670h-372v-555h385q143 0 227 71.5t84 219.5q0 82 -35 138t-90 81.5t-103.5 35t-95.5 9.5zM684 1313h-354v-531h372 q137 0 206 76t69 207q0 248 -293 248z" />
<glyph unicode="&#x1e05;" horiz-adv-x="1105" d="M457 -297v154h123v-154h-123zM631 1042q197 0 279.5 -133t82.5 -379q0 -272 -105.5 -411t-369.5 -139q-57 0 -135 5t-127 11l-49 4v1479h123v-504q141 67 301 67zM516 88q109 0 181.5 33t107.5 97.5t48 136t13 173.5q0 190 -54 297t-189 107q-160 0 -293 -62v-772 q125 -10 186 -10z" />
<glyph unicode="&#x1e06;" horiz-adv-x="1271" d="M152 -231v108h618v-108h-618zM205 1427h483q201 0 309.5 -90t108.5 -260q0 -262 -186 -342q236 -76 235 -334q0 -401 -436 -401h-514v1427zM702 670h-372v-555h385q143 0 227 71.5t84 219.5q0 82 -35 138t-90 81.5t-103.5 35t-95.5 9.5zM684 1313h-354v-531h372 q137 0 206 76t69 207q0 248 -293 248z" />
<glyph unicode="&#x1e07;" horiz-adv-x="1105" d="M229 -251v108h578v-108h-578zM631 1042q197 0 279.5 -133t82.5 -379q0 -272 -105.5 -411t-369.5 -139q-57 0 -135 5t-127 11l-49 4v1479h123v-504q141 67 301 67zM516 88q109 0 181.5 33t107.5 97.5t48 136t13 173.5q0 190 -54 297t-189 107q-160 0 -293 -62v-772 q125 -10 186 -10z" />
<glyph unicode="&#x1e08;" horiz-adv-x="1099" d="M581 1671l426 195l48 -113l-431 -182zM872 -260q0 -168 -182 -168l-172 12l4 84q84 -8 146 -8q92 0 92 84q0 76 -92 76h-97v162q-262 16 -357 194t-95 533q0 182 20.5 308t73.5 228.5t155.5 152.5t256.5 50q82 0 176 -10.5t147 -20.5l53 -10l-8 -115q-211 37 -358 37 q-123 0 -202 -41t-118 -129t-52 -189.5t-13 -260.5q0 -125 8 -210t31.5 -166t65.5 -128t112 -76t170 -29q57 0 146 9.5t151 17.5l59 8l6 -115q-197 -37 -350 -40v-86q121 0 172 -32t51 -122z" />
<glyph unicode="&#x1e09;" horiz-adv-x="894" d="M505 1266l426 195l48 -113l-431 -182zM766 -260q0 -168 -182 -168l-172 12l4 84q84 -8 145 -8q92 0 92 84q0 76 -92 76h-96v164q-190 18 -264 146t-74 400q0 268 99.5 390t322.5 122q43 0 105.5 -5t103.5 -11l39 -6l-6 -109q-145 20 -224 21q-174 0 -243.5 -94.5 t-69.5 -307.5q0 -236 64.5 -337t250.5 -101l226 17l4 -107q-156 -23 -252 -22h-4v-86q121 0 172 -32t51 -122z" />
<glyph unicode="&#x1e0a;" horiz-adv-x="1323" d="M643 1570v154h123v-154h-123zM702 0h-497v1427h497q139 0 240.5 -54t157 -153.5t81 -218t25.5 -266.5q0 -150 -24.5 -274.5t-79.5 -232t-158 -168t-242 -60.5zM1075 735q0 115 -17.5 212t-58.5 182t-116.5 133.5t-180.5 48.5h-372v-1194h372q104 0 181.5 55t117 148.5 t57 195.5t17.5 219z" />
<glyph unicode="&#x1e0b;" horiz-adv-x="1105" d="M459 1602v154h123v-154h-123zM913 1479v-1479h-122v66q-156 -86 -306 -86q-358 0 -358 524q0 270 102.5 404t323.5 134q90 0 238 -24v461h122zM496 90q59 0 132.5 20.5t116.5 41.5l46 20v741q-129 20 -232 21q-164 0 -235.5 -108.5t-71.5 -325.5q0 -410 244 -410z" />
<glyph unicode="&#x1e0c;" horiz-adv-x="1323" d="M393 -277v154h123v-154h-123zM702 0h-497v1427h497q139 0 240.5 -54t157 -153.5t81 -218t25.5 -266.5q0 -150 -24.5 -274.5t-79.5 -232t-158 -168t-242 -60.5zM1075 735q0 115 -17.5 212t-58.5 182t-116.5 133.5t-180.5 48.5h-372v-1194h372q104 0 181.5 55t117 148.5 t57 195.5t17.5 219z" />
<glyph unicode="&#x1e0d;" horiz-adv-x="1105" d="M424 -297v154h123v-154h-123zM913 1479v-1479h-122v66q-156 -86 -306 -86q-358 0 -358 524q0 270 102.5 404t323.5 134q90 0 238 -24v461h122zM496 90q59 0 132.5 20.5t116.5 41.5l46 20v741q-129 20 -232 21q-164 0 -235.5 -108.5t-71.5 -325.5q0 -410 244 -410z" />
<glyph unicode="&#x1e0e;" horiz-adv-x="1323" d="M144 -231v108h618v-108h-618zM702 0h-497v1427h497q139 0 240.5 -54t157 -153.5t81 -218t25.5 -266.5q0 -150 -24.5 -274.5t-79.5 -232t-158 -168t-242 -60.5zM1075 735q0 115 -17.5 212t-58.5 182t-116.5 133.5t-180.5 48.5h-372v-1194h372q104 0 181.5 55t117 148.5 t57 195.5t17.5 219z" />
<glyph unicode="&#x1e0f;" horiz-adv-x="1105" d="M196 -251v108h578v-108h-578zM913 1479v-1479h-122v66q-156 -86 -306 -86q-358 0 -358 524q0 270 102.5 404t323.5 134q90 0 238 -24v461h122zM496 90q59 0 132.5 20.5t116.5 41.5l46 20v741q-129 20 -232 21q-164 0 -235.5 -108.5t-71.5 -325.5q0 -410 244 -410z" />
<glyph unicode="&#x1e10;" horiz-adv-x="1323" d="M715 -248q0 -168 -182 -168l-172 12l4 84q84 -8 145 -8q92 0 92 84q0 76 -92 76h-96v182h78v-108q121 0 172 -32t51 -122zM702 0h-497v1427h497q139 0 240.5 -54t157 -153.5t81 -218t25.5 -266.5q0 -150 -24.5 -274.5t-79.5 -232t-158 -168t-242 -60.5zM1075 735 q0 115 -17.5 212t-58.5 182t-116.5 133.5t-180.5 48.5h-372v-1194h372q104 0 181.5 55t117 148.5t57 195.5t17.5 219z" />
<glyph unicode="&#x1e11;" horiz-adv-x="1105" d="M748 -268q0 -168 -182 -168l-172 12l4 84q84 -8 145 -8q92 0 92 84q0 76 -92 76h-96v182h78v-108q121 0 172 -32t51 -122zM913 1479v-1479h-122v66q-156 -86 -306 -86q-358 0 -358 524q0 270 102.5 404t323.5 134q90 0 238 -24v461h122zM496 90q59 0 132.5 20.5 t116.5 41.5l46 20v741q-129 20 -232 21q-164 0 -235.5 -108.5t-71.5 -325.5q0 -410 244 -410z" />
<glyph unicode="&#x1e12;" horiz-adv-x="1323" d="M125 -391l274 268h109l272 -268h-145l-180 170l-181 -170h-149zM702 0h-497v1427h497q139 0 240.5 -54t157 -153.5t81 -218t25.5 -266.5q0 -150 -24.5 -274.5t-79.5 -232t-158 -168t-242 -60.5zM1075 735q0 115 -17.5 212t-58.5 182t-116.5 133.5t-180.5 48.5h-372v-1194 h372q104 0 181.5 55t117 148.5t57 195.5t17.5 219z" />
<glyph unicode="&#x1e13;" horiz-adv-x="1105" d="M183 -434l251 290h99l256 -290h-139l-164 184l-164 -184h-139zM913 1479v-1479h-122v66q-156 -86 -306 -86q-358 0 -358 524q0 270 102.5 404t323.5 134q90 0 238 -24v461h122zM496 90q59 0 132.5 20.5t116.5 41.5l46 20v741q-129 20 -232 21q-164 0 -235.5 -108.5 t-71.5 -325.5q0 -410 244 -410z" />
<glyph unicode="&#x1e14;" horiz-adv-x="1161" d="M213 2212l426 -195l-43 -98l-431 180zM205 0v1427h831v-116h-706v-527h583v-114h-583v-553h706v-117h-831zM287 1688v108h618v-108h-618z" />
<glyph unicode="&#x1e15;" horiz-adv-x="1038" d="M152 1831l426 -195l-43 -100l-431 182zM520 90q66 0 157 4t150 8l58 7l4 -101q-211 -29 -375 -28q-211 0 -303 136t-92 392q0 270 109.5 402t303.5 132q393 0 394 -483l-4 -98h-678q4 -371 276 -371zM244 561h559q0 199 -66.5 287t-204.5 88q-135 0 -211.5 -91 t-76.5 -284zM246 1305v108h577v-108h-577z" />
<glyph unicode="&#x1e16;" horiz-adv-x="1161" d="M552 2019l426 195l48 -113l-431 -182zM205 0v1427h831v-116h-706v-527h583v-114h-583v-553h706v-117h-831zM287 1688v108h618v-108h-618z" />
<glyph unicode="&#x1e17;" horiz-adv-x="1038" d="M491 1636l426 195l48 -113l-431 -182zM520 90q66 0 157 4t150 8l58 7l4 -101q-211 -29 -375 -28q-211 0 -303 136t-92 392q0 270 109.5 402t303.5 132q393 0 394 -483l-4 -98h-678q4 -371 276 -371zM244 561h559q0 199 -66.5 287t-204.5 88q-135 0 -211.5 -91t-76.5 -284 zM246 1305v108h577v-108h-577z" />
<glyph unicode="&#x1e18;" horiz-adv-x="1161" d="M293 -391l274 268h109l272 -268h-145l-180 170l-181 -170h-149zM205 0v1427h831v-116h-706v-527h583v-114h-583v-553h706v-117h-831z" />
<glyph unicode="&#x1e19;" horiz-adv-x="1038" d="M211 -434l251 290h99l256 -290h-139l-164 184l-164 -184h-139zM520 90q66 0 157 4t150 8l58 7l4 -101q-211 -29 -375 -28q-211 0 -303 136t-92 392q0 270 109.5 402t303.5 132q393 0 394 -483l-4 -98h-678q4 -371 276 -371zM244 561h559q0 199 -66.5 287t-204.5 88 q-135 0 -211.5 -91t-76.5 -284z" />
<glyph unicode="&#x1e1a;" horiz-adv-x="1161" d="M942 -144l33 -94q-109 -117 -183 -117q-51 0 -177 60.5t-154 60.5q-20 0 -61.5 -26.5t-72.5 -51.5l-30 -26l-31 96q117 119 195 119q53 0 178 -59.5t151 -59.5q41 0 152 98zM205 0v1427h831v-116h-706v-527h583v-114h-583v-553h706v-117h-831z" />
<glyph unicode="&#x1e1b;" horiz-adv-x="1038" d="M809 -164l29 -96q-92 -98 -166 -98q-47 0 -160 52t-143 52q-20 0 -57.5 -22.5t-63.5 -44.5l-27 -23l-31 96q102 104 181 105q49 0 160.5 -51.5t140.5 -51.5q18 0 52 20.5t58 41.5zM520 90q66 0 157 4t150 8l58 7l4 -101q-211 -29 -375 -28q-211 0 -303 136t-92 392 q0 270 109.5 402t303.5 132q393 0 394 -483l-4 -98h-678q4 -371 276 -371zM244 561h559q0 199 -66.5 287t-204.5 88q-135 0 -211.5 -91t-76.5 -284z" />
<glyph unicode="&#x1e1c;" horiz-adv-x="1161" d="M311 1831h125q2 -70 54.5 -111.5t128.5 -41.5q78 0 130 42t54 111h125q-4 -117 -90 -188.5t-219 -71.5q-131 0 -217.5 71.5t-90.5 188.5zM883 -248q0 -168 -182 -168l-172 12l4 84q84 -8 145 -8q92 0 92 84q0 76 -92 76h-96v182h78v-108q121 0 172 -32t51 -122zM205 0 v1427h831v-116h-706v-527h583v-114h-583v-553h706v-117h-831z" />
<glyph unicode="&#x1e1d;" horiz-adv-x="1038" d="M221 1446h125q4 -76 53.5 -123t133.5 -47q88 0 136 46t50 124h125q-4 -125 -87 -203t-224 -78q-139 0 -223.5 78t-88.5 203zM776 -268q0 -168 -182 -168l-172 12l4 84q84 -8 145 -8q92 0 92 84q0 76 -92 76h-96v182h78v-108q121 0 172 -32t51 -122zM520 90q66 0 157 4 t150 8l58 7l4 -101q-211 -29 -375 -28q-211 0 -303 136t-92 392q0 270 109.5 402t303.5 132q393 0 394 -483l-4 -98h-678q4 -371 276 -371zM244 561h559q0 199 -66.5 287t-204.5 88q-135 0 -211.5 -91t-76.5 -284z" />
<glyph unicode="&#x1e1e;" horiz-adv-x="1140" d="M561 1570v154h123v-154h-123zM205 0v1427h833v-116h-708v-592h585v-115h-585v-604h-125z" />
<glyph unicode="&#x1e1f;" horiz-adv-x="679" d="M403 1622v154h123v-154h-123zM317 915v-915h-120v915h-131v109h131v104q0 203 61 287t207 84l182 -12v-105q-104 6 -164 7q-92 0 -129 -58.5t-37 -204.5v-102h310v-109h-310z" />
<glyph unicode="&#x1e20;" horiz-adv-x="1251" d="M346 1571v108h618v-108h-618zM725 612v113h379v-698q-285 -47 -447 -47q-299 0 -416.5 185t-117.5 546q0 178 23.5 305t82 228.5t165 152.5t261.5 51q92 0 205 -13.5t178 -25.5l66 -12l-6 -115q-250 47 -432 47q-102 0 -175 -28.5t-119 -79t-73 -130t-36 -168.5t-9 -212 q0 -154 16.5 -258.5t60.5 -189.5t126 -125t207 -40q55 0 130.5 8.5t129 16.5t55.5 8v481h-254z" />
<glyph unicode="&#x1e21;" horiz-adv-x="1048" d="M196 1168v108h578v-108h-578zM530 -489q-213 0 -316 73.5t-103 245.5q0 82 42 139.5t126 120.5q-53 33 -54 137q0 16 17.5 57.5t33.5 73.5l17 33q-168 84 -168 305q0 162 100.5 255t259.5 93q45 0 91.5 -6t70.5 -14l23 -6l313 6v-109h-207q80 -76 80 -219 q0 -342 -377 -342q-47 0 -96 8q-39 -100 -39 -126q0 -47 14.5 -65.5t62.5 -27t167 -8.5q211 0 299 -58.5t88 -223.5q0 -170 -117 -256t-328 -86zM580 29l-218 8q-72 -59 -100.5 -98t-28.5 -101q0 -117 74 -168t225 -51q154 0 235 58.5t81 171t-59 146.5t-209 34zM479 459 q252 0 252 237q0 242 -248 242q-113 0 -174 -63.5t-61 -178.5q0 -237 231 -237z" />
<glyph unicode="&#x1e22;" horiz-adv-x="1409" d="M643 1570v154h123v-154h-123zM1079 0v659h-749v-659h-125v1427h125v-649h749v649h125v-1427h-125z" />
<glyph unicode="&#x1e23;" horiz-adv-x="1157" d="M518 1602v154h123v-154h-123zM313 0h-120v1479h120v-508q172 72 314 71q201 0 270.5 -113.5t69.5 -396.5v-532h-123v530q0 223 -45 312.5t-187 89.5q-137 0 -299 -70v-862z" />
<glyph unicode="&#x1e24;" horiz-adv-x="1409" d="M643 -277v154h123v-154h-123zM1079 0v659h-749v-659h-125v1427h125v-649h749v649h125v-1427h-125z" />
<glyph unicode="&#x1e25;" horiz-adv-x="1157" d="M518 -276v154h123v-154h-123zM313 0h-120v1479h120v-508q172 72 314 71q201 0 270.5 -113.5t69.5 -396.5v-532h-123v530q0 223 -45 312.5t-187 89.5q-137 0 -299 -70v-862z" />
<glyph unicode="&#x1e26;" horiz-adv-x="1409" d="M439 1571v161h118v-161h-118zM852 1571v161h119v-161h-119zM1079 0v659h-749v-659h-125v1427h125v-649h749v649h125v-1427h-125z" />
<glyph unicode="&#x1e27;" horiz-adv-x="1157" d="M320 1601v162h119v-162h-119zM721 1601v162h119v-162h-119zM313 0h-120v1479h120v-508q172 72 314 71q201 0 270.5 -113.5t69.5 -396.5v-532h-123v530q0 223 -45 312.5t-187 89.5q-137 0 -299 -70v-862z" />
<glyph unicode="&#x1e28;" horiz-adv-x="1409" d="M928 -248q0 -168 -182 -168l-172 12l4 84q84 -8 145 -8q92 0 92 84q0 76 -92 76h-96v182h78v-108q121 0 172 -32t51 -122zM1079 0v659h-749v-659h-125v1427h125v-649h749v649h125v-1427h-125z" />
<glyph unicode="&#x1e29;" horiz-adv-x="1157" d="M803 -248q0 -168 -182 -168l-172 12l4 84q84 -8 145 -8q92 0 92 84q0 76 -92 76h-96v182h78v-108q121 0 172 -32t51 -122zM313 0h-120v1479h120v-508q172 72 314 71q201 0 270.5 -113.5t69.5 -396.5v-532h-123v530q0 223 -45 312.5t-187 89.5q-137 0 -299 -70v-862z" />
<glyph unicode="&#x1e2a;" horiz-adv-x="1409" d="M397 -123h125q2 -70 54.5 -111.5t128.5 -41.5q78 0 130 42t54 111h125q-4 -117 -90 -188.5t-219 -71.5q-131 0 -217.5 71.5t-90.5 188.5zM1079 0v659h-749v-659h-125v1427h125v-649h749v649h125v-1427h-125z" />
<glyph unicode="&#x1e2b;" horiz-adv-x="1157" d="M268 -123h125q4 -76 53.5 -123t133.5 -47q88 0 136 46t50 124h125q-4 -125 -87 -203t-224 -78q-139 0 -223.5 78t-88.5 203zM313 0h-120v1479h120v-508q172 72 314 71q201 0 270.5 -113.5t69.5 -396.5v-532h-123v530q0 223 -45 312.5t-187 89.5q-137 0 -299 -70v-862z " />
<glyph unicode="&#x1e2c;" horiz-adv-x="489" d="M567 -144l33 -94q-109 -117 -183 -117q-51 0 -177 60.5t-154 60.5q-20 0 -61.5 -26.5t-72.5 -51.5l-30 -26l-31 96q117 119 195 119q53 0 178 -59.5t151 -59.5q41 0 152 98zM182 0v1427h125v-1427h-125z" />
<glyph unicode="&#x1e2d;" horiz-adv-x="466" d="M528 -144l29 -96q-92 -98 -166 -98q-47 0 -160 52t-143 52q-20 0 -57.5 -22.5t-63.5 -44.5l-27 -23l-31 96q102 104 181 105q49 0 160.5 -51.5t140.5 -51.5q18 0 52 20.5t58 41.5zM172 0v1024h123v-1024h-123zM172 1276v154h123v-154h-123z" />
<glyph unicode="&#x1e2e;" horiz-adv-x="489" d="M217 2085l426 195l48 -113l-431 -182zM182 0v1427h125v-1427h-125zM-6 1700v162h119v-162h-119zM408 1700v162h118v-162h-118z" />
<glyph unicode="&#x1e2f;" horiz-adv-x="538" d="M251 1675l426 195l48 -113l-431 -182zM35 1290v162h119v-162h-119zM436 1290v162h119v-162h-119zM207 0v1024h123v-1024h-123z" />
<glyph unicode="&#x1e30;" horiz-adv-x="1218" d="M608 1671l426 195l48 -113l-431 -182zM971 0l-414 645l-227 -4v-641h-125v1427h125v-669l223 4l395 665h148l-430 -714l456 -713h-151z" />
<glyph unicode="&#x1e31;" horiz-adv-x="1007" d="M225 1702l426 195l48 -113l-431 -182zM330 0h-123v1479h123v-873l155 4l324 414h141l-356 -469l358 -555h-139l-326 492l-157 -7v-485z" />
<glyph unicode="&#x1e32;" horiz-adv-x="1218" d="M602 -277v154h123v-154h-123zM971 0l-414 645l-227 -4v-641h-125v1427h125v-669l223 4l395 665h148l-430 -714l456 -713h-151z" />
<glyph unicode="&#x1e33;" horiz-adv-x="1007" d="M518 -276v154h123v-154h-123zM330 0h-123v1479h123v-873l155 4l324 414h141l-356 -469l358 -555h-139l-326 492l-157 -7v-485z" />
<glyph unicode="&#x1e34;" horiz-adv-x="1218" d="M355 -231v108h618v-108h-618zM971 0l-414 645l-227 -4v-641h-125v1427h125v-669l223 4l395 665h148l-430 -714l456 -713h-151z" />
<glyph unicode="&#x1e35;" horiz-adv-x="1007" d="M291 -231v108h578v-108h-578zM330 0h-123v1479h123v-873l155 4l324 414h141l-356 -469l358 -555h-139l-326 492l-157 -7v-485z" />
<glyph unicode="&#x1e36;" horiz-adv-x="1062" d="M520 -277v154h123v-154h-123zM961 0h-756v1427h125v-1308h631v-119z" />
<glyph unicode="&#x1e37;" horiz-adv-x="483" d="M180 -276v154h123v-154h-123zM180 0v1479h123v-1479h-123z" />
<glyph unicode="&#x1e38;" horiz-adv-x="1062" d="M-41 1571v108h618v-108h-618zM520 -277v154h123v-154h-123zM961 0h-756v1427h125v-1308h631v-119z" />
<glyph unicode="&#x1e39;" horiz-adv-x="483" d="M-47 1602v108h578v-108h-578zM180 -276v154h123v-154h-123zM180 0v1479h123v-1479h-123z" />
<glyph unicode="&#x1e3a;" horiz-adv-x="1062" d="M275 -231v108h618v-108h-618zM961 0h-756v1427h125v-1308h631v-119z" />
<glyph unicode="&#x1e3b;" horiz-adv-x="483" d="M-47 -231v108h578v-108h-578zM180 0v1479h123v-1479h-123z" />
<glyph unicode="&#x1e3c;" horiz-adv-x="1062" d="M256 -391l274 268h109l272 -268h-145l-180 170l-181 -170h-149zM961 0h-756v1427h125v-1308h631v-119z" />
<glyph unicode="&#x1e3d;" horiz-adv-x="483" d="M-61 -413l251 290h99l256 -290h-139l-164 184l-164 -184h-139zM180 0v1479h123v-1479h-123z" />
<glyph unicode="&#x1e3e;" horiz-adv-x="1740" d="M827 1671l426 195l48 -113l-431 -182zM205 0v1427h231l434 -1249l439 1249h227v-1427h-125v1292h-29l-440 -1245h-147l-437 1245h-28v-1292h-125z" />
<glyph unicode="&#x1e3f;" horiz-adv-x="1777" d="M907 1266l426 195l48 -113l-431 -182zM344 0h-121v1024h121v-74q158 92 295 92q98 0 155.5 -25.5t102.5 -76.5q215 102 365 102q201 0 270.5 -113.5t69.5 -396.5v-532h-123v526q0 227 -44 316.5t-188 89.5q-137 0 -305 -88q39 -102 39 -312v-532h-123v528 q0 221 -49 312.5t-184 91.5q-137 0 -281 -88v-844z" />
<glyph unicode="&#x1e40;" horiz-adv-x="1740" d="M809 1570v154h123v-154h-123zM205 0v1427h231l434 -1249l439 1249h227v-1427h-125v1292h-29l-440 -1245h-147l-437 1245h-28v-1292h-125z" />
<glyph unicode="&#x1e41;" horiz-adv-x="1777" d="M889 1165v154h123v-154h-123zM344 0h-121v1024h121v-74q158 92 295 92q98 0 155.5 -25.5t102.5 -76.5q215 102 365 102q201 0 270.5 -113.5t69.5 -396.5v-532h-123v526q0 227 -44 316.5t-188 89.5q-137 0 -305 -88q39 -102 39 -312v-532h-123v528q0 221 -49 312.5 t-184 91.5q-137 0 -281 -88v-844z" />
<glyph unicode="&#x1e42;" horiz-adv-x="1740" d="M809 -277v154h123v-154h-123zM205 0v1427h231l434 -1249l439 1249h227v-1427h-125v1292h-29l-440 -1245h-147l-437 1245h-28v-1292h-125z" />
<glyph unicode="&#x1e43;" horiz-adv-x="1777" d="M852 -276v154h123v-154h-123zM344 0h-121v1024h121v-74q158 92 295 92q98 0 155.5 -25.5t102.5 -76.5q215 102 365 102q201 0 270.5 -113.5t69.5 -396.5v-532h-123v526q0 227 -44 316.5t-188 89.5q-137 0 -305 -88q39 -102 39 -312v-532h-123v528q0 221 -49 312.5 t-184 91.5q-137 0 -281 -88v-844z" />
<glyph unicode="&#x1e44;" horiz-adv-x="1413" d="M647 1570v154h123v-154h-123zM205 0v1427h246l585 -1302h47v1302h127v-1427h-243l-592 1303h-45v-1303h-125z" />
<glyph unicode="&#x1e45;" horiz-adv-x="1167" d="M532 1165v154h123v-154h-123zM330 0h-123v1024h123v-74q158 92 313 92q201 0 270.5 -113.5t69.5 -396.5v-532h-123v530q0 223 -45 312.5t-186 89.5q-68 0 -142.5 -21.5t-115.5 -42.5l-41 -22v-846z" />
<glyph unicode="&#x1e46;" horiz-adv-x="1413" d="M647 -277v154h123v-154h-123zM205 0v1427h246l585 -1302h47v1302h127v-1427h-243l-592 1303h-45v-1303h-125z" />
<glyph unicode="&#x1e47;" horiz-adv-x="1167" d="M532 -276v154h123v-154h-123zM330 0h-123v1024h123v-74q158 92 313 92q201 0 270.5 -113.5t69.5 -396.5v-532h-123v530q0 223 -45 312.5t-186 89.5q-68 0 -142.5 -21.5t-115.5 -42.5l-41 -22v-846z" />
<glyph unicode="&#x1e48;" horiz-adv-x="1413" d="M398 -231v108h618v-108h-618zM205 0v1427h246l585 -1302h47v1302h127v-1427h-243l-592 1303h-45v-1303h-125z" />
<glyph unicode="&#x1e49;" horiz-adv-x="1167" d="M307 -231v108h578v-108h-578zM330 0h-123v1024h123v-74q158 92 313 92q201 0 270.5 -113.5t69.5 -396.5v-532h-123v530q0 223 -45 312.5t-186 89.5q-68 0 -142.5 -21.5t-115.5 -42.5l-41 -22v-846z" />
<glyph unicode="&#x1e4a;" horiz-adv-x="1413" d="M379 -391l274 268h109l272 -268h-145l-180 170l-181 -170h-149zM205 0v1427h246l585 -1302h47v1302h127v-1427h-243l-592 1303h-45v-1303h-125z" />
<glyph unicode="&#x1e4b;" horiz-adv-x="1167" d="M291 -413l251 290h99l256 -290h-139l-164 184l-164 -184h-139zM330 0h-123v1024h123v-74q158 92 313 92q201 0 270.5 -113.5t69.5 -396.5v-532h-123v530q0 223 -45 312.5t-186 89.5q-68 0 -142.5 -21.5t-115.5 -42.5l-41 -22v-846z" />
<glyph unicode="&#x1e4c;" horiz-adv-x="1337" d="M475 2109l426 195l48 -113l-431 -182zM668 96q236 0 325.5 139.5t89.5 471.5q0 322 -94 473t-321.5 151t-320.5 -150.5t-93 -473.5q0 -326 91.5 -468.5t322.5 -142.5zM668 -20q-297 0 -421 175t-124 551.5t126 559t419 182.5q295 0 420.5 -182.5t125.5 -558.5 q0 -385 -123.5 -556t-422.5 -171zM999 1866l33 -94q-109 -117 -182 -117q-51 0 -177 60.5t-155 60.5q-20 0 -61 -26t-72 -52l-31 -27l-30 96q117 119 194 119q51 0 176 -59.5t154 -59.5q40 1 151 99z" />
<glyph unicode="&#x1e4d;" horiz-adv-x="1093" d="M335 1706l426 195l48 -113l-431 -182zM543 1042q219 0 317 -128t98 -388q0 -276 -91 -411t-324 -135q-238 0 -330 131t-92 417q0 266 95.5 390t326.5 124zM543 88q174 0 231 105.5t57 332.5q0 209 -67.5 308.5t-220.5 99.5q-164 0 -230.5 -94.5t-66.5 -311.5 q0 -236 60.5 -338t236.5 -102zM817 1462l29 -96q-92 -98 -166 -98q-47 0 -159.5 52t-143.5 52q-20 0 -57 -22.5t-64 -44.5l-27 -23l-30 96q102 104 180 105q49 0 160.5 -51.5t140.5 -51.5q18 0 52 20.5t59 41.5z" />
<glyph unicode="&#x1e4e;" horiz-adv-x="1337" d="M252 2009v161h118v-161h-118zM665 2009v161h119v-161h-119zM668 96q236 0 325.5 139.5t89.5 471.5q0 322 -94 473t-321.5 151t-320.5 -150.5t-93 -473.5q0 -326 91.5 -468.5t322.5 -142.5zM668 -20q-297 0 -421 175t-124 551.5t126 559t419 182.5q295 0 420.5 -182.5 t125.5 -558.5q0 -385 -123.5 -556t-422.5 -171zM999 1866l33 -94q-109 -117 -182 -117q-51 0 -177 60.5t-155 60.5q-20 0 -61 -26t-72 -52l-31 -27l-30 96q117 119 194 119q51 0 176 -59.5t154 -59.5q40 1 151 99z" />
<glyph unicode="&#x1e4f;" horiz-adv-x="1093" d="M119 1605v162h119v-162h-119zM520 1605v162h119v-162h-119zM543 1042q219 0 317 -128t98 -388q0 -276 -91 -411t-324 -135q-238 0 -330 131t-92 417q0 266 95.5 390t326.5 124zM543 88q174 0 231 105.5t57 332.5q0 209 -67.5 308.5t-220.5 99.5q-164 0 -230.5 -94.5 t-66.5 -311.5q0 -236 60.5 -338t236.5 -102zM817 1462l29 -96q-92 -98 -166 -98q-47 0 -159.5 52t-143.5 52q-20 0 -57 -22.5t-64 -44.5l-27 -23l-30 96q102 104 180 105q49 0 160.5 -51.5t140.5 -51.5q18 0 52 20.5t59 41.5z" />
<glyph unicode="&#x1e50;" horiz-adv-x="1337" d="M285 2227l426 -195l-43 -98l-431 180zM668 96q236 0 325.5 139.5t89.5 471.5q0 322 -94 473t-321.5 151t-320.5 -150.5t-93 -473.5q0 -326 91.5 -468.5t322.5 -142.5zM668 -20q-297 0 -421 175t-124 551.5t126 559t419 182.5q295 0 420.5 -182.5t125.5 -558.5 q0 -385 -123.5 -556t-422.5 -171zM358 1702v108h619v-108h-619z" />
<glyph unicode="&#x1e51;" horiz-adv-x="1079" d="M156 1831l426 -195l-43 -100l-431 182zM543 1042q219 0 317 -128t98 -388q0 -276 -91 -411t-324 -135q-238 0 -330 131t-92 417q0 266 95.5 390t326.5 124zM543 88q174 0 231 105.5t57 332.5q0 209 -67.5 308.5t-220.5 99.5q-164 0 -230.5 -94.5t-66.5 -311.5 q0 -236 60.5 -338t236.5 -102zM250 1305v108h577v-108h-577z" />
<glyph unicode="&#x1e52;" horiz-adv-x="1337" d="M624 2033l426 195l48 -113l-431 -182zM668 96q236 0 325.5 139.5t89.5 471.5q0 322 -94 473t-321.5 151t-320.5 -150.5t-93 -473.5q0 -326 91.5 -468.5t322.5 -142.5zM668 -20q-297 0 -421 175t-124 551.5t126 559t419 182.5q295 0 420.5 -182.5t125.5 -558.5 q0 -385 -123.5 -556t-422.5 -171zM358 1702v108h619v-108h-619z" />
<glyph unicode="&#x1e53;" horiz-adv-x="1079" d="M495 1636l426 195l48 -113l-431 -182zM543 1042q219 0 317 -128t98 -388q0 -276 -91 -411t-324 -135q-238 0 -330 131t-92 417q0 266 95.5 390t326.5 124zM543 88q174 0 231 105.5t57 332.5q0 209 -67.5 308.5t-220.5 99.5q-164 0 -230.5 -94.5t-66.5 -311.5 q0 -236 60.5 -338t236.5 -102zM250 1305v108h577v-108h-577z" />
<glyph unicode="&#x1e54;" horiz-adv-x="1247" d="M411 1671l426 195l48 -113l-431 -182zM702 496h-372v-496h-125v1427h497q442 0 443 -446q0 -225 -112 -355t-331 -130zM330 612h372q158 0 236 101.5t78 267.5q0 330 -314 330h-372v-699z" />
<glyph unicode="&#x1e55;" horiz-adv-x="1107" d="M591 1266l426 195l48 -113l-431 -182zM207 -461v1485h123v-74q141 92 305 92q360 0 360 -518q0 -283 -103.5 -413.5t-334.5 -130.5q-131 0 -227 22v-463h-123zM623 932q-66 0 -139.5 -21.5t-114.5 -44.5l-39 -22v-733q121 -23 221 -23q174 0 246.5 105.5t72.5 334.5 q0 193 -63 298.5t-184 105.5z" />
<glyph unicode="&#x1e56;" horiz-adv-x="1247" d="M393 1570v154h123v-154h-123zM702 496h-372v-496h-125v1427h497q442 0 443 -446q0 -225 -112 -355t-331 -130zM330 612h372q158 0 236 101.5t78 267.5q0 330 -314 330h-372v-699z" />
<glyph unicode="&#x1e57;" horiz-adv-x="1107" d="M573 1165v154h123v-154h-123zM207 -461v1485h123v-74q141 92 305 92q360 0 360 -518q0 -283 -103.5 -413.5t-334.5 -130.5q-131 0 -227 22v-463h-123zM623 932q-66 0 -139.5 -21.5t-114.5 -44.5l-39 -22v-733q121 -23 221 -23q174 0 246.5 105.5t72.5 334.5 q0 193 -63 298.5t-184 105.5z" />
<glyph unicode="&#x1e58;" horiz-adv-x="1280" d="M393 1570v154h123v-154h-123zM745 563l-49 -2h-366v-561h-125v1427h497q442 0 443 -423q0 -344 -273 -416l291 -588h-139zM1016 1003.5q0 149.5 -79 228.5t-235 79h-372v-635h375q164 0 237.5 89t73.5 238.5z" />
<glyph unicode="&#x1e59;" horiz-adv-x="727" d="M369 1167v154h123v-154h-123zM188 0v1024h123v-145q164 125 359 165v-124q-180 -39 -359 -154v-766h-123z" />
<glyph unicode="&#x1e5a;" horiz-adv-x="1280" d="M623 -277v154h123v-154h-123zM745 563l-49 -2h-366v-561h-125v1427h497q442 0 443 -423q0 -344 -273 -416l291 -588h-139zM1016 1003.5q0 149.5 -79 228.5t-235 79h-372v-635h375q164 0 237.5 89t73.5 238.5z" />
<glyph unicode="&#x1e5b;" horiz-adv-x="727" d="M188 -276v154h123v-154h-123zM188 0v1024h123v-145q164 125 359 165v-124q-180 -39 -359 -154v-766h-123z" />
<glyph unicode="&#x1e5c;" horiz-adv-x="1280" d="M144 1571v108h618v-108h-618zM623 -277v154h123v-154h-123zM745 563l-49 -2h-366v-561h-125v1427h497q442 0 443 -423q0 -344 -273 -416l291 -588h-139zM1016 1003.5q0 149.5 -79 228.5t-235 79h-372v-635h375q164 0 237.5 89t73.5 238.5z" />
<glyph unicode="&#x1e5d;" horiz-adv-x="727" d="M381 1168v108h578v-108h-578zM188 -276v154h123v-154h-123zM188 0v1024h123v-145q164 125 359 165v-124q-180 -39 -359 -154v-766h-123z" />
<glyph unicode="&#x1e5e;" horiz-adv-x="1280" d="M375 -231v108h618v-108h-618zM745 563l-49 -2h-366v-561h-125v1427h497q442 0 443 -423q0 -344 -273 -416l291 -588h-139zM1016 1003.5q0 149.5 -79 228.5t-235 79h-372v-635h375q164 0 237.5 89t73.5 238.5z" />
<glyph unicode="&#x1e5f;" horiz-adv-x="727" d="M-39 -231v108h578v-108h-578zM188 0v1024h123v-145q164 125 359 165v-124q-180 -39 -359 -154v-766h-123z" />
<glyph unicode="&#x1e60;" horiz-adv-x="1093" d="M496 1574v154h123v-154h-123zM963 1413l-9 -113q-274 33 -393 33q-156 0 -237.5 -64.5t-81.5 -187.5q0 -139 75.5 -196.5t276.5 -98.5q219 -47 310 -124.5t91 -247.5q0 -223 -107.5 -326.5t-332.5 -103.5q-74 0 -180.5 8t-177.5 16l-70 10l10 115q270 -33 412 -33 q319 0 319 306q0 119 -71.5 175t-255.5 93q-233 49 -329.5 132t-96.5 273q0 184 114.5 278.5t327.5 94.5z" />
<glyph unicode="&#x1e61;" horiz-adv-x="995" d="M416 1165v154h123v-154h-123zM831 1010l-4 -107q-215 31 -344 31q-231 0 -231 -176q0 -76 51 -112t205 -60q207 -33 282.5 -90.5t75.5 -198.5q0 -172 -99 -244.5t-286 -72.5l-344 36l8 107q221 -35 326 -35q139 0 204.5 44t65.5 159q0 88 -52 120.5t-218 61.5 q-188 33 -266 90.5t-78 190.5q0 152 101.5 220t248.5 68q70 0 158 -8t143 -16z" />
<glyph unicode="&#x1e62;" horiz-adv-x="1093" d="M494 -293v154h123v-154h-123zM963 1413l-9 -113q-274 33 -393 33q-156 0 -237.5 -64.5t-81.5 -187.5q0 -139 75.5 -196.5t276.5 -98.5q219 -47 310 -124.5t91 -247.5q0 -223 -107.5 -326.5t-332.5 -103.5q-74 0 -180.5 8t-177.5 16l-70 10l10 115q270 -33 412 -33 q319 0 319 306q0 119 -71.5 175t-255.5 93q-233 49 -329.5 132t-96.5 273q0 184 114.5 278.5t327.5 94.5z" />
<glyph unicode="&#x1e63;" horiz-adv-x="995" d="M420 -297v154h123v-154h-123zM831 1010l-4 -107q-215 31 -344 31q-231 0 -231 -176q0 -76 51 -112t205 -60q207 -33 282.5 -90.5t75.5 -198.5q0 -172 -99 -244.5t-286 -72.5l-344 36l8 107q221 -35 326 -35q139 0 204.5 44t65.5 159q0 88 -52 120.5t-218 61.5 q-188 33 -266 90.5t-78 190.5q0 152 101.5 220t248.5 68q70 0 158 -8t143 -16z" />
<glyph unicode="&#x1e64;" horiz-adv-x="1093" d="M676 2033v154h123v-154h-123zM963 1413l-9 -113q-274 33 -393 33q-156 0 -237.5 -64.5t-81.5 -187.5q0 -139 75.5 -196.5t276.5 -98.5q219 -47 310 -124.5t91 -247.5q0 -223 -107.5 -326.5t-332.5 -103.5q-74 0 -180.5 8t-177.5 16l-70 10l10 115q270 -33 412 -33 q319 0 319 306q0 119 -71.5 175t-255.5 93q-233 49 -329.5 132t-96.5 273q0 184 114.5 278.5t327.5 94.5zM311 1716l426 195l47 -113l-430 -182z" />
<glyph unicode="&#x1e65;" horiz-adv-x="995" d="M627 1645v154h123v-154h-123zM831 1010l-4 -107q-215 31 -344 31q-231 0 -231 -176q0 -76 51 -112t205 -60q207 -33 282.5 -90.5t75.5 -198.5q0 -172 -99 -244.5t-286 -72.5l-344 36l8 107q221 -35 326 -35q139 0 204.5 44t65.5 159q0 88 -52 120.5t-218 61.5 q-188 33 -266 90.5t-78 190.5q0 152 101.5 220t248.5 68q70 0 158 -8t143 -16zM262 1327l426 195l47 -113l-430 -182z" />
<glyph unicode="&#x1e66;" horiz-adv-x="1093" d="M508 2033v154h123v-154h-123zM963 1413l-9 -113q-274 33 -393 33q-156 0 -237.5 -64.5t-81.5 -187.5q0 -139 75.5 -196.5t276.5 -98.5q219 -47 310 -124.5t91 -247.5q0 -223 -107.5 -326.5t-332.5 -103.5q-74 0 -180.5 8t-177.5 16l-70 10l10 115q270 -33 412 -33 q319 0 319 306q0 119 -71.5 175t-255.5 93q-233 49 -329.5 132t-96.5 273q0 184 114.5 278.5t327.5 94.5zM897 1911l-272 -269h-109l-274 269h147l182 -172l179 172h147z" />
<glyph unicode="&#x1e67;" horiz-adv-x="995" d="M442 1632v154h123v-154h-123zM831 1010l-4 -107q-215 31 -344 31q-231 0 -231 -176q0 -76 51 -112t205 -60q207 -33 282.5 -90.5t75.5 -198.5q0 -172 -99 -244.5t-286 -72.5l-344 36l8 107q221 -35 326 -35q139 0 204.5 44t65.5 159q0 88 -52 120.5t-218 61.5 q-188 33 -266 90.5t-78 190.5q0 152 101.5 220t248.5 68q70 0 158 -8t143 -16zM453 1219l-252 290h137l166 -182l164 182h139l-254 -290h-100z" />
<glyph unicode="&#x1e68;" horiz-adv-x="1093" d="M496 1574v154h123v-154h-123zM494 -293v154h123v-154h-123zM963 1413l-9 -113q-274 33 -393 33q-156 0 -237.5 -64.5t-81.5 -187.5q0 -139 75.5 -196.5t276.5 -98.5q219 -47 310 -124.5t91 -247.5q0 -223 -107.5 -326.5t-332.5 -103.5q-74 0 -180.5 8t-177.5 16l-70 10 l10 115q270 -33 412 -33q319 0 319 306q0 119 -71.5 175t-255.5 93q-233 49 -329.5 132t-96.5 273q0 184 114.5 278.5t327.5 94.5z" />
<glyph unicode="&#x1e69;" horiz-adv-x="995" d="M416 1165v154h123v-154h-123zM420 -297v154h123v-154h-123zM831 1010l-4 -107q-215 31 -344 31q-231 0 -231 -176q0 -76 51 -112t205 -60q207 -33 282.5 -90.5t75.5 -198.5q0 -172 -99 -244.5t-286 -72.5l-344 36l8 107q221 -35 326 -35q139 0 204.5 44t65.5 159 q0 88 -52 120.5t-218 61.5q-188 33 -266 90.5t-78 190.5q0 152 101.5 220t248.5 68q70 0 158 -8t143 -16z" />
<glyph unicode="&#x1e6a;" horiz-adv-x="1013" d="M444 1570v154h123v-154h-123zM18 1309v118h975v-118h-422v-1309h-125v1309h-428z" />
<glyph unicode="&#x1e6b;" horiz-adv-x="749" d="M213 1469v154h123v-154h-123zM659 913h-323v-501q0 -186 30.5 -254t131.5 -68l172 10l8 -104q-119 -18 -191 -19q-150 0 -212 83t-62 288v565h-150v109h150v324h123v-324h323v-109z" />
<glyph unicode="&#x1e6c;" horiz-adv-x="1013" d="M446 -277v154h123v-154h-123zM18 1309v118h975v-118h-422v-1309h-125v1309h-428z" />
<glyph unicode="&#x1e6d;" horiz-adv-x="749" d="M426 -299v154h123v-154h-123zM659 913h-323v-501q0 -186 30.5 -254t131.5 -68l172 10l8 -104q-119 -18 -191 -19q-150 0 -212 83t-62 288v565h-150v109h150v324h123v-324h323v-109z" />
<glyph unicode="&#x1e6e;" horiz-adv-x="1013" d="M201 -231v108h618v-108h-618zM18 1309v118h975v-118h-422v-1309h-125v1309h-428z" />
<glyph unicode="&#x1e6f;" horiz-adv-x="749" d="M199 -254v108h578v-108h-578zM659 913h-323v-501q0 -186 30.5 -254t131.5 -68l172 10l8 -104q-119 -18 -191 -19q-150 0 -212 83t-62 288v565h-150v109h150v324h123v-324h323v-109z" />
<glyph unicode="&#x1e70;" horiz-adv-x="1013" d="M182 -391l274 268h109l272 -268h-145l-180 170l-181 -170h-149zM18 1309v118h975v-118h-422v-1309h-125v1309h-428z" />
<glyph unicode="&#x1e71;" horiz-adv-x="749" d="M185 -436l251 290h99l256 -290h-139l-164 184l-164 -184h-139zM659 913h-323v-501q0 -186 30.5 -254t131.5 -68l172 10l8 -104q-119 -18 -191 -19q-150 0 -212 83t-62 288v565h-150v109h150v324h123v-324h323v-109z" />
<glyph unicode="&#x1e72;" horiz-adv-x="1316" d="M385 -303v161h118v-161h-118zM798 -303v161h119v-161h-119zM301 418q0 -317 350 -318q365 0 365 318v1009h125v-1009q0 -436 -490 -436q-475 0 -475 436v1009h125v-1009z" />
<glyph unicode="&#x1e73;" horiz-adv-x="1142" d="M270 -305v162h119v-162h-119zM671 -305v162h119v-162h-119zM827 1024h123v-1024h-123v72q-156 -92 -297 -92q-199 0 -269.5 112.5t-70.5 396.5v535h123v-530q0 -231 45 -317.5t187 -86.5q61 0 132 21.5t109 44.5l41 20v848z" />
<glyph unicode="&#x1e74;" horiz-adv-x="1316" d="M973 -162l33 -94q-109 -117 -183 -117q-51 0 -177 60.5t-154 60.5q-20 0 -61.5 -26.5t-72.5 -51.5l-30 -26l-31 96q117 119 195 119q53 0 178 -59.5t151 -59.5q41 0 152 98zM301 418q0 -317 350 -318q365 0 365 318v1009h125v-1009q0 -436 -490 -436q-475 0 -475 436 v1009h125v-1009z" />
<glyph unicode="&#x1e75;" horiz-adv-x="1142" d="M825 -164l29 -96q-92 -98 -166 -98q-47 0 -160 52t-143 52q-20 0 -57.5 -22.5t-63.5 -44.5l-27 -23l-31 96q102 104 181 105q49 0 160.5 -51.5t140.5 -51.5q18 0 52 20.5t58 41.5zM827 1024h123v-1024h-123v72q-156 -92 -297 -92q-199 0 -269.5 112.5t-70.5 396.5v535 h123v-530q0 -231 45 -317.5t187 -86.5q61 0 132 21.5t109 44.5l41 20v848z" />
<glyph unicode="&#x1e76;" horiz-adv-x="1316" d="M324 -409l274 268h109l272 -268h-145l-180 170l-181 -170h-149zM301 418q0 -317 350 -318q365 0 365 318v1009h125v-1009q0 -436 -490 -436q-475 0 -475 436v1009h125v-1009z" />
<glyph unicode="&#x1e77;" horiz-adv-x="1142" d="M228 -434l251 290h99l256 -290h-139l-164 184l-164 -184h-139zM827 1024h123v-1024h-123v72q-156 -92 -297 -92q-199 0 -269.5 112.5t-70.5 396.5v535h123v-530q0 -231 45 -317.5t187 -86.5q61 0 132 21.5t109 44.5l41 20v848z" />
<glyph unicode="&#x1e78;" horiz-adv-x="1316" d="M458 2111l426 195l48 -113l-431 -182zM301 418q0 -317 350 -318q365 0 365 318v1009h125v-1009q0 -436 -490 -436q-475 0 -475 436v1009h125v-1009zM983 1868l33 -94q-109 -117 -182 -117q-51 0 -177.5 60.5t-154.5 60.5q-20 0 -61.5 -27t-71.5 -51l-31 -27l-31 96 q117 119 195 119q51 0 176 -59.5t153 -59.5q41 1 152 99z" />
<glyph unicode="&#x1e79;" horiz-adv-x="1142" d="M380 1706l426 195l48 -113l-431 -182zM827 1024h123v-1024h-123v72q-156 -92 -297 -92q-199 0 -269.5 112.5t-70.5 396.5v535h123v-530q0 -231 45 -317.5t187 -86.5q61 0 132 21.5t109 44.5l41 20v848zM862 1462l29 -96q-92 -98 -166 -98q-47 0 -159.5 52t-143.5 52 q-20 0 -57 -22.5t-64 -44.5l-27 -23l-30 96q102 104 180 105q49 0 160.5 -51.5t140.5 -51.5q18 0 52 20.5t59 41.5z" />
<glyph unicode="&#x1e7a;" horiz-adv-x="1316" d="M391 1934v161h118v-161h-118zM804 1934v161h119v-161h-119zM301 418q0 -317 350 -318q365 0 365 318v1009h125v-1009q0 -436 -490 -436q-475 0 -475 436v1009h125v-1009zM348 1702v108h619v-108h-619z" />
<glyph unicode="&#x1e7b;" horiz-adv-x="1142" d="M311 1536v162h119v-162h-119zM712 1536v162h119v-162h-119zM827 1024h123v-1024h-123v72q-156 -92 -297 -92q-199 0 -269.5 112.5t-70.5 396.5v535h123v-530q0 -231 45 -317.5t187 -86.5q61 0 132 21.5t109 44.5l41 20v848zM283 1305v108h577v-108h-577z" />
<glyph unicode="&#x1e7c;" horiz-adv-x="1202" d="M924 1782l33 -94q-109 -117 -183 -117q-51 0 -177 60.5t-154 60.5q-20 0 -61.5 -26.5t-72.5 -51.5l-30 -26l-31 96q117 119 195 119q53 0 178 -59.5t151 -59.5q41 0 152 98zM999 1427h129l-372 -1427h-303l-379 1427h129l348 -1312h106z" />
<glyph unicode="&#x1e7d;" horiz-adv-x="985" d="M789 1360l29 -96q-92 -98 -166 -98q-47 0 -160 52t-143 52q-20 0 -57.5 -22.5t-63.5 -44.5l-27 -23l-31 96q102 104 181 105q49 0 160.5 -51.5t140.5 -51.5q18 0 52 20.5t58 41.5zM68 1024h129l258 -920h73l265 920h125l-295 -1024h-263z" />
<glyph unicode="&#x1e7e;" horiz-adv-x="1202" d="M543 -277v154h123v-154h-123zM999 1427h129l-372 -1427h-303l-379 1427h129l348 -1312h106z" />
<glyph unicode="&#x1e7f;" horiz-adv-x="985" d="M430 -276v154h123v-154h-123zM68 1024h129l258 -920h73l265 920h125l-295 -1024h-263z" />
<glyph unicode="&#x1e80;" horiz-adv-x="1820" d="M92 1427h127l270 -1312h66l285 1292h141l291 -1292h67l263 1312h127l-291 -1427h-258l-271 1241l-260 -1241h-258zM707 1905l426 -195l-43 -98l-431 180z" />
<glyph unicode="&#x1e81;" horiz-adv-x="1552" d="M70 1024h125l221 -913h47l248 893h131l248 -893h47l221 913h125l-252 -1024h-232l-225 844l-227 -844h-228zM586 1522l426 -195l-43 -100l-430 182z" />
<glyph unicode="&#x1e82;" horiz-adv-x="1820" d="M92 1427h127l270 -1312h66l285 1292h141l291 -1292h67l263 1312h127l-291 -1427h-258l-271 1241l-260 -1241h-258zM690 1716l426 195l47 -113l-430 -182z" />
<glyph unicode="&#x1e83;" horiz-adv-x="1552" d="M70 1024h125l221 -913h47l248 893h131l248 -893h47l221 913h125l-252 -1024h-232l-225 844l-227 -844h-228zM539 1327l426 195l47 -113l-430 -182z" />
<glyph unicode="&#x1e84;" horiz-adv-x="1820" d="M92 1427h127l270 -1312h66l285 1292h141l291 -1292h67l263 1312h127l-291 -1427h-258l-271 1241l-260 -1241h-258zM643 1694v161h119v-161h-119zM1057 1694v161h119v-161h-119z" />
<glyph unicode="&#x1e85;" horiz-adv-x="1552" d="M70 1024h125l221 -913h47l248 893h131l248 -893h47l221 913h125l-252 -1024h-232l-225 844l-227 -844h-228zM516 1290v162h119v-162h-119zM918 1290v162h118v-162h-118z" />
<glyph unicode="&#x1e86;" horiz-adv-x="1820" d="M848 1570v154h123v-154h-123zM92 1427h127l270 -1312h66l285 1292h141l291 -1292h67l263 1312h127l-291 -1427h-258l-271 1241l-260 -1241h-258z" />
<glyph unicode="&#x1e87;" horiz-adv-x="1552" d="M715 1165v154h123v-154h-123zM70 1024h125l221 -913h47l248 893h131l248 -893h47l221 913h125l-252 -1024h-232l-225 844l-227 -844h-228z" />
<glyph unicode="&#x1e88;" horiz-adv-x="1820" d="M852 -277v154h123v-154h-123zM92 1427h127l270 -1312h66l285 1292h141l291 -1292h67l263 1312h127l-291 -1427h-258l-271 1241l-260 -1241h-258z" />
<glyph unicode="&#x1e89;" horiz-adv-x="1552" d="M713 -276v154h123v-154h-123zM70 1024h125l221 -913h47l248 893h131l248 -893h47l221 913h125l-252 -1024h-232l-225 844l-227 -844h-228z" />
<glyph unicode="&#x1e8a;" horiz-adv-x="1189" d="M532 1570v154h123v-154h-123zM223 1427l373 -626l371 626h143l-428 -718l428 -709h-143l-369 618l-375 -618h-143l434 709l-434 718h143z" />
<glyph unicode="&#x1e8b;" horiz-adv-x="940" d="M408 1165v154h123v-154h-123zM72 1024h135l262 -422l264 422h133l-323 -512l323 -512h-137l-260 422l-260 -422h-135l321 512z" />
<glyph unicode="&#x1e8c;" horiz-adv-x="1189" d="M328 1571v161h118v-161h-118zM741 1571v161h119v-161h-119zM223 1427l373 -626l371 626h143l-428 -718l428 -709h-143l-369 618l-375 -618h-143l434 709l-434 718h143z" />
<glyph unicode="&#x1e8d;" horiz-adv-x="940" d="M209 1165v162h119v-162h-119zM610 1165v162h119v-162h-119zM72 1024h135l262 -422l264 422h133l-323 -512l323 -512h-137l-260 422l-260 -422h-135l321 512z" />
<glyph unicode="&#x1e8e;" horiz-adv-x="1122" d="M500 1570v154h123v-154h-123zM625 612v-612h-125v612l-447 815h142l368 -677l363 677h141z" />
<glyph unicode="&#x1e8f;" horiz-adv-x="985" d="M430 1165v154h123v-154h-123zM66 1024h124l265 -909h73l267 909h125l-437 -1485h-125l140 461h-138z" />
<glyph unicode="&#x1e90;" horiz-adv-x="1167" d="M256 1571l274 268h109l272 -268h-145l-180 170l-181 -170h-149zM133 1311v116h901v-172l-755 -1097v-41h755v-119h-901v172l756 1096v45h-756z" />
<glyph unicode="&#x1e91;" horiz-adv-x="983" d="M189 1166l251 290h99l256 -290h-139l-164 184l-164 -184h-139zM121 913v111h739l2 -111l-596 -802h596v-111h-737l-4 111l598 802h-598z" />
<glyph unicode="&#x1e92;" horiz-adv-x="1167" d="M522 -279v154h123v-154h-123zM133 1311v116h901v-172l-755 -1097v-41h755v-119h-901v172l756 1096v45h-756z" />
<glyph unicode="&#x1e93;" horiz-adv-x="983" d="M432 -276v154h123v-154h-123zM121 913v111h739l2 -111l-596 -802h596v-111h-737l-4 111l598 802h-598z" />
<glyph unicode="&#x1e94;" horiz-adv-x="1167" d="M275 -233v108h618v-108h-618zM133 1311v116h901v-172l-755 -1097v-41h755v-119h-901v172l756 1096v45h-756z" />
<glyph unicode="&#x1e95;" horiz-adv-x="983" d="M205 -231v108h578v-108h-578zM121 913v111h739l2 -111l-596 -802h596v-111h-737l-4 111l598 802h-598z" />
<glyph unicode="&#x1e96;" horiz-adv-x="1157" d="M291 -231v108h578v-108h-578zM313 0h-120v1479h120v-508q172 72 314 71q201 0 270.5 -113.5t69.5 -396.5v-532h-123v530q0 223 -45 312.5t-187 89.5q-137 0 -299 -70v-862z" />
<glyph unicode="&#x1e97;" horiz-adv-x="749" d="M14 1468v162h119v-162h-119zM415 1468v162h119v-162h-119zM659 913h-323v-501q0 -186 30.5 -254t131.5 -68l172 10l8 -104q-119 -18 -191 -19q-150 0 -212 83t-62 288v565h-150v109h150v324h123v-324h323v-109z" />
<glyph unicode="&#x1e98;" horiz-adv-x="1552" d="M571 1372q0 86 60.5 145.5t148.5 59.5q86 0 144.5 -59.5t58.5 -145.5q0 -88 -58.5 -147.5t-144.5 -59.5q-88 0 -148.5 59.5t-60.5 147.5zM669 1372q0 -47 32 -81t79 -34q45 0 76.5 34t31.5 81t-31.5 80t-76.5 33q-47 0 -79 -33t-32 -80zM70 1024h125l221 -913h47l248 893 h131l248 -893h47l221 913h125l-252 -1024h-232l-225 844l-227 -844h-228z" />
<glyph unicode="&#x1e99;" horiz-adv-x="985" d="M287 1372q0 86 60.5 145.5t148.5 59.5q86 0 144.5 -59.5t58.5 -145.5q0 -88 -58.5 -147.5t-144.5 -59.5q-88 0 -148.5 59.5t-60.5 147.5zM385 1372q0 -47 32 -81t79 -34q45 0 76.5 34t31.5 81t-31.5 80t-76.5 33q-47 0 -79 -33t-32 -80zM66 1024h124l265 -909h73l267 909 h125l-437 -1485h-125l140 461h-138z" />
<glyph unicode="&#x1e9b;" horiz-adv-x="995" d="M416 1165v154h123v-154h-123zM831 1010l-4 -107q-215 31 -344 31q-231 0 -231 -176q0 -76 51 -112t205 -60q207 -33 282.5 -90.5t75.5 -198.5q0 -172 -99 -244.5t-286 -72.5l-344 36l8 107q221 -35 326 -35q139 0 204.5 44t65.5 159q0 88 -52 120.5t-218 61.5 q-188 33 -266 90.5t-78 190.5q0 152 101.5 220t248.5 68q70 0 158 -8t143 -16z" />
<glyph unicode="&#x1ea0;" horiz-adv-x="1236" d="M557 -277v154h123v-154h-123zM74 0l409 1427h277l405 -1427h-127l-120 391h-603l-114 -391h-127zM575 1315l-229 -807h545l-229 807h-87z" />
<glyph unicode="&#x1ea1;" horiz-adv-x="1064" d="M344 -297v154h123v-154h-123zM872 715v-535q29 -80 136 -92l-9 -106q-150 0 -225 81q-174 -84 -368 -83q-125 0 -204 85t-79 224q0 272 305 303l322 31v94q0 111 -48.5 161t-144.5 50q-72 0 -166 -7.5t-153 -15.5l-58 -6l-6 107q227 37 387 36.5t235.5 -80t75.5 -247.5z M750 522l-308 -26q-195 -18 -194 -205q0 -88 48 -146.5t122 -58.5q78 0 161 17.5t126 35.5l45 17v366z" />
<glyph unicode="&#x1ea4;" horiz-adv-x="1236" d="M575 2128l426 195l48 -113l-431 -182zM74 0l409 1427h277l405 -1427h-127l-120 391h-603l-114 -391h-127zM575 1315l-229 -807h545l-229 807h-87zM289 1636l274 269h109l272 -269h-145l-181 170l-180 -170h-149z" />
<glyph unicode="&#x1ea5;" horiz-adv-x="1093" d="M460 1733l426 195l48 -113l-431 -182zM872 715v-535q29 -80 136 -92l-9 -106q-150 0 -225 81q-174 -84 -368 -83q-125 0 -204 85t-79 224q0 272 305 303l322 31v94q0 111 -48.5 161t-144.5 50q-72 0 -166 -7.5t-153 -15.5l-58 -6l-6 107q227 37 387 36.5t235.5 -80 t75.5 -247.5zM750 522l-308 -26q-195 -18 -194 -205q0 -88 48 -146.5t122 -58.5q78 0 161 17.5t126 35.5l45 17v366zM203 1219l252 290h98l256 -290h-139l-164 184l-164 -184h-139z" />
<glyph unicode="&#x1ea6;" horiz-adv-x="1236" d="M234 2321l426 -195l-43 -98l-431 180zM74 0l409 1427h277l405 -1427h-127l-120 391h-603l-114 -391h-127zM575 1315l-229 -807h545l-229 807h-87zM289 1636l274 269h109l272 -269h-145l-181 170l-180 -170h-149z" />
<glyph unicode="&#x1ea7;" horiz-adv-x="1093" d="M121 1928l426 -195l-43 -100l-431 182zM872 715v-535q29 -80 136 -92l-9 -106q-150 0 -225 81q-174 -84 -368 -83q-125 0 -204 85t-79 224q0 272 305 303l322 31v94q0 111 -48.5 161t-144.5 50q-72 0 -166 -7.5t-153 -15.5l-58 -6l-6 107q227 37 387 36.5t235.5 -80 t75.5 -247.5zM750 522l-308 -26q-195 -18 -194 -205q0 -88 48 -146.5t122 -58.5q78 0 161 17.5t126 35.5l45 17v366zM203 1219l252 290h98l256 -290h-139l-164 184l-164 -184h-139z" />
<glyph unicode="&#x1eaa;" horiz-adv-x="1236" d="M940 2238l33 -94q-109 -117 -183 -117q-51 0 -177 60.5t-154 60.5q-20 0 -61.5 -26.5t-72.5 -51.5l-30 -26l-31 96q117 119 195 119q53 0 178 -59.5t151 -59.5q41 0 152 98zM74 0l409 1427h277l405 -1427h-127l-120 391h-603l-114 -391h-127zM575 1315l-229 -807h545 l-229 807h-87zM289 1636l274 269h109l272 -269h-145l-181 170l-180 -170h-149z" />
<glyph unicode="&#x1eab;" horiz-adv-x="1093" d="M872 715v-535q29 -80 136 -92l-9 -106q-150 0 -225 81q-174 -84 -368 -83q-125 0 -204 85t-79 224q0 272 305 303l322 31v94q0 111 -48.5 161t-144.5 50q-72 0 -166 -7.5t-153 -15.5l-58 -6l-6 107q227 37 387 36.5t235.5 -80t75.5 -247.5zM750 522l-308 -26 q-195 -18 -194 -205q0 -88 48 -146.5t122 -58.5q78 0 161 17.5t126 35.5l45 17v366zM233 1157l252 291h99l256 -291h-140l-163 184l-164 -184h-140zM836 1698l28 -96q-92 -98 -166 -99q-47 0 -159.5 52.5t-143.5 52.5q-20 0 -57 -22.5t-64 -45.5l-26 -22l-31 96 q102 104 180 104q49 0 161 -51t140 -51q18 0 52 20.5t61 40.5z" />
<glyph unicode="&#x1eac;" horiz-adv-x="1236" d="M293 1571l274 268h109l272 -268h-145l-180 170l-181 -170h-149zM557 -277v154h123v-154h-123zM74 0l409 1427h277l405 -1427h-127l-120 391h-603l-114 -391h-127zM575 1315l-229 -807h545l-229 807h-87z" />
<glyph unicode="&#x1ead;" horiz-adv-x="1064" d="M258 1166l251 290h99l256 -290h-139l-164 184l-164 -184h-139zM344 -297v154h123v-154h-123zM872 715v-535q29 -80 136 -92l-9 -106q-150 0 -225 81q-174 -84 -368 -83q-125 0 -204 85t-79 224q0 272 305 303l322 31v94q0 111 -48.5 161t-144.5 50q-72 0 -166 -7.5 t-153 -15.5l-58 -6l-6 107q227 37 387 36.5t235.5 -80t75.5 -247.5zM750 522l-308 -26q-195 -18 -194 -205q0 -88 48 -146.5t122 -58.5q78 0 161 17.5t126 35.5l45 17v366z" />
<glyph unicode="&#x1eae;" horiz-adv-x="1236" d="M575 2115l426 195l48 -113l-431 -182zM74 0l409 1427h277l405 -1427h-127l-120 391h-603l-114 -391h-127zM575 1315l-229 -807h545l-229 807h-87zM309 1892h125q2 -70 54.5 -111.5t127.5 -41.5q78 0 130.5 42t54.5 111h125q-4 -117 -90 -188.5t-220 -71.5 q-131 0 -217 71.5t-90 188.5z" />
<glyph unicode="&#x1eaf;" horiz-adv-x="1064" d="M489 1716l426 195l48 -113l-431 -182zM872 715v-535q29 -80 136 -92l-9 -106q-150 0 -225 81q-174 -84 -368 -83q-125 0 -204 85t-79 224q0 272 305 303l322 31v94q0 111 -48.5 161t-144.5 50q-72 0 -166 -7.5t-153 -15.5l-58 -6l-6 107q227 37 387 36.5t235.5 -80 t75.5 -247.5zM750 522l-308 -26q-195 -18 -194 -205q0 -88 48 -146.5t122 -58.5q78 0 161 17.5t126 35.5l45 17v366zM221 1493h125q4 -76 53.5 -123t132.5 -47q88 0 136.5 46t50.5 124h125q-4 -125 -87 -203t-225 -78q-139 0 -223 78t-88 203z" />
<glyph unicode="&#x1eb0;" horiz-adv-x="1236" d="M74 0l409 1427h277l405 -1427h-127l-120 391h-603l-114 -391h-127zM575 1315l-229 -807h545l-229 807h-87zM309 1827h125q2 -70 54.5 -112t127.5 -42q78 0 130.5 42t54.5 112h125q-4 -117 -90 -188.5t-220 -71.5q-131 0 -217 71.5t-90 188.5zM430 2214l426 -195l-43 -100 l-430 182z" />
<glyph unicode="&#x1eb1;" horiz-adv-x="1064" d="M150 1911l426 -195l-43 -100l-431 182zM872 715v-535q29 -80 136 -92l-9 -106q-150 0 -225 81q-174 -84 -368 -83q-125 0 -204 85t-79 224q0 272 305 303l322 31v94q0 111 -48.5 161t-144.5 50q-72 0 -166 -7.5t-153 -15.5l-58 -6l-6 107q227 37 387 36.5t235.5 -80 t75.5 -247.5zM750 522l-308 -26q-195 -18 -194 -205q0 -88 48 -146.5t122 -58.5q78 0 161 17.5t126 35.5l45 17v366zM221 1493h125q4 -76 53.5 -123t132.5 -47q88 0 136.5 46t50.5 124h125q-4 -125 -87 -203t-225 -78q-139 0 -223 78t-88 203z" />
<glyph unicode="&#x1eb4;" horiz-adv-x="1236" d="M940 2226l33 -94q-109 -117 -183 -117q-51 0 -177 60.5t-154 60.5q-20 0 -61.5 -26.5t-72.5 -51.5l-30 -26l-31 96q117 119 195 119q53 0 178 -59.5t151 -59.5q41 0 152 98zM74 0l409 1427h277l405 -1427h-127l-120 391h-603l-114 -391h-127zM575 1315l-229 -807h545 l-229 807h-87zM309 1892h125q2 -70 54.5 -111.5t127.5 -41.5q78 0 130.5 42t54.5 111h125q-4 -117 -90 -188.5t-220 -71.5q-131 0 -217 71.5t-90 188.5z" />
<glyph unicode="&#x1eb5;" horiz-adv-x="1064" d="M827 1810l29 -96q-92 -98 -166 -98q-47 0 -160 52t-143 52q-20 0 -57.5 -22.5t-63.5 -44.5l-27 -23l-31 96q102 104 181 105q49 0 160.5 -51.5t140.5 -51.5q18 0 52 20.5t58 41.5zM872 715v-535q29 -80 136 -92l-9 -106q-150 0 -225 81q-174 -84 -368 -83q-125 0 -204 85 t-79 224q0 272 305 303l322 31v94q0 111 -48.5 161t-144.5 50q-72 0 -166 -7.5t-153 -15.5l-58 -6l-6 107q227 37 387 36.5t235.5 -80t75.5 -247.5zM750 522l-308 -26q-195 -18 -194 -205q0 -88 48 -146.5t122 -58.5q78 0 161 17.5t126 35.5l45 17v366zM221 1493h125 q4 -76 53.5 -123t132.5 -47q88 0 136.5 46t50.5 124h125q-4 -125 -87 -203t-225 -78q-139 0 -223 78t-88 203z" />
<glyph unicode="&#x1eb6;" horiz-adv-x="1236" d="M313 1831h125q2 -70 54.5 -111.5t128.5 -41.5q78 0 130 42t54 111h125q-4 -117 -90 -188.5t-219 -71.5q-131 0 -217.5 71.5t-90.5 188.5zM557 -277v154h123v-154h-123zM74 0l409 1427h277l405 -1427h-127l-120 391h-603l-114 -391h-127zM575 1315l-229 -807h545l-229 807 h-87z" />
<glyph unicode="&#x1eb7;" horiz-adv-x="1064" d="M249 1446h125q4 -76 53.5 -123t133.5 -47q88 0 136 46t50 124h125q-4 -125 -87 -203t-224 -78q-139 0 -223.5 78t-88.5 203zM344 -297v154h123v-154h-123zM872 715v-535q29 -80 136 -92l-9 -106q-150 0 -225 81q-174 -84 -368 -83q-125 0 -204 85t-79 224q0 272 305 303 l322 31v94q0 111 -48.5 161t-144.5 50q-72 0 -166 -7.5t-153 -15.5l-58 -6l-6 107q227 37 387 36.5t235.5 -80t75.5 -247.5zM750 522l-308 -26q-195 -18 -194 -205q0 -88 48 -146.5t122 -58.5q78 0 161 17.5t126 35.5l45 17v366z" />
<glyph unicode="&#x1eb8;" horiz-adv-x="1161" d="M559 -277v154h123v-154h-123zM205 0v1427h831v-116h-706v-527h583v-114h-583v-553h706v-117h-831z" />
<glyph unicode="&#x1eb9;" horiz-adv-x="1038" d="M453 -297v154h123v-154h-123zM520 90q66 0 157 4t150 8l58 7l4 -101q-211 -29 -375 -28q-211 0 -303 136t-92 392q0 270 109.5 402t303.5 132q393 0 394 -483l-4 -98h-678q4 -371 276 -371zM244 561h559q0 199 -66.5 287t-204.5 88q-135 0 -211.5 -91t-76.5 -284z" />
<glyph unicode="&#x1ebc;" horiz-adv-x="1161" d="M942 1782l33 -94q-109 -117 -183 -117q-51 0 -177 60.5t-154 60.5q-20 0 -61.5 -26.5t-72.5 -51.5l-30 -26l-31 96q117 119 195 119q53 0 178 -59.5t151 -59.5q41 0 152 98zM205 0v1427h831v-116h-706v-527h583v-114h-583v-553h706v-117h-831z" />
<glyph unicode="&#x1ebd;" horiz-adv-x="1038" d="M827 1360l29 -96q-92 -98 -166 -98q-47 0 -160 52t-143 52q-20 0 -57.5 -22.5t-63.5 -44.5l-27 -23l-31 96q102 104 181 105q49 0 160.5 -51.5t140.5 -51.5q18 0 52 20.5t58 41.5zM520 90q66 0 157 4t150 8l58 7l4 -101q-211 -29 -375 -28q-211 0 -303 136t-92 392 q0 270 109.5 402t303.5 132q393 0 394 -483l-4 -98h-678q4 -371 276 -371zM244 561h559q0 199 -66.5 287t-204.5 88q-135 0 -211.5 -91t-76.5 -284z" />
<glyph unicode="&#x1ebe;" horiz-adv-x="1161" d="M579 2130l426 195l48 -113l-431 -182zM205 0v1427h831v-116h-706v-527h583v-114h-583v-553h706v-117h-831zM295 1638l274 269h109l272 -269h-145l-180 170l-181 -170h-149z" />
<glyph unicode="&#x1ebf;" horiz-adv-x="1038" d="M483 1733l426 195l48 -113l-431 -182zM520 90q66 0 157 4t150 8l58 7l4 -101q-211 -29 -375 -28q-211 0 -303 136t-92 392q0 270 109.5 402t303.5 132q393 0 394 -483l-4 -98h-678q4 -371 276 -371zM244 561h559q0 199 -66.5 287t-204.5 88q-135 0 -211.5 -91t-76.5 -284 zM225 1219l252 290h98l256 -290h-139l-164 184l-163 -184h-140z" />
<glyph unicode="&#x1ec0;" horiz-adv-x="1161" d="M242 2323l426 -195l-43 -98l-431 180zM205 0v1427h831v-116h-706v-527h583v-114h-583v-553h706v-117h-831zM295 1638l274 269h109l272 -269h-145l-180 170l-181 -170h-149z" />
<glyph unicode="&#x1ec1;" horiz-adv-x="1038" d="M144 1928l426 -195l-43 -100l-431 182zM520 90q66 0 157 4t150 8l58 7l4 -101q-211 -29 -375 -28q-211 0 -303 136t-92 392q0 270 109.5 402t303.5 132q393 0 394 -483l-4 -98h-678q4 -371 276 -371zM244 561h559q0 199 -66.5 287t-204.5 88q-135 0 -211.5 -91 t-76.5 -284zM225 1219l252 290h98l256 -290h-139l-164 184l-163 -184h-140z" />
<glyph unicode="&#x1ec4;" horiz-adv-x="1161" d="M944 2240l33 -94q-109 -117 -183 -117q-51 0 -177 60.5t-154 60.5q-20 0 -61.5 -26.5t-72.5 -51.5l-30 -26l-31 96q117 119 195 119q53 0 178 -59.5t151 -59.5q41 0 152 98zM205 0v1427h831v-116h-706v-527h583v-114h-583v-553h706v-117h-831zM295 1638l274 269h109 l272 -269h-145l-180 170l-181 -170h-149z" />
<glyph unicode="&#x1ec5;" horiz-adv-x="1038" d="M520 90q66 0 157 4t150 8l58 7l4 -101q-211 -29 -375 -28q-211 0 -303 136t-92 392q0 270 109.5 402t303.5 132q393 0 394 -483l-4 -98h-678q4 -371 276 -371zM244 561h559q0 199 -66.5 287t-204.5 88q-135 0 -211.5 -91t-76.5 -284zM219 1157l252 291h98l256 -291h-139 l-164 184l-164 -184h-139zM805 1698l29 -96q-92 -98 -166 -99q-47 0 -160 52.5t-143 52.5q-20 0 -57.5 -22.5t-63.5 -45.5l-27 -22l-31 96q102 104 181 104q49 0 160.5 -51t140.5 -51q18 0 52 20.5t58 40.5z" />
<glyph unicode="&#x1ec6;" horiz-adv-x="1161" d="M293 1571l274 268h109l272 -268h-145l-180 170l-181 -170h-149zM559 -277v154h123v-154h-123zM205 0v1427h831v-116h-706v-527h583v-114h-583v-553h706v-117h-831z" />
<glyph unicode="&#x1ec7;" horiz-adv-x="1038" d="M230 1166l251 290h99l256 -290h-139l-164 184l-164 -184h-139zM453 -297v154h123v-154h-123zM520 90q66 0 157 4t150 8l58 7l4 -101q-211 -29 -375 -28q-211 0 -303 136t-92 392q0 270 109.5 402t303.5 132q393 0 394 -483l-4 -98h-678q4 -371 276 -371zM244 561h559 q0 199 -66.5 287t-204.5 88q-135 0 -211.5 -91t-76.5 -284z" />
<glyph unicode="&#x1eca;" horiz-adv-x="489" d="M184 -277v154h123v-154h-123zM182 0v1427h125v-1427h-125z" />
<glyph unicode="&#x1ecb;" horiz-adv-x="466" d="M172 -276v154h123v-154h-123zM172 0v1024h123v-1024h-123zM172 1276v154h123v-154h-123z" />
<glyph unicode="&#x1ecc;" horiz-adv-x="1337" d="M606 -297v154h123v-154h-123zM668 96q236 0 325.5 139.5t89.5 471.5q0 322 -94 473t-321.5 151t-320.5 -150.5t-93 -473.5q0 -326 91.5 -468.5t322.5 -142.5zM668 -20q-297 0 -421 175t-124 551.5t126 559t419 182.5q295 0 420.5 -182.5t125.5 -558.5q0 -385 -123.5 -556 t-422.5 -171z" />
<glyph unicode="&#x1ecd;" horiz-adv-x="1079" d="M481 -297v154h123v-154h-123zM543 1042q219 0 317 -128t98 -388q0 -276 -91 -411t-324 -135q-238 0 -330 131t-92 417q0 266 95.5 390t326.5 124zM543 88q174 0 231 105.5t57 332.5q0 209 -67.5 308.5t-220.5 99.5q-164 0 -230.5 -94.5t-66.5 -311.5q0 -236 60.5 -338 t236.5 -102z" />
<glyph unicode="&#x1ed0;" horiz-adv-x="1337" d="M628 2136l426 195l48 -113l-431 -182zM668 96q236 0 325.5 139.5t89.5 471.5q0 322 -94 473t-321.5 151t-320.5 -150.5t-93 -473.5q0 -326 91.5 -468.5t322.5 -142.5zM668 -20q-297 0 -421 175t-124 551.5t126 559t419 182.5q295 0 420.5 -182.5t125.5 -558.5 q0 -385 -123.5 -556t-422.5 -171zM344 1645l274 268h109l272 -268h-145l-180 170l-180 -170h-150z" />
<glyph unicode="&#x1ed1;" horiz-adv-x="1093" d="M481 1733l426 195l48 -113l-431 -182zM543 1042q219 0 317 -128t98 -388q0 -276 -91 -411t-324 -135q-238 0 -330 131t-92 417q0 266 95.5 390t326.5 124zM543 88q174 0 231 105.5t57 332.5q0 209 -67.5 308.5t-220.5 99.5q-164 0 -230.5 -94.5t-66.5 -311.5 q0 -236 60.5 -338t236.5 -102zM223 1219l252 290h98l256 -290h-139l-164 184l-164 -184h-139z" />
<glyph unicode="&#x1ed2;" horiz-adv-x="1337" d="M291 2329l426 -195l-43 -98l-431 180zM668 96q236 0 325.5 139.5t89.5 471.5q0 322 -94 473t-321.5 151t-320.5 -150.5t-93 -473.5q0 -326 91.5 -468.5t322.5 -142.5zM668 -20q-297 0 -421 175t-124 551.5t126 559t419 182.5q295 0 420.5 -182.5t125.5 -558.5 q0 -385 -123.5 -556t-422.5 -171zM344 1645l274 268h109l272 -268h-145l-180 170l-180 -170h-150z" />
<glyph unicode="&#x1ed3;" horiz-adv-x="1093" d="M142 1928l426 -195l-43 -100l-431 182zM543 1042q219 0 317 -128t98 -388q0 -276 -91 -411t-324 -135q-238 0 -330 131t-92 417q0 266 95.5 390t326.5 124zM543 88q174 0 231 105.5t57 332.5q0 209 -67.5 308.5t-220.5 99.5q-164 0 -230.5 -94.5t-66.5 -311.5 q0 -236 60.5 -338t236.5 -102zM223 1219l252 290h98l256 -290h-139l-164 184l-164 -184h-139z" />
<glyph unicode="&#x1ed6;" horiz-adv-x="1337" d="M993 2246l33 -94q-109 -117 -183 -117q-51 0 -177 60.5t-154 60.5q-20 0 -61.5 -26.5t-72.5 -51.5l-30 -26l-31 96q117 119 195 119q53 0 178 -59.5t151 -59.5q41 0 152 98zM668 96q236 0 325.5 139.5t89.5 471.5q0 322 -94 473t-321.5 151t-320.5 -150.5t-93 -473.5 q0 -326 91.5 -468.5t322.5 -142.5zM668 -20q-297 0 -421 175t-124 551.5t126 559t419 182.5q295 0 420.5 -182.5t125.5 -558.5q0 -385 -123.5 -556t-422.5 -171zM344 1645l274 268h109l272 -268h-145l-180 170l-180 -170h-150z" />
<glyph unicode="&#x1ed7;" horiz-adv-x="1093" d="M543 1042q219 0 317 -128t98 -388q0 -276 -91 -411t-324 -135q-238 0 -330 131t-92 417q0 266 95.5 390t326.5 124zM543 88q174 0 231 105.5t57 332.5q0 209 -67.5 308.5t-220.5 99.5q-164 0 -230.5 -94.5t-66.5 -311.5q0 -236 60.5 -338t236.5 -102zM233 1157l252 291 h99l256 -291h-140l-163 184l-164 -184h-140zM836 1698l28 -96q-92 -98 -166 -99q-47 0 -159.5 52.5t-143.5 52.5q-20 0 -57 -22.5t-64 -45.5l-26 -22l-31 96q102 104 180 104q49 0 161 -51t140 -51q18 0 52 20.5t61 40.5z" />
<glyph unicode="&#x1ed8;" horiz-adv-x="1337" d="M340 1571l274 268h109l272 -268h-145l-180 170l-181 -170h-149zM606 -297v154h123v-154h-123zM668 96q236 0 325.5 139.5t89.5 471.5q0 322 -94 473t-321.5 151t-320.5 -150.5t-93 -473.5q0 -326 91.5 -468.5t322.5 -142.5zM668 -20q-297 0 -421 175t-124 551.5t126 559 t419 182.5q295 0 420.5 -182.5t125.5 -558.5q0 -385 -123.5 -556t-422.5 -171z" />
<glyph unicode="&#x1ed9;" horiz-adv-x="1079" d="M240 1166l251 290h99l256 -290h-139l-164 184l-164 -184h-139zM481 -297v154h123v-154h-123zM543 1042q219 0 317 -128t98 -388q0 -276 -91 -411t-324 -135q-238 0 -330 131t-92 417q0 266 95.5 390t326.5 124zM543 88q174 0 231 105.5t57 332.5q0 209 -67.5 308.5 t-220.5 99.5q-164 0 -230.5 -94.5t-66.5 -311.5q0 -236 60.5 -338t236.5 -102z" />
<glyph unicode="&#x1eda;" horiz-adv-x="1337" d="M768 1671l426 195l48 -113l-431 -182zM729 993l90 455h135l-109 -455h-116zM668 96q236 0 325.5 139.5t89.5 471.5q0 322 -94 473t-321.5 151t-320.5 -150.5t-93 -473.5q0 -326 91.5 -468.5t322.5 -142.5zM668 -20q-297 0 -421 175t-124 551.5t126 559t419 182.5 q295 0 420.5 -182.5t125.5 -558.5q0 -385 -123.5 -556t-422.5 -171z" />
<glyph unicode="&#x1edb;" horiz-adv-x="1079" d="M643 1266l426 195l48 -113l-431 -182zM605 588l90 455h135l-109 -455h-116zM543 1042q219 0 317 -128t98 -388q0 -276 -91 -411t-324 -135q-238 0 -330 131t-92 417q0 266 95.5 390t326.5 124zM543 88q174 0 231 105.5t57 332.5q0 209 -67.5 308.5t-220.5 99.5 q-164 0 -230.5 -94.5t-66.5 -311.5q0 -236 60.5 -338t236.5 -102z" />
<glyph unicode="&#x1edc;" horiz-adv-x="1337" d="M428 1864l426 -195l-43 -98l-431 180zM729 993l90 455h135l-109 -455h-116zM668 96q236 0 325.5 139.5t89.5 471.5q0 322 -94 473t-321.5 151t-320.5 -150.5t-93 -473.5q0 -326 91.5 -468.5t322.5 -142.5zM668 -20q-297 0 -421 175t-124 551.5t126 559t419 182.5 q295 0 420.5 -182.5t125.5 -558.5q0 -385 -123.5 -556t-422.5 -171z" />
<glyph unicode="&#x1edd;" horiz-adv-x="1079" d="M304 1461l426 -195l-43 -100l-431 182zM605 588l90 455h135l-109 -455h-116zM543 1042q219 0 317 -128t98 -388q0 -276 -91 -411t-324 -135q-238 0 -330 131t-92 417q0 266 95.5 390t326.5 124zM543 88q174 0 231 105.5t57 332.5q0 209 -67.5 308.5t-220.5 99.5 q-164 0 -230.5 -94.5t-66.5 -311.5q0 -236 60.5 -338t236.5 -102z" />
<glyph unicode="&#x1ee0;" horiz-adv-x="1337" d="M1133 1782l33 -94q-109 -117 -183 -117q-51 0 -177 60.5t-154 60.5q-20 0 -61.5 -26.5t-72.5 -51.5l-30 -26l-31 96q117 119 195 119q53 0 178 -59.5t151 -59.5q41 0 152 98zM729 993l90 455h135l-109 -455h-116zM668 96q236 0 325.5 139.5t89.5 471.5q0 322 -94 473 t-321.5 151t-320.5 -150.5t-93 -473.5q0 -326 91.5 -468.5t322.5 -142.5zM668 -20q-297 0 -421 175t-124 551.5t126 559t419 182.5q295 0 420.5 -182.5t125.5 -558.5q0 -385 -123.5 -556t-422.5 -171z" />
<glyph unicode="&#x1ee1;" horiz-adv-x="1079" d="M981 1360l29 -96q-92 -98 -166 -98q-47 0 -160 52t-143 52q-20 0 -57.5 -22.5t-63.5 -44.5l-27 -23l-31 96q102 104 181 105q49 0 160.5 -51.5t140.5 -51.5q18 0 52 20.5t58 41.5zM605 588l90 455h135l-109 -455h-116zM543 1042q219 0 317 -128t98 -388q0 -276 -91 -411 t-324 -135q-238 0 -330 131t-92 417q0 266 95.5 390t326.5 124zM543 88q174 0 231 105.5t57 332.5q0 209 -67.5 308.5t-220.5 99.5q-164 0 -230.5 -94.5t-66.5 -311.5q0 -236 60.5 -338t236.5 -102z" />
<glyph unicode="&#x1ee2;" horiz-adv-x="1337" d="M606 -297v154h123v-154h-123zM729 993l90 455h135l-109 -455h-116zM668 96q236 0 325.5 139.5t89.5 471.5q0 322 -94 473t-321.5 151t-320.5 -150.5t-93 -473.5q0 -326 91.5 -468.5t322.5 -142.5zM668 -20q-297 0 -421 175t-124 551.5t126 559t419 182.5 q295 0 420.5 -182.5t125.5 -558.5q0 -385 -123.5 -556t-422.5 -171z" />
<glyph unicode="&#x1ee3;" horiz-adv-x="1079" d="M481 -297v154h123v-154h-123zM605 588l90 455h135l-109 -455h-116zM543 1042q219 0 317 -128t98 -388q0 -276 -91 -411t-324 -135q-238 0 -330 131t-92 417q0 266 95.5 390t326.5 124zM543 88q174 0 231 105.5t57 332.5q0 209 -67.5 308.5t-220.5 99.5 q-164 0 -230.5 -94.5t-66.5 -311.5q0 -236 60.5 -338t236.5 -102z" />
<glyph unicode="&#x1ee4;" horiz-adv-x="1316" d="M590 -295v154h123v-154h-123zM301 418q0 -317 350 -318q365 0 365 318v1009h125v-1009q0 -436 -490 -436q-475 0 -475 436v1009h125v-1009z" />
<glyph unicode="&#x1ee5;" horiz-adv-x="1142" d="M469 -297v154h123v-154h-123zM827 1024h123v-1024h-123v72q-156 -92 -297 -92q-199 0 -269.5 112.5t-70.5 396.5v535h123v-530q0 -231 45 -317.5t187 -86.5q61 0 132 21.5t109 44.5l41 20v848z" />
<glyph unicode="&#x1ee8;" horiz-adv-x="1316" d="M1316 1671l426 195l48 -113l-431 -182zM1203 993l90 455h135l-109 -455h-116zM301 418q0 -317 350 -318q365 0 365 318v1009h125v-1009q0 -436 -490 -436q-475 0 -475 436v1009h125v-1009z" />
<glyph unicode="&#x1ee9;" horiz-adv-x="1142" d="M1126 1266l426 195l48 -113l-431 -182zM1012 588l90 455h135l-109 -455h-116zM827 1024h123v-1024h-123v72q-156 -92 -297 -92q-199 0 -269.5 112.5t-70.5 396.5v535h123v-530q0 -231 45 -317.5t187 -86.5q61 0 132 21.5t109 44.5l41 20v848z" />
<glyph unicode="&#x1eea;" horiz-adv-x="1316" d="M977 1864l426 -195l-43 -98l-431 180zM1203 993l90 455h135l-109 -455h-116zM301 418q0 -317 350 -318q365 0 365 318v1009h125v-1009q0 -436 -490 -436q-475 0 -475 436v1009h125v-1009z" />
<glyph unicode="&#x1eeb;" horiz-adv-x="1142" d="M787 1461l426 -195l-43 -100l-431 182zM1012 588l90 455h135l-109 -455h-116zM827 1024h123v-1024h-123v72q-156 -92 -297 -92q-199 0 -269.5 112.5t-70.5 396.5v535h123v-530q0 -231 45 -317.5t187 -86.5q61 0 132 21.5t109 44.5l41 20v848z" />
<glyph unicode="&#x1eee;" horiz-adv-x="1316" d="M1682 1782l33 -94q-109 -117 -183 -117q-51 0 -177 60.5t-154 60.5q-20 0 -61.5 -26.5t-72.5 -51.5l-30 -26l-31 96q117 119 195 119q53 0 178 -59.5t151 -59.5q41 0 152 98zM1203 993l90 455h135l-109 -455h-116zM301 418q0 -317 350 -318q365 0 365 318v1009h125v-1009 q0 -436 -490 -436q-475 0 -475 436v1009h125v-1009z" />
<glyph unicode="&#x1eef;" horiz-adv-x="1142" d="M1464 1360l29 -96q-92 -98 -166 -98q-47 0 -160 52t-143 52q-20 0 -57.5 -22.5t-63.5 -44.5l-27 -23l-31 96q102 104 181 105q49 0 160.5 -51.5t140.5 -51.5q18 0 52 20.5t58 41.5zM1012 588l90 455h135l-109 -455h-116zM827 1024h123v-1024h-123v72q-156 -92 -297 -92 q-199 0 -269.5 112.5t-70.5 396.5v535h123v-530q0 -231 45 -317.5t187 -86.5q61 0 132 21.5t109 44.5l41 20v848z" />
<glyph unicode="&#x1ef0;" horiz-adv-x="1316" d="M590 -295v154h123v-154h-123zM1203 993l90 455h135l-109 -455h-116zM301 418q0 -317 350 -318q365 0 365 318v1009h125v-1009q0 -436 -490 -436q-475 0 -475 436v1009h125v-1009z" />
<glyph unicode="&#x1ef1;" horiz-adv-x="1142" d="M469 -297v154h123v-154h-123zM1012 588l90 455h135l-109 -455h-116zM827 1024h123v-1024h-123v72q-156 -92 -297 -92q-199 0 -269.5 112.5t-70.5 396.5v535h123v-530q0 -231 45 -317.5t187 -86.5q61 0 132 21.5t109 44.5l41 20v848z" />
<glyph unicode="&#x1ef2;" horiz-adv-x="1122" d="M625 612v-612h-125v612l-447 815h142l368 -677l363 677h141zM371 1905l426 -195l-43 -98l-430 180z" />
<glyph unicode="&#x1ef3;" horiz-adv-x="985" d="M66 1024h124l265 -909h73l267 909h125l-437 -1485h-125l140 461h-138zM301 1522l426 -195l-43 -100l-430 182z" />
<glyph unicode="&#x1ef4;" horiz-adv-x="1122" d="M500 -277v154h123v-154h-123zM625 612v-612h-125v612l-447 815h142l368 -677l363 677h141z" />
<glyph unicode="&#x1ef5;" horiz-adv-x="985" d="M360 -737v154h123v-154h-123zM66 1024h124l265 -909h73l267 909h125l-437 -1485h-125l140 461h-138z" />
<glyph unicode="&#x1ef8;" horiz-adv-x="1122" d="M625 612v-612h-125v612l-447 815h142l368 -677l363 677h141zM856 1868l29 -96q-92 -98 -166 -99q-47 0 -160 52.5t-143 52.5q-20 0 -57 -22.5t-64 -45.5l-27 -22l-30 96q102 104 180 104q49 0 160.5 -51t140.5 -51q18 0 52 20.5t60 40.5z" />
<glyph unicode="&#x1ef9;" horiz-adv-x="985" d="M66 1024h124l265 -909h73l267 909h125l-437 -1485h-125l140 461h-138zM786 1462l29 -96q-92 -98 -166 -98q-47 0 -159.5 52t-143.5 52q-20 0 -57 -22.5t-64 -44.5l-26 -23l-31 96q102 104 180 105q49 0 161 -51.5t140 -51.5q18 0 52 20.5t61 41.5z" />
<glyph unicode="&#x2000;" horiz-adv-x="1024" />
<glyph unicode="&#x2001;" horiz-adv-x="2048" />
<glyph unicode="&#x2002;" horiz-adv-x="1024" />
<glyph unicode="&#x2003;" horiz-adv-x="2048" />
<glyph unicode="&#x2004;" horiz-adv-x="681" />
<glyph unicode="&#x2005;" horiz-adv-x="512" />
<glyph unicode="&#x2006;" horiz-adv-x="339" />
<glyph unicode="&#x2007;" />
<glyph unicode="&#x2008;" horiz-adv-x="507" />
<glyph unicode="&#x2009;" horiz-adv-x="204" />
<glyph unicode="&#x200a;" horiz-adv-x="20" />
<glyph unicode="&#x200b;" horiz-adv-x="0" />
<glyph unicode="&#x200c;" horiz-adv-x="0" />
<glyph unicode="&#x200d;" horiz-adv-x="0" />
<glyph unicode="&#x200e;" horiz-adv-x="681" />
<glyph unicode="&#x200f;" horiz-adv-x="681" />
<glyph unicode="&#x2010;" horiz-adv-x="901" d="M143 496v116h615v-116h-615z" />
<glyph unicode="&#x2011;" horiz-adv-x="901" d="M143 496v116h615v-116h-615z" />
<glyph unicode="&#x2012;" d="M143 496v116h799v-116h-799z" />
<glyph unicode="&#x2013;" horiz-adv-x="1024" d="M0 610h1024v-114h-1024v114z" />
<glyph unicode="&#x2014;" horiz-adv-x="2048" d="M0 610h2048v-114h-2048v114z" />
<glyph unicode="&#x2015;" horiz-adv-x="4096" d="M143 496v116h3810v-116h-3810z" />
<glyph unicode="&#x2016;" horiz-adv-x="2170" d="M1554 -512v2048h125v-2048h-125zM469 -512v2048h125v-2048h-125z" />
<glyph unicode="&#x2018;" horiz-adv-x="374" d="M281 1501l-86 -434h-129l104 434h111z" />
<glyph unicode="&#x2019;" horiz-adv-x="374" d="M94 1067l86 434h129l-104 -434h-111z" />
<glyph unicode="&#x201a;" horiz-adv-x="374" d="M94 -176l86 434h129l-104 -434h-111z" />
<glyph unicode="&#x201c;" horiz-adv-x="761" d="M324 1427l-86 -434h-129l104 434h111zM647 1427l-86 -434h-129l105 434h110z" />
<glyph unicode="&#x201d;" horiz-adv-x="698" d="M109 1063l86 434h129l-105 -434h-110zM432 1063l86 434h129l-104 -434h-111z" />
<glyph unicode="&#x201e;" horiz-adv-x="698" d="M109 -176l86 434h129l-105 -434h-110zM432 -176l86 434h129l-104 -434h-111z" />
<glyph unicode="&#x2020;" d="M125 899v121h356v397h121v-397h356v-121h-356v-1057h-121v1057h-356z" />
<glyph unicode="&#x2021;" d="M481 -158v398h-356v116h356v543h-356v121h356v397h121v-397h356v-121h-356v-543h356v-116h-356v-398h-121z" />
<glyph unicode="&#x2022;" d="M289 219v590h508v-590h-508z" />
<glyph unicode="&#x2024;" horiz-adv-x="507" d="M174 0v207h135v-207h-135z" />
<glyph unicode="&#x2025;" horiz-adv-x="1015" d="M682 0v207h135v-207h-135zM174 0v207h135v-207h-135z" />
<glyph unicode="&#x2026;" horiz-adv-x="1523" d="M193 0v207h135v-207h-135zM713 0v207h135v-207h-135zM1233 0v207h135v-207h-135z" />
<glyph unicode="&#x202a;" horiz-adv-x="0" />
<glyph unicode="&#x202f;" horiz-adv-x="464" />
<glyph unicode="&#x2030;" horiz-adv-x="1705" d="M266.5 1346q-63.5 0 -90 -45.5t-26.5 -143.5q0 -199 116 -199q61 0 88 49.5t27 147.5q0 100 -25.5 145.5t-89 45.5zM322 10l380 1436l95 -25l-381 -1431zM45 1157q0 279 221 279q219 0 219 -281q0 -143 -58 -215t-161 -72q-104 0 -162.5 72t-58.5 217zM625 289 q0 279 219 278.5t219 -280.5q0 -143 -58.5 -215t-161 -72t-160.5 72t-58 217zM727 289q0 -199 117 -199q63 0 88.5 48t25.5 149q0 98 -25.5 144t-88.5 46q-117 0 -117 -188zM1151 289q0 279 221 278q219 0 219 -280q0 -143 -58 -215t-161 -72q-104 0 -162.5 72t-58.5 217z M1255 289q0 -100 27 -149.5t90.5 -49.5t89 48t25.5 149q0 98 -25.5 144t-89 46t-90.5 -46t-27 -142z" />
<glyph unicode="&#x2032;" horiz-adv-x="204" d="M39 977l-2 450h123l-4 -450h-117z" />
<glyph unicode="&#x2033;" horiz-adv-x="409" d="M244 977l-2 450h123l-4 -450h-117zM39 977l-2 450h123l-4 -450h-117z" />
<glyph unicode="&#x2034;" horiz-adv-x="614" d="M449 977l-2 450h123l-4 -450h-117zM244 977l-2 450h123l-4 -450h-117zM39 977l-2 450h123l-4 -450h-117z" />
<glyph unicode="&#x2035;" horiz-adv-x="1116" d="M324 1522l426 -195l-43 -100l-431 182z" />
<glyph unicode="&#x2036;" horiz-adv-x="2232" d="M1440 1522l426 -195l-43 -100l-431 182zM324 1522l426 -195l-43 -100l-431 182z" />
<glyph unicode="&#x2037;" horiz-adv-x="3348" d="M2556 1522l426 -195l-43 -100l-431 182zM1440 1522l426 -195l-43 -100l-431 182zM324 1522l426 -195l-43 -100l-431 182z" />
<glyph unicode="&#x2039;" horiz-adv-x="729" d="M473 717l-264 -203l264 -223v-131l-371 299v104l371 283v-129z" />
<glyph unicode="&#x203a;" horiz-adv-x="729" d="M385 520l-262 201v129l371 -283v-104l-371 -299v133z" />
<glyph unicode="&#x203c;" horiz-adv-x="1347" d="M946 0v207h136v-207h-136zM950 461l-2 971h129l-2 -971h-125zM272 0v207h136v-207h-136zM276 461l-2 971h129l-2 -971h-125z" />
<glyph unicode="&#x203e;" horiz-adv-x="481" d="M-289 123v108h578v-108h-578z" />
<glyph unicode="&#x2047;" horiz-adv-x="1581" d="M1559 1110q0 -92 -58.5 -186.5t-127 -158t-127 -142t-58.5 -146.5v-78h-125q-4 84 -4 95q0 66 38 134t92 126l109 113q54 56 92 118t38 117q0 127 -63.5 178t-217.5 51q-43 0 -119.5 -12t-132.5 -25l-55 -10l-16 113q217 57 332 57q209 0 306 -79t97 -265zM1057 2v203 h135v-203h-135zM768 1110q0 -92 -58.5 -186.5t-127 -158t-127 -142t-58.5 -146.5v-78h-125q-4 84 -4 95q0 66 38 134t92 126l109 113q54 56 92 118t38 117q0 127 -63.5 178t-217.5 51q-43 0 -119.5 -12t-132.5 -25l-55 -10l-16 113q217 57 332 57q209 0 306 -79t97 -265z M266 2v203h135v-203h-135z" />
<glyph unicode="&#x2048;" horiz-adv-x="1464" d="M1063 0v207h136v-207h-136zM1067 461l-2 971h129l-2 -971h-125zM768 1110q0 -92 -58.5 -186.5t-127 -158t-127 -142t-58.5 -146.5v-78h-125q-4 84 -4 95q0 66 38 134t92 126l109 113q54 56 92 118t38 117q0 127 -63.5 178t-217.5 51q-43 0 -119.5 -12t-132.5 -25l-55 -10 l-16 113q217 57 332 57q209 0 306 -79t97 -265zM266 2v203h135v-203h-135z" />
<glyph unicode="&#x2049;" horiz-adv-x="1464" d="M1442 1110q0 -92 -58.5 -186.5t-127 -158t-127 -142t-58.5 -146.5v-78h-125q-4 84 -4 95q0 66 38 134t92 126l109 113q54 56 92 118t38 117q0 127 -63.5 178t-217.5 51q-43 0 -119.5 -12t-132.5 -25l-55 -10l-16 113q217 57 332 57q209 0 306 -79t97 -265zM940 2v203h135 v-203h-135zM272 0v207h136v-207h-136zM276 461l-2 971h129l-2 -971h-125z" />
<glyph unicode="&#x2057;" horiz-adv-x="819" d="M653 977l-2 450h123l-4 -450h-117zM449 977l-2 450h123l-4 -450h-117zM244 977l-2 450h123l-4 -450h-117zM39 977l-2 450h123l-4 -450h-117z" />
<glyph unicode="&#x205f;" horiz-adv-x="581" />
<glyph unicode="&#x2060;" horiz-adv-x="0" />
<glyph unicode="&#x20a8;" horiz-adv-x="2275" d="M2111 1010l-4 -107q-215 31 -344 31q-231 0 -231 -176q0 -76 51 -112t205 -60q207 -33 282.5 -90.5t75.5 -198.5q0 -172 -99 -244.5t-286 -72.5l-344 36l8 107q221 -35 326 -35q139 0 204.5 44t65.5 159q0 88 -52 120.5t-218 61.5q-188 33 -266 90.5t-78 190.5 q0 152 101.5 220t248.5 68q70 0 158 -8t143 -16zM745 563l-49 -2h-366v-561h-125v1427h497q442 0 443 -423q0 -344 -273 -416l291 -588h-139zM1016 1003.5q0 149.5 -79 228.5t-235 79h-372v-635h375q164 0 237.5 89t73.5 238.5z" />
<glyph unicode="&#x20ac;" horiz-adv-x="1118" d="M43 891h129q23 254 134.5 373.5t367.5 119.5l360 -38l-8 -113q-190 35 -342 35q-201 0 -284 -91.5t-97 -285.5l586 -2v-105h-594q0 -14 -1 -52t-1 -56q0 -16 1 -51t1 -45l594 -2v-105h-586q14 -197 97 -287t286 -90l340 33l8 -111q-199 -39 -360 -38q-256 0 -368.5 118.5 t-133.5 374.5h-129v107h121q0 10 -1 44.5t-1 51.5q0 18 1 56t1 52h-121v107z" />
<glyph unicode="&#x2122;" d="M14 1208v64h410v-64h-170v-528h-68v528h-172zM496 678v594h102l172 -496l178 496h103v-594h-66v528l-180 -506h-72l-172 506v-528h-65z" />
<glyph unicode="&#x2202;" d="M262 1229l-14 112q141 31 299 31q231 0 346 -153.5t115 -513.5q0 -352 -136.5 -537.5t-373.5 -185.5q-201 0 -310.5 109.5t-109.5 303.5q0 203 122 322t324 119q61 0 119.5 -13.5t99.5 -33t74 -39t47 -31.5l17 -12q-2 301 -80 424.5t-254 123.5zM532 725q-147 0 -236 -89 t-89 -241q0 -297 295 -297q166 0 259 132t111 358q-18 16 -48.5 38.5t-120 60.5t-171.5 38z" />
<glyph unicode="&#x220f;" d="M51 1352h983v-123h-141v-1428h-125v1428h-453v-1428h-122v1428h-142v123z" />
<glyph unicode="&#x2211;" d="M965 -199h-832v185l385 592l-385 585v185h832v-121h-693l-2 -47l404 -602l-404 -607v-47h695v-123z" />
<glyph unicode="&#x221a;" d="M27 678l284 90l238 -848h51l336 1790h129l-367 -1905h-241l-232 820l-164 -56z" />
<glyph unicode="&#x221e;" horiz-adv-x="1087" d="M287 948q96 0 152.5 -53t103.5 -166q47 113 104.5 166t153.5 53q123 0 184.5 -91t61.5 -259q0 -350 -250 -350q-94 0 -150.5 53t-101.5 162q-47 -125 -99.5 -170t-154.5 -45q-250 0 -250 350q0 168 61.5 259t184.5 91zM592 598l28 -64q22 -50 32 -69t31.5 -48.5t48 -40.5 t63.5 -11q131 0 131 233q0 231 -131 231q-37 0 -63.5 -10t-49.5 -42l-32 -45q-9 -13 -32 -68zM496 598l-24 55l-25 58q-7 16 -25.5 44.5t-33.5 41t-39.5 22.5t-55.5 10q-131 0 -131 -231q0 -233 131 -233q35 0 61.5 10t49 42t32.5 48t32 68.5t28 64.5z" />
<glyph unicode="&#x222b;" d="M899 1640q-115 10 -156 11q-100 0 -136 -51.5t-36 -172.5l62 -1577q0 -184 -56.5 -260.5t-222.5 -76.5l-174 16l2 111q115 -10 158 -11q100 0 136 52.5t36 168.5l-61 1577q0 188 55 264t223 76l172 -16z" />
<glyph unicode="&#x2248;" d="M936 887l14 -121q-12 -12 -32.5 -29.5t-77 -47.5t-103.5 -30q-63 0 -202.5 53.5t-182.5 53.5q-80 0 -202 -102l-17 118q12 12 34.5 30.5t81 48.5t107.5 30q66 0 203 -52.5t180 -52.5q78 1 197 101zM934 512l14 -121q-12 -12 -32.5 -29.5t-77 -47t-103.5 -29.5 q-63 0 -202.5 53t-182.5 53q-80 0 -203 -102l-16 119q12 12 34.5 30.5t81 48t107.5 29.5q66 0 203 -52t180 -52q78 0 197 100z" />
<glyph unicode="&#x2260;" d="M121 696v123h491l144 324l100 -43l-125 -281h236v-123h-287l-109 -243h396v-121h-449l-147 -336l-101 45l129 291h-278v121h330l110 243h-440z" />
<glyph unicode="&#x2264;" d="M877 989l-588 -250l588 -268v-135l-705 326v147l705 311v-131zM172 100v123h705v-123h-705z" />
<glyph unicode="&#x2265;" d="M801 739l-594 250v131l711 -311v-147l-711 -326v135zM207 100v123h711v-123h-711z" />
<glyph unicode="&#x25ca;" d="M973 678l-373 -678h-127l-383 678l381 674h127zM842 678l-305 557l-316 -557l316 -561z" />
<glyph unicode="&#xe000;" horiz-adv-x="1025" d="M0 1025h1025v-1025h-1025v1025z" />
<glyph unicode="&#xfb01;" horiz-adv-x="1146" d="M852 0v1024h123v-1024h-123zM852 1276v154h123v-154h-123zM317 915v-915h-120v915h-131v109h131v104q0 203 61 287t207 84l182 -12v-105q-104 6 -164 7q-92 0 -129 -58.5t-37 -204.5v-102h310v-109h-310z" />
<glyph unicode="&#xfb02;" horiz-adv-x="1163" d="M860 0v1479h123v-1479h-123zM317 915v-915h-120v915h-131v109h131v104q0 203 61 287t207 84l182 -12v-105q-104 6 -164 7q-92 0 -129 -58.5t-37 -204.5v-102h310v-109h-310z" />
<glyph unicode="&#xfb03;" horiz-adv-x="1826" d="M1532 0v1024h123v-1024h-123zM1532 1276v154h123v-154h-123zM997 915v-915h-120v915h-131v109h131v104q0 203 61 287t207 84l182 -12v-105q-104 6 -164 7q-92 0 -129 -58.5t-37 -204.5v-102h310v-109h-310zM317 915v-915h-120v915h-131v109h131v104q0 203 61 287t207 84 l182 -12v-105q-104 6 -164 7q-92 0 -129 -58.5t-37 -204.5v-102h310v-109h-310z" />
<glyph unicode="&#xfb04;" horiz-adv-x="1843" d="M1540 0v1479h123v-1479h-123zM997 915v-915h-120v915h-131v109h131v104q0 203 61 287t207 84l182 -12v-105q-104 6 -164 7q-92 0 -129 -58.5t-37 -204.5v-102h310v-109h-310zM317 915v-915h-120v915h-131v109h131v104q0 203 61 287t207 84l182 -12v-105q-104 6 -164 7 q-92 0 -129 -58.5t-37 -204.5v-102h310v-109h-310z" />
<glyph horiz-adv-x="481" />
<glyph horiz-adv-x="933" d="M125 1645l274 268h109l272 -268h-145l-180 170l-181 -170h-149z" />
<glyph horiz-adv-x="933" d="M780 1911l-272 -269h-109l-274 269h147l183 -172l178 172h147z" />
<glyph horiz-adv-x="921" d="M805 1884l33 -94q-109 -117 -183 -117q-51 0 -177 60.5t-154 60.5q-20 0 -61.5 -26.5t-72.5 -51.5l-30 -26l-31 96q117 119 195 119q53 0 178 -59.5t151 -59.5q41 0 152 98z" />
<glyph horiz-adv-x="823" d="M201 1694v161h118v-161h-118zM614 1694v161h119v-161h-119z" />
<glyph horiz-adv-x="933" d="M156 1688v108h618v-108h-618z" />
<glyph horiz-adv-x="933" d="M147 1894h125q2 -70 54.5 -111.5t128.5 -41.5q78 0 130 42t54 111h125q-4 -117 -90 -188.5t-219 -71.5q-131 0 -217.5 71.5t-90.5 188.5z" />
<glyph horiz-adv-x="667" d="M551 1632q0 -96 -63.5 -151.5t-164 -55.5t-163 55.5t-62.5 151.5q0 94 62.5 149.5t163 55.5t164 -55.5t63.5 -149.5zM203 1632q0 -53 31.5 -82.5t89.5 -29.5q59 0 90.5 29.5t31.5 82.5q0 111 -122 111q-121 0 -121 -111z" />
<glyph horiz-adv-x="466" d="M172 1599v154h123v-154h-123z" />
<glyph horiz-adv-x="1044" d="M324 1905l426 -195l-43 -98l-431 180z" />
<glyph horiz-adv-x="1077" d="M276 1716l426 195l48 -113l-431 -182z" />
<glyph horiz-adv-x="933" d="M156 1688v108h618v-108h-618z" />
</font>
</defs>
</svg>
