<?xml version="1.0" standalone="no"?>
<!DOCTYPE svg PUBLIC "-//W3C//DTD SVG 1.1//EN" "http://www.w3.org/Graphics/SVG/1.1/DTD/svg11.dtd" >
<svg xmlns="http://www.w3.org/2000/svg">
<metadata>
This is a custom SVG webfont generated by Font Squirrel.
Copyright   : Generated in 2009 by FontLab Studio Copyright info pending
</metadata>
<defs>
<font id="webfontldGzlNnv" horiz-adv-x="1085" >
<font-face units-per-em="2048" ascent="1536" descent="-512" />
<missing-glyph horiz-adv-x="481" />
<glyph unicode=" "  horiz-adv-x="481" />
<glyph unicode="&#x09;" horiz-adv-x="481" />
<glyph unicode="&#xa0;" horiz-adv-x="481" />
<glyph unicode="!" horiz-adv-x="811" d="M317 0v252h189v-252h-189zM324 483l-7 949h189l-6 -949h-176z" />
<glyph unicode="&#x22;" horiz-adv-x="649" d="M582 932h-162l-2 491h170zM248 932h-162l-2 491h170z" />
<glyph unicode="#" d="M1067 362h-221v-362h-156v362h-299v-362h-155v362h-222v148h222v340h-222v147h222v365h155v-365h299v365h156v-365h221v-147h-221v-340h221v-148zM690 510v340h-299v-340h299z" />
<glyph unicode="$" d="M350 -231l39 221l-260 30l14 158q139 -18 273 -28l84 475q-213 51 -300 125.5t-87 263.5q0 190 116.5 275t339.5 85q39 0 62 -2l43 246h92l-45 -252l250 -25l-6 -161q-145 16 -271 24l-76 -434q227 -57 309.5 -129t82.5 -252q0 -215 -109.5 -312t-327.5 -97q-27 0 -92 4 l-39 -230zM827 387q0 98 -50 140t-187 77l-80 -461h61q131 0 193.5 57.5t62.5 186.5zM295 1014q0 -100 49 -143.5t184 -77.5l74 417h-33q-137 0 -205.5 -41.5t-68.5 -154.5z" />
<glyph unicode="%" d="M266 1321q-49 0 -70.5 -40t-21.5 -130q0 -176 92 -176q51 0 71.5 43t20.5 133t-20.5 130t-71.5 40zM291 12l399 1442l121 -35l-399 -1444zM39 1151q0 285 227 285q229 0 230 -285q0 -145 -60.5 -218t-169.5 -73q-227 0 -227 291zM614 291q0 285 230 284q227 0 227 -284 q0 -145 -60.5 -218t-166.5 -73q-109 0 -169.5 73t-60.5 218zM752 291q0 -90 20.5 -133t71.5 -43t71.5 43t20.5 133t-20.5 130t-71.5 40t-71.5 -40t-20.5 -130z" />
<glyph unicode="&#x26;" horiz-adv-x="1433" d="M662 1438q176 0 270 -84t94 -240q0 -141 -68.5 -226t-236.5 -171l274 -275q37 115 60 271l168 -4q-33 -211 -95 -377l246 -236l-106 -119l-228 213q-94 -115 -201.5 -164t-267.5 -49q-240 0 -359.5 116t-119.5 333q0 285 311 401q-59 74 -82.5 139.5t-23.5 159.5 q0 143 101.5 227.5t263.5 84.5zM578 137q205 0 333 162l-401 410q-242 -76 -242 -281q0 -139 78 -215t232 -76zM471 1106q0 -137 90 -227l53 -54q133 61 185.5 118.5t52.5 156.5q0 180 -190 180q-90 0 -140.5 -47t-50.5 -127z" />
<glyph unicode="'" horiz-adv-x="204" d="M14 952l-4 471h170l-6 -471h-160z" />
<glyph unicode="(" horiz-adv-x="532" d="M260 1536h186q-23 -59 -54.5 -158.5t-85.5 -344.5t-54 -417q0 -342 178 -829l16 -43h-186q-23 51 -55.5 139t-88 319.5t-55.5 414t49.5 411.5t98.5 369z" />
<glyph unicode=")" horiz-adv-x="532" d="M240 -246h-187q23 59 54.5 158.5t86 344.5t54.5 417q0 342 -178 829l-17 43h187q23 -51 55.5 -139t87.5 -319.5t55 -413.5t-49 -411.5t-98 -368.5z" />
<glyph unicode="*" d="M905 1022h-268l84 -256l-125 -39l-86 258l-219 -164l-78 103l223 163l-219 160l78 107l215 -156l88 254l127 -43l-86 -254h266v-133z" />
<glyph unicode="+" d="M92 504v172h363v366h180v-366h362v-172h-362v-367h-180v367h-363z" />
<glyph unicode="," horiz-adv-x="348" d="M41 -252l96 481h189l-115 -481h-170z" />
<glyph unicode="-" horiz-adv-x="901" d="M143 471v164h615v-164h-615z" />
<glyph unicode="." horiz-adv-x="507" d="M145 0v252h189v-252h-189z" />
<glyph unicode="/" d="M168 33l573 1423l166 -59l-573 -1424z" />
<glyph unicode="0" d="M541 1374q119 0 204.5 -34.5t152.5 -114.5t100.5 -222.5t33.5 -347.5q0 -375 -126 -526.5t-363 -151.5q-115 0 -201 33t-153.5 108t-102.5 210t-35 329q0 397 125 557t365 160zM542.5 1208q-157.5 0 -229 -120.5t-71.5 -432.5q0 -291 73.5 -401.5t227.5 -110.5 q156 0 227.5 111t71.5 403q0 311 -71 431t-228.5 120z" />
<glyph unicode="1" d="M129 1065l422 287h168v-1352h-178v1149l-330 -225z" />
<glyph unicode="2" d="M973 0h-869v160l385 387q141 143 204 237.5t63 202.5q0 217 -275 217q-63 0 -151 -10t-146 -23l-57 -10l-12 160q223 53 403 53q422 0 422 -366q0 -150 -62.5 -259.5t-205.5 -252.5l-334 -328h635v-168z" />
<glyph unicode="3" d="M125 1323q221 51 395 51q227 0 329.5 -87t102.5 -269q0 -37 -7 -70t-15 -57.5t-26 -47.5l-28 -38q-11 -14 -33 -31.5t-31 -23.5l-30 -21l-22 -12q115 -43 169 -111.5t54 -216.5q0 -412 -434 -412q-90 0 -199.5 11.5t-175.5 23.5l-65 13l18 155l70 -10q43 -6 149.5 -15.5 t181.5 -9.5q270 0 271 238q0 225 -256 231h-264v158h264q82 0 153.5 65.5t71.5 159.5q0 111 -63.5 160t-192.5 49l-369 -37z" />
<glyph unicode="4" d="M682 -10v254h-623v143l394 965h192l-381 -942h418v421h178v-421h158v-166h-158v-254h-178z" />
<glyph unicode="5" d="M166 1352h776v-168h-614l-35 -404q156 70 272 70q430 0 430 -406q0 -229 -120.5 -346.5t-325.5 -117.5q-199 0 -447 59l21 156q246 -49 420 -50q121 0 194.5 75t73.5 216q0 252 -262 252q-66 0 -136.5 -18.5t-109.5 -34.5l-37 -19l-143 27z" />
<glyph unicode="6" d="M967 1333l-17 -157q-193 33 -352 32q-340 0 -342 -442q182 80 317 80q449 0 449 -416q0 -217 -125 -335t-344 -118q-238 0 -359.5 181.5t-121.5 521.5q0 694 526 694q68 0 160 -10t151 -21zM561 688q-63 0 -140 -16.5t-122 -32.5l-45 -18q4 -215 76.5 -347.5 t222.5 -132.5q133 0 209 75t76 214q0 129 -74 193.5t-203 64.5z" />
<glyph unicode="7" d="M115 1184v168h821v-238l-508 -1143l-166 52l490 1099v62h-637z" />
<glyph unicode="8" d="M549 1374q219 0 351 -91t132 -263q0 -125 -48 -191.5t-167 -123.5q115 -49 175.5 -125t60.5 -203q0 -209 -138.5 -305.5t-365.5 -96.5q-225 0 -362.5 90.5t-137.5 288.5q0 135 58.5 213t166.5 138q-106 57 -154 127.5t-48 189.5q0 170 129 261t348 91zM549 139 q313 0 313 248q0 98 -55 149.5t-162 81.5h-201q-102 -29 -152 -85t-50 -156q0 -238 307 -238zM551 1212q-289 0 -289 -215q0 -84 44 -136t138 -89h201q100 35 148.5 88t48.5 137q0 215 -291 215z" />
<glyph unicode="9" d="M121 23l18 153q193 -35 353 -35q344 0 346 434l-54 -16q-53 -16 -135 -34.5t-139 -18.5q-205 0 -321.5 107.5t-116.5 316.5t129 326.5t334 117.5q240 0 362.5 -178t122.5 -522q0 -375 -137.5 -536t-390.5 -161q-68 0 -160 11.5t-152 23.5zM524 666q129 0 316 59 q-2 229 -77 357t-226 128q-127 0 -204 -74.5t-77 -205.5q0 -264 268 -264z" />
<glyph unicode=":" horiz-adv-x="378" d="M115 647v252h188v-252h-188zM115 0v252h188v-252h-188z" />
<glyph unicode=";" horiz-adv-x="419" d="M41 -242l106 492h191l-137 -492h-160zM133 647v252h189v-252h-189z" />
<glyph unicode="&#x3c;" d="M868 920l-522 -314l522 -327v-185l-690 418v180l690 412v-184z" />
<glyph unicode="=" d="M117 674v170h850v-170h-850zM117 285v170h850v-170h-850z" />
<glyph unicode="&#x3e;" d="M731 606l-522 314v184l690 -412v-180l-690 -418v185z" />
<glyph unicode="?" horiz-adv-x="790" d="M784 1092q0 -78 -36.5 -153t-89.5 -132l-103 -111q-51 -53 -88 -107t-37 -102v-77h-174q-8 84 -8 104q0 61 35.5 126t87.5 119l103 105q52 51 88 105.5t36 103.5q0 113 -53 159t-191 46q-45 0 -121.5 -10.5t-130.5 -22.5l-55 -10l-20 158q223 63 344 63q215 0 314 -82.5 t99 -281.5zM246 0v242h188v-242h-188z" />
<glyph unicode="@" horiz-adv-x="2017" d="M1915 625v-35q0 -190 -23.5 -314t-75 -187.5t-113 -86t-153.5 -22.5q-98 0 -153.5 21.5t-89.5 86.5q-203 -106 -351 -106q-61 0 -110 11t-98.5 44t-82 88t-53 149.5t-20.5 221.5q0 274 90 410t322 136l229 -51v33h174v-410q0 -225 13.5 -322t39 -123t90.5 -26 q68 0 104 25t60.5 125t24.5 297v37q0 369 -164 528.5t-543 159.5q-385 0 -569 -186.5t-184 -593.5q0 -434 174 -610.5t579 -176.5l293 21l8 -168q-203 -18 -301 -19q-238 0 -403.5 45t-287.5 152.5t-180.5 294t-58.5 461.5q0 948 930 948q457 0 670 -212t213 -646zM969 150 q117 0 282 75q-18 117 -18 328v289q-119 37 -199 37q-158 0 -212 -86t-54 -299q0 -201 54.5 -272.5t146.5 -71.5z" />
<glyph unicode="A" horiz-adv-x="1236" d="M66 0l376 1423h357l372 -1423h-178l-100 342h-553l-96 -342h-178zM580 1266l-201 -760h477l-197 760h-79z" />
<glyph unicode="B" horiz-adv-x="1261" d="M186 1423h498q197 0 310.5 -90t113.5 -264q0 -252 -176 -338q217 -78 217 -332q0 -205 -119 -302t-323 -97h-521v1423zM692 643h-330v-483h338q121 0 193 62.5t72 189.5q0 88 -50.5 143t-107 71.5t-115.5 16.5zM676 1262h-314v-465h326q115 0 176.5 66.5t61.5 180.5 q0 104 -65.5 161t-184.5 57z" />
<glyph unicode="C" horiz-adv-x="1091" d="M997 180l7 -162q-231 -41 -383 -41q-154 0 -255.5 47.5t-156.5 146.5t-76.5 226t-21.5 312q0 381 110.5 558t399.5 177q78 0 173 -11.5t152 -21.5l58 -10l-7 -160q-227 33 -356 33q-207 0 -276.5 -131t-69.5 -434q0 -301 69.5 -431.5t280.5 -130.5q51 0 139 8.5t150 16.5 z" />
<glyph unicode="D" horiz-adv-x="1308" d="M670 0h-484v1423h484q152 0 257 -49t163.5 -144t84 -215t25.5 -280q0 -129 -14.5 -234.5t-51 -200.5t-96 -159.5t-152.5 -102.5t-216 -38zM1016 735q0 117 -15.5 205t-52.5 163t-106.5 114.5t-171.5 39.5h-308v-1093h308q346 0 346 571z" />
<glyph unicode="E" horiz-adv-x="1150" d="M186 0v1423h848v-166h-672v-460h549v-162h-549v-471h672v-164h-848z" />
<glyph unicode="F" horiz-adv-x="1126" d="M186 0v1423h848v-166h-672v-536h549v-162h-549v-559h-176z" />
<glyph unicode="G" horiz-adv-x="1241" d="M719 584v155h389v-716q-291 -45 -453 -46q-301 0 -421.5 184.5t-120.5 549.5q0 371 119.5 552t416.5 181q205 0 459 -49l-8 -158q-252 39 -428 39q-217 0 -296 -133t-79 -432t77 -432.5t294 -133.5q29 0 66.5 2.5t70.5 6.5t61.5 8t46 6t19.5 2v414h-213z" />
<glyph unicode="H" horiz-adv-x="1390" d="M1028 0v637h-666v-637h-176v1423h176v-622h666v622h176v-1423h-176z" />
<glyph unicode="I" horiz-adv-x="516" d="M168 0v1423h178v-1423h-178z" />
<glyph unicode="J" horiz-adv-x="632" d="M459 1423l2 -1198q0 -225 -79 -297.5t-306 -72.5v157q125 2 167 45t42 181v1185h174z" />
<glyph unicode="K" horiz-adv-x="1216" d="M924 0l-353 618l-209 -10v-608h-176v1423h176v-653l205 10l340 643h207l-389 -712l410 -711h-211z" />
<glyph unicode="L" horiz-adv-x="1038" d="M946 0h-760v1423h176v-1257h584v-166z" />
<glyph unicode="M" horiz-adv-x="1738" d="M186 0v1423h306l378 -1179l381 1179h301v-1423h-176v1221h-30l-381 -1170h-193l-379 1170h-31v-1221h-176z" />
<glyph unicode="N" horiz-adv-x="1421" d="M186 0v1423h320l510 -1241h39v1241h178v-1423h-311l-519 1241h-38v-1241h-179z" />
<glyph unicode="O" horiz-adv-x="1331" d="M665.5 143q206.5 0 287.5 128t81 431q0 299 -84 438.5t-284 139.5q-203 0 -286 -138t-83 -440q0 -299 81 -429t287.5 -130zM666 -23q-299 0 -426 175.5t-127 550t128 558t425 183.5t425 -183.5t128 -558.5q0 -379 -126 -552t-427 -173z" />
<glyph unicode="P" horiz-adv-x="1234" d="M684 465h-319v-465h-179v1423h498q225 0 342 -118.5t117 -343.5q0 -231 -119 -363.5t-340 -132.5zM365 629h317q139 0 209 90t70 242q0 299 -279 299h-317v-631z" />
<glyph unicode="Q" horiz-adv-x="1331" d="M989 -301l-166 295q-76 -16 -157 -17q-309 0 -431 178.5t-122 547t123.5 555t429 186.5t429.5 -185.5t124 -556.5q0 -252 -51.5 -411.5t-174.5 -235.5l156 -278zM666 143q215 0 291.5 130t76.5 429q0 295 -78.5 436.5t-289.5 141.5q-213 0 -291 -140.5t-78 -437.5 q0 -293 78 -426t291 -133z" />
<glyph unicode="R" horiz-adv-x="1271" d="M725 530l-47 -2h-316v-528h-176v1423h506q459 0 459 -440q0 -326 -250 -412l260 -571h-196zM967 981q0 133 -72 204.5t-203 71.5h-330v-567h332q139 0 206 80t67 211z" />
<glyph unicode="S" horiz-adv-x="1091" d="M977 1405l-8 -156q-279 33 -398 33q-283 0 -282 -217q0 -117 68.5 -168t256.5 -102q223 -59 310.5 -137t87.5 -248q0 -223 -110.5 -326.5t-344.5 -103.5l-430 40l10 156q270 -31 406 -31q291 0 291 258q0 98 -67 147.5t-241 94.5q-231 63 -323 148.5t-92 267.5 q0 190 116.5 287.5t335.5 97.5z" />
<glyph unicode="T" horiz-adv-x="1003" d="M16 1251v172h969v-172h-393v-1251h-176v1251h-400z" />
<glyph unicode="U" horiz-adv-x="1318" d="M342 436q0 -150 78 -218t233 -68q162 0 243 68.5t81 217.5v987h176v-987q0 -236 -122 -345t-378 -109q-248 0 -368.5 109.5t-120.5 344.5v987h178v-987z" />
<glyph unicode="V" horiz-adv-x="1220" d="M969 1423h184l-356 -1423h-371l-360 1423h186l311 -1261h96z" />
<glyph unicode="W" horiz-adv-x="1855" d="M80 1423h184l248 -1261h55l260 1241h201l266 -1241h54l243 1261h185l-291 -1423h-318l-239 1167l-234 -1167h-319z" />
<glyph unicode="X" horiz-adv-x="1189" d="M266 1423l330 -589l326 589h200l-409 -718l409 -705h-200l-326 578l-330 -578h-200l417 705l-417 718h200z" />
<glyph unicode="Y" horiz-adv-x="1136" d="M659 610v-610h-176v610l-438 813h199l325 -624l322 624h201z" />
<glyph unicode="Z" horiz-adv-x="1167" d="M133 1255v168h901v-204l-688 -1016v-37h688v-168h-901v203l686 1016v38h-686z" />
<glyph unicode="[" horiz-adv-x="614" d="M524 1534v-168h-268v-1450h268v-168h-446v1786h446z" />
<glyph unicode="\" horiz-adv-x="1083" d="M934 14l-178 -14l-623 1421l178 15z" />
<glyph unicode="]" horiz-adv-x="614" d="M74 1366v168h446v-1786h-446v168h268v1450h-268z" />
<glyph unicode="^" d="M811 662l-272 518l-269 -518h-184l360 690h181l370 -690h-186z" />
<glyph unicode="_" d="M55 -174h975v-160h-975v160z" />
<glyph unicode="`" horiz-adv-x="1116" d="M305 1542l461 -192l-57 -144l-465 174z" />
<glyph unicode="a" horiz-adv-x="1071" d="M889 709v-484q12 -49 38.5 -69.5t78.5 -28.5l-11 -147q-166 0 -250 77q-160 -80 -335 -80q-131 0 -214 88.5t-83 229.5q0 281 319 307l285 27v82q0 174 -160 174l-387 -27l-6 146q244 41 401 40q162 0 243 -80.5t81 -254.5zM717 496l-266 -21q-162 -12 -162 -176 q0 -76 39 -125t102.5 -49t135 14.5t110.5 28.5l41 14v314z" />
<glyph unicode="b" horiz-adv-x="1110" d="M631 1044q377 0 377 -516q0 -281 -111 -416t-373 -135l-338 23v1464h174v-481q136 61 271 61zM522 131q94 0 156.5 29.5t94.5 87t44 122t12 156.5q0 362 -217 363q-135 0 -252 -49v-701q111 -8 162 -8z" />
<glyph unicode="c" horiz-adv-x="892" d="M532 1044q53 0 121 -7t109 -13l43 -8l-6 -148q-147 16 -226 17q-158 0 -221 -83t-63 -274q0 -209 60.5 -300t223.5 -91l228 15l6 -148q-160 -27 -277 -27q-229 0 -323 130.5t-94 420.5q0 264 100 390t319 126z" />
<glyph unicode="d" horiz-adv-x="1110" d="M932 1464v-1464h-172v57q-145 -78 -281 -77q-367 0 -366 530q0 535 422 534q51 0 225 -26v446h172zM504 135q51 0 114.5 16.5t102.5 32.5l39 17v669q-133 20 -215 21q-258 0 -258 -385q0 -371 217 -371z" />
<glyph unicode="e" horiz-adv-x="1038" d="M532 131q66 0 157 4t151 8l57 7l4 -134q-203 -39 -381 -39q-221 0 -317.5 134.5t-96.5 392.5q0 266 111 403t313 137q408 0 408 -475l-10 -129h-645q-1 -309 249 -309zM281 575h483q0 166 -56.5 244t-177.5 78q-247 0 -249 -322z" />
<glyph unicode="f" horiz-adv-x="686" d="M352 870v-870h-174v870h-121v152h121v86q0 203 66.5 289t214.5 86l194 -17l-2 -143q-94 6 -155 6q-80 0 -112 -51t-32 -172v-84h285v-152h-285z" />
<glyph unicode="g" horiz-adv-x="1067" d="M541 -492q-217 0 -329 74t-112 242q0 78 40 136t120 120q-59 41 -59 141l71 166q-158 94 -157 305q0 168 107.5 260t273.5 92q41 0 88 -6t73 -14l27 -6l313 6v-143h-180q63 -76 64 -189q0 -348 -392 -348q-47 0 -88 8q-35 -86 -34 -112q0 -57 35.5 -72.5t191.5 -15.5 q217 0 309 -62.5t92 -230.5q0 -174 -123.5 -262.5t-330.5 -88.5zM580 2l-203 10q-55 -47 -80 -84t-25 -88q0 -178 271 -178q276 0 276 188q0 92 -53 122t-186 30zM489 485q219 0 219.5 207t-214.5 207q-100 0 -152.5 -54t-52.5 -153q-1 -207 200 -207z" />
<glyph unicode="h" horiz-adv-x="1155" d="M350 0h-174v1464h174v-485q164 66 289 65q197 0 270.5 -120.5t73.5 -388.5v-535h-174v532q0 188 -39 271.5t-160 83.5q-51 0 -115.5 -13.5t-105.5 -27.5l-39 -15v-831z" />
<glyph unicode="i" horiz-adv-x="493" d="M160 0v1022h174v-1022h-174zM160 1229v194h174v-194h-174z" />
<glyph unicode="j" horiz-adv-x="516" d="M182 12v1010h172v-1012q0 -195 -63.5 -288t-270.5 -199l-75 145q152 86 194.5 147.5t42.5 196.5zM182 1229v194h172v-194h-172z" />
<glyph unicode="k" horiz-adv-x="1024" d="M360 0h-174v1464h174v-850l132 9l284 399h195l-324 -473l332 -549h-197l-286 457l-136 -11v-446z" />
<glyph unicode="l" horiz-adv-x="503" d="M166 0v1464h172v-1464h-172z" />
<glyph unicode="m" horiz-adv-x="1763" d="M371 0h-174v1022h172v-66q156 88 274 88q164 0 256 -96q221 96 358 96q195 0 270 -118.5t75 -393.5v-532h-175v526q0 199 -37.5 280t-160.5 81q-53 0 -120 -18.5t-105 -37.5l-41 -18q29 -78 28 -283v-530h-172v526q0 193 -44 277t-161 84q-51 0 -111.5 -17.5t-96.5 -35.5 l-35 -19v-815z" />
<glyph unicode="n" horiz-adv-x="1161" d="M360 0h-174v1022h174v-64q154 86 291 86q197 0 269.5 -120.5t72.5 -391.5v-532h-172v530q0 190 -39 273.5t-159 83.5q-55 0 -121 -17.5t-105 -33.5l-37 -19v-817z" />
<glyph unicode="o" horiz-adv-x="1081" d="M543 1044q227 0 328.5 -135t101.5 -389q0 -266 -96.5 -404.5t-333.5 -138.5q-244 0 -340.5 135.5t-96.5 409.5q0 260 99.5 391t337.5 131zM543 129q150 0 202 97.5t52 293.5q0 186 -58.5 279.5t-195.5 93.5q-143 0 -200.5 -89t-57.5 -282q0 -205 52 -299t206 -94z" />
<glyph unicode="p" horiz-adv-x="1112" d="M186 -451v1473h174v-64q133 86 277 86q373 0 373 -522q0 -289 -106.5 -417t-338.5 -128q-92 0 -205 21v-449h-174zM610 889q-123 0 -250 -76v-663q102 -18 195 -19q152 0 214 95.5t62 299.5q0 172 -56 267.5t-165 95.5z" />
<glyph unicode="q" horiz-adv-x="1107" d="M510 -23q-215 0 -306 131.5t-91 389.5q0 274 106.5 410t349.5 136l361 -22v-1475h-172v482q-123 -52 -248 -52zM571 891q-156 0 -220 -96.5t-64 -294.5q0 -367 233 -367q55 0 114.5 12.5t90.5 24.5l33 12v699q-126 10 -187 10z" />
<glyph unicode="r" horiz-adv-x="731" d="M172 0v1022h172v-127q147 113 330 149v-182q-82 -16 -165 -48t-124 -56l-41 -23v-735h-172z" />
<glyph unicode="s" horiz-adv-x="1003" d="M848 1004l-4 -144q-231 31 -350 31q-199 0 -199 -146q0 -61 47 -91.5t184 -53.5q201 -33 278 -94.5t77 -204.5q0 -324 -392 -324q-59 0 -148 10.5t-148 20.5l-62 10l8 146q231 -33 336 -33q121 0 176.5 37t55.5 127q0 70 -44.5 97.5t-187.5 51.5q-190 35 -273 95.5 t-83 199.5q0 158 105.5 231.5t258.5 73.5q68 0 159 -10t149 -20z" />
<glyph unicode="t" horiz-adv-x="739" d="M662 868h-297v-469q0 -150 28.5 -208t108.5 -58l164 10l8 -143q-121 -23 -193 -23q-156 0 -222 86.5t-66 290.5v514h-138v154h138v311h172v-311h297v-154z" />
<glyph unicode="u" horiz-adv-x="1144" d="M795 1022h172v-1022h-172v61q-156 -84 -281 -84q-197 0 -269.5 116t-72.5 396v533h172v-530q0 -201 40 -281t159 -80q51 0 113.5 18.5t101.5 34.5l37 19v819z" />
<glyph unicode="v" horiz-adv-x="987" d="M53 1022h180l230 -879h61l232 879h178l-281 -1022h-323z" />
<glyph unicode="w" horiz-adv-x="1546" d="M55 1022h172l189 -866h49l217 848h182l217 -848h47l191 866h172l-231 -1022h-299l-189 772l-190 -772h-297z" />
<glyph unicode="x" horiz-adv-x="944" d="M57 1022h189l225 -387l227 387h189l-309 -512l307 -510h-189l-225 385l-223 -385h-189l308 510z" />
<glyph unicode="y" horiz-adv-x="987" d="M53 1022h172l238 -856h59l240 856h172l-410 -1473h-172l127 451h-147z" />
<glyph unicode="z" horiz-adv-x="980" d="M121 868v156h737l2 -156l-536 -714h536v-154h-737l-2 154l536 714h-536z" />
<glyph unicode="{" horiz-adv-x="638" d="M412 348q0 -35 -7.5 -118t-7.5 -119q0 -104 45 -151.5t174 -55.5l-2 -168q-213 8 -307 91t-94 265q0 43 7 135t7 115q0 88 -45 139t-157 82v148q115 29 158.5 78t43.5 137q0 27 -7 124t-7 138q0 188 93 270t308 90l2 -168q-129 -8 -174 -53t-45 -149q0 -35 7.5 -130.5 t7.5 -123.5q0 -127 -45 -187.5t-160 -97.5q113 -37 159 -101.5t46 -189.5z" />
<glyph unicode="|" d="M442 -512v2048h179v-2048h-179z" />
<glyph unicode="}" horiz-adv-x="638" d="M215 928q0 35 7 117.5t7 119.5q0 104 -45 151.5t-174 55.5l2 168q213 -8 307.5 -91t94.5 -265q0 -43 -7.5 -135.5t-7.5 -114.5q0 -88 45 -139.5t158 -81.5v-148q-115 -29 -159 -78t-44 -137q0 -27 7.5 -124t7.5 -138q0 -188 -93.5 -270t-308.5 -90l-2 168q129 8 174 53 t45 149q0 35 -7 130.5t-7 123.5q0 127 45 187.5t160 97.5q-113 37 -159 101.5t-46 189.5z" />
<glyph unicode="~" d="M940 776l16 -166q-12 -12 -32.5 -30.5t-79 -48t-109.5 -29.5q-61 0 -200.5 50t-180.5 50q-86 0 -209 -94l-16 164q12 12 34.5 30.5t84 49t114.5 30.5q61 0 196.5 -50t180.5 -50q78 0 201 94z" />
<glyph unicode="&#xa1;" horiz-adv-x="811" d="M508 1022v-252h-189v252h189zM502 539l6 -949h-189l7 949h176z" />
<glyph unicode="&#xa2;" horiz-adv-x="894" d="M438 -164v236q-190 10 -278 107t-88 329q0 424 364 444v238h152v-244l196 -20l-6 -154q-182 14 -260 14q-150 0 -208 -61t-58 -217q0 -158 58.5 -214t217.5 -56l252 12l6 -154q-113 -14 -198 -20v-240h-150z" />
<glyph unicode="&#xa3;" d="M928 1356l-8 -150q-211 18 -271 19q-96 0 -132 -51.5t-36 -202.5v-99h426v-157h-426v-553h305l156 33l29 -158l-166 -35q-104 0 -346 -1t-348 -1v162h200v553h-164v157h164v101q0 236 73 328t228 92q43 0 122 -9.5t136 -19.5z" />
<glyph unicode="&#xa4;" horiz-adv-x="1083" d="M885 51l-146 146q-90 -57 -197.5 -57.5t-197.5 57.5l-145 -146l-121 121l145 145q-57 90 -57 198t57 198l-145 145l121 121l145 -145q90 57 197.5 57t197.5 -57l146 145l121 -121l-146 -145q57 -90 57.5 -197.5t-57.5 -198.5l146 -145zM391.5 364.5 q61.5 -61.5 150.5 -61.5t152 62q61 61 61.5 150t-61.5 153q-63 61 -152 61t-151 -61q-61 -63 -61 -152.5t61.5 -151z" />
<glyph unicode="&#xa5;" horiz-adv-x="1105" d="M96 627v149h275l-351 576h199l336 -564l332 564h198l-346 -576h269v-149h-346l-17 -29v-131h363v-150h-363v-317h-178v317h-369v150h369v131l-16 29h-355z" />
<glyph unicode="&#xa6;" d="M444 1536h179v-844h-179v844zM444 356h179v-868h-179v868z" />
<glyph unicode="&#xa7;" d="M905 1290l-8 -143q-225 31 -324 31q-129 0 -185 -42t-56 -139q0 -88 61.5 -122.5t229.5 -69.5q180 -37 252.5 -95.5t72.5 -201.5q0 -74 -29.5 -151.5t-60.5 -120.5q76 -66 76 -207q0 -178 -98.5 -264.5t-300.5 -86.5q-59 0 -149.5 9.5t-152.5 17.5l-61 10l16 144 q223 -29 336 -29q242 0 242 186q0 37 -12.5 63.5t-28.5 43t-61.5 31t-78 22.5t-112.5 25q-184 37 -262 100.5t-78 206.5q0 78 43 154.5t78 105.5q-90 66 -90 227q0 334 401 334zM549 664q-127 23 -180 43q-61 -92 -62 -172q0 -84 47 -121t166 -58q150 -33 205 -57 q12 16 30.5 74.5t18.5 111.5q0 84 -50 119t-175 60z" />
<glyph unicode="&#xa8;" horiz-adv-x="1406" d="M182 1274v199h168v-199h-168zM598 1274v199h168v-199h-168z" />
<glyph unicode="&#xa9;" d="M20 889q0 227 149.5 386t373 159t374 -159t150.5 -386t-150.5 -385t-374 -158t-373 158t-149.5 385zM86 889q0 -201 130 -339t326.5 -138t327.5 138t131 339t-131 340t-327.5 139t-326.5 -139t-130 -340zM692 657l2 -65q-88 -16 -151 -17q-127 0 -175.5 79t-48.5 233 q0 156 47.5 235.5t176.5 79.5l151 -14l-2 -66q-84 14 -149 15q-100 0 -129 -57.5t-29 -192.5q0 -127 33 -186.5t125 -59.5z" />
<glyph unicode="&#xaa;" d="M733 1163v-243q6 -45 60 -54l-7 -104q-98 4 -139 43q-119 -43 -219 -43q-82 0 -129 49t-47 139q0 168 184 176l178 11v28q0 84 -79 84l-242 -12l-4 106q184 20 260 21q88 0 136 -52.5t48 -148.5zM614 1040l-163 -8q-76 -2 -76 -84q0 -78 69 -78q31 0 73 6.5t69 12.5l28 6 v145z" />
<glyph unicode="&#xab;" horiz-adv-x="1112" d="M512 694l-250 -184l250 -209v-180l-399 317v135l399 299v-178zM989 694l-250 -184l250 -209v-180l-399 317v135l399 299v-178z" />
<glyph unicode="&#xac;" d="M119 717h848v-492h-170v324h-678v168z" />
<glyph unicode="&#xad;" horiz-adv-x="901" d="M143 471v164h615v-164h-615z" />
<glyph unicode="&#xae;" d="M20 889q0 227 149.5 386t373 159t374 -159t150.5 -386t-150.5 -385t-374 -158t-373 158t-149.5 385zM86 889q0 -201 130 -339t326.5 -138t327.5 138t131 339t-131 340t-327.5 139t-326.5 -139t-130 -340zM696 565l-135 269h-162v-269h-65v645h186q131 0 183.5 -41 t52.5 -143q0 -156 -121 -186l133 -275h-72zM563 899q70 0 98.5 27.5t28.5 99.5q0 68 -39 93.5t-125 25.5h-127v-246h164z" />
<glyph unicode="&#xaf;" horiz-adv-x="954" d="M166 1294v152h608v-152h-608z" />
<glyph unicode="&#xb0;" d="M207 1155q0 131 81 212t212 81t212 -81t81 -212t-81 -211t-212 -80t-212 80t-81 211zM317 1155q0 -84 50.5 -134t132.5 -50t133 51t51 133t-51 133t-133 51t-132.5 -51t-50.5 -133z" />
<glyph unicode="&#xb1;" d="M88 584v172h365v274h180v-274h364v-172h-364v-252h-180v252h-365zM88 252h909v-172h-909v172z" />
<glyph unicode="&#xb2;" horiz-adv-x="542" d="M479 979h-436v127l174 166q102 92 102 159.5t-96 67.5l-170 -18l-6 135q127 23 217 22q109 0 158 -46t49 -144q0 -68 -29.5 -118t-93.5 -107l-117 -113h248v-131z" />
<glyph unicode="&#xb3;" horiz-adv-x="542" d="M57 1618q125 20 211 20q223 0 224 -174q0 -104 -80 -151q49 -16 71.5 -49t22.5 -107q0 -199 -223 -199q-45 0 -103.5 4.5t-93.5 8.5l-37 6l10 129q117 -16 203 -16q94 0 94 75q0 78 -88 78h-135v121h133q27 0 49.5 22.5t22.5 57.5q0 61 -86 61l-184 -14z" />
<glyph unicode="&#xb4;" horiz-adv-x="1179" d="M244 1352l461 192l61 -162l-465 -174z" />
<glyph unicode="&#xb5;" d="M160 -461v1483h172v-547q0 -190 40 -267t163 -77q51 0 112.5 17.5t97.5 35.5l37 17v821h172v-1022h-172v61q-152 -84 -266 -84q-66 0 -111 21.5t-58 38t-15 26.5v-524h-172z" />
<glyph unicode="&#x3bc;" d="M160 -461v1483h172v-547q0 -190 40 -267t163 -77q51 0 112.5 17.5t97.5 35.5l37 17v821h172v-1022h-172v61q-152 -84 -266 -84q-66 0 -111 21.5t-58 38t-15 26.5v-524h-172z" />
<glyph unicode="&#xb6;" d="M768 0v1294h-205v-1294h-151v672h-15q-166 0 -273.5 105.5t-107.5 273.5t107.5 275.5t273.5 107.5h676v-140h-151v-1294h-154z" />
<glyph unicode="&#xb7;" horiz-adv-x="507" d="M145 487v252h189v-252h-189z" />
<glyph unicode="&#xb8;" horiz-adv-x="1705" d="M1153 -260q0 -90 -52 -136t-145 -46q-41 0 -85 4t-68 8l-25 2l6 109q76 -4 129 -5q88 0 88 74q0 66 -88 66h-79v186h88v-98q125 -2 178 -36t53 -128z" />
<glyph unicode="&#xb9;" horiz-adv-x="542" d="M55 1473l211 145h135v-639h-145v479l-133 -90z" />
<glyph unicode="&#xba;" d="M520 1362q262 0 262 -295q0 -305 -262 -305q-260 0 -260 305q0 156 65.5 225.5t194.5 69.5zM520 877q74 0 105.5 43t31.5 147q0 98 -32.5 139t-104.5 41q-74 0 -104.5 -40t-30.5 -140q0 -104 30.5 -147t104.5 -43z" />
<glyph unicode="&#xbb;" horiz-adv-x="1112" d="M850 520l-250 185v178l399 -299v-135l-399 -318v180zM373 520l-250 185v178l399 -299v-135l-399 -318v180z" />
<glyph unicode="&#xbf;" horiz-adv-x="790" d="M27 -70q0 78 36.5 153t88.5 132l103 111q52 53 89 107t37 102v77h174q8 -84 8 -104q0 -61 -35.5 -126t-87.5 -119l-103 -105q-52 -51 -88 -105.5t-36 -103.5q0 -113 53 -159t191 -46q45 0 121.5 11.5t130.5 21.5l55 10l20 -158q-223 -63 -344 -63q-215 0 -314 82.5 t-99 281.5zM565 1022v-242h-188v242h188z" />
<glyph unicode="&#xc0;" horiz-adv-x="1236" d="M66 0l376 1423h357l372 -1423h-178l-100 342h-553l-96 -342h-178zM580 1266l-201 -760h477l-197 760h-79zM393 1921l461 -192l-57 -144l-465 174z" />
<glyph unicode="&#xc1;" horiz-adv-x="1236" d="M66 0l376 1423h357l372 -1423h-178l-100 342h-553l-96 -342h-178zM580 1266l-201 -760h477l-197 760h-79zM352 1741l461 192l61 -161l-464 -175z" />
<glyph unicode="&#xc2;" horiz-adv-x="1236" d="M66 0l376 1423h357l372 -1423h-178l-100 342h-553l-96 -342h-178zM580 1266l-201 -760h477l-197 760h-79zM264 1626l271 281h157l271 -281h-199l-150 141l-147 -141h-203z" />
<glyph unicode="&#xc3;" horiz-adv-x="1236" d="M66 0l376 1423h357l372 -1423h-178l-100 342h-553l-96 -342h-178zM580 1266l-201 -760h477l-197 760h-79zM948 1888l41 -133q-12 -14 -31.5 -33.5t-71.5 -53.5t-91 -34q-51 0 -178.5 55.5t-157.5 55.5q-23 0 -64 -24.5t-71 -49.5l-29 -24l-39 133q12 14 33.5 34.5 t75 55.5t92.5 35q59 0 184 -54.5t150 -54.5q44 0 157 92z" />
<glyph unicode="&#xc4;" horiz-adv-x="1236" d="M66 0l376 1423h357l372 -1423h-178l-100 342h-553l-96 -342h-178zM580 1266l-201 -760h477l-197 760h-79zM324 1671v199h168v-199h-168zM752 1671v199h168v-199h-168z" />
<glyph unicode="&#xc5;" horiz-adv-x="1236" d="M872 1516q0 -92 -59 -152l358 -1364h-178l-100 342h-553l-96 -342h-178l360 1362q-59 63 -59 154q0 104 71.5 163.5t182 59.5t181 -59.5t70.5 -163.5zM580 1266l-201 -760h477l-197 760h-79zM506 1516q0 -76 74 -93h79q74 16 74 93q0 45 -29.5 71.5t-83 26.5t-84 -26.5 t-30.5 -71.5z" />
<glyph unicode="&#xc6;" horiz-adv-x="1695" d="M731 0v342h-418l-94 -342h-178l377 1423h1161v-166h-672v-462h549v-158h-549v-471h672v-166h-848zM553 1257l-201 -751h379v751h-178z" />
<glyph unicode="&#xc7;" horiz-adv-x="1099" d="M883 -260q0 -90 -52.5 -136t-144.5 -46q-41 0 -85 4t-69 8l-24 2l6 109q76 -4 129 -5q88 0 88 74q0 66 -88 66h-80v164q-262 18 -357 194t-95 535q0 381 110.5 558t399.5 177q78 0 173 -11.5t152 -21.5l58 -10l-7 -160q-227 33 -356 33q-207 0 -276.5 -131t-69.5 -434 q0 -301 69.5 -431.5t280.5 -130.5q51 0 139 8.5t150 16.5l63 8l7 -162q-203 -35 -353 -41v-73q125 -2 178.5 -36t53.5 -128z" />
<glyph unicode="&#xc8;" horiz-adv-x="1150" d="M186 0v1423h848v-166h-672v-460h549v-162h-549v-471h672v-164h-848zM408 1921l460 -192l-57 -144l-465 174z" />
<glyph unicode="&#xc9;" horiz-adv-x="1150" d="M186 0v1423h848v-166h-672v-460h549v-162h-549v-471h672v-164h-848zM383 1741l461 192l61 -161l-465 -175z" />
<glyph unicode="&#xca;" horiz-adv-x="1150" d="M186 0v1423h848v-166h-672v-460h549v-162h-549v-471h672v-164h-848zM268 1630l271 281h157l271 -281h-199l-150 142l-147 -142h-203z" />
<glyph unicode="&#xcb;" horiz-adv-x="1150" d="M186 0v1423h848v-166h-672v-460h549v-162h-549v-471h672v-164h-848zM336 1671v199h168v-199h-168zM764 1671v199h168v-199h-168z" />
<glyph unicode="&#xcc;" horiz-adv-x="516" d="M168 0v1423h178v-1423h-178zM16 1921l461 -192l-57 -144l-465 174z" />
<glyph unicode="&#xcd;" horiz-adv-x="516" d="M168 0v1423h178v-1423h-178zM27 1741l460 192l62 -161l-465 -175z" />
<glyph unicode="&#xce;" horiz-adv-x="516" d="M168 0v1423h178v-1423h-178zM-94 1630l270 281h158l270 -281h-198l-150 142l-147 -142h-203z" />
<glyph unicode="&#xcf;" horiz-adv-x="516" d="M168 0v1423h178v-1423h-178zM-31 1683v199h168v-199h-168zM397 1683v199h168v-199h-168z" />
<glyph unicode="&#xd0;" horiz-adv-x="1308" d="M43 625v170h143v628h484q152 0 257 -49t163.5 -144t84 -215t25.5 -280q0 -129 -14.5 -234.5t-51 -200.5t-96 -159.5t-152.5 -102.5t-216 -38h-484v625h-143zM1016 735q0 117 -15.5 205t-52.5 163t-106.5 114.5t-171.5 39.5h-308v-462h306v-170h-306v-461h308 q346 0 346 571z" />
<glyph unicode="&#xd1;" horiz-adv-x="1421" d="M186 0v1423h320l510 -1241h39v1241h178v-1423h-311l-519 1241h-38v-1241h-179zM1042 1886l41 -133q-12 -14 -31.5 -33.5t-71.5 -53.5t-91 -34q-51 0 -178 55.5t-158 55.5q-23 0 -63.5 -24.5t-71.5 -49.5l-29 -24l-39 133q12 14 34 34.5t75 55.5t92 35q59 0 184 -54.5 t150 -54.5q44 0 157 92z" />
<glyph unicode="&#xd2;" horiz-adv-x="1331" d="M665.5 143q206.5 0 287.5 128t81 431q0 299 -84 438.5t-284 139.5q-203 0 -286 -138t-83 -440q0 -299 81 -429t287.5 -130zM666 -23q-299 0 -426 175.5t-127 550t128 558t425 183.5t425 -183.5t128 -558.5q0 -379 -126 -552t-427 -173zM461 1921l461 -192l-58 -144 l-465 174z" />
<glyph unicode="&#xd3;" horiz-adv-x="1331" d="M665.5 143q206.5 0 287.5 128t81 431q0 299 -84 438.5t-284 139.5q-203 0 -286 -138t-83 -440q0 -299 81 -429t287.5 -130zM666 -23q-299 0 -426 175.5t-127 550t128 558t425 183.5t425 -183.5t128 -558.5q0 -379 -126 -552t-427 -173zM389 1741l461 192l61 -161 l-465 -175z" />
<glyph unicode="&#xd4;" horiz-adv-x="1331" d="M665.5 143q206.5 0 287.5 128t81 431q0 299 -84 438.5t-284 139.5q-203 0 -286 -138t-83 -440q0 -299 81 -429t287.5 -130zM666 -23q-299 0 -426 175.5t-127 550t128 558t425 183.5t425 -183.5t128 -558.5q0 -379 -126 -552t-427 -173zM322 1632l270 281h158l270 -281 h-199l-149 142l-148 -142h-202z" />
<glyph unicode="&#xd5;" horiz-adv-x="1331" d="M665.5 143q206.5 0 287.5 128t81 431q0 299 -84 438.5t-284 139.5q-203 0 -286 -138t-83 -440q0 -299 81 -429t287.5 -130zM666 -23q-299 0 -426 175.5t-127 550t128 558t425 183.5t425 -183.5t128 -558.5q0 -379 -126 -552t-427 -173zM997 1886l41 -133 q-12 -14 -31.5 -33.5t-71.5 -53.5t-91 -34q-51 0 -178 55.5t-158 55.5q-23 0 -64 -24.5t-71 -49.5l-29 -24l-39 133q12 14 33.5 34.5t75 55.5t92.5 35q59 0 184 -54.5t150 -54.5q44 0 157 92z" />
<glyph unicode="&#xd6;" horiz-adv-x="1331" d="M665.5 143q206.5 0 287.5 128t81 431q0 299 -84 438.5t-284 139.5q-203 0 -286 -138t-83 -440q0 -299 81 -429t287.5 -130zM666 -23q-299 0 -426 175.5t-127 550t128 558t425 183.5t425 -183.5t128 -558.5q0 -379 -126 -552t-427 -173zM377 1671v199h168v-199h-168z M805 1671v199h168v-199h-168z" />
<glyph unicode="&#xd7;" d="M260 977l285 -287l295 291l123 -121l-293 -297l288 -284l-122 -125l-289 288l-293 -292l-121 122l293 293l-289 289z" />
<glyph unicode="&#xd8;" horiz-adv-x="1343" d="M666 -23q-137 0 -248 39l-119 -256l-115 56l123 264q-195 160 -194 622q0 375 128 558.5t425 183.5q150 0 256 -47l112 239l119 -47l-123 -262q188 -172 189 -625q0 -379 -126 -552t-427 -173zM297 702q0 -324 92 -446l459 983q-76 41 -182 41q-203 0 -286 -138.5 t-83 -439.5zM666 143q207 0 287.5 128t80.5 431q0 307 -88 445l-454 -973q70 -31 174 -31z" />
<glyph unicode="&#xd9;" horiz-adv-x="1318" d="M342 436q0 -150 78 -218t233 -68q162 0 243 68.5t81 217.5v987h176v-987q0 -236 -122 -345t-378 -109q-248 0 -368.5 109.5t-120.5 344.5v987h178v-987zM446 1921l461 -192l-57 -144l-465 174z" />
<glyph unicode="&#xda;" horiz-adv-x="1318" d="M342 436q0 -150 78 -218t233 -68q162 0 243 68.5t81 217.5v987h176v-987q0 -236 -122 -345t-378 -109q-248 0 -368.5 109.5t-120.5 344.5v987h178v-987zM385 1741l461 192l61 -161l-465 -175z" />
<glyph unicode="&#xdb;" horiz-adv-x="1318" d="M342 436q0 -150 78 -218t233 -68q162 0 243 68.5t81 217.5v987h176v-987q0 -236 -122 -345t-378 -109q-248 0 -368.5 109.5t-120.5 344.5v987h178v-987zM309 1626l271 281h157l271 -281h-199l-150 141l-147 -141h-203z" />
<glyph unicode="&#xdc;" horiz-adv-x="1318" d="M342 436q0 -150 78 -218t233 -68q162 0 243 68.5t81 217.5v987h176v-987q0 -236 -122 -345t-378 -109q-248 0 -368.5 109.5t-120.5 344.5v987h178v-987zM371 1683v199h168v-199h-168zM799 1683v199h168v-199h-168z" />
<glyph unicode="&#xdd;" horiz-adv-x="1136" d="M659 610v-610h-176v610l-438 813h199l325 -624l322 624h201zM338 1741l461 192l61 -161l-465 -175z" />
<glyph unicode="&#xde;" horiz-adv-x="1234" d="M682 412q141 0 210 86t69 233q0 297 -279 297h-317v-616h317zM684 240h-319v-240h-179v1423h179v-225h319q459 0 459 -467q0 -233 -116 -362t-343 -129z" />
<glyph unicode="&#xdf;" horiz-adv-x="1245" d="M346 0h-174v1108q0 205 98.5 290t315.5 85q221 0 315 -68.5t94 -228.5q0 -106 -37.5 -158.5t-128.5 -97.5q-76 -37 -101.5 -61.5t-25.5 -61.5q0 -31 32 -58.5t151 -82.5q147 -72 200.5 -130.5t53.5 -173.5q0 -215 -92.5 -297.5t-313.5 -82.5l-252 24l8 146q199 -8 234 -9 q135 0 185 45t50 164q0 59 -42 97t-164 94q-137 57 -183.5 110.5t-46.5 147.5q0 84 36 127t126 88q76 37 103.5 70.5t27.5 89.5q0 84 -52 116.5t-177 32.5t-182.5 -49t-57.5 -184v-1092z" />
<glyph unicode="&#xe0;" horiz-adv-x="1089" d="M889 709v-484q12 -49 38.5 -69.5t78.5 -28.5l-11 -147q-166 0 -250 77q-160 -80 -335 -80q-131 0 -214 88.5t-83 229.5q0 281 319 307l285 27v82q0 174 -160 174l-387 -27l-6 146q244 41 401 40q162 0 243 -80.5t81 -254.5zM717 496l-266 -21q-162 -12 -162 -176 q0 -76 39 -125t102.5 -49t135 14.5t110.5 28.5l41 14v314zM317 1542l461 -192l-57 -144l-465 174z" />
<glyph unicode="&#xe1;" horiz-adv-x="1089" d="M889 709v-484q12 -49 38.5 -69.5t78.5 -28.5l-11 -147q-166 0 -250 77q-160 -80 -335 -80q-131 0 -214 88.5t-83 229.5q0 281 319 307l285 27v82q0 174 -160 174l-387 -27l-6 146q244 41 401 40q162 0 243 -80.5t81 -254.5zM717 496l-266 -21q-162 -12 -162 -176 q0 -76 39 -125t102.5 -49t135 14.5t110.5 28.5l41 14v314zM322 1352l460 192l62 -162l-465 -174z" />
<glyph unicode="&#xe2;" horiz-adv-x="1089" d="M889 709v-484q12 -49 38.5 -69.5t78.5 -28.5l-11 -147q-166 0 -250 77q-160 -80 -335 -80q-131 0 -214 88.5t-83 229.5q0 281 319 307l285 27v82q0 174 -160 174l-387 -27l-6 146q244 41 401 40q162 0 243 -80.5t81 -254.5zM717 496l-266 -21q-162 -12 -162 -176 q0 -76 39 -125t102.5 -49t135 14.5t110.5 28.5l41 14v314zM182 1208l258 312h140l260 -312h-191l-137 164l-139 -164h-191z" />
<glyph unicode="&#xe3;" horiz-adv-x="1089" d="M889 709v-484q12 -49 38.5 -69.5t78.5 -28.5l-11 -147q-166 0 -250 77q-160 -80 -335 -80q-131 0 -214 88.5t-83 229.5q0 281 319 307l285 27v82q0 174 -160 174l-387 -27l-6 146q244 41 401 40q162 0 243 -80.5t81 -254.5zM717 496l-266 -21q-162 -12 -162 -176 q0 -76 39 -125t102.5 -49t135 14.5t110.5 28.5l41 14v314zM811 1487l39 -135q-96 -109 -184 -109q-51 0 -162 50t-142 50q-23 0 -60.5 -21.5t-63.5 -43.5l-29 -21l-39 132q104 115 192 114q57 0 167 -49t135 -49q20 0 57 20.5t63 40.5z" />
<glyph unicode="&#xe4;" horiz-adv-x="1089" d="M889 709v-484q12 -49 38.5 -69.5t78.5 -28.5l-11 -147q-166 0 -250 77q-160 -80 -335 -80q-131 0 -214 88.5t-83 229.5q0 281 319 307l285 27v82q0 174 -160 174l-387 -27l-6 146q244 41 401 40q162 0 243 -80.5t81 -254.5zM717 496l-266 -21q-162 -12 -162 -176 q0 -76 39 -125t102.5 -49t135 14.5t110.5 28.5l41 14v314zM260 1274v199h168v-199h-168zM676 1274v199h168v-199h-168z" />
<glyph unicode="&#xe5;" horiz-adv-x="1089" d="M889 709v-484q12 -49 38.5 -69.5t78.5 -28.5l-11 -147q-166 0 -250 77q-160 -80 -335 -80q-131 0 -214 88.5t-83 229.5q0 281 319 307l285 27v82q0 174 -160 174l-387 -27l-6 146q244 41 401 40q162 0 243 -80.5t81 -254.5zM717 496l-266 -21q-162 -12 -162 -176 q0 -76 39 -125t102.5 -49t135 14.5t110.5 28.5l41 14v314zM311 1360q0 90 62.5 153.5t154.5 63.5q90 0 153.5 -63.5t63.5 -153.5q0 -92 -62 -154.5t-154.5 -62.5t-155 61.5t-62.5 155.5zM434 1360q0 -41 27.5 -69.5t68.5 -28.5q39 0 66 28.5t27 69.5q0 39 -27 66.5t-66 27.5 q-41 0 -68.5 -27.5t-27.5 -66.5z" />
<glyph unicode="&#xe6;" horiz-adv-x="1695" d="M1161 131q66 0 158 4t151 8l62 7l4 -134q-207 -39 -387 -39q-207 0 -309 109l-62 -27q-174 -82 -366 -82q-133 0 -213 84t-80 234q0 160 85 225.5t273 85.5l256 23v82q0 174 -160 174q-68 0 -165 -6.5t-162 -12.5l-64 -6l-6 152q244 33 402 32q207 0 276 -139 q98 139 309 139q410 0 410 -475l-10 -129h-656q2 -154 60.5 -231.5t193.5 -77.5zM434 125q147 0 328 68q-31 100 -31 301l-276 -23q-160 -12 -160 -172q0 -82 39 -128t100 -46zM907 575h492q0 168 -56.5 245t-183.5 77q-252 0 -252 -322z" />
<glyph unicode="&#xe7;" horiz-adv-x="892" d="M778 -260q0 -90 -52 -136t-144 -46q-41 0 -85 4t-69 8l-25 2l7 109q76 -4 129 -5q88 0 88 74q0 66 -88 66h-80v166q-188 18 -267 149t-79 397q0 264 100 390t319 126q53 0 121 -7t109 -13l43 -8l-6 -148q-147 16 -226 17q-158 0 -221 -83t-63 -274q0 -209 60.5 -300 t223.5 -91l228 15l6 -148q-145 -25 -260 -27v-73q125 -2 178 -36t53 -128z" />
<glyph unicode="&#xe8;" horiz-adv-x="1038" d="M532 131q66 0 157 4t151 8l57 7l4 -134q-203 -39 -381 -39q-221 0 -317.5 134.5t-96.5 392.5q0 266 111 403t313 137q408 0 408 -475l-10 -129h-645q-1 -309 249 -309zM281 575h483q0 166 -56.5 244t-177.5 78q-247 0 -249 -322zM291 1542l461 -192l-58 -144l-465 174z " />
<glyph unicode="&#xe9;" horiz-adv-x="1038" d="M532 131q66 0 157 4t151 8l57 7l4 -134q-203 -39 -381 -39q-221 0 -317.5 134.5t-96.5 392.5q0 266 111 403t313 137q408 0 408 -475l-10 -129h-645q-1 -309 249 -309zM281 575h483q0 166 -56.5 244t-177.5 78q-247 0 -249 -322zM272 1352l461 192l62 -162l-465 -174z " />
<glyph unicode="&#xea;" horiz-adv-x="1038" d="M532 131q66 0 157 4t151 8l57 7l4 -134q-203 -39 -381 -39q-221 0 -317.5 134.5t-96.5 392.5q0 266 111 403t313 137q408 0 408 -475l-10 -129h-645q-1 -309 249 -309zM281 575h483q0 166 -56.5 244t-177.5 78q-247 0 -249 -322zM205 1208l258 312h139l260 -312h-190 l-137 164l-140 -164h-190z" />
<glyph unicode="&#xeb;" horiz-adv-x="1038" d="M532 131q66 0 157 4t151 8l57 7l4 -134q-203 -39 -381 -39q-221 0 -317.5 134.5t-96.5 392.5q0 266 111 403t313 137q408 0 408 -475l-10 -129h-645q-1 -309 249 -309zM281 575h483q0 166 -56.5 244t-177.5 78q-247 0 -249 -322zM272 1274v199h168v-199h-168zM688 1274 v199h168v-199h-168z" />
<glyph unicode="&#xec;" horiz-adv-x="540" d="M184 0v1022h172v-1022h-172zM-12 1542l461 -192l-58 -144l-465 174z" />
<glyph unicode="&#xed;" horiz-adv-x="534" d="M53 1352l461 192l61 -162l-464 -174zM184 0v1022h172v-1022h-172z" />
<glyph unicode="&#xee;" horiz-adv-x="540" d="M184 0v1022h172v-1022h-172zM-63 1208l258 312h139l260 -312h-191l-137 164l-139 -164h-190z" />
<glyph unicode="&#xef;" horiz-adv-x="540" d="M10 1274v199h168v-199h-168zM426 1274v199h168v-199h-168zM184 0v1022h172v-1022h-172z" />
<glyph unicode="&#xf0;" d="M317 1047l-75 106l155 115q-84 27 -215 57l31 148q195 -35 340 -93l203 148l75 -107l-143 -104q330 -193 330 -598q0 -393 -112.5 -565t-368.5 -172q-221 0 -341 122.5t-120 354.5q0 193 117.5 308.5t314.5 115.5q66 0 146.5 -17.5t127.5 -34.5l49 -16q-16 262 -290 393z M518 729q-119 0 -188.5 -77t-69.5 -193q0 -150 69.5 -233t207.5 -83q158 0 226 117t71 399q-169 70 -316 70z" />
<glyph unicode="&#xf1;" horiz-adv-x="1175" d="M371 0h-174v1022h174v-64q154 86 291 86q197 0 269.5 -120.5t72.5 -391.5v-532h-173v530q0 190 -38.5 273.5t-159.5 83.5q-55 0 -121 -17.5t-102 -33.5l-39 -19v-817zM901 1487l39 -135q-96 -109 -184 -109q-51 0 -162 50t-141 50q-23 0 -61 -21.5t-64 -43.5l-29 -21 l-39 132q104 115 193 114q57 0 166.5 -49t134.5 -49q20 0 57 20.5t63 40.5z" />
<glyph unicode="&#xf2;" horiz-adv-x="1091" d="M543 1044q227 0 328.5 -135t101.5 -389q0 -266 -96.5 -404.5t-333.5 -138.5q-244 0 -340.5 135.5t-96.5 409.5q0 260 99.5 391t337.5 131zM543 129q150 0 202 97.5t52 293.5q0 186 -58.5 279.5t-195.5 93.5q-143 0 -200.5 -89t-57.5 -282q0 -205 52 -299t206 -94z M260 1542l461 -192l-57 -144l-465 174z" />
<glyph unicode="&#xf3;" horiz-adv-x="1091" d="M543 1044q227 0 328.5 -135t101.5 -389q0 -266 -96.5 -404.5t-333.5 -138.5q-244 0 -340.5 135.5t-96.5 409.5q0 260 99.5 391t337.5 131zM543 129q150 0 202 97.5t52 293.5q0 186 -58.5 279.5t-195.5 93.5q-143 0 -200.5 -89t-57.5 -282q0 -205 52 -299t206 -94z M281 1352l460 192l62 -162l-465 -174z" />
<glyph unicode="&#xf4;" horiz-adv-x="1091" d="M543 1044q227 0 328.5 -135t101.5 -389q0 -266 -96.5 -404.5t-333.5 -138.5q-244 0 -340.5 135.5t-96.5 409.5q0 260 99.5 391t337.5 131zM543 129q150 0 202 97.5t52 293.5q0 186 -58.5 279.5t-195.5 93.5q-143 0 -200.5 -89t-57.5 -282q0 -205 52 -299t206 -94z M186 1208l258 312h140l260 -312h-191l-137 164l-139 -164h-191z" />
<glyph unicode="&#xf5;" horiz-adv-x="1091" d="M543 1044q227 0 328.5 -135t101.5 -389q0 -266 -96.5 -404.5t-333.5 -138.5q-244 0 -340.5 135.5t-96.5 409.5q0 260 99.5 391t337.5 131zM543 129q150 0 202 97.5t52 293.5q0 186 -58.5 279.5t-195.5 93.5q-143 0 -200.5 -89t-57.5 -282q0 -205 52 -299t206 -94z M807 1487l39 -135q-96 -109 -184 -109q-51 0 -162 50t-142 50q-23 0 -60.5 -21.5t-64.5 -43.5l-28 -21l-39 132q104 115 192 114q57 0 167 -49t134 -49q20 0 57.5 20.5t63.5 40.5z" />
<glyph unicode="&#xf6;" horiz-adv-x="1091" d="M543 1044q227 0 328.5 -135t101.5 -389q0 -266 -96.5 -404.5t-333.5 -138.5q-244 0 -340.5 135.5t-96.5 409.5q0 260 99.5 391t337.5 131zM543 129q150 0 202 97.5t52 293.5q0 186 -58.5 279.5t-195.5 93.5q-143 0 -200.5 -89t-57.5 -282q0 -205 52 -299t206 -94z M260 1274v199h168v-199h-168zM676 1274v199h168v-199h-168z" />
<glyph unicode="&#xf7;" d="M453 846v217h176v-217h-176zM109 504v174h862v-174h-862zM453 119v217h176v-217h-176z" />
<glyph unicode="&#xf8;" horiz-adv-x="1081" d="M543 1044q80 0 143 -18l-8 -18l-10 -27l-41 -100q-37 12 -84 12q-143 0 -200.5 -89t-57.5 -282q0 -240 69 -321l-45 -113l-18 -27l-8 -20q-176 111 -177 481q0 260 99.5 391t337.5 131zM543 129q150 0 202 97.5t52 293.5q0 209 -74 297l51 123l14 27l7 14 q178 -119 178 -461q0 -266 -96.5 -404.5t-333.5 -138.5q-86 0 -154 19l14 31l9 26l34 88q44 -12 97 -12zM354 201l273 680q59 -18 96 -64l-277 -676q-57 15 -92 60zM301 -227l-113 41l95 227q51 -35 106 -45zM686 1026l86 215l113 -43l-90 -217q-48 31 -109 45z" />
<glyph unicode="&#xf9;" horiz-adv-x="1144" d="M795 1022h172v-1022h-172v61q-156 -84 -281 -84q-197 0 -269.5 116t-72.5 396v533h172v-530q0 -201 40 -281t159 -80q51 0 113.5 18.5t101.5 34.5l37 19v819zM287 1542l461 -192l-58 -144l-465 174z" />
<glyph unicode="&#xfa;" horiz-adv-x="1144" d="M795 1022h172v-1022h-172v61q-156 -84 -281 -84q-197 0 -269.5 116t-72.5 396v533h172v-530q0 -201 40 -281t159 -80q51 0 113.5 18.5t101.5 34.5l37 19v819zM307 1352l461 192l61 -162l-464 -174z" />
<glyph unicode="&#xfb;" horiz-adv-x="1144" d="M795 1022h172v-1022h-172v61q-156 -84 -281 -84q-197 0 -269.5 116t-72.5 396v533h172v-530q0 -201 40 -281t159 -80q51 0 113.5 18.5t101.5 34.5l37 19v819zM213 1208l258 312h139l260 -312h-190l-137 164l-140 -164h-190z" />
<glyph unicode="&#xfc;" horiz-adv-x="1144" d="M795 1022h172v-1022h-172v61q-156 -84 -281 -84q-197 0 -269.5 116t-72.5 396v533h172v-530q0 -201 40 -281t159 -80q51 0 113.5 18.5t101.5 34.5l37 19v819zM287 1274v199h168v-199h-168zM702 1274v199h168v-199h-168z" />
<glyph unicode="&#xfd;" horiz-adv-x="983" d="M39 1022h172l238 -856h59l240 856h172l-410 -1473h-172l127 451h-148zM268 1352l461 192l62 -162l-465 -174z" />
<glyph unicode="&#xfe;" horiz-adv-x="1120" d="M561 129q147 0 208.5 97.5t61.5 301.5q0 170 -56 265.5t-165 95.5q-55 0 -117.5 -15.5t-97.5 -29.5l-35 -17v-680q99 -18 201 -18zM629 1044q381 0 381 -518q0 -291 -105.5 -420t-341.5 -129l-203 15v-443h-174v1915h174v-493q132 73 269 73z" />
<glyph unicode="&#xff;" horiz-adv-x="987" d="M53 1022h172l238 -856h59l240 856h172l-410 -1473h-172l127 451h-147zM205 1274v199h168v-199h-168zM621 1274v199h167v-199h-167z" />
<glyph unicode="&#x100;" horiz-adv-x="1236" d="M66 0l376 1423h357l372 -1423h-178l-100 342h-553l-96 -342h-178zM580 1266l-201 -760h477l-197 760h-79zM293 1683v152h649v-152h-649z" />
<glyph unicode="&#x101;" horiz-adv-x="1071" d="M889 709v-484q12 -49 38.5 -69.5t78.5 -28.5l-11 -147q-166 0 -250 77q-160 -80 -335 -80q-131 0 -214 88.5t-83 229.5q0 281 319 307l285 27v82q0 174 -160 174l-387 -27l-6 146q244 41 401 40q162 0 243 -80.5t81 -254.5zM717 496l-266 -21q-162 -12 -162 -176 q0 -76 39 -125t102.5 -49t135 14.5t110.5 28.5l41 14v314zM229 1294v152h609v-152h-609z" />
<glyph unicode="&#x102;" horiz-adv-x="1236" d="M66 0l376 1423h357l372 -1423h-178l-100 342h-553l-96 -342h-178zM580 1266l-201 -760h477l-197 760h-79zM287 1896h178q2 -59 46 -94t107 -35q66 0 109 35t45 94h178q-8 -125 -96 -200.5t-235.5 -75.5t-235.5 75.5t-96 200.5z" />
<glyph unicode="&#x103;" horiz-adv-x="1071" d="M889 709v-484q12 -49 38.5 -69.5t78.5 -28.5l-11 -147q-166 0 -250 77q-160 -80 -335 -80q-131 0 -214 88.5t-83 229.5q0 281 319 307l285 27v82q0 174 -160 174l-387 -27l-6 146q244 41 401 40q162 0 243 -80.5t81 -254.5zM717 496l-266 -21q-162 -12 -162 -176 q0 -76 39 -125t102.5 -49t135 14.5t110.5 28.5l41 14v314zM195 1505h178q4 -66 46 -104.5t115.5 -38.5t115.5 39t46 104h178q-8 -133 -97 -215t-242 -82q-156 0 -244 82t-96 215z" />
<glyph unicode="&#x104;" horiz-adv-x="1236" d="M1200 -264l19 -144q-98 -18 -170 -18q-86 0 -140.5 49t-54.5 133q0 111 147 244h-8l-100 342h-553l-96 -342h-178l376 1423h357l370 -1421h2l-2 -2h2h-2q-6 -4 -36.5 -37t-63.5 -81t-33 -79q0 -33 18.5 -55t49.5 -22zM580 1266l-201 -760h477l-197 760h-79z" />
<glyph unicode="&#x105;" horiz-adv-x="1071" d="M987 -264l19 -144q-98 -18 -170 -18q-86 0 -140.5 49t-54.5 133q0 53 40 117t70.5 93.5t53.5 47.5q-31 14 -60 43q-160 -80 -335 -80q-131 0 -214 88.5t-83 229.5q0 281 319 307l285 27v82q0 174 -160 174l-387 -27l-6 146q244 41 401 40q162 0 243 -80.5t81 -254.5v-484 q12 -49 38.5 -69.5t78.5 -28.5l-11 -147q-10 0 -29.5 1t-27.5 1q-115 -115 -115 -179q0 -33 18.5 -55t49.5 -22zM717 496l-266 -21q-162 -12 -162 -176q0 -76 39 -125t102.5 -49t135 14.5t110.5 28.5l41 14v314z" />
<glyph unicode="&#x106;" horiz-adv-x="1091" d="M997 180l7 -162q-231 -41 -383 -41q-154 0 -255.5 47.5t-156.5 146.5t-76.5 226t-21.5 312q0 381 110.5 558t399.5 177q78 0 173 -11.5t152 -21.5l58 -10l-7 -160q-227 33 -356 33q-207 0 -276.5 -131t-69.5 -434q0 -301 69.5 -431.5t280.5 -130.5q51 0 139 8.5t150 16.5 zM334 1741l461 192l61 -161l-465 -175z" />
<glyph unicode="&#x107;" horiz-adv-x="892" d="M532 1044q53 0 121 -7t109 -13l43 -8l-6 -148q-147 16 -226 17q-158 0 -221 -83t-63 -274q0 -209 60.5 -300t223.5 -91l228 15l6 -148q-160 -27 -277 -27q-229 0 -323 130.5t-94 420.5q0 264 100 390t319 126zM207 1352l461 192l61 -162l-465 -174z" />
<glyph unicode="&#x108;" horiz-adv-x="1091" d="M997 180l7 -162q-231 -41 -383 -41q-154 0 -255.5 47.5t-156.5 146.5t-76.5 226t-21.5 312q0 381 110.5 558t399.5 177q78 0 173 -11.5t152 -21.5l58 -10l-7 -160q-227 33 -356 33q-207 0 -276.5 -131t-69.5 -434q0 -301 69.5 -431.5t280.5 -130.5q51 0 139 8.5t150 16.5 zM266 1626l271 281h157l271 -281h-199l-150 141l-147 -141h-203z" />
<glyph unicode="&#x109;" horiz-adv-x="892" d="M532 1044q53 0 121 -7t109 -13l43 -8l-6 -148q-147 16 -226 17q-158 0 -221 -83t-63 -274q0 -209 60.5 -300t223.5 -91l228 15l6 -148q-160 -27 -277 -27q-229 0 -323 130.5t-94 420.5q0 264 100 390t319 126zM139 1208l258 312h140l260 -312h-191l-137 164l-139 -164 h-191z" />
<glyph unicode="&#x10a;" horiz-adv-x="1091" d="M997 180l7 -162q-231 -41 -383 -41q-154 0 -255.5 47.5t-156.5 146.5t-76.5 226t-21.5 312q0 381 110.5 558t399.5 177q78 0 173 -11.5t152 -21.5l58 -10l-7 -160q-227 33 -356 33q-207 0 -276.5 -131t-69.5 -434q0 -301 69.5 -431.5t280.5 -130.5q51 0 139 8.5t150 16.5 zM508 1661v194h174v-194h-174z" />
<glyph unicode="&#x10b;" horiz-adv-x="892" d="M532 1044q53 0 121 -7t109 -13l43 -8l-6 -148q-147 16 -226 17q-158 0 -221 -83t-63 -274q0 -209 60.5 -300t223.5 -91l228 15l6 -148q-160 -27 -277 -27q-229 0 -323 130.5t-94 420.5q0 264 100 390t319 126zM399 1229v194h174v-194h-174z" />
<glyph unicode="&#x10c;" horiz-adv-x="1091" d="M997 180l7 -162q-231 -41 -383 -41q-154 0 -255.5 47.5t-156.5 146.5t-76.5 226t-21.5 312q0 381 110.5 558t399.5 177q78 0 173 -11.5t152 -21.5l58 -10l-7 -160q-227 33 -356 33q-207 0 -276.5 -131t-69.5 -434q0 -301 69.5 -431.5t280.5 -130.5q51 0 139 8.5t150 16.5 zM956 1909l-270 -281h-156l-272 281h203l147 -146l148 146h200z" />
<glyph unicode="&#x10d;" horiz-adv-x="892" d="M532 1044q53 0 121 -7t109 -13l43 -8l-6 -148q-147 16 -226 17q-158 0 -221 -83t-63 -274q0 -209 60.5 -300t223.5 -91l228 15l6 -148q-160 -27 -277 -27q-229 0 -323 130.5t-94 420.5q0 264 100 390t319 126zM395 1208l-256 312h191l139 -164l137 164h191l-258 -312 h-144z" />
<glyph unicode="&#x10e;" horiz-adv-x="1308" d="M670 0h-484v1423h484q152 0 257 -49t163.5 -144t84 -215t25.5 -280q0 -129 -14.5 -234.5t-51 -200.5t-96 -159.5t-152.5 -102.5t-216 -38zM1016 735q0 117 -15.5 205t-52.5 163t-106.5 114.5t-171.5 39.5h-308v-1093h308q346 0 346 571zM963 1909l-271 -281h-155 l-273 281h203l147 -146l148 146h201z" />
<glyph unicode="&#x10f;" horiz-adv-x="1513" d="M932 1464v-1464h-172v57q-145 -78 -281 -77q-367 0 -366 530q0 535 422 534q51 0 225 -26v446h172zM504 135q51 0 114.5 16.5t102.5 32.5l39 17v669q-133 20 -215 21q-258 0 -258 -385q0 -371 217 -371zM1346 1423v-489h-168v489h168z" />
<glyph unicode="&#x110;" horiz-adv-x="1308" d="M43 625v170h143v628h484q152 0 257 -49t163.5 -144t84 -215t25.5 -280q0 -129 -14.5 -234.5t-51 -200.5t-96 -159.5t-152.5 -102.5t-216 -38h-484v625h-143zM1016 735q0 117 -15.5 205t-52.5 163t-106.5 114.5t-171.5 39.5h-308v-462h306v-170h-306v-461h308 q346 0 346 571z" />
<glyph unicode="&#x111;" horiz-adv-x="1110" d="M362 1274v151h398v39h172v-39h39v-151h-39v-1274h-172v57q-145 -78 -281 -77q-367 0 -366 530q0 535 422 534q51 0 225 -26v256h-398zM504 135q51 0 114.5 16.5t102.5 32.5l39 17v669q-133 20 -215 21q-258 0 -258 -385q0 -371 217 -371z" />
<glyph unicode="&#x112;" horiz-adv-x="1150" d="M186 0v1423h848v-166h-672v-460h549v-162h-549v-471h672v-164h-848zM260 1673v152h649v-152h-649z" />
<glyph unicode="&#x113;" horiz-adv-x="1038" d="M532 131q66 0 157 4t151 8l57 7l4 -134q-203 -39 -381 -39q-221 0 -317.5 134.5t-96.5 392.5q0 266 111 403t313 137q408 0 408 -475l-10 -129h-645q-1 -309 249 -309zM281 575h483q0 166 -56.5 244t-177.5 78q-247 0 -249 -322zM223 1294v152h608v-152h-608z" />
<glyph unicode="&#x114;" horiz-adv-x="1150" d="M186 0v1423h848v-166h-672v-460h549v-162h-549v-471h672v-164h-848zM295 1898h178q2 -59 46 -94t108 -35q66 0 108.5 35t44.5 94h178q-8 -125 -96 -200.5t-235.5 -75.5t-235.5 75.5t-96 200.5z" />
<glyph unicode="&#x115;" horiz-adv-x="1038" d="M532 131q66 0 157 4t151 8l57 7l4 -134q-203 -39 -381 -39q-221 0 -317.5 134.5t-96.5 392.5q0 266 111 403t313 137q408 0 408 -475l-10 -129h-645q-1 -309 249 -309zM281 575h483q0 166 -56.5 244t-177.5 78q-247 0 -249 -322zM186 1505h179q4 -66 46 -104.5 t115.5 -38.5t115.5 39t46 104h178q-8 -133 -97 -215t-243 -82q-156 0 -244 82t-96 215z" />
<glyph unicode="&#x116;" horiz-adv-x="1150" d="M186 0v1423h848v-166h-672v-460h549v-162h-549v-471h672v-164h-848zM528 1661v194h174v-194h-174z" />
<glyph unicode="&#x117;" horiz-adv-x="1038" d="M532 131q66 0 157 4t151 8l57 7l4 -134q-203 -39 -381 -39q-221 0 -317.5 134.5t-96.5 392.5q0 266 111 403t313 137q408 0 408 -475l-10 -129h-645q-1 -309 249 -309zM281 575h483q0 166 -56.5 244t-177.5 78q-247 0 -249 -322zM430 1229v194h174v-194h-174z" />
<glyph unicode="&#x118;" horiz-adv-x="1150" d="M186 0v1423h848v-166h-672v-460h549v-162h-549v-471h672v-164h-41q-6 -4 -36.5 -37t-63.5 -81t-33 -79q0 -33 18.5 -55t49.5 -22l96 10l18 -144q-98 -18 -170 -18q-86 0 -140 49t-54 133q0 111 147 244h-639z" />
<glyph unicode="&#x119;" horiz-adv-x="1038" d="M883 -260l18 -143q-98 -18 -170 -19q-86 0 -140 49t-54 133q0 98 127 226q-94 -8 -144 -9q-221 0 -317.5 134.5t-96.5 392.5q0 266 111 403t313 137q408 0 408 -475l-10 -129h-645q0 -309 249 -309q66 0 157 4t151 8l57 7l4 -134q-25 -4 -55 -10h8q-135 -131 -135 -199 q0 -33 18.5 -55t48.5 -22zM281 575h483q0 166 -56.5 244t-177.5 78q-247 0 -249 -322z" />
<glyph unicode="&#x11a;" horiz-adv-x="1150" d="M186 0v1423h848v-166h-672v-460h549v-162h-549v-471h672v-164h-848zM993 1927l-270 -280h-156l-272 280h203l147 -145l148 145h200z" />
<glyph unicode="&#x11b;" horiz-adv-x="1038" d="M532 131q66 0 157 4t151 8l57 7l4 -134q-203 -39 -381 -39q-221 0 -317.5 134.5t-96.5 392.5q0 266 111 403t313 137q408 0 408 -475l-10 -129h-645q-1 -309 249 -309zM281 575h483q0 166 -56.5 244t-177.5 78q-247 0 -249 -322zM446 1208l-256 312h191l139 -164l137 164 h191l-258 -312h-144z" />
<glyph unicode="&#x11c;" horiz-adv-x="1241" d="M719 584v155h389v-716q-291 -45 -453 -46q-301 0 -421.5 184.5t-120.5 549.5q0 371 119.5 552t416.5 181q205 0 459 -49l-8 -158q-252 39 -428 39q-217 0 -296 -133t-79 -432t77 -432.5t294 -133.5q29 0 66.5 2.5t70.5 6.5t61.5 8t46 6t19.5 2v414h-213zM301 1626 l270 281h158l270 -281h-198l-150 141l-147 -141h-203z" />
<glyph unicode="&#x11d;" horiz-adv-x="1067" d="M541 -492q-217 0 -329 74t-112 242q0 78 40 136t120 120q-59 41 -59 141l71 166q-158 94 -157 305q0 168 107.5 260t273.5 92q41 0 88 -6t73 -14l27 -6l313 6v-143h-180q63 -76 64 -189q0 -348 -392 -348q-47 0 -88 8q-35 -86 -34 -112q0 -57 35.5 -72.5t191.5 -15.5 q217 0 309 -62.5t92 -230.5q0 -174 -123.5 -262.5t-330.5 -88.5zM580 2l-203 10q-55 -47 -80 -84t-25 -88q0 -178 271 -178q276 0 276 188q0 92 -53 122t-186 30zM489 485q219 0 219.5 207t-214.5 207q-100 0 -152.5 -54t-52.5 -153q-1 -207 200 -207zM205 1208l258 312h139 l260 -312h-190l-137 164l-140 -164h-190z" />
<glyph unicode="&#x11e;" horiz-adv-x="1241" d="M719 584v155h389v-716q-291 -45 -453 -46q-301 0 -421.5 184.5t-120.5 549.5q0 371 119.5 552t416.5 181q205 0 459 -49l-8 -158q-252 39 -428 39q-217 0 -296 -133t-79 -432t77 -432.5t294 -133.5q29 0 66.5 2.5t70.5 6.5t61.5 8t46 6t19.5 2v414h-213zM328 1896h178 q2 -59 46 -94t107 -35q66 0 109 35t45 94h178q-8 -125 -96 -200.5t-235.5 -75.5t-235.5 75.5t-96 200.5z" />
<glyph unicode="&#x11f;" horiz-adv-x="1067" d="M541 -492q-217 0 -329 74t-112 242q0 78 40 136t120 120q-59 41 -59 141l71 166q-158 94 -157 305q0 168 107.5 260t273.5 92q41 0 88 -6t73 -14l27 -6l313 6v-143h-180q63 -76 64 -189q0 -348 -392 -348q-47 0 -88 8q-35 -86 -34 -112q0 -57 35.5 -72.5t191.5 -15.5 q217 0 309 -62.5t92 -230.5q0 -174 -123.5 -262.5t-330.5 -88.5zM580 2l-203 10q-55 -47 -80 -84t-25 -88q0 -178 271 -178q276 0 276 188q0 92 -53 122t-186 30zM489 485q219 0 219.5 207t-214.5 207q-100 0 -152.5 -54t-52.5 -153q-1 -207 200 -207zM193 1505h178 q4 -66 46 -104.5t115.5 -38.5t115.5 39t46 104h178q-8 -133 -97 -215t-243 -82q-156 0 -243.5 82t-95.5 215z" />
<glyph unicode="&#x120;" horiz-adv-x="1241" d="M719 584v155h389v-716q-291 -45 -453 -46q-301 0 -421.5 184.5t-120.5 549.5q0 371 119.5 552t416.5 181q205 0 459 -49l-8 -158q-252 39 -428 39q-217 0 -296 -133t-79 -432t77 -432.5t294 -133.5q29 0 66.5 2.5t70.5 6.5t61.5 8t46 6t19.5 2v414h-213zM543 1671v195 h174v-195h-174z" />
<glyph unicode="&#x121;" horiz-adv-x="1067" d="M541 -492q-217 0 -329 74t-112 242q0 78 40 136t120 120q-59 41 -59 141l71 166q-158 94 -157 305q0 168 107.5 260t273.5 92q41 0 88 -6t73 -14l27 -6l313 6v-143h-180q63 -76 64 -189q0 -348 -392 -348q-47 0 -88 8q-35 -86 -34 -112q0 -57 35.5 -72.5t191.5 -15.5 q217 0 309 -62.5t92 -230.5q0 -174 -123.5 -262.5t-330.5 -88.5zM580 2l-203 10q-55 -47 -80 -84t-25 -88q0 -178 271 -178q276 0 276 188q0 92 -53 122t-186 30zM489 485q219 0 219.5 207t-214.5 207q-100 0 -152.5 -54t-52.5 -153q-1 -207 200 -207zM444 1229v194h174 v-194h-174z" />
<glyph unicode="&#x122;" horiz-adv-x="1241" d="M719 584v155h389v-716q-291 -45 -453 -46q-301 0 -421.5 184.5t-120.5 549.5q0 371 119.5 552t416.5 181q205 0 459 -49l-8 -158q-252 39 -428 39q-217 0 -296 -133t-79 -432t77 -432.5t294 -133.5q29 0 66.5 2.5t70.5 6.5t61.5 8t46 6t19.5 2v414h-213zM489 -592l86 432 h170l-102 -432h-154z" />
<glyph unicode="&#x123;" horiz-adv-x="1067" d="M541 -492q-217 0 -329 74t-112 242q0 78 40 136t120 120q-59 41 -59 141l71 166q-158 94 -157 305q0 168 107.5 260t273.5 92q41 0 88 -6t73 -14l27 -6l313 6v-143h-180q63 -76 64 -189q0 -348 -392 -348q-47 0 -88 8q-35 -86 -34 -112q0 -57 35.5 -72.5t191.5 -15.5 q217 0 309 -62.5t92 -230.5q0 -174 -123.5 -262.5t-330.5 -88.5zM580 2l-203 10q-55 -47 -80 -84t-25 -88q0 -178 271 -178q276 0 276 188q0 92 -53 122t-186 30zM489 485q219 0 219.5 207t-214.5 207q-100 0 -152.5 -54t-52.5 -153q-1 -207 200 -207zM635 1636l-86 -432 h-170l104 432h152z" />
<glyph unicode="&#x124;" horiz-adv-x="1390" d="M1028 0v637h-666v-637h-176v1423h176v-622h666v622h176v-1423h-176zM346 1620l270 281h158l270 -281h-198l-150 141l-147 -141h-203z" />
<glyph unicode="&#x125;" horiz-adv-x="1155" d="M350 0h-174v1464h123l207 250h139l260 -311h-190l-137 164l-140 -164h-88v-424q164 66 289 65q197 0 270.5 -120.5t73.5 -388.5v-535h-174v532q0 188 -39 271.5t-160 83.5q-51 0 -115.5 -13.5t-105.5 -27.5l-39 -15v-831z" />
<glyph unicode="&#x126;" horiz-adv-x="1390" d="M23 1032v152h163v239h176v-239h666v239h176v-239h187v-152h-187v-1032h-176v637h-666v-637h-176v1032h-163zM362 801h666v231h-666v-231z" />
<glyph unicode="&#x127;" horiz-adv-x="1155" d="M47 1171v152h129v141h174v-141h305v-152h-305v-192q164 66 289 65q197 0 270.5 -120.5t73.5 -388.5v-535h-174v532q0 188 -39 271.5t-160 83.5q-51 0 -115.5 -13.5t-105.5 -27.5l-39 -15v-831h-174v1171h-129z" />
<glyph unicode="&#x128;" horiz-adv-x="516" d="M168 0v1423h178v-1423h-178zM590 1876l41 -133q-12 -14 -31.5 -33.5t-72 -53.5t-91.5 -34q-51 0 -178 55.5t-158 55.5q-23 0 -63.5 -25t-69.5 -49l-30 -25l-39 133q12 14 33.5 35t74.5 55.5t92 34.5q59 0 184.5 -54t149.5 -54q45 0 158 92z" />
<glyph unicode="&#x129;" horiz-adv-x="540" d="M184 0v1022h172v-1022h-172zM563 1487l39 -135q-96 -109 -184 -109q-51 0 -162 50t-141 50q-23 0 -61 -21.5t-66 -43.5l-27 -21l-39 132q104 115 193 114q57 0 166.5 -49t134.5 -49q20 0 57 20.5t64 40.5z" />
<glyph unicode="&#x12a;" horiz-adv-x="516" d="M168 0v1423h178v-1423h-178zM-68 1694v151h650v-151h-650z" />
<glyph unicode="&#x12b;" horiz-adv-x="540" d="M184 0v1022h172v-1022h-172zM-35 1294v152h608v-152h-608z" />
<glyph unicode="&#x12c;" horiz-adv-x="516" d="M168 0v1423h178v-1423h-178zM-74 1896h178q2 -59 46.5 -94t107.5 -35q66 0 109 35t45 94h178q-8 -125 -96 -200.5t-235.5 -75.5t-236 75.5t-96.5 200.5z" />
<glyph unicode="&#x12d;" horiz-adv-x="540" d="M184 0v1022h172v-1022h-172zM-70 1505h179q4 -66 46 -104.5t115.5 -38.5t115.5 39t46 104h178q-8 -133 -97 -215t-243 -82q-156 0 -244 82t-96 215z" />
<glyph unicode="&#x12e;" horiz-adv-x="516" d="M168 0v1423h178v-1423h-2q-6 -4 -37 -37t-63.5 -81t-32.5 -79q0 -33 18.5 -55t49.5 -22l96 10l18 -144q-98 -18 -170 -18q-86 0 -140 49t-54 133q0 111 147 244h-8z" />
<glyph unicode="&#x12f;" horiz-adv-x="493" d="M160 0v1022h174v-1022h-4q-6 -4 -37 -37t-63.5 -81t-32.5 -79q0 -33 18 -55t49 -22l96 10l19 -144q-98 -18 -170 -18q-86 0 -140.5 49t-54.5 133q0 111 148 244h-2zM160 1229v194h174v-194h-174z" />
<glyph unicode="&#x130;" horiz-adv-x="516" d="M168 0v1423h178v-1423h-178zM170 1661v194h174v-194h-174z" />
<glyph unicode="&#x131;" horiz-adv-x="540" d="M184 0v1022h172v-1022h-172z" />
<glyph unicode="&#x132;" horiz-adv-x="1148" d="M975 1423l2 -1198q0 -225 -79 -297.5t-306 -72.5v157q125 2 167 45t42 181v1185h174zM168 0v1423h178v-1423h-178z" />
<glyph unicode="&#x133;" horiz-adv-x="1009" d="M676 12v1010h172v-1012q0 -195 -63.5 -288t-270.5 -199l-75 145q152 86 194.5 147.5t42.5 196.5zM676 1229v194h172v-194h-172zM160 0v1022h174v-1022h-174zM160 1229v194h174v-194h-174z" />
<glyph unicode="&#x134;" horiz-adv-x="632" d="M459 1423l2 -1198q0 -225 -79 -297.5t-306 -72.5v157q125 2 167 45t42 181v1185h174zM-33 1620l271 281h157l271 -281h-199l-150 141l-147 -141h-203z" />
<glyph unicode="&#x135;" horiz-adv-x="516" d="M182 12v1010h172v-1012q0 -195 -63.5 -288t-270.5 -199l-75 145q152 86 194.5 147.5t42.5 196.5zM-72 1208l258 312h140l260 -312h-191l-137 164l-139 -164h-191z" />
<glyph unicode="&#x136;" horiz-adv-x="1216" d="M924 0l-353 618l-209 -10v-608h-176v1423h176v-653l205 10l340 643h207l-389 -712l410 -711h-211zM477 -592l86 432h170l-102 -432h-154z" />
<glyph unicode="&#x137;" horiz-adv-x="1024" d="M360 0h-174v1464h174v-850l132 9l284 399h195l-324 -473l332 -549h-197l-286 457l-136 -11v-446zM383 -592l86 432h170l-102 -432h-154z" />
<glyph unicode="&#x139;" horiz-adv-x="1038" d="M946 0h-760v1423h176v-1257h584v-166zM262 1741l461 192l61 -161l-465 -175z" />
<glyph unicode="&#x13a;" horiz-adv-x="503" d="M-8 1556l461 193l61 -162l-330 -123h154v-1464h-172v1456l-117 -43z" />
<glyph unicode="&#x13b;" horiz-adv-x="1038" d="M946 0h-760v1423h176v-1257h584v-166zM389 -592l86 432h170l-102 -432h-154z" />
<glyph unicode="&#x13c;" horiz-adv-x="503" d="M166 0v1464h172v-1464h-172zM123 -592l86 432h170l-103 -432h-153z" />
<glyph unicode="&#x13d;" horiz-adv-x="1038" d="M946 0h-760v1423h176v-1257h584v-166zM913 1423v-489h-168v489h168z" />
<glyph unicode="&#x13e;" horiz-adv-x="839" d="M166 0v1464h172v-1464h-172zM739 1423v-489h-168v489h168z" />
<glyph unicode="&#x13f;" horiz-adv-x="1038" d="M473 596v252h189v-252h-189zM946 0h-760v1423h176v-1257h584v-166z" />
<glyph unicode="&#x140;" horiz-adv-x="1011" d="M649 487v252h189v-252h-189zM166 0v1464h172v-1464h-172z" />
<glyph unicode="&#x141;" d="M63 465l-88 131l215 149v678h179v-553l331 234l88 -129l-419 -295v-510h614v-170h-793v555z" />
<glyph unicode="&#x142;" horiz-adv-x="503" d="M166 0v549l-117 -80l-86 119l203 141v735h172v-616l127 90l86 -121l-213 -147v-670h-172z" />
<glyph unicode="&#x143;" horiz-adv-x="1421" d="M186 0v1423h320l510 -1241h39v1241h178v-1423h-311l-519 1241h-38v-1241h-179zM449 1741l460 192l62 -161l-465 -175z" />
<glyph unicode="&#x144;" horiz-adv-x="1161" d="M360 0h-174v1022h174v-64q154 86 291 86q197 0 269.5 -120.5t72.5 -391.5v-532h-172v530q0 190 -39 273.5t-159 83.5q-55 0 -121 -17.5t-105 -33.5l-37 -19v-817zM317 1352l461 192l62 -162l-465 -174z" />
<glyph unicode="&#x145;" horiz-adv-x="1421" d="M186 0v1423h320l510 -1241h39v1241h178v-1423h-311l-519 1241h-38v-1241h-179zM580 -592l86 432h170l-103 -432h-153z" />
<glyph unicode="&#x146;" horiz-adv-x="1161" d="M360 0h-174v1022h174v-64q154 86 291 86q197 0 269.5 -120.5t72.5 -391.5v-532h-172v530q0 190 -39 273.5t-159 83.5q-55 0 -121 -17.5t-105 -33.5l-37 -19v-817zM451 -592l86 432h170l-103 -432h-153z" />
<glyph unicode="&#x147;" horiz-adv-x="1421" d="M186 0v1423h320l510 -1241h39v1241h178v-1423h-311l-519 1241h-38v-1241h-179zM1059 1903l-271 -281h-155l-273 281h203l148 -146l147 146h201z" />
<glyph unicode="&#x148;" horiz-adv-x="1161" d="M360 0h-174v1022h174v-64q154 86 291 86q197 0 269.5 -120.5t72.5 -391.5v-532h-172v530q0 190 -39 273.5t-159 83.5q-55 0 -121 -17.5t-105 -33.5l-37 -19v-817zM508 1208l-256 312h190l140 -164l137 164h190l-258 -312h-143z" />
<glyph unicode="&#x14a;" horiz-adv-x="1421" d="M186 0v1423h320l510 -1241h39v1241h178v-1423h-2v-23q0 -225 -79 -297.5t-306 -72.5v157q125 2 167 45.5t42 180.5v10h-133l-519 1241h-38v-1241h-179z" />
<glyph unicode="&#x14b;" horiz-adv-x="1161" d="M375 0h-174v1022h174v-64q154 86 291 86q197 0 269.5 -120.5t72.5 -391.5v-534q0 -195 -63.5 -288t-270.5 -199l-76 145q152 86 195 147.5t43 190.5v536q0 190 -39 273.5t-160 83.5q-55 0 -120.5 -17.5t-102.5 -33.5l-39 -19v-817z" />
<glyph unicode="&#x14c;" horiz-adv-x="1331" d="M665.5 143q206.5 0 287.5 128t81 431q0 299 -84 438.5t-284 139.5q-203 0 -286 -138t-83 -440q0 -299 81 -429t287.5 -130zM666 -23q-299 0 -426 175.5t-127 550t128 558t425 183.5t425 -183.5t128 -558.5q0 -379 -126 -552t-427 -173zM338 1683v152h649v-152h-649z" />
<glyph unicode="&#x14d;" horiz-adv-x="1081" d="M543 1044q227 0 328.5 -135t101.5 -389q0 -266 -96.5 -404.5t-333.5 -138.5q-244 0 -340.5 135.5t-96.5 409.5q0 260 99.5 391t337.5 131zM543 129q150 0 202 97.5t52 293.5q0 186 -58.5 279.5t-195.5 93.5q-143 0 -200.5 -89t-57.5 -282q0 -205 52 -299t206 -94z M233 1294v152h609v-152h-609z" />
<glyph unicode="&#x14e;" horiz-adv-x="1331" d="M665.5 143q206.5 0 287.5 128t81 431q0 299 -84 438.5t-284 139.5q-203 0 -286 -138t-83 -440q0 -299 81 -429t287.5 -130zM666 -23q-299 0 -426 175.5t-127 550t128 558t425 183.5t425 -183.5t128 -558.5q0 -379 -126 -552t-427 -173zM334 1896h178q2 -59 46 -94 t108 -35q66 0 108.5 35t44.5 94h178q-8 -125 -96 -200.5t-235.5 -75.5t-235.5 75.5t-96 200.5z" />
<glyph unicode="&#x14f;" horiz-adv-x="1081" d="M543 1044q227 0 328.5 -135t101.5 -389q0 -266 -96.5 -404.5t-333.5 -138.5q-244 0 -340.5 135.5t-96.5 409.5q0 260 99.5 391t337.5 131zM543 129q150 0 202 97.5t52 293.5q0 186 -58.5 279.5t-195.5 93.5q-143 0 -200.5 -89t-57.5 -282q0 -205 52 -299t206 -94z M201 1505h178q4 -66 46 -104.5t115.5 -38.5t115.5 39t46 104h179q-8 -133 -97.5 -215t-242.5 -82q-156 0 -244 82t-96 215z" />
<glyph unicode="&#x150;" horiz-adv-x="1331" d="M665.5 143q206.5 0 287.5 128t81 431q0 299 -84 438.5t-284 139.5q-203 0 -286 -138t-83 -440q0 -299 81 -429t287.5 -130zM666 -23q-299 0 -426 175.5t-127 550t128 558t425 183.5t425 -183.5t128 -558.5q0 -379 -126 -552t-427 -173zM702 1640l265 291l143 -76 l-276 -286zM283 1640l266 293l143 -78l-276 -284z" />
<glyph unicode="&#x151;" horiz-adv-x="1081" d="M543 1044q227 0 328.5 -135t101.5 -389q0 -266 -96.5 -404.5t-333.5 -138.5q-244 0 -340.5 135.5t-96.5 409.5q0 260 99.5 391t337.5 131zM543 129q150 0 202 97.5t52 293.5q0 186 -58.5 279.5t-195.5 93.5q-143 0 -200.5 -89t-57.5 -282q0 -205 52 -299t206 -94z M571 1280l287 301l129 -96l-295 -299zM172 1280l287 299l131 -94l-295 -299z" />
<glyph unicode="&#x152;" horiz-adv-x="1871" d="M1755 -2h-840q-184 -20 -282 -21q-293 0 -415 180.5t-122 549.5q0 377 126 557t411 180q137 0 280 -21h842v-166h-665v-462h542v-158h-542v-471h665v-168zM653 145q70 0 260 15v1100q-246 18 -264 18q-205 0 -286.5 -134t-81.5 -435t78.5 -432.5t293.5 -131.5z" />
<glyph unicode="&#x153;" horiz-adv-x="1794" d="M1260 131q66 0 157.5 4t151.5 8l61 7l4 -134q-207 -39 -387 -39q-236 0 -332 160q-92 -160 -344 -160q-250 0 -345 132.5t-95 412.5q0 264 100.5 393t339.5 129q254 0 351 -178q100 178 335 178q414 0 414 -475l-10 -129h-655q2 -154 60.5 -231.5t193.5 -77.5zM571 129 q158 0 208 93t50 298q0 197 -59 285t-199 88q-150 0 -207 -86t-57 -285q0 -213 52 -303t212 -90zM1006 575h491q0 172 -53 243t-180 71q-258 -1 -258 -314z" />
<glyph unicode="&#x154;" horiz-adv-x="1271" d="M725 530l-47 -2h-316v-528h-176v1423h506q459 0 459 -440q0 -326 -250 -412l260 -571h-196zM967 981q0 133 -72 204.5t-203 71.5h-330v-567h332q139 0 206 80t67 211zM373 1741l461 192l61 -161l-465 -175z" />
<glyph unicode="&#x155;" horiz-adv-x="731" d="M172 0v1022h172v-127q147 113 330 149v-182q-82 -16 -165 -48t-124 -56l-41 -23v-735h-172zM125 1352l461 192l61 -162l-465 -174z" />
<glyph unicode="&#x156;" horiz-adv-x="1271" d="M725 530l-47 -2h-316v-528h-176v1423h506q459 0 459 -440q0 -326 -250 -412l260 -571h-196zM967 981q0 133 -72 204.5t-203 71.5h-330v-567h332q139 0 206 80t67 211zM506 -592l86 432h170l-103 -432h-153z" />
<glyph unicode="&#x157;" horiz-adv-x="731" d="M172 0v1022h172v-127q147 113 330 149v-182q-82 -16 -165 -48t-124 -56l-41 -23v-735h-172zM236 -592l86 432h170l-103 -432h-153z" />
<glyph unicode="&#x158;" horiz-adv-x="1271" d="M725 530l-47 -2h-316v-528h-176v1423h506q459 0 459 -440q0 -326 -250 -412l260 -571h-196zM967 981q0 133 -72 204.5t-203 71.5h-330v-567h332q139 0 206 80t67 211zM985 1903l-270 -281h-156l-272 281h202l148 -146l147 146h201z" />
<glyph unicode="&#x159;" horiz-adv-x="731" d="M172 0v1022h172v-127q147 113 330 149v-182q-82 -16 -165 -48t-124 -56l-41 -23v-735h-172zM313 1208l-256 312h191l139 -164l137 164h191l-258 -312h-144z" />
<glyph unicode="&#x15a;" horiz-adv-x="1091" d="M977 1405l-8 -156q-279 33 -398 33q-283 0 -282 -217q0 -117 68.5 -168t256.5 -102q223 -59 310.5 -137t87.5 -248q0 -223 -110.5 -326.5t-344.5 -103.5l-430 40l10 156q270 -31 406 -31q291 0 291 258q0 98 -67 147.5t-241 94.5q-231 63 -323 148.5t-92 267.5 q0 190 116.5 287.5t335.5 97.5zM283 1741l460 192l62 -161l-465 -175z" />
<glyph unicode="&#x15b;" horiz-adv-x="1003" d="M848 1004l-4 -144q-231 31 -350 31q-199 0 -199 -146q0 -61 47 -91.5t184 -53.5q201 -33 278 -94.5t77 -204.5q0 -324 -392 -324q-59 0 -148 10.5t-148 20.5l-62 10l8 146q231 -33 336 -33q121 0 176.5 37t55.5 127q0 70 -44.5 97.5t-187.5 51.5q-190 35 -273 95.5 t-83 199.5q0 158 105.5 231.5t258.5 73.5q68 0 159 -10t149 -20zM240 1352l460 192l62 -162l-465 -174z" />
<glyph unicode="&#x15c;" horiz-adv-x="1091" d="M977 1405l-8 -156q-279 33 -398 33q-283 0 -282 -217q0 -117 68.5 -168t256.5 -102q223 -59 310.5 -137t87.5 -248q0 -223 -110.5 -326.5t-344.5 -103.5l-430 40l10 156q270 -31 406 -31q291 0 291 258q0 98 -67 147.5t-241 94.5q-231 63 -323 148.5t-92 267.5 q0 190 116.5 287.5t335.5 97.5zM207 1626l270 281h158l270 -281h-198l-150 141l-147 -141h-203z" />
<glyph unicode="&#x15d;" horiz-adv-x="1003" d="M848 1004l-4 -144q-231 31 -350 31q-199 0 -199 -146q0 -61 47 -91.5t184 -53.5q201 -33 278 -94.5t77 -204.5q0 -324 -392 -324q-59 0 -148 10.5t-148 20.5l-62 10l8 146q231 -33 336 -33q121 0 176.5 37t55.5 127q0 70 -44.5 97.5t-187.5 51.5q-190 35 -273 95.5 t-83 199.5q0 158 105.5 231.5t258.5 73.5q68 0 159 -10t149 -20zM172 1208l258 312h139l260 -312h-190l-137 164l-140 -164h-190z" />
<glyph unicode="&#x15e;" horiz-adv-x="1091" d="M836 -260q0 -90 -52.5 -136t-144.5 -46q-41 0 -85 4t-69 8l-24 2l6 109q76 -4 129 -5q88 0 88 74q0 66 -88 66h-80v164q-76 2 -173 12t-157 20l-59 8l10 156q270 -31 406 -31q291 0 291 258q0 98 -67 147.5t-241 94.5q-231 63 -323 148.5t-92 267.5q0 190 116.5 287.5 t335.5 97.5l414 -41l-8 -156q-279 33 -398 33q-283 0 -282 -217q0 -117 68.5 -168t256.5 -102q223 -59 310.5 -137t87.5 -248q0 -211 -99.5 -314.5t-308.5 -113.5v-78q125 -2 178.5 -36t53.5 -128z" />
<glyph unicode="&#x15f;" horiz-adv-x="1003" d="M758 -260q0 -90 -52.5 -136t-144.5 -46q-41 0 -85 4t-68 8l-25 2l6 109q76 -4 129 -5q88 0 88 74q0 66 -88 66h-80v164q-59 2 -136 12t-124 18l-47 8l8 146q231 -33 336 -33q121 0 176.5 37t55.5 127q0 70 -44.5 97.5t-187.5 51.5q-190 35 -273 95.5t-83 199.5 q0 158 105.5 231.5t258.5 73.5q68 0 159 -10t149 -20l57 -10l-4 -144q-231 31 -350 31q-199 0 -199 -146q0 -61 47 -91.5t184 -53.5q201 -33 278 -94.5t77 -204.5q0 -307 -355 -321v-76q125 -2 178.5 -36t53.5 -128z" />
<glyph unicode="&#x160;" horiz-adv-x="1091" d="M977 1405l-8 -156q-279 33 -398 33q-283 0 -282 -217q0 -117 68.5 -168t256.5 -102q223 -59 310.5 -137t87.5 -248q0 -223 -110.5 -326.5t-344.5 -103.5l-430 40l10 156q270 -31 406 -31q291 0 291 258q0 98 -67 147.5t-241 94.5q-231 63 -323 148.5t-92 267.5 q0 190 116.5 287.5t335.5 97.5zM922 1909l-271 -281h-155l-273 281h203l147 -146l148 146h201z" />
<glyph unicode="&#x161;" horiz-adv-x="1003" d="M848 1004l-4 -144q-231 31 -350 31q-199 0 -199 -146q0 -61 47 -91.5t184 -53.5q201 -33 278 -94.5t77 -204.5q0 -324 -392 -324q-59 0 -148 10.5t-148 20.5l-62 10l8 146q231 -33 336 -33q121 0 176.5 37t55.5 127q0 70 -44.5 97.5t-187.5 51.5q-190 35 -273 95.5 t-83 199.5q0 158 105.5 231.5t258.5 73.5q68 0 159 -10t149 -20zM430 1208l-256 312h191l139 -164l137 164h190l-258 -312h-143z" />
<glyph unicode="&#x162;" horiz-adv-x="1003" d="M16 1251v172h969v-172h-393v-1251h-176v1251h-400zM373 -592l86 432h170l-103 -432h-153z" />
<glyph unicode="&#x163;" horiz-adv-x="739" d="M662 868h-297v-469q0 -150 28.5 -208t108.5 -58l164 10l8 -143q-121 -23 -193 -23q-156 0 -222 86.5t-66 290.5v514h-138v154h138v311h172v-311h297v-154zM240 -592l86 432h170l-103 -432h-153z" />
<glyph unicode="&#x164;" horiz-adv-x="1003" d="M16 1251v172h969v-172h-393v-1251h-176v1251h-400zM850 1903l-270 -281h-156l-272 281h202l148 -146l147 146h201z" />
<glyph unicode="&#x165;" horiz-adv-x="1073" d="M662 868h-297v-469q0 -150 28.5 -208t108.5 -58l164 10l8 -143q-121 -23 -193 -23q-156 0 -222 86.5t-66 290.5v514h-138v154h138v311h172v-311h297v-154zM975 1423v-489h-168v489h168z" />
<glyph unicode="&#x166;" horiz-adv-x="1003" d="M94 598v152h322v501h-400v172h969v-172h-393v-501h340v-152h-340v-598h-176v598h-322z" />
<glyph unicode="&#x167;" horiz-adv-x="739" d="M78 506v151h115v211h-138v154h138v311h172v-311h297v-154h-297v-211h290v-151h-290v-107q0 -150 28.5 -208t108.5 -58l164 10l8 -143q-121 -23 -193 -23q-156 0 -222 86.5t-66 290.5v152h-115z" />
<glyph unicode="&#x168;" horiz-adv-x="1318" d="M342 436q0 -150 78 -218t233 -68q162 0 243 68.5t81 217.5v987h176v-987q0 -236 -122 -345t-378 -109q-248 0 -368.5 109.5t-120.5 344.5v987h178v-987zM979 1886l41 -133q-12 -14 -31.5 -33.5t-72 -53.5t-91.5 -34q-51 0 -178 55.5t-158 55.5q-23 0 -63.5 -24.5 t-69.5 -49.5l-30 -24l-39 133q12 14 33.5 34.5t75 55.5t91.5 35q59 0 184.5 -54.5t149.5 -54.5q45 0 158 92z" />
<glyph unicode="&#x169;" horiz-adv-x="1144" d="M795 1022h172v-1022h-172v61q-156 -84 -281 -84q-197 0 -269.5 116t-72.5 396v533h172v-530q0 -201 40 -281t159 -80q51 0 113.5 18.5t101.5 34.5l37 19v819zM864 1487l39 -135q-96 -109 -184 -109q-51 0 -162 50t-141 50q-23 0 -61 -21.5t-64 -43.5l-29 -21l-39 132 q104 115 193 114q57 0 166.5 -49t134.5 -49q20 0 57 20.5t64 40.5z" />
<glyph unicode="&#x16a;" horiz-adv-x="1318" d="M342 436q0 -150 78 -218t233 -68q162 0 243 68.5t81 217.5v987h176v-987q0 -236 -122 -345t-378 -109q-248 0 -368.5 109.5t-120.5 344.5v987h178v-987zM332 1683v152h649v-152h-649z" />
<glyph unicode="&#x16b;" horiz-adv-x="1144" d="M795 1022h172v-1022h-172v61q-156 -84 -281 -84q-197 0 -269.5 116t-72.5 396v533h172v-530q0 -201 40 -281t159 -80q51 0 113.5 18.5t101.5 34.5l37 19v819zM266 1294v152h608v-152h-608z" />
<glyph unicode="&#x16c;" horiz-adv-x="1318" d="M342 436q0 -150 78 -218t233 -68q162 0 243 68.5t81 217.5v987h176v-987q0 -236 -122 -345t-378 -109q-248 0 -368.5 109.5t-120.5 344.5v987h178v-987zM328 1896h178q2 -59 46 -94t107 -35q66 0 109 35t45 94h178q-8 -125 -96 -200.5t-235.5 -75.5t-235.5 75.5 t-96 200.5z" />
<glyph unicode="&#x16d;" horiz-adv-x="1144" d="M795 1022h172v-1022h-172v61q-156 -84 -281 -84q-197 0 -269.5 116t-72.5 396v533h172v-530q0 -201 40 -281t159 -80q51 0 113.5 18.5t101.5 34.5l37 19v819zM231 1505h179q4 -66 46 -104.5t115.5 -38.5t115.5 39t46 104h178q-8 -133 -97 -215t-243 -82q-156 0 -244 82 t-96 215z" />
<glyph unicode="&#x16e;" horiz-adv-x="1318" d="M342 436q0 -150 78 -218t233 -68q162 0 243 68.5t81 217.5v987h176v-987q0 -236 -122 -345t-378 -109q-248 0 -368.5 109.5t-120.5 344.5v987h178v-987zM911 1729q0 -102 -71.5 -163t-180.5 -61q-111 0 -182 60.5t-71 163.5q0 104 71.5 163.5t182 59.5t181 -59.5 t70.5 -163.5zM545 1729q0 -96 114 -97q53 0 83 25.5t30 71t-29.5 72t-83 26.5t-84 -26.5t-30.5 -71.5z" />
<glyph unicode="&#x16f;" horiz-adv-x="1144" d="M795 1022h172v-1022h-172v61q-156 -84 -281 -84q-197 0 -269.5 116t-72.5 396v533h172v-530q0 -201 40 -281t159 -80q51 0 113.5 18.5t101.5 34.5l37 19v819zM362 1319q0 90 62.5 153.5t155.5 63.5q90 0 153.5 -63.5t63.5 -153.5q0 -92 -62.5 -154.5t-155 -62.5 t-155 61.5t-62.5 155.5zM485 1319q0 -41 28 -69.5t69 -28.5q39 0 65.5 28.5t26.5 69.5q0 39 -26.5 66.5t-65.5 27.5q-41 0 -69 -27.5t-28 -66.5z" />
<glyph unicode="&#x170;" horiz-adv-x="1318" d="M342 436q0 -150 78 -218t233 -68q162 0 243 68.5t81 217.5v987h176v-987q0 -236 -122 -345t-378 -109q-248 0 -368.5 109.5t-120.5 344.5v987h178v-987zM717 1614l264 291l143 -76l-276 -287zM297 1614l266 293l144 -78l-277 -285z" />
<glyph unicode="&#x171;" horiz-adv-x="1144" d="M795 1022h172v-1022h-172v61q-156 -84 -281 -84q-197 0 -269.5 116t-72.5 396v533h172v-530q0 -201 40 -281t159 -80q51 0 113.5 18.5t101.5 34.5l37 19v819zM639 1280l287 301l129 -96l-295 -299zM240 1280l286 299l131 -94l-295 -299z" />
<glyph unicode="&#x172;" horiz-adv-x="1318" d="M877 -264l18 -144q-98 -18 -170 -18q-86 0 -140.5 49t-54.5 133q0 102 129 226h-6q-248 0 -368.5 109.5t-120.5 344.5v987h178v-987q0 -150 78 -218t233 -68q162 0 243 68.5t81 217.5v987h176v-987q0 -186 -76 -292.5t-231 -143.5q-2 0 -35 -34t-65.5 -83t-32.5 -80 q0 -33 18.5 -55t48.5 -22z" />
<glyph unicode="&#x173;" horiz-adv-x="1144" d="M977 -264l18 -144q-98 -18 -170 -18q-86 0 -140 49t-54 133q0 53 39 114.5t70.5 93.5t54.5 48v49q-156 -84 -281 -84q-197 0 -269.5 116t-72.5 396v533h172v-530q0 -201 40 -281t159 -80q51 0 113.5 18.5t101.5 34.5l37 19v819h172v-1022h-21q-6 -4 -36.5 -37t-63.5 -81 t-33 -79q0 -33 18.5 -55t49.5 -22z" />
<glyph unicode="&#x174;" horiz-adv-x="1855" d="M80 1423h184l248 -1261h55l260 1241h201l266 -1241h54l243 1261h185l-291 -1423h-318l-239 1167l-234 -1167h-319zM578 1626l270 281h158l270 -281h-199l-149 141l-148 -141h-202z" />
<glyph unicode="&#x175;" horiz-adv-x="1546" d="M55 1022h172l189 -866h49l217 848h182l217 -848h47l191 866h172l-231 -1022h-299l-189 772l-190 -772h-297zM444 1208l258 312h140l260 -312h-191l-137 164l-139 -164h-191z" />
<glyph unicode="&#x176;" horiz-adv-x="1136" d="M659 610v-610h-176v610l-438 813h199l325 -624l322 624h201zM219 1626l270 281h158l271 -281h-199l-150 141l-147 -141h-203z" />
<glyph unicode="&#x177;" horiz-adv-x="987" d="M53 1022h172l238 -856h59l240 856h172l-410 -1473h-172l127 451h-147zM166 1208l258 312h139l260 -312h-190l-137 164l-140 -164h-190z" />
<glyph unicode="&#x178;" horiz-adv-x="1136" d="M659 610v-610h-176v610l-438 813h199l325 -624l322 624h201zM285 1669v199h168v-199h-168zM713 1669v199h168v-199h-168z" />
<glyph unicode="&#x179;" horiz-adv-x="1167" d="M133 1255v168h901v-204l-688 -1016v-37h688v-168h-901v203l686 1016v38h-686zM322 1741l460 192l62 -161l-465 -175z" />
<glyph unicode="&#x17a;" horiz-adv-x="980" d="M121 868v156h737l2 -156l-536 -714h536v-154h-737l-2 154l536 714h-536zM240 1352l460 192l62 -162l-465 -174z" />
<glyph unicode="&#x17b;" horiz-adv-x="1167" d="M133 1255v168h901v-204l-688 -1016v-37h688v-168h-901v203l686 1016v38h-686zM496 1661v194h174v-194h-174z" />
<glyph unicode="&#x17c;" horiz-adv-x="980" d="M121 868v156h737l2 -156l-536 -714h536v-154h-737l-2 154l536 714h-536zM401 1229v194h174v-194h-174z" />
<glyph unicode="&#x17d;" horiz-adv-x="1167" d="M133 1255v168h901v-204l-688 -1016v-37h688v-168h-901v203l686 1016v38h-686zM940 1903l-270 -281h-156l-272 281h202l148 -146l147 146h201z" />
<glyph unicode="&#x17e;" horiz-adv-x="980" d="M121 868v156h737l2 -156l-536 -714h536v-154h-737l-2 154l536 714h-536zM403 1208l-256 312h191l139 -164l137 164h191l-258 -312h-144z" />
<glyph unicode="&#x17f;" horiz-adv-x="1003" d="M848 1004l-4 -144q-231 31 -350 31q-199 0 -199 -146q0 -61 47 -91.5t184 -53.5q201 -33 278 -94.5t77 -204.5q0 -324 -392 -324q-59 0 -148 10.5t-148 20.5l-62 10l8 146q231 -33 336 -33q121 0 176.5 37t55.5 127q0 70 -44.5 97.5t-187.5 51.5q-190 35 -273 95.5 t-83 199.5q0 158 105.5 231.5t258.5 73.5q68 0 159 -10t149 -20z" />
<glyph unicode="&#x189;" horiz-adv-x="1308" d="M43 625v170h143v628h484q152 0 257 -49t163.5 -144t84 -215t25.5 -280q0 -129 -14.5 -234.5t-51 -200.5t-96 -159.5t-152.5 -102.5t-216 -38h-484v625h-143zM1016 735q0 117 -15.5 205t-52.5 163t-106.5 114.5t-171.5 39.5h-308v-462h306v-170h-306v-461h308 q346 0 346 571z" />
<glyph unicode="&#x192;" d="M610 -135q0 -201 -80.5 -284t-238.5 -83l-148 19l2 137q88 -6 146 -6q145 0 145 217v883h-217v155h217v101q0 233 62.5 322t218.5 89q168 0 250 -18l-2 -144q-147 6 -211 7q-143 0 -144 -222v-135h330v-155h-330v-883z" />
<glyph unicode="&#x1a0;" horiz-adv-x="1331" d="M727 962l96 481h189l-115 -481h-170zM665.5 143q206.5 0 287.5 128t81 431q0 299 -84 438.5t-284 139.5q-203 0 -286 -138t-83 -440q0 -299 81 -429t287.5 -130zM666 -23q-299 0 -426 175.5t-127 550t128 558t425 183.5t425 -183.5t128 -558.5q0 -379 -126 -552 t-427 -173z" />
<glyph unicode="&#x1a1;" horiz-adv-x="1081" d="M604 563l96 481h189l-115 -481h-170zM543 1044q227 0 328.5 -135t101.5 -389q0 -266 -96.5 -404.5t-333.5 -138.5q-244 0 -340.5 135.5t-96.5 409.5q0 260 99.5 391t337.5 131zM543 129q150 0 202 97.5t52 293.5q0 186 -58.5 279.5t-195.5 93.5q-143 0 -200.5 -89 t-57.5 -282q0 -205 52 -299t206 -94z" />
<glyph unicode="&#x1af;" horiz-adv-x="1318" d="M1215 962l96 481h189l-115 -481h-170zM342 436q0 -150 78 -218t233 -68q162 0 243 68.5t81 217.5v987h176v-987q0 -236 -122 -345t-378 -109q-248 0 -368.5 109.5t-120.5 344.5v987h178v-987z" />
<glyph unicode="&#x1b0;" horiz-adv-x="1144" d="M1028 563l96 481h189l-115 -481h-170zM795 1022h172v-1022h-172v61q-156 -84 -281 -84q-197 0 -269.5 116t-72.5 396v533h172v-530q0 -201 40 -281t159 -80q51 0 113.5 18.5t101.5 34.5l37 19v819z" />
<glyph unicode="&#x1c0;" d="M442 -512v2048h179v-2048h-179z" />
<glyph unicode="&#x1c1;" horiz-adv-x="2170" d="M1527 -512v2048h179v-2048h-179zM442 -512v2048h179v-2048h-179z" />
<glyph unicode="&#x1c4;" horiz-adv-x="2476" d="M1442 1255v168h901v-204l-688 -1016v-37h688v-168h-901v203l686 1016v38h-686zM2249 1903l-270 -281h-156l-272 281h202l148 -146l147 146h201zM670 0h-484v1423h484q152 0 257 -49t163.5 -144t84 -215t25.5 -280q0 -129 -14.5 -234.5t-51 -200.5t-96 -159.5 t-152.5 -102.5t-216 -38zM1016 735q0 117 -15.5 205t-52.5 163t-106.5 114.5t-171.5 39.5h-308v-1093h308q346 0 346 571z" />
<glyph unicode="&#x1c5;" horiz-adv-x="2289" d="M1430 868v156h737l2 -156l-536 -714h536v-154h-737l-2 154l536 714h-536zM1712 1208l-256 312h191l139 -164l137 164h191l-258 -312h-144zM670 0h-484v1423h484q152 0 257 -49t163.5 -144t84 -215t25.5 -280q0 -129 -14.5 -234.5t-51 -200.5t-96 -159.5t-152.5 -102.5 t-216 -38zM1016 735q0 117 -15.5 205t-52.5 163t-106.5 114.5t-171.5 39.5h-308v-1093h308q346 0 346 571z" />
<glyph unicode="&#x1c6;" horiz-adv-x="2091" d="M1231 868v156h737l2 -156l-536 -714h536v-154h-737l-2 154l536 714h-536zM1513 1208l-256 312h191l139 -164l137 164h191l-258 -312h-144zM932 1464v-1464h-172v57q-145 -78 -281 -77q-367 0 -366 530q0 535 422 534q51 0 225 -26v446h172zM504 135q51 0 114.5 16.5 t102.5 32.5l39 17v669q-133 20 -215 21q-258 0 -258 -385q0 -371 217 -371z" />
<glyph unicode="&#x1c7;" horiz-adv-x="1671" d="M1497 1423l2 -1198q0 -225 -79 -297.5t-306 -72.5v157q125 2 167 45t42 181v1185h174zM946 0h-760v1423h176v-1257h584v-166z" />
<glyph unicode="&#x1c8;" horiz-adv-x="1554" d="M1220 12v1010h172v-1012q0 -195 -63.5 -288t-270.5 -199l-75 145q152 86 194.5 147.5t42.5 196.5zM1220 1229v194h172v-194h-172zM946 0h-760v1423h176v-1257h584v-166z" />
<glyph unicode="&#x1c9;" horiz-adv-x="1019" d="M686 12v1010h172v-1012q0 -195 -63.5 -288t-270.5 -199l-75 145q152 86 194.5 147.5t42.5 196.5zM686 1229v194h172v-194h-172zM166 0v1464h172v-1464h-172z" />
<glyph unicode="&#x1ca;" horiz-adv-x="2054" d="M1880 1423l2 -1198q0 -225 -79 -297.5t-306 -72.5v157q125 2 167 45t42 181v1185h174zM186 0v1423h320l510 -1241h39v1241h178v-1423h-311l-519 1241h-38v-1241h-179z" />
<glyph unicode="&#x1cb;" horiz-adv-x="1937" d="M1603 12v1010h172v-1012q0 -195 -63.5 -288t-270.5 -199l-75 145q152 86 194.5 147.5t42.5 196.5zM1603 1229v194h172v-194h-172zM186 0v1423h320l510 -1241h39v1241h178v-1423h-311l-519 1241h-38v-1241h-179z" />
<glyph unicode="&#x1cc;" horiz-adv-x="1677" d="M1343 12v1010h172v-1012q0 -195 -63.5 -288t-270.5 -199l-75 145q152 86 194.5 147.5t42.5 196.5zM1343 1229v194h172v-194h-172zM360 0h-174v1022h174v-64q154 86 291 86q197 0 269.5 -120.5t72.5 -391.5v-532h-172v530q0 190 -39 273.5t-159 83.5q-55 0 -121 -17.5 t-105 -33.5l-37 -19v-817z" />
<glyph unicode="&#x1cd;" horiz-adv-x="1236" d="M971 1848l-271 -281h-155l-273 281h203l148 -146l147 146h201zM66 0l376 1423h357l372 -1423h-178l-100 342h-553l-96 -342h-178zM580 1266l-201 -760h477l-197 760h-79z" />
<glyph unicode="&#x1ce;" horiz-adv-x="1071" d="M492 1167l-256 312h190l140 -164l137 164h190l-258 -312h-143zM889 709v-484q12 -49 38.5 -69.5t78.5 -28.5l-11 -147q-166 0 -250 77q-160 -80 -335 -80q-131 0 -214 88.5t-83 229.5q0 281 319 307l285 27v82q0 174 -160 174l-387 -27l-6 146q244 41 401 40 q162 0 243 -80.5t81 -254.5zM717 496l-266 -21q-162 -12 -162 -176q0 -76 39 -125t102.5 -49t135 14.5t110.5 28.5l41 14v314z" />
<glyph unicode="&#x1cf;" horiz-adv-x="516" d="M606 1848l-271 -281h-155l-273 281h203l148 -146l147 146h201zM168 0v1423h178v-1423h-178z" />
<glyph unicode="&#x1d0;" horiz-adv-x="540" d="M197 1167l-256 312h190l140 -164l137 164h190l-258 -312h-143zM184 0v1022h172v-1022h-172z" />
<glyph unicode="&#x1d1;" horiz-adv-x="1331" d="M1016 1848l-271 -281h-155l-273 281h203l148 -146l147 146h201zM665.5 143q206.5 0 287.5 128t81 431q0 299 -84 438.5t-284 139.5q-203 0 -286 -138t-83 -440q0 -299 81 -429t287.5 -130zM666 -23q-299 0 -426 175.5t-127 550t128 558t425 183.5t425 -183.5t128 -558.5 q0 -379 -126 -552t-427 -173z" />
<glyph unicode="&#x1d2;" horiz-adv-x="1081" d="M471 1167l-256 312h190l140 -164l137 164h190l-258 -312h-143zM543 1044q227 0 328.5 -135t101.5 -389q0 -266 -96.5 -404.5t-333.5 -138.5q-244 0 -340.5 135.5t-96.5 409.5q0 260 99.5 391t337.5 131zM543 129q150 0 202 97.5t52 293.5q0 186 -58.5 279.5t-195.5 93.5 q-143 0 -200.5 -89t-57.5 -282q0 -205 52 -299t206 -94z" />
<glyph unicode="&#x1d3;" horiz-adv-x="1318" d="M1008 1848l-271 -281h-155l-273 281h203l148 -146l147 146h201zM342 436q0 -150 78 -218t233 -68q162 0 243 68.5t81 217.5v987h176v-987q0 -236 -122 -345t-378 -109q-248 0 -368.5 109.5t-120.5 344.5v987h178v-987z" />
<glyph unicode="&#x1d4;" horiz-adv-x="1144" d="M496 1167l-256 312h190l140 -164l137 164h190l-258 -312h-143zM795 1022h172v-1022h-172v61q-156 -84 -281 -84q-197 0 -269.5 116t-72.5 396v533h172v-530q0 -201 40 -281t159 -80q51 0 113.5 18.5t101.5 34.5l37 19v819z" />
<glyph unicode="&#x1d5;" horiz-adv-x="1318" d="M344 2005v152h650v-152h-650zM342 436q0 -150 78 -218t233 -68q162 0 243 68.5t81 217.5v987h176v-987q0 -236 -122 -345t-378 -109q-248 0 -368.5 109.5t-120.5 344.5v987h178v-987zM371 1683v199h168v-199h-168zM799 1683v199h168v-199h-168z" />
<glyph unicode="&#x1d6;" horiz-adv-x="1144" d="M275 1595v152h608v-152h-608zM795 1022h172v-1022h-172v61q-156 -84 -281 -84q-197 0 -269.5 116t-72.5 396v533h172v-530q0 -201 40 -281t159 -80q51 0 113.5 18.5t101.5 34.5l37 19v819zM287 1274v199h168v-199h-168zM702 1274v199h168v-199h-168z" />
<glyph unicode="&#x1d7;" horiz-adv-x="1318" d="M613 2149l461 192l61 -161l-465 -175zM342 436q0 -150 78 -218t233 -68q162 0 243 68.5t81 217.5v987h176v-987q0 -236 -122 -345t-378 -109q-248 0 -368.5 109.5t-120.5 344.5v987h178v-987zM371 1683v199h168v-199h-168zM799 1683v199h168v-199h-168z" />
<glyph unicode="&#x1d8;" horiz-adv-x="1144" d="M523 1739l461 192l61 -162l-465 -174zM795 1022h172v-1022h-172v61q-156 -84 -281 -84q-197 0 -269.5 116t-72.5 396v533h172v-530q0 -201 40 -281t159 -80q51 0 113.5 18.5t101.5 34.5l37 19v819zM287 1274v199h168v-199h-168zM702 1274v199h168v-199h-168z" />
<glyph unicode="&#x1d9;" horiz-adv-x="1318" d="M1018 2286l-271 -281h-155l-273 281h203l148 -146l147 146h201zM342 436q0 -150 78 -218t233 -68q162 0 243 68.5t81 217.5v987h176v-987q0 -236 -122 -345t-378 -109q-248 0 -368.5 109.5t-120.5 344.5v987h178v-987zM371 1683v199h168v-199h-168zM799 1683v199h168 v-199h-168z" />
<glyph unicode="&#x1da;" horiz-adv-x="1144" d="M506 1595l-256 312h190l140 -164l137 164h190l-258 -312h-143zM795 1022h172v-1022h-172v61q-156 -84 -281 -84q-197 0 -269.5 116t-72.5 396v533h172v-530q0 -201 40 -281t159 -80q51 0 113.5 18.5t101.5 34.5l37 19v819zM287 1274v199h168v-199h-168zM702 1274v199h168 v-199h-168z" />
<glyph unicode="&#x1db;" horiz-adv-x="1318" d="M264 2341l461 -192l-57 -144l-465 174zM342 436q0 -150 78 -218t233 -68q162 0 243 68.5t81 217.5v987h176v-987q0 -236 -122 -345t-378 -109q-248 0 -368.5 109.5t-120.5 344.5v987h178v-987zM371 1683v199h168v-199h-168zM799 1683v199h168v-199h-168z" />
<glyph unicode="&#x1dc;" horiz-adv-x="1144" d="M174 1931l461 -192l-57 -144l-465 174zM795 1022h172v-1022h-172v61q-156 -84 -281 -84q-197 0 -269.5 116t-72.5 396v533h172v-530q0 -201 40 -281t159 -80q51 0 113.5 18.5t101.5 34.5l37 19v819zM287 1274v199h168v-199h-168zM702 1274v199h168v-199h-168z" />
<glyph unicode="&#x1de;" horiz-adv-x="1236" d="M297 1992v152h650v-152h-650zM66 0l376 1423h357l372 -1423h-178l-100 342h-553l-96 -342h-178zM580 1266l-201 -760h477l-197 760h-79zM324 1671v199h168v-199h-168zM752 1671v199h168v-199h-168z" />
<glyph unicode="&#x1df;" horiz-adv-x="1089" d="M248 1595v152h608v-152h-608zM889 709v-484q12 -49 38.5 -69.5t78.5 -28.5l-11 -147q-166 0 -250 77q-160 -80 -335 -80q-131 0 -214 88.5t-83 229.5q0 281 319 307l285 27v82q0 174 -160 174l-387 -27l-6 146q244 41 401 40q162 0 243 -80.5t81 -254.5zM717 496 l-266 -21q-162 -12 -162 -176q0 -76 39 -125t102.5 -49t135 14.5t110.5 28.5l41 14v314zM260 1274v199h168v-199h-168zM676 1274v199h168v-199h-168z" />
<glyph unicode="&#x1e2;" horiz-adv-x="1695" d="M673 1567v152h650v-152h-650zM731 0v342h-418l-94 -342h-178l377 1423h1161v-166h-672v-462h549v-158h-549v-471h672v-166h-848zM553 1257l-201 -751h379v751h-178z" />
<glyph unicode="&#x1e3;" horiz-adv-x="1695" d="M567 1167v152h608v-152h-608zM1161 131q66 0 158 4t151 8l62 7l4 -134q-207 -39 -387 -39q-207 0 -309 109l-62 -27q-174 -82 -366 -82q-133 0 -213 84t-80 234q0 160 85 225.5t273 85.5l256 23v82q0 174 -160 174q-68 0 -165 -6.5t-162 -12.5l-64 -6l-6 152 q244 33 402 32q207 0 276 -139q98 139 309 139q410 0 410 -475l-10 -129h-656q2 -154 60.5 -231.5t193.5 -77.5zM434 125q147 0 328 68q-31 100 -31 301l-276 -23q-160 -12 -160 -172q0 -82 39 -128t100 -46zM907 575h492q0 168 -56.5 245t-183.5 77q-252 0 -252 -322z" />
<glyph unicode="&#x1e6;" horiz-adv-x="1241" d="M1000 1848l-271 -281h-155l-273 281h203l148 -146l147 146h201zM719 584v155h389v-716q-291 -45 -453 -46q-301 0 -421.5 184.5t-120.5 549.5q0 371 119.5 552t416.5 181q205 0 459 -49l-8 -158q-252 39 -428 39q-217 0 -296 -133t-79 -432t77 -432.5t294 -133.5 q29 0 66.5 2.5t70.5 6.5t61.5 8t46 6t19.5 2v414h-213z" />
<glyph unicode="&#x1e7;" horiz-adv-x="1067" d="M422 1167l-256 312h190l140 -164l137 164h190l-258 -312h-143zM541 -492q-217 0 -329 74t-112 242q0 78 40 136t120 120q-59 41 -59 141l71 166q-158 94 -157 305q0 168 107.5 260t273.5 92q41 0 88 -6t73 -14l27 -6l313 6v-143h-180q63 -76 64 -189q0 -348 -392 -348 q-47 0 -88 8q-35 -86 -34 -112q0 -57 35.5 -72.5t191.5 -15.5q217 0 309 -62.5t92 -230.5q0 -174 -123.5 -262.5t-330.5 -88.5zM580 2l-203 10q-55 -47 -80 -84t-25 -88q0 -178 271 -178q276 0 276 188q0 92 -53 122t-186 30zM489 485q219 0 219.5 207t-214.5 207 q-100 0 -152.5 -54t-52.5 -153q-1 -207 200 -207z" />
<glyph unicode="&#x1e8;" horiz-adv-x="1216" d="M1000 1848l-271 -281h-155l-273 281h203l148 -146l147 146h201zM924 0l-353 618l-209 -10v-608h-176v1423h176v-653l205 10l340 643h207l-389 -712l410 -711h-211z" />
<glyph unicode="&#x1e9;" horiz-adv-x="1024" d="M201 1587l-256 312h190l140 -164l137 164h190l-258 -312h-143zM360 0h-174v1464h174v-850l132 9l284 399h195l-324 -473l332 -549h-197l-286 457l-136 -11v-446z" />
<glyph unicode="&#x1ea;" horiz-adv-x="1331" d="M776 -289l19 -144q-98 -18 -170 -18q-86 0 -140.5 49t-54.5 133q0 115 154 250l14 10l150 -14q-135 -131 -135 -199q0 -33 18 -55t49 -22zM665.5 143q206.5 0 287.5 128t81 431q0 299 -84 438.5t-284 139.5q-203 0 -286 -138t-83 -440q0 -299 81 -429t287.5 -130z M666 -23q-299 0 -426 175.5t-127 550t128 558t425 183.5t425 -183.5t128 -558.5q0 -379 -126 -552t-427 -173z" />
<glyph unicode="&#x1eb;" horiz-adv-x="1081" d="M653 -289l19 -144q-98 -18 -170 -18q-86 0 -140.5 49t-54.5 133q0 115 154 250l14 10l150 -14q-135 -131 -135 -199q0 -33 18 -55t49 -22zM543 1044q227 0 328.5 -135t101.5 -389q0 -266 -96.5 -404.5t-333.5 -138.5q-244 0 -340.5 135.5t-96.5 409.5q0 260 99.5 391 t337.5 131zM543 129q150 0 202 97.5t52 293.5q0 186 -58.5 279.5t-195.5 93.5q-143 0 -200.5 -89t-57.5 -282q0 -205 52 -299t206 -94z" />
<glyph unicode="&#x1ec;" horiz-adv-x="1331" d="M342 1567v152h650v-152h-650zM776 -289l19 -144q-98 -18 -170 -18q-86 0 -140.5 49t-54.5 133q0 115 154 250l14 10l150 -14q-135 -131 -135 -199q0 -33 18 -55t49 -22zM665.5 143q206.5 0 287.5 128t81 431q0 299 -84 438.5t-284 139.5q-203 0 -286 -138t-83 -440 q0 -299 81 -429t287.5 -130zM666 -23q-299 0 -426 175.5t-127 550t128 558t425 183.5t425 -183.5t128 -558.5q0 -379 -126 -552t-427 -173z" />
<glyph unicode="&#x1ed;" horiz-adv-x="1081" d="M240 1167v152h608v-152h-608zM653 -289l19 -144q-98 -18 -170 -18q-86 0 -140.5 49t-54.5 133q0 115 154 250l14 10l150 -14q-135 -131 -135 -199q0 -33 18 -55t49 -22zM543 1044q227 0 328.5 -135t101.5 -389q0 -266 -96.5 -404.5t-333.5 -138.5q-244 0 -340.5 135.5 t-96.5 409.5q0 260 99.5 391t337.5 131zM543 129q150 0 202 97.5t52 293.5q0 186 -58.5 279.5t-195.5 93.5q-143 0 -200.5 -89t-57.5 -282q0 -205 52 -299t206 -94z" />
<glyph unicode="&#x1f0;" horiz-adv-x="516" d="M197 1167l-256 312h190l140 -164l137 164h190l-258 -312h-143zM182 12v1010h172v-1012q0 -195 -63.5 -288t-270.5 -199l-75 145q152 86 194.5 147.5t42.5 196.5z" />
<glyph unicode="&#x1f1;" horiz-adv-x="2476" d="M1442 1255v168h901v-204l-688 -1016v-37h688v-168h-901v203l686 1016v38h-686zM670 0h-484v1423h484q152 0 257 -49t163.5 -144t84 -215t25.5 -280q0 -129 -14.5 -234.5t-51 -200.5t-96 -159.5t-152.5 -102.5t-216 -38zM1016 735q0 117 -15.5 205t-52.5 163t-106.5 114.5 t-171.5 39.5h-308v-1093h308q346 0 346 571z" />
<glyph unicode="&#x1f2;" horiz-adv-x="2289" d="M1430 868v156h737l2 -156l-536 -714h536v-154h-737l-2 154l536 714h-536zM670 0h-484v1423h484q152 0 257 -49t163.5 -144t84 -215t25.5 -280q0 -129 -14.5 -234.5t-51 -200.5t-96 -159.5t-152.5 -102.5t-216 -38zM1016 735q0 117 -15.5 205t-52.5 163t-106.5 114.5 t-171.5 39.5h-308v-1093h308q346 0 346 571z" />
<glyph unicode="&#x1f3;" horiz-adv-x="2091" d="M1231 868v156h737l2 -156l-536 -714h536v-154h-737l-2 154l536 714h-536zM932 1464v-1464h-172v57q-145 -78 -281 -77q-367 0 -366 530q0 535 422 534q51 0 225 -26v446h172zM504 135q51 0 114.5 16.5t102.5 32.5l39 17v669q-133 20 -215 21q-258 0 -258 -385 q0 -371 217 -371z" />
<glyph unicode="&#x1f4;" horiz-adv-x="1241" d="M592 1710l461 192l61 -161l-465 -175zM719 584v155h389v-716q-291 -45 -453 -46q-301 0 -421.5 184.5t-120.5 549.5q0 371 119.5 552t416.5 181q205 0 459 -49l-8 -158q-252 39 -428 39q-217 0 -296 -133t-79 -432t77 -432.5t294 -133.5q29 0 66.5 2.5t70.5 6.5t61.5 8 t46 6t19.5 2v414h-213z" />
<glyph unicode="&#x1f5;" horiz-adv-x="1067" d="M439 1311l461 192l61 -162l-465 -174zM541 -492q-217 0 -329 74t-112 242q0 78 40 136t120 120q-59 41 -59 141l71 166q-158 94 -157 305q0 168 107.5 260t273.5 92q41 0 88 -6t73 -14l27 -6l313 6v-143h-180q63 -76 64 -189q0 -348 -392 -348q-47 0 -88 8 q-35 -86 -34 -112q0 -57 35.5 -72.5t191.5 -15.5q217 0 309 -62.5t92 -230.5q0 -174 -123.5 -262.5t-330.5 -88.5zM580 2l-203 10q-55 -47 -80 -84t-25 -88q0 -178 271 -178q276 0 276 188q0 92 -53 122t-186 30zM489 485q219 0 219.5 207t-214.5 207q-100 0 -152.5 -54 t-52.5 -153q-1 -207 200 -207z" />
<glyph unicode="&#x1f8;" horiz-adv-x="1421" d="M305 1903l461 -192l-57 -144l-465 174zM186 0v1423h320l510 -1241h39v1241h178v-1423h-311l-519 1241h-38v-1241h-179z" />
<glyph unicode="&#x1f9;" horiz-adv-x="1161" d="M186 1503l461 -192l-57 -144l-465 174zM360 0h-174v1022h174v-64q154 86 291 86q197 0 269.5 -120.5t72.5 -391.5v-532h-172v530q0 190 -39 273.5t-159 83.5q-55 0 -121 -17.5t-105 -33.5l-37 -19v-817z" />
<glyph unicode="&#x1fa;" horiz-adv-x="1236" d="M870 1516q0 -88 -57 -150l358 -1366h-178l-100 342h-553l-96 -342h-178l360 1362q-61 57 -61 154q0 104 71.5 163.5t182 59.5t181 -59.5t70.5 -163.5zM580 1266l-201 -760h477l-197 760h-79zM346 1935l461 193l61 -162l-465 -174zM504 1516q0 -76 74 -93h79q74 16 74 93 q0 45 -29.5 71.5t-83 26.5t-84 -26.5t-30.5 -71.5z" />
<glyph unicode="&#x1fb;" horiz-adv-x="1071" d="M889 709v-484q12 -49 38.5 -69.5t78.5 -28.5l-11 -147q-166 0 -250 77q-160 -80 -335 -80q-131 0 -214 88.5t-83 229.5q0 281 319 307l285 27v82q0 174 -160 174l-387 -27l-6 146q244 41 401 40q162 0 243 -80.5t81 -254.5zM272 1526l461 192l62 -162l-144 -55 q100 -61 101 -182q0 -92 -62.5 -154.5t-155 -62.5t-155 61.5t-62.5 155.5q0 39 11 67zM717 496l-266 -21q-162 -12 -162 -176q0 -76 39 -125t102.5 -49t135 14.5t110.5 28.5l41 14v314zM440 1319q0 -41 28 -69.5t69 -28.5q39 0 65.5 28.5t26.5 69.5q0 39 -27 66.5t-65 27.5 q-41 0 -69 -27.5t-28 -66.5z" />
<glyph unicode="&#x1fc;" horiz-adv-x="1695" d="M731 0v342h-418l-94 -342h-178l377 1423h1161v-166h-672v-462h549v-158h-549v-471h672v-166h-848zM553 1257l-201 -751h379v751h-178zM586 1741l461 192l61 -161l-465 -175z" />
<glyph unicode="&#x1fd;" horiz-adv-x="1695" d="M1161 131q66 0 158 4t151 8l62 7l4 -134q-207 -39 -387 -39q-207 0 -309 109l-62 -27q-174 -82 -366 -82q-133 0 -213 84t-80 234q0 160 85 225.5t273 85.5l256 23v82q0 174 -160 174q-68 0 -165 -6.5t-162 -12.5l-64 -6l-6 152q244 33 402 32q207 0 276 -139 q98 139 309 139q410 0 410 -475l-10 -129h-656q2 -154 60.5 -231.5t193.5 -77.5zM434 125q147 0 328 68q-31 100 -31 301l-276 -23q-160 -12 -160 -172q0 -82 39 -128t100 -46zM907 575h492q0 168 -56.5 245t-183.5 77q-252 0 -252 -322zM606 1352l461 192l61 -162 l-464 -174z" />
<glyph unicode="&#x1fe;" horiz-adv-x="1343" d="M387 1741l461 192l61 -161l-465 -175zM665.5 143q206.5 0 287.5 128t81 431q0 299 -84 438.5t-284 139.5q-203 0 -286 -138t-83 -440q0 -299 81 -429t287.5 -130zM666 -23q-299 0 -426 175.5t-127 550t128 558t425 183.5t425 -183.5t128 -558.5q0 -379 -126 -552 t-427 -173z" />
<glyph unicode="&#x1ff;" horiz-adv-x="1081" d="M543 1044q80 0 143 -18l-8 -18l-10 -27l-41 -100q-37 12 -84 12q-143 0 -200.5 -89t-57.5 -282q0 -240 69 -321l-45 -113l-18 -27l-8 -20q-176 111 -177 481q0 260 99.5 391t337.5 131zM543 129q150 0 202 97.5t52 293.5q0 209 -74 297l51 123l14 27l7 14 q178 -119 178 -461q0 -266 -96.5 -404.5t-333.5 -138.5q-86 0 -154 19l14 31l9 26l34 88q44 -12 97 -12zM354 201q35 -45 92 -60l277 676q-37 45 -96 64zM279 1352l460 192l62 -162l-465 -174zM188 -186l113 -41l88 223q-55 10 -106 45zM772 1241l-86 -215q61 -14 109 -45 l90 217z" />
<glyph unicode="&#x202;" horiz-adv-x="1236" d="M281 1567h178q4 66 46 104.5t115.5 38.5t115.5 -39t46 -104h179q-8 133 -97.5 215t-242.5 82q-156 0 -244 -82t-96 -215zM66 0l376 1423h357l372 -1423h-178l-100 342h-553l-96 -342h-178zM580 1266l-201 -760h477l-197 760h-79z" />
<glyph unicode="&#x203;" horiz-adv-x="1071" d="M226 1168h178q4 66 46 104.5t115.5 38.5t115.5 -39t46 -104h179q-8 133 -97.5 215t-242.5 82q-156 0 -244 -82t-96 -215zM889 709v-484q12 -49 38.5 -69.5t78.5 -28.5l-11 -147q-166 0 -250 77q-160 -80 -335 -80q-131 0 -214 88.5t-83 229.5q0 281 319 307l285 27v82 q0 174 -160 174l-387 -27l-6 146q244 41 401 40q162 0 243 -80.5t81 -254.5zM717 496l-266 -21q-162 -12 -162 -176q0 -76 39 -125t102.5 -49t135 14.5t110.5 28.5l41 14v314z" />
<glyph unicode="&#x206;" horiz-adv-x="1150" d="M271 1567h178q4 66 46 104.5t115.5 38.5t115.5 -39t46 -104h179q-8 133 -97.5 215t-242.5 82q-156 0 -244 -82t-96 -215zM186 0v1423h848v-166h-672v-460h549v-162h-549v-471h672v-164h-848z" />
<glyph unicode="&#x207;" horiz-adv-x="1038" d="M191 1168h178q4 66 46 104.5t115.5 38.5t115.5 -39t46 -104h179q-8 133 -97.5 215t-242.5 82q-156 0 -244 -82t-96 -215zM532 131q66 0 157 4t151 8l57 7l4 -134q-203 -39 -381 -39q-221 0 -317.5 134.5t-96.5 392.5q0 266 111 403t313 137q408 0 408 -475l-10 -129h-645 q-1 -309 249 -309zM281 575h483q0 166 -56.5 244t-177.5 78q-247 0 -249 -322z" />
<glyph unicode="&#x20a;" horiz-adv-x="516" d="M-82 1567h178q4 66 46 104.5t115.5 38.5t115.5 -39t46 -104h179q-8 133 -97.5 215t-242.5 82q-156 0 -244 -82t-96 -215zM168 0v1423h178v-1423h-178z" />
<glyph unicode="&#x20b;" horiz-adv-x="540" d="M-69 1168h178q4 66 46 104.5t115.5 38.5t115.5 -39t46 -104h179q-8 133 -97.5 215t-242.5 82q-156 0 -244 -82t-96 -215zM184 0v1022h172v-1022h-172z" />
<glyph unicode="&#x20e;" horiz-adv-x="1331" d="M326 1567h178q4 66 46 104.5t115.5 38.5t115.5 -39t46 -104h179q-8 133 -97.5 215t-242.5 82q-156 0 -244 -82t-96 -215zM665.5 143q206.5 0 287.5 128t81 431q0 299 -84 438.5t-284 139.5q-203 0 -286 -138t-83 -440q0 -299 81 -429t287.5 -130zM666 -23 q-299 0 -426 175.5t-127 550t128 558t425 183.5t425 -183.5t128 -558.5q0 -379 -126 -552t-427 -173z" />
<glyph unicode="&#x20f;" horiz-adv-x="1081" d="M203 1168h178q4 66 46 104.5t115.5 38.5t115.5 -39t46 -104h179q-8 133 -97.5 215t-242.5 82q-156 0 -244 -82t-96 -215zM543 1044q227 0 328.5 -135t101.5 -389q0 -266 -96.5 -404.5t-333.5 -138.5q-244 0 -340.5 135.5t-96.5 409.5q0 260 99.5 391t337.5 131zM543 129 q150 0 202 97.5t52 293.5q0 186 -58.5 279.5t-195.5 93.5q-143 0 -200.5 -89t-57.5 -282q0 -205 52 -299t206 -94z" />
<glyph unicode="&#x212;" horiz-adv-x="1271" d="M99 1567h178q4 66 46 104.5t115.5 38.5t115.5 -39t46 -104h179q-8 133 -97.5 215t-242.5 82q-156 0 -244 -82t-96 -215zM725 530l-47 -2h-316v-528h-176v1423h506q459 0 459 -440q0 -326 -250 -412l260 -571h-196zM967 981q0 133 -72 204.5t-203 71.5h-330v-567h332 q139 0 206 80t67 211z" />
<glyph unicode="&#x213;" horiz-adv-x="731" d="M82 1168h178q4 66 46 104.5t115.5 38.5t115.5 -39t46 -104h179q-8 133 -97.5 215t-242.5 82q-156 0 -244 -82t-96 -215zM172 0v1022h172v-127q147 113 330 149v-182q-82 -16 -165 -48t-124 -56l-41 -23v-735h-172z" />
<glyph unicode="&#x216;" horiz-adv-x="1318" d="M320 1567h178q4 66 46 104.5t115.5 38.5t115.5 -39t46 -104h179q-8 133 -97.5 215t-242.5 82q-156 0 -244 -82t-96 -215zM342 436q0 -150 78 -218t233 -68q162 0 243 68.5t81 217.5v987h176v-987q0 -236 -122 -345t-378 -109q-248 0 -368.5 109.5t-120.5 344.5v987h178 v-987z" />
<glyph unicode="&#x217;" horiz-adv-x="1144" d="M230 1168h178q4 66 46 104.5t115.5 38.5t115.5 -39t46 -104h179q-8 133 -97.5 215t-242.5 82q-156 0 -244 -82t-96 -215zM795 1022h172v-1022h-172v61q-156 -84 -281 -84q-197 0 -269.5 116t-72.5 396v533h172v-530q0 -201 40 -281t159 -80q51 0 113.5 18.5t101.5 34.5 l37 19v819z" />
<glyph unicode="&#x218;" horiz-adv-x="1091" d="M977 1405l-8 -156q-279 33 -398 33q-283 0 -282 -217q0 -117 68.5 -168t256.5 -102q223 -59 310.5 -137t87.5 -248q0 -223 -110.5 -326.5t-344.5 -103.5l-430 40l10 156q270 -31 406 -31q291 0 291 258q0 98 -67 147.5t-241 94.5q-231 63 -323 148.5t-92 267.5 q0 190 116.5 287.5t335.5 97.5zM416 -592l86 432h170l-103 -432h-153z" />
<glyph unicode="&#x219;" horiz-adv-x="1003" d="M848 1004l-4 -144q-231 31 -350 31q-199 0 -199 -146q0 -61 47 -91.5t184 -53.5q201 -33 278 -94.5t77 -204.5q0 -324 -392 -324q-59 0 -148 10.5t-148 20.5l-62 10l8 146q231 -33 336 -33q121 0 176.5 37t55.5 127q0 70 -44.5 97.5t-187.5 51.5q-190 35 -273 95.5 t-83 199.5q0 158 105.5 231.5t258.5 73.5q68 0 159 -10t149 -20zM371 -592l86 432h170l-103 -432h-153z" />
<glyph unicode="&#x21a;" horiz-adv-x="1003" d="M377 -555l86 432h170l-103 -432h-153zM16 1251v172h969v-172h-393v-1251h-176v1251h-400z" />
<glyph unicode="&#x21b;" horiz-adv-x="739" d="M352 -578l86 432h170l-103 -432h-153zM662 868h-297v-469q0 -150 28.5 -208t108.5 -58l164 10l8 -143q-121 -23 -193 -23q-156 0 -222 86.5t-66 290.5v514h-138v154h138v311h172v-311h297v-154z" />
<glyph unicode="&#x21e;" horiz-adv-x="1390" d="M1045 1848l-271 -281h-155l-273 281h203l148 -146l147 146h201zM1028 0v637h-666v-637h-176v1423h176v-622h666v622h176v-1423h-176z" />
<glyph unicode="&#x21f;" horiz-adv-x="1155" d="M508 1587l-256 312h190l140 -164l137 164h190l-258 -312h-143zM350 0h-174v1464h174v-485q164 66 289 65q197 0 270.5 -120.5t73.5 -388.5v-535h-174v532q0 188 -39 271.5t-160 83.5q-51 0 -115.5 -13.5t-105.5 -27.5l-39 -15v-831z" />
<glyph unicode="&#x226;" horiz-adv-x="1236" d="M533 1566v195h174v-195h-174zM66 0l376 1423h357l372 -1423h-178l-100 342h-553l-96 -342h-178zM580 1266l-201 -760h477l-197 760h-79z" />
<glyph unicode="&#x227;" horiz-adv-x="1071" d="M479 1168v194h174v-194h-174zM889 709v-484q12 -49 38.5 -69.5t78.5 -28.5l-11 -147q-166 0 -250 77q-160 -80 -335 -80q-131 0 -214 88.5t-83 229.5q0 281 319 307l285 27v82q0 174 -160 174l-387 -27l-6 146q244 41 401 40q162 0 243 -80.5t81 -254.5zM717 496 l-266 -21q-162 -12 -162 -176q0 -76 39 -125t102.5 -49t135 14.5t110.5 28.5l41 14v314z" />
<glyph unicode="&#x228;" horiz-adv-x="1150" d="M887 -248q0 -90 -52 -136t-145 -46q-41 0 -85 4t-68 8l-25 2l6 109q76 -4 129 -5q88 0 88 74q0 66 -88 66h-79v186h88v-98q125 -2 178 -36t53 -128zM186 0v1423h848v-166h-672v-460h549v-162h-549v-471h672v-164h-848z" />
<glyph unicode="&#x229;" horiz-adv-x="1038" d="M797 -270q0 -90 -52 -136t-145 -46q-41 0 -85 4t-68 8l-25 2l6 109q76 -4 129 -5q88 0 88 74q0 66 -88 66h-79v186h88v-98q125 -2 178 -36t53 -128zM532 131q66 0 157 4t151 8l57 7l4 -134q-203 -39 -381 -39q-221 0 -317.5 134.5t-96.5 392.5q0 266 111 403t313 137 q408 0 408 -475l-10 -129h-645q-1 -309 249 -309zM281 575h483q0 166 -56.5 244t-177.5 78q-247 0 -249 -322z" />
<glyph unicode="&#x22a;" horiz-adv-x="1331" d="M350 1992v152h650v-152h-650zM665.5 143q206.5 0 287.5 128t81 431q0 299 -84 438.5t-284 139.5q-203 0 -286 -138t-83 -440q0 -299 81 -429t287.5 -130zM666 -23q-299 0 -426 175.5t-127 550t128 558t425 183.5t425 -183.5t128 -558.5q0 -379 -126 -552t-427 -173z M377 1671v199h168v-199h-168zM805 1671v199h168v-199h-168z" />
<glyph unicode="&#x22b;" horiz-adv-x="1091" d="M248 1595v152h608v-152h-608zM543 1044q227 0 328.5 -135t101.5 -389q0 -266 -96.5 -404.5t-333.5 -138.5q-244 0 -340.5 135.5t-96.5 409.5q0 260 99.5 391t337.5 131zM543 129q150 0 202 97.5t52 293.5q0 186 -58.5 279.5t-195.5 93.5q-143 0 -200.5 -89t-57.5 -282 q0 -205 52 -299t206 -94zM260 1274v199h168v-199h-168zM676 1274v199h168v-199h-168z" />
<glyph unicode="&#x22c;" horiz-adv-x="1331" d="M182 2025v152h650v-152h-650zM665.5 143q206.5 0 287.5 128t81 431q0 299 -84 438.5t-284 139.5q-203 0 -286 -138t-83 -440q0 -299 81 -429t287.5 -130zM666 -23q-299 0 -426 175.5t-127 550t128 558t425 183.5t425 -183.5t128 -558.5q0 -379 -126 -552t-427 -173z M997 1886l41 -133q-12 -14 -31.5 -33.5t-71.5 -53.5t-91 -34q-51 0 -178 55.5t-158 55.5q-23 0 -64 -24.5t-71 -49.5l-29 -24l-39 133q12 14 33.5 34.5t75 55.5t92.5 35q59 0 184 -54.5t150 -54.5q44 0 157 92z" />
<glyph unicode="&#x22d;" horiz-adv-x="1091" d="M55 1626v152h608v-152h-608zM543 1044q227 0 328.5 -135t101.5 -389q0 -266 -96.5 -404.5t-333.5 -138.5q-244 0 -340.5 135.5t-96.5 409.5q0 260 99.5 391t337.5 131zM543 129q150 0 202 97.5t52 293.5q0 186 -58.5 279.5t-195.5 93.5q-143 0 -200.5 -89t-57.5 -282 q0 -205 52 -299t206 -94zM807 1487l39 -135q-96 -109 -184 -109q-51 0 -162 50t-142 50q-23 0 -60.5 -21.5t-64.5 -43.5l-28 -21l-39 132q104 115 192 114q57 0 167 -49t134 -49q20 0 57.5 20.5t63.5 40.5z" />
<glyph unicode="&#x22e;" horiz-adv-x="1331" d="M578 1566v195h174v-195h-174zM665.5 143q206.5 0 287.5 128t81 431q0 299 -84 438.5t-284 139.5q-203 0 -286 -138t-83 -440q0 -299 81 -429t287.5 -130zM666 -23q-299 0 -426 175.5t-127 550t128 558t425 183.5t425 -183.5t128 -558.5q0 -379 -126 -552t-427 -173z" />
<glyph unicode="&#x22f;" horiz-adv-x="1081" d="M455 1168v194h174v-194h-174zM543 1044q227 0 328.5 -135t101.5 -389q0 -266 -96.5 -404.5t-333.5 -138.5q-244 0 -340.5 135.5t-96.5 409.5q0 260 99.5 391t337.5 131zM543 129q150 0 202 97.5t52 293.5q0 186 -58.5 279.5t-195.5 93.5q-143 0 -200.5 -89t-57.5 -282 q0 -205 52 -299t206 -94z" />
<glyph unicode="&#x230;" horiz-adv-x="1331" d="M342 1884v152h650v-152h-650zM578 1566v195h174v-195h-174zM665.5 143q206.5 0 287.5 128t81 431q0 299 -84 438.5t-284 139.5q-203 0 -286 -138t-83 -440q0 -299 81 -429t287.5 -130zM666 -23q-299 0 -426 175.5t-127 550t128 558t425 183.5t425 -183.5t128 -558.5 q0 -379 -126 -552t-427 -173z" />
<glyph unicode="&#x237;" horiz-adv-x="516" d="M182 12v1010h172v-1012q0 -195 -63.5 -288t-270.5 -199l-75 145q152 86 194.5 147.5t42.5 196.5z" />
<glyph unicode="&#x2c6;" horiz-adv-x="1705" d="M510 1208l258 312h139l260 -312h-190l-137 164l-140 -164h-190z" />
<glyph unicode="&#x2c7;" horiz-adv-x="1705" d="M766 1208l-256 312h190l140 -164l137 164h190l-258 -312h-143z" />
<glyph unicode="&#x2d8;" horiz-adv-x="954" d="M115 1505h178q4 -66 46 -104.5t115.5 -38.5t115.5 39t46 104h179q-8 -133 -97.5 -215t-242.5 -82q-156 0 -244 82t-96 215z" />
<glyph unicode="&#x2d9;" horiz-adv-x="493" d="M160 1229v194h174v-194h-174z" />
<glyph unicode="&#x2da;" horiz-adv-x="1705" d="M332 1319q0 90 62.5 153.5t154.5 63.5q90 0 153.5 -63.5t63.5 -153.5q0 -92 -62.5 -154.5t-154.5 -62.5t-154.5 61.5t-62.5 155.5zM455 1319q0 -41 27.5 -69.5t68.5 -28.5q39 0 65.5 28.5t26.5 69.5q0 39 -26.5 66.5t-65.5 27.5q-41 0 -68.5 -27.5t-27.5 -66.5z" />
<glyph unicode="&#x2db;" horiz-adv-x="929" d="M741 -264l19 -144q-98 -18 -170 -18q-86 0 -140.5 49t-54.5 133q0 115 154 250l14 10l150 -14q-135 -131 -135 -199q0 -33 18 -55t49 -22z" />
<glyph unicode="&#x2dc;" horiz-adv-x="925" d="M764 1487l39 -135q-96 -109 -185 -109q-51 0 -161.5 50t-141.5 50q-23 0 -60.5 -21.5t-66.5 -43.5l-26 -21l-39 132q104 115 192 114q57 0 167 -49t134 -49q20 0 57.5 20.5t63.5 40.5z" />
<glyph unicode="&#x2dd;" horiz-adv-x="1443" d="M684 1280l287 301l129 -96l-295 -299zM285 1280l286 299l131 -94l-294 -299z" />
<glyph unicode="&#x300;" horiz-adv-x="1116" d="M305 1542l461 -192l-57 -144l-465 174z" />
<glyph unicode="&#x301;" horiz-adv-x="1705" d="M244 1352l461 192l61 -162l-465 -174z" />
<glyph unicode="&#x304;" horiz-adv-x="954" d="M166 1294v152h608v-152h-608z" />
<glyph unicode="&#x326;" horiz-adv-x="348" d="M37 -592l86 432h170l-103 -432h-153z" />
<glyph unicode="&#x394;" d="M78 143l313 1239h309l312 -1241l2 -141h-936v143zM567 1221h-43l-264 -1059h569z" />
<glyph unicode="&#x2206;" d="M78 143l313 1239h309l312 -1241l2 -141h-936v143zM567 1221h-43l-264 -1059h569z" />
<glyph unicode="&#x3a9;" d="M63 133h228l-23 35q-14 23 -49 93.5t-61.5 141t-49 169t-22.5 186.5q0 326 99.5 470t357.5 144t356 -144.5t98 -469.5q0 -274 -180 -586l-24 -39h227v-151h-406v131l23 39q14 25 49 97.5t61.5 143t49 163.5t22.5 171q0 256 -54 366.5t-222 110.5q-174 0 -225.5 -108.5 t-51.5 -368.5q0 -123 51.5 -276.5t102.5 -245.5l51 -92v-131h-408v151z" />
<glyph unicode="&#x2126;" d="M63 133h228l-23 35q-14 23 -49 93.5t-61.5 141t-49 169t-22.5 186.5q0 326 99.5 470t357.5 144t356 -144.5t98 -469.5q0 -274 -180 -586l-24 -39h227v-151h-406v131l23 39q14 25 49 97.5t61.5 143t49 163.5t22.5 171q0 256 -54 366.5t-222 110.5q-174 0 -225.5 -108.5 t-51.5 -368.5q0 -123 51.5 -276.5t102.5 -245.5l51 -92v-131h-408v151z" />
<glyph unicode="&#x3c0;" d="M768 315v637h-418l-59 -952h-72l60 952q-195 -4 -271 -26v71q51 10 128 16.5t128 8.5l51 2h443q195 0 295 33v-72q-70 -25 -213 -31v-639q0 -154 41 -199.5t161 -45.5v-70q-158 0 -216 64.5t-58 250.5z" />
<glyph unicode="&#x410;" horiz-adv-x="1236" d="M66 0l376 1423h357l372 -1423h-178l-100 342h-553l-96 -342h-178zM580 1266l-201 -760h477l-197 760h-79z" />
<glyph unicode="&#x412;" horiz-adv-x="1261" d="M186 1423h498q197 0 310.5 -90t113.5 -264q0 -252 -176 -338q217 -78 217 -332q0 -205 -119 -302t-323 -97h-521v1423zM692 643h-330v-483h338q121 0 193 62.5t72 189.5q0 88 -50.5 143t-107 71.5t-115.5 16.5zM676 1262h-314v-465h326q115 0 176.5 66.5t61.5 180.5 q0 104 -65.5 161t-184.5 57z" />
<glyph unicode="&#x415;" horiz-adv-x="1150" d="M186 0v1423h848v-166h-672v-460h549v-162h-549v-471h672v-164h-848z" />
<glyph unicode="&#x41a;" horiz-adv-x="1216" d="M924 0l-353 618l-209 -10v-608h-176v1423h176v-653l205 10l340 643h207l-389 -712l410 -711h-211z" />
<glyph unicode="&#x41c;" horiz-adv-x="1738" d="M186 0v1423h306l378 -1179l381 1179h301v-1423h-176v1221h-30l-381 -1170h-193l-379 1170h-31v-1221h-176z" />
<glyph unicode="&#x41d;" horiz-adv-x="1390" d="M1028 0v637h-666v-637h-176v1423h176v-622h666v622h176v-1423h-176z" />
<glyph unicode="&#x41e;" horiz-adv-x="1331" d="M665.5 143q206.5 0 287.5 128t81 431q0 299 -84 438.5t-284 139.5q-203 0 -286 -138t-83 -440q0 -299 81 -429t287.5 -130zM666 -23q-299 0 -426 175.5t-127 550t128 558t425 183.5t425 -183.5t128 -558.5q0 -379 -126 -552t-427 -173z" />
<glyph unicode="&#x420;" horiz-adv-x="1234" d="M684 465h-319v-465h-179v1423h498q225 0 342 -118.5t117 -343.5q0 -231 -119 -363.5t-340 -132.5zM365 629h317q139 0 209 90t70 242q0 299 -279 299h-317v-631z" />
<glyph unicode="&#x421;" horiz-adv-x="1091" d="M997 180l7 -162q-231 -41 -383 -41q-154 0 -255.5 47.5t-156.5 146.5t-76.5 226t-21.5 312q0 381 110.5 558t399.5 177q78 0 173 -11.5t152 -21.5l58 -10l-7 -160q-227 33 -356 33q-207 0 -276.5 -131t-69.5 -434q0 -301 69.5 -431.5t280.5 -130.5q51 0 139 8.5t150 16.5 z" />
<glyph unicode="&#x422;" horiz-adv-x="1003" d="M16 1251v172h969v-172h-393v-1251h-176v1251h-400z" />
<glyph unicode="&#x425;" horiz-adv-x="1189" d="M266 1423l330 -589l326 589h200l-409 -718l409 -705h-200l-326 578l-330 -578h-200l417 705l-417 718h200z" />
<glyph unicode="&#x430;" horiz-adv-x="1071" d="M889 709v-484q12 -49 38.5 -69.5t78.5 -28.5l-11 -147q-166 0 -250 77q-160 -80 -335 -80q-131 0 -214 88.5t-83 229.5q0 281 319 307l285 27v82q0 174 -160 174l-387 -27l-6 146q244 41 401 40q162 0 243 -80.5t81 -254.5zM717 496l-266 -21q-162 -12 -162 -176 q0 -76 39 -125t102.5 -49t135 14.5t110.5 28.5l41 14v314z" />
<glyph unicode="&#x435;" horiz-adv-x="1038" d="M532 131q66 0 157 4t151 8l57 7l4 -134q-203 -39 -381 -39q-221 0 -317.5 134.5t-96.5 392.5q0 266 111 403t313 137q408 0 408 -475l-10 -129h-645q-1 -309 249 -309zM281 575h483q0 166 -56.5 244t-177.5 78q-247 0 -249 -322z" />
<glyph unicode="&#x43e;" horiz-adv-x="1081" d="M543 1044q227 0 328.5 -135t101.5 -389q0 -266 -96.5 -404.5t-333.5 -138.5q-244 0 -340.5 135.5t-96.5 409.5q0 260 99.5 391t337.5 131zM543 129q150 0 202 97.5t52 293.5q0 186 -58.5 279.5t-195.5 93.5q-143 0 -200.5 -89t-57.5 -282q0 -205 52 -299t206 -94z" />
<glyph unicode="&#x43f;" d="M768 315v637h-418l-59 -952h-72l60 952q-195 -4 -271 -26v71q51 10 128 16.5t128 8.5l51 2h443q195 0 295 33v-72q-70 -25 -213 -31v-639q0 -154 41 -199.5t161 -45.5v-70q-158 0 -216 64.5t-58 250.5z" />
<glyph unicode="&#x440;" horiz-adv-x="1112" d="M186 -451v1473h174v-64q133 86 277 86q373 0 373 -522q0 -289 -106.5 -417t-338.5 -128q-92 0 -205 21v-449h-174zM610 889q-123 0 -250 -76v-663q102 -18 195 -19q152 0 214 95.5t62 299.5q0 172 -56 267.5t-165 95.5z" />
<glyph unicode="&#x441;" horiz-adv-x="892" d="M532 1044q53 0 121 -7t109 -13l43 -8l-6 -148q-147 16 -226 17q-158 0 -221 -83t-63 -274q0 -209 60.5 -300t223.5 -91l228 15l6 -148q-160 -27 -277 -27q-229 0 -323 130.5t-94 420.5q0 264 100 390t319 126z" />
<glyph unicode="&#x443;" horiz-adv-x="987" d="M53 1022h172l238 -856h59l240 856h172l-410 -1473h-172l127 451h-147z" />
<glyph unicode="&#x445;" horiz-adv-x="944" d="M57 1022h189l225 -387l227 387h189l-309 -512l307 -510h-189l-225 385l-223 -385h-189l308 510z" />
<glyph unicode="&#x1e00;" horiz-adv-x="1236" d="M873 -346q0 -102 -72 -162.5t-180 -60.5q-111 0 -182.5 60.5t-71.5 162.5q0 104 71.5 163.5t182 59.5t181.5 -59.5t71 -163.5zM506 -346q0 -96 115 -96q53 0 82.5 25.5t29.5 70.5t-29.5 71.5t-83 26.5t-84 -25.5t-30.5 -72.5zM66 0l376 1423h357l372 -1423h-178l-100 342 h-553l-96 -342h-178zM580 1266l-201 -760h477l-197 760h-79z" />
<glyph unicode="&#x1e01;" horiz-adv-x="1071" d="M193 -362q0 90 62.5 153.5t154.5 63.5q90 0 153.5 -63.5t63.5 -153.5q0 -92 -62.5 -154.5t-154.5 -62.5t-154.5 61.5t-62.5 155.5zM316 -362q0 -41 27.5 -69.5t68.5 -28.5q39 0 65.5 28.5t26.5 69.5q0 39 -26.5 66.5t-65.5 27.5q-41 0 -68.5 -27.5t-27.5 -66.5zM889 709 v-484q12 -49 38.5 -69.5t78.5 -28.5l-11 -147q-166 0 -250 77q-160 -80 -335 -80q-131 0 -214 88.5t-83 229.5q0 281 319 307l285 27v82q0 174 -160 174l-387 -27l-6 146q244 41 401 40q162 0 243 -80.5t81 -254.5zM717 496l-266 -21q-162 -12 -162 -176q0 -76 39 -125 t102.5 -49t135 14.5t110.5 28.5l41 14v314z" />
<glyph unicode="&#x1e02;" horiz-adv-x="1261" d="M582 1566v195h174v-195h-174zM186 1423h498q197 0 310.5 -90t113.5 -264q0 -252 -176 -338q217 -78 217 -332q0 -205 -119 -302t-323 -97h-521v1423zM692 643h-330v-483h338q121 0 193 62.5t72 189.5q0 88 -50.5 143t-107 71.5t-115.5 16.5zM676 1262h-314v-465h326 q115 0 176.5 66.5t61.5 180.5q0 104 -65.5 161t-184.5 57z" />
<glyph unicode="&#x1e03;" horiz-adv-x="1110" d="M510 1587v194h174v-194h-174zM631 1044q377 0 377 -516q0 -281 -111 -416t-373 -135l-338 23v1464h174v-481q136 61 271 61zM522 131q94 0 156.5 29.5t94.5 87t44 122t12 156.5q0 362 -217 363q-135 0 -252 -49v-701q111 -8 162 -8z" />
<glyph unicode="&#x1e04;" horiz-adv-x="1261" d="M361 -318v195h174v-195h-174zM186 1423h498q197 0 310.5 -90t113.5 -264q0 -252 -176 -338q217 -78 217 -332q0 -205 -119 -302t-323 -97h-521v1423zM692 643h-330v-483h338q121 0 193 62.5t72 189.5q0 88 -50.5 143t-107 71.5t-115.5 16.5zM676 1262h-314v-465h326 q115 0 176.5 66.5t61.5 180.5q0 104 -65.5 161t-184.5 57z" />
<glyph unicode="&#x1e05;" horiz-adv-x="1110" d="M439 -340v194h174v-194h-174zM631 1044q377 0 377 -516q0 -281 -111 -416t-373 -135l-338 23v1464h174v-481q136 61 271 61zM522 131q94 0 156.5 29.5t94.5 87t44 122t12 156.5q0 362 -217 363q-135 0 -252 -49v-701q111 -8 162 -8z" />
<glyph unicode="&#x1e06;" horiz-adv-x="1261" d="M120 -275v152h650v-152h-650zM186 1423h498q197 0 310.5 -90t113.5 -264q0 -252 -176 -338q217 -78 217 -332q0 -205 -119 -302t-323 -97h-521v1423zM692 643h-330v-483h338q121 0 193 62.5t72 189.5q0 88 -50.5 143t-107 71.5t-115.5 16.5zM676 1262h-314v-465h326 q115 0 176.5 66.5t61.5 180.5q0 104 -65.5 161t-184.5 57z" />
<glyph unicode="&#x1e07;" horiz-adv-x="1110" d="M219 -297v152h608v-152h-608zM631 1044q377 0 377 -516q0 -281 -111 -416t-373 -135l-338 23v1464h174v-481q136 61 271 61zM522 131q94 0 156.5 29.5t94.5 87t44 122t12 156.5q0 362 -217 363q-135 0 -252 -49v-701q111 -8 162 -8z" />
<glyph unicode="&#x1e08;" horiz-adv-x="1099" d="M563 1710l461 192l61 -161l-465 -175zM883 -260q0 -90 -52.5 -136t-144.5 -46q-41 0 -85 4t-69 8l-24 2l6 109q76 -4 129 -5q88 0 88 74q0 66 -88 66h-80v164q-262 18 -357 194t-95 535q0 381 110.5 558t399.5 177q78 0 173 -11.5t152 -21.5l58 -10l-7 -160 q-227 33 -356 33q-207 0 -276.5 -131t-69.5 -434q0 -301 69.5 -431.5t280.5 -130.5q51 0 139 8.5t150 16.5l63 8l7 -162q-203 -35 -353 -41v-73q125 -2 178.5 -36t53.5 -128z" />
<glyph unicode="&#x1e09;" horiz-adv-x="892" d="M475 1311l461 192l61 -162l-465 -174zM778 -260q0 -90 -52 -136t-144 -46q-41 0 -85 4t-69 8l-25 2l7 109q76 -4 129 -5q88 0 88 74q0 66 -88 66h-80v166q-188 18 -267 149t-79 397q0 264 100 390t319 126q53 0 121 -7t109 -13l43 -8l-6 -148q-147 16 -226 17 q-158 0 -221 -83t-63 -274q0 -209 60.5 -300t223.5 -91l228 15l6 -148q-145 -25 -260 -27v-73q125 -2 178 -36t53 -128z" />
<glyph unicode="&#x1e0a;" horiz-adv-x="1308" d="M606 1566v195h174v-195h-174zM670 0h-484v1423h484q152 0 257 -49t163.5 -144t84 -215t25.5 -280q0 -129 -14.5 -234.5t-51 -200.5t-96 -159.5t-152.5 -102.5t-216 -38zM1016 735q0 117 -15.5 205t-52.5 163t-106.5 114.5t-171.5 39.5h-308v-1093h308q346 0 346 571z" />
<glyph unicode="&#x1e0b;" horiz-adv-x="1110" d="M434 1587v194h174v-194h-174zM932 1464v-1464h-172v57q-145 -78 -281 -77q-367 0 -366 530q0 535 422 534q51 0 225 -26v446h172zM504 135q51 0 114.5 16.5t102.5 32.5l39 17v669q-133 20 -215 21q-258 0 -258 -385q0 -371 217 -371z" />
<glyph unicode="&#x1e0c;" horiz-adv-x="1308" d="M340 -318v195h174v-195h-174zM670 0h-484v1423h484q152 0 257 -49t163.5 -144t84 -215t25.5 -280q0 -129 -14.5 -234.5t-51 -200.5t-96 -159.5t-152.5 -102.5t-216 -38zM1016 735q0 117 -15.5 205t-52.5 163t-106.5 114.5t-171.5 39.5h-308v-1093h308q346 0 346 571z" />
<glyph unicode="&#x1e0d;" horiz-adv-x="1110" d="M393 -338v194h174v-194h-174zM932 1464v-1464h-172v57q-145 -78 -281 -77q-367 0 -366 530q0 535 422 534q51 0 225 -26v446h172zM504 135q51 0 114.5 16.5t102.5 32.5l39 17v669q-133 20 -215 21q-258 0 -258 -385q0 -371 217 -371z" />
<glyph unicode="&#x1e0e;" horiz-adv-x="1308" d="M104 -275v152h650v-152h-650zM670 0h-484v1423h484q152 0 257 -49t163.5 -144t84 -215t25.5 -280q0 -129 -14.5 -234.5t-51 -200.5t-96 -159.5t-152.5 -102.5t-216 -38zM1016 735q0 117 -15.5 205t-52.5 163t-106.5 114.5t-171.5 39.5h-308v-1093h308q346 0 346 571z" />
<glyph unicode="&#x1e0f;" horiz-adv-x="1110" d="M174 -295v152h608v-152h-608zM932 1464v-1464h-172v57q-145 -78 -281 -77q-367 0 -366 530q0 535 422 534q51 0 225 -26v446h172zM504 135q51 0 114.5 16.5t102.5 32.5l39 17v669q-133 20 -215 21q-258 0 -258 -385q0 -371 217 -371z" />
<glyph unicode="&#x1e10;" horiz-adv-x="1308" d="M702 -248q0 -90 -52 -136t-145 -46q-41 0 -85 4t-68 8l-25 2l6 109q76 -4 129 -5q88 0 88 74q0 66 -88 66h-79v186h88v-98q125 -2 178 -36t53 -128zM670 0h-484v1423h484q152 0 257 -49t163.5 -144t84 -215t25.5 -280q0 -129 -14.5 -234.5t-51 -200.5t-96 -159.5 t-152.5 -102.5t-216 -38zM1016 735q0 117 -15.5 205t-52.5 163t-106.5 114.5t-171.5 39.5h-308v-1093h308q346 0 346 571z" />
<glyph unicode="&#x1e11;" horiz-adv-x="1110" d="M756 -268q0 -90 -52 -136t-145 -46q-41 0 -85 4t-68 8l-25 2l6 109q76 -4 129 -5q88 0 88 74q0 66 -88 66h-79v186h88v-98q125 -2 178 -36t53 -128zM932 1464v-1464h-172v57q-145 -78 -281 -77q-367 0 -366 530q0 535 422 534q51 0 225 -26v446h172zM504 135 q51 0 114.5 16.5t102.5 32.5l39 17v669q-133 20 -215 21q-258 0 -258 -385q0 -371 217 -371z" />
<glyph unicode="&#x1e12;" horiz-adv-x="1308" d="M80 -404l271 281h157l271 -281h-199l-149 142l-148 -142h-203zM670 0h-484v1423h484q152 0 257 -49t163.5 -144t84 -215t25.5 -280q0 -129 -14.5 -234.5t-51 -200.5t-96 -159.5t-152.5 -102.5t-216 -38zM1016 735q0 117 -15.5 205t-52.5 163t-106.5 114.5t-171.5 39.5 h-308v-1093h308q346 0 346 571z" />
<glyph unicode="&#x1e13;" horiz-adv-x="1110" d="M150 -455l258 312h139l260 -312h-190l-137 164l-140 -164h-190zM932 1464v-1464h-172v57q-145 -78 -281 -77q-367 0 -366 530q0 535 422 534q51 0 225 -26v446h172zM504 135q51 0 114.5 16.5t102.5 32.5l39 17v669q-133 20 -215 21q-258 0 -258 -385q0 -371 217 -371z " />
<glyph unicode="&#x1e14;" horiz-adv-x="1150" d="M182 2283l461 -192l-57 -144l-465 174zM186 0v1423h848v-166h-672v-460h549v-162h-549v-471h672v-164h-848zM260 1673v152h649v-152h-649z" />
<glyph unicode="&#x1e15;" horiz-adv-x="1038" d="M125 1904l461 -192l-57 -144l-465 174zM532 131q66 0 157 4t151 8l57 7l4 -134q-203 -39 -381 -39q-221 0 -317.5 134.5t-96.5 392.5q0 266 111 403t313 137q408 0 408 -475l-10 -129h-645q-1 -309 249 -309zM281 575h483q0 166 -56.5 244t-177.5 78q-247 0 -249 -322z M223 1294v152h608v-152h-608z" />
<glyph unicode="&#x1e16;" horiz-adv-x="1150" d="M527 2091l461 192l61 -161l-465 -175zM186 0v1423h848v-166h-672v-460h549v-162h-549v-471h672v-164h-848zM260 1673v152h649v-152h-649z" />
<glyph unicode="&#x1e17;" horiz-adv-x="1038" d="M469 1712l461 192l61 -162l-465 -174zM532 131q66 0 157 4t151 8l57 7l4 -134q-203 -39 -381 -39q-221 0 -317.5 134.5t-96.5 392.5q0 266 111 403t313 137q408 0 408 -475l-10 -129h-645q-1 -309 249 -309zM281 575h483q0 166 -56.5 244t-177.5 78q-247 0 -249 -322z M223 1294v152h608v-152h-608z" />
<glyph unicode="&#x1e18;" horiz-adv-x="1150" d="M260 -404l271 281h157l271 -281h-199l-149 142l-148 -142h-203zM186 0v1423h848v-166h-672v-460h549v-162h-549v-471h672v-164h-848z" />
<glyph unicode="&#x1e19;" horiz-adv-x="1038" d="M191 -457l258 312h139l260 -312h-190l-137 164l-140 -164h-190zM532 131q66 0 157 4t151 8l57 7l4 -134q-203 -39 -381 -39q-221 0 -317.5 134.5t-96.5 392.5q0 266 111 403t313 137q408 0 408 -475l-10 -129h-645q-1 -309 249 -309zM281 575h483q0 166 -56.5 244 t-177.5 78q-247 0 -249 -322z" />
<glyph unicode="&#x1e1a;" horiz-adv-x="1150" d="M936 -140l41 -133q-12 -14 -31.5 -33.5t-72 -53t-91.5 -33.5q-51 0 -178 55t-158 55q-23 0 -63.5 -24.5t-71.5 -49.5l-28 -24l-39 133q12 14 33.5 34.5t74.5 55.5t92 35q59 0 184.5 -54.5t149.5 -54.5q45 0 158 92zM186 0v1423h848v-166h-672v-460h549v-162h-549v-471 h672v-164h-848z" />
<glyph unicode="&#x1e1b;" horiz-adv-x="1038" d="M821 -162l39 -135q-96 -109 -185 -109q-51 0 -161.5 50t-141.5 50q-23 0 -60.5 -21.5t-66.5 -43.5l-26 -21l-39 132q104 115 192 114q57 0 167 -49t134 -49q20 0 57.5 20.5t63.5 40.5zM532 131q66 0 157 4t151 8l57 7l4 -134q-203 -39 -381 -39q-221 0 -317.5 134.5 t-96.5 392.5q0 266 111 403t313 137q408 0 408 -475l-10 -129h-645q-1 -309 249 -309zM281 575h483q0 166 -56.5 244t-177.5 78q-247 0 -249 -322z" />
<glyph unicode="&#x1e1c;" horiz-adv-x="1150" d="M279 1843h178q2 -59 46 -94t108 -35q66 0 108.5 35t44.5 94h178q-8 -125 -96 -200.5t-235.5 -75.5t-235.5 75.5t-96 200.5zM887 -248q0 -90 -52 -136t-145 -46q-41 0 -85 4t-68 8l-25 2l6 109q76 -4 129 -5q88 0 88 74q0 66 -88 66h-79v186h88v-98q125 -2 178 -36 t53 -128zM186 0v1423h848v-166h-672v-460h549v-162h-549v-471h672v-164h-848z" />
<glyph unicode="&#x1e1d;" horiz-adv-x="1038" d="M191 1464h178q4 -66 46 -104.5t115.5 -38.5t115.5 39t46 104h179q-8 -133 -97.5 -215t-242.5 -82q-156 0 -244 82t-96 215zM797 -270q0 -90 -52 -136t-145 -46q-41 0 -85 4t-68 8l-25 2l6 109q76 -4 129 -5q88 0 88 74q0 66 -88 66h-79v186h88v-98q125 -2 178 -36 t53 -128zM532 131q66 0 157 4t151 8l57 7l4 -134q-203 -39 -381 -39q-221 0 -317.5 134.5t-96.5 392.5q0 266 111 403t313 137q408 0 408 -475l-10 -129h-645q-1 -309 249 -309zM281 575h483q0 166 -56.5 244t-177.5 78q-247 0 -249 -322z" />
<glyph unicode="&#x1e1e;" horiz-adv-x="1126" d="M525 1566v195h174v-195h-174zM186 0v1423h848v-166h-672v-536h549v-162h-549v-559h-176z" />
<glyph unicode="&#x1e1f;" horiz-adv-x="686" d="M373 1606v194h174v-194h-174zM352 870v-870h-174v870h-121v152h121v86q0 203 66.5 289t214.5 86l194 -17l-2 -143q-94 6 -155 6q-80 0 -112 -51t-32 -172v-84h285v-152h-285z" />
<glyph unicode="&#x1e20;" horiz-adv-x="1241" d="M325 1567v152h650v-152h-650zM719 584v155h389v-716q-291 -45 -453 -46q-301 0 -421.5 184.5t-120.5 549.5q0 371 119.5 552t416.5 181q205 0 459 -49l-8 -158q-252 39 -428 39q-217 0 -296 -133t-79 -432t77 -432.5t294 -133.5q29 0 66.5 2.5t70.5 6.5t61.5 8t46 6 t19.5 2v414h-213z" />
<glyph unicode="&#x1e21;" horiz-adv-x="1067" d="M191 1167v152h608v-152h-608zM541 -492q-217 0 -329 74t-112 242q0 78 40 136t120 120q-59 41 -59 141l71 166q-158 94 -157 305q0 168 107.5 260t273.5 92q41 0 88 -6t73 -14l27 -6l313 6v-143h-180q63 -76 64 -189q0 -348 -392 -348q-47 0 -88 8q-35 -86 -34 -112 q0 -57 35.5 -72.5t191.5 -15.5q217 0 309 -62.5t92 -230.5q0 -174 -123.5 -262.5t-330.5 -88.5zM580 2l-203 10q-55 -47 -80 -84t-25 -88q0 -178 271 -178q276 0 276 188q0 92 -53 122t-186 30zM489 485q219 0 219.5 207t-214.5 207q-100 0 -152.5 -54t-52.5 -153 q-1 -207 200 -207z" />
<glyph unicode="&#x1e22;" horiz-adv-x="1390" d="M609 1566v195h174v-195h-174zM1028 0v637h-666v-637h-176v1423h176v-622h666v622h176v-1423h-176z" />
<glyph unicode="&#x1e23;" horiz-adv-x="1155" d="M492 1587v194h174v-194h-174zM350 0h-174v1464h174v-485q164 66 289 65q197 0 270.5 -120.5t73.5 -388.5v-535h-174v532q0 188 -39 271.5t-160 83.5q-51 0 -115.5 -13.5t-105.5 -27.5l-39 -15v-831z" />
<glyph unicode="&#x1e24;" horiz-adv-x="1390" d="M609 -318v195h174v-195h-174zM1028 0v637h-666v-637h-176v1423h176v-622h666v622h176v-1423h-176z" />
<glyph unicode="&#x1e25;" horiz-adv-x="1155" d="M492 -317v194h174v-194h-174zM350 0h-174v1464h174v-485q164 66 289 65q197 0 270.5 -120.5t73.5 -388.5v-535h-174v532q0 188 -39 271.5t-160 83.5q-51 0 -115.5 -13.5t-105.5 -27.5l-39 -15v-831z" />
<glyph unicode="&#x1e26;" horiz-adv-x="1390" d="M397 1567v199h168v-199h-168zM825 1567v199h168v-199h-168zM1028 0v637h-666v-637h-176v1423h176v-622h666v622h176v-1423h-176z" />
<glyph unicode="&#x1e27;" horiz-adv-x="1155" d="M288 1587v199h168v-199h-168zM704 1587v199h168v-199h-168zM350 0h-174v1464h174v-485q164 66 289 65q197 0 270.5 -120.5t73.5 -388.5v-535h-174v532q0 188 -39 271.5t-160 83.5q-51 0 -115.5 -13.5t-105.5 -27.5l-39 -15v-831z" />
<glyph unicode="&#x1e28;" horiz-adv-x="1390" d="M928 -248q0 -90 -52 -136t-145 -46q-41 0 -85 4t-68 8l-25 2l6 109q76 -4 129 -5q88 0 88 74q0 66 -88 66h-79v186h88v-98q125 -2 178 -36t53 -128zM1028 0v637h-666v-637h-176v1423h176v-622h666v622h176v-1423h-176z" />
<glyph unicode="&#x1e29;" horiz-adv-x="1155" d="M811 -248q0 -90 -52 -136t-145 -46q-41 0 -85 4t-68 8l-25 2l6 109q76 -4 129 -5q88 0 88 74q0 66 -88 66h-79v186h88v-98q125 -2 178 -36t53 -128zM350 0h-174v1464h174v-485q164 66 289 65q197 0 270.5 -120.5t73.5 -388.5v-535h-174v532q0 188 -39 271.5t-160 83.5 q-51 0 -115.5 -13.5t-105.5 -27.5l-39 -15v-831z" />
<glyph unicode="&#x1e2a;" horiz-adv-x="1390" d="M365 -123h178q2 -59 46 -94t108 -35q66 0 108.5 35t44.5 94h178q-8 -125 -96 -200.5t-235.5 -75.5t-235.5 75.5t-96 200.5zM1028 0v637h-666v-637h-176v1423h176v-622h666v622h176v-1423h-176z" />
<glyph unicode="&#x1e2b;" horiz-adv-x="1155" d="M240 -123h178q4 -66 46 -104.5t115.5 -38.5t115.5 39t46 104h179q-8 -133 -97.5 -215t-242.5 -82q-156 0 -244 82t-96 215zM350 0h-174v1464h174v-485q164 66 289 65q197 0 270.5 -120.5t73.5 -388.5v-535h-174v532q0 188 -39 271.5t-160 83.5q-51 0 -115.5 -13.5 t-105.5 -27.5l-39 -15v-831z" />
<glyph unicode="&#x1e2c;" horiz-adv-x="516" d="M584 -140l41 -133q-12 -14 -31.5 -33.5t-72 -53t-91.5 -33.5q-51 0 -178 55t-158 55q-23 0 -63.5 -24.5t-71.5 -49.5l-28 -24l-39 133q12 14 33.5 34.5t74.5 55.5t92 35q59 0 184.5 -54.5t149.5 -54.5q45 0 158 92zM168 0v1423h178v-1423h-178z" />
<glyph unicode="&#x1e2d;" horiz-adv-x="493" d="M547 -139l39 -135q-96 -109 -185 -109q-51 0 -161.5 50t-141.5 50q-23 0 -60.5 -21.5t-66.5 -43.5l-26 -21l-39 132q104 115 192 114q57 0 167 -49t134 -49q20 0 57.5 20.5t63.5 40.5zM160 0v1022h174v-1022h-174zM160 1229v194h174v-194h-174z" />
<glyph unicode="&#x1e2e;" horiz-adv-x="516" d="M211 2149l461 192l61 -161l-465 -175zM168 0v1423h178v-1423h-178zM-31 1683v199h168v-199h-168zM397 1683v199h168v-199h-168z" />
<glyph unicode="&#x1e2f;" horiz-adv-x="540" d="M244 1739l461 192l61 -162l-465 -174zM10 1274v199h168v-199h-168zM426 1274v199h168v-199h-168zM184 0v1022h172v-1022h-172z" />
<glyph unicode="&#x1e30;" horiz-adv-x="1216" d="M592 1710l461 192l61 -161l-465 -175zM924 0l-353 618l-209 -10v-608h-176v1423h176v-653l205 10l340 643h207l-389 -712l410 -711h-211z" />
<glyph unicode="&#x1e31;" horiz-adv-x="1024" d="M215 1731l461 192l61 -162l-465 -174zM360 0h-174v1464h174v-850l132 9l284 399h195l-324 -473l332 -549h-197l-286 457l-136 -11v-446z" />
<glyph unicode="&#x1e32;" horiz-adv-x="1216" d="M574 -318v195h174v-195h-174zM924 0l-353 618l-209 -10v-608h-176v1423h176v-653l205 10l340 643h207l-389 -712l410 -711h-211z" />
<glyph unicode="&#x1e33;" horiz-adv-x="1024" d="M496 -317v194h174v-194h-174zM360 0h-174v1464h174v-850l132 9l284 399h195l-324 -473l332 -549h-197l-286 457l-136 -11v-446z" />
<glyph unicode="&#x1e34;" horiz-adv-x="1216" d="M335 -275v152h650v-152h-650zM924 0l-353 618l-209 -10v-608h-176v1423h176v-653l205 10l340 643h207l-389 -712l410 -711h-211z" />
<glyph unicode="&#x1e35;" horiz-adv-x="1024" d="M279 -275v152h608v-152h-608zM360 0h-174v1464h174v-850l132 9l284 399h195l-324 -473l332 -549h-197l-286 457l-136 -11v-446z" />
<glyph unicode="&#x1e36;" horiz-adv-x="1038" d="M479 -318v195h174v-195h-174zM946 0h-760v1423h176v-1257h584v-166z" />
<glyph unicode="&#x1e37;" horiz-adv-x="503" d="M164 -317v194h174v-194h-174zM166 0v1464h172v-1464h-172z" />
<glyph unicode="&#x1e38;" horiz-adv-x="1038" d="M-52 1567v152h650v-152h-650zM479 -318v195h174v-195h-174zM946 0h-760v1423h176v-1257h584v-166z" />
<glyph unicode="&#x1e39;" horiz-adv-x="503" d="M-51 1587v152h608v-152h-608zM164 -317v194h174v-194h-174zM166 0v1464h172v-1464h-172z" />
<glyph unicode="&#x1e3a;" horiz-adv-x="1038" d="M241 -275v152h650v-152h-650zM946 0h-760v1423h176v-1257h584v-166z" />
<glyph unicode="&#x1e3b;" horiz-adv-x="503" d="M-51 -275v152h608v-152h-608zM166 0v1464h172v-1464h-172z" />
<glyph unicode="&#x1e3c;" horiz-adv-x="1038" d="M217 -404l271 281h157l271 -281h-199l-149 142l-148 -142h-203zM946 0h-760v1423h176v-1257h584v-166z" />
<glyph unicode="&#x1e3d;" horiz-adv-x="503" d="M-76 -434l258 312h139l260 -312h-190l-137 164l-140 -164h-190zM166 0v1464h172v-1464h-172z" />
<glyph unicode="&#x1e3e;" horiz-adv-x="1738" d="M813 1710l461 192l61 -161l-465 -175zM186 0v1423h306l378 -1179l381 1179h301v-1423h-176v1221h-30l-381 -1170h-193l-379 1170h-31v-1221h-176z" />
<glyph unicode="&#x1e3f;" horiz-adv-x="1763" d="M893 1311l461 192l61 -162l-465 -174zM371 0h-174v1022h172v-66q156 88 274 88q164 0 256 -96q221 96 358 96q195 0 270 -118.5t75 -393.5v-532h-175v526q0 199 -37.5 280t-160.5 81q-53 0 -120 -18.5t-105 -37.5l-41 -18q29 -78 28 -283v-530h-172v526q0 193 -44 277 t-161 84q-51 0 -111.5 -17.5t-96.5 -35.5l-35 -19v-815z" />
<glyph unicode="&#x1e40;" horiz-adv-x="1738" d="M783 1566v195h174v-195h-174zM186 0v1423h306l378 -1179l381 1179h301v-1423h-176v1221h-30l-381 -1170h-193l-379 1170h-31v-1221h-176z" />
<glyph unicode="&#x1e41;" horiz-adv-x="1763" d="M865 1168v194h174v-194h-174zM371 0h-174v1022h172v-66q156 88 274 88q164 0 256 -96q221 96 358 96q195 0 270 -118.5t75 -393.5v-532h-175v526q0 199 -37.5 280t-160.5 81q-53 0 -120 -18.5t-105 -37.5l-41 -18q29 -78 28 -283v-530h-172v526q0 193 -44 277t-161 84 q-51 0 -111.5 -17.5t-96.5 -35.5l-35 -19v-815z" />
<glyph unicode="&#x1e42;" horiz-adv-x="1738" d="M783 -318v195h174v-195h-174zM186 0v1423h306l378 -1179l381 1179h301v-1423h-176v1221h-30l-381 -1170h-193l-379 1170h-31v-1221h-176z" />
<glyph unicode="&#x1e43;" horiz-adv-x="1763" d="M811 -317v194h174v-194h-174zM371 0h-174v1022h172v-66q156 88 274 88q164 0 256 -96q221 96 358 96q195 0 270 -118.5t75 -393.5v-532h-175v526q0 199 -37.5 280t-160.5 81q-53 0 -120 -18.5t-105 -37.5l-41 -18q29 -78 28 -283v-530h-172v526q0 193 -44 277t-161 84 q-51 0 -111.5 -17.5t-96.5 -35.5l-35 -19v-815z" />
<glyph unicode="&#x1e44;" horiz-adv-x="1421" d="M623 1566v195h174v-195h-174zM186 0v1423h320l510 -1241h39v1241h178v-1423h-311l-519 1241h-38v-1241h-179z" />
<glyph unicode="&#x1e45;" horiz-adv-x="1161" d="M504 1168v194h174v-194h-174zM360 0h-174v1022h174v-64q154 86 291 86q197 0 269.5 -120.5t72.5 -391.5v-532h-172v530q0 190 -39 273.5t-159 83.5q-55 0 -121 -17.5t-105 -33.5l-37 -19v-817z" />
<glyph unicode="&#x1e46;" horiz-adv-x="1421" d="M623 -318v195h174v-195h-174zM186 0v1423h320l510 -1241h39v1241h178v-1423h-311l-519 1241h-38v-1241h-179z" />
<glyph unicode="&#x1e47;" horiz-adv-x="1161" d="M504 -317v194h174v-194h-174zM360 0h-174v1022h174v-64q154 86 291 86q197 0 269.5 -120.5t72.5 -391.5v-532h-172v530q0 190 -39 273.5t-159 83.5q-55 0 -121 -17.5t-105 -33.5l-37 -19v-817z" />
<glyph unicode="&#x1e48;" horiz-adv-x="1421" d="M385 -275v152h650v-152h-650zM186 0v1423h320l510 -1241h39v1241h178v-1423h-311l-519 1241h-38v-1241h-179z" />
<glyph unicode="&#x1e49;" horiz-adv-x="1161" d="M285 -275v152h608v-152h-608zM360 0h-174v1022h174v-64q154 86 291 86q197 0 269.5 -120.5t72.5 -391.5v-532h-172v530q0 190 -39 273.5t-159 83.5q-55 0 -121 -17.5t-105 -33.5l-37 -19v-817z" />
<glyph unicode="&#x1e4a;" horiz-adv-x="1421" d="M360 -404l271 281h157l271 -281h-199l-149 142l-148 -142h-203zM186 0v1423h320l510 -1241h39v1241h178v-1423h-311l-519 1241h-38v-1241h-179z" />
<glyph unicode="&#x1e4b;" horiz-adv-x="1161" d="M260 -434l258 312h139l260 -312h-190l-137 164l-140 -164h-190zM360 0h-174v1022h174v-64q154 86 291 86q197 0 269.5 -120.5t72.5 -391.5v-532h-172v530q0 190 -39 273.5t-159 83.5q-55 0 -121 -17.5t-105 -33.5l-37 -19v-817z" />
<glyph unicode="&#x1e4c;" horiz-adv-x="1331" d="M449 2169l461 192l61 -161l-465 -175zM665.5 143q206.5 0 287.5 128t81 431q0 299 -84 438.5t-284 139.5q-203 0 -286 -138t-83 -440q0 -299 81 -429t287.5 -130zM666 -23q-299 0 -426 175.5t-127 550t128 558t425 183.5t425 -183.5t128 -558.5q0 -379 -126 -552 t-427 -173zM997 1886l41 -133q-12 -14 -31.5 -33.5t-71.5 -53.5t-91 -34q-51 0 -178 55.5t-158 55.5q-23 0 -64 -24.5t-71 -49.5l-29 -24l-39 133q12 14 33.5 34.5t75 55.5t92.5 35q59 0 184 -54.5t150 -54.5q44 0 157 92z" />
<glyph unicode="&#x1e4d;" horiz-adv-x="1091" d="M301 1770l461 192l61 -162l-465 -174zM543 1044q227 0 328.5 -135t101.5 -389q0 -266 -96.5 -404.5t-333.5 -138.5q-244 0 -340.5 135.5t-96.5 409.5q0 260 99.5 391t337.5 131zM543 129q150 0 202 97.5t52 293.5q0 186 -58.5 279.5t-195.5 93.5q-143 0 -200.5 -89 t-57.5 -282q0 -205 52 -299t206 -94zM807 1487l39 -135q-96 -109 -184 -109q-51 0 -162 50t-142 50q-23 0 -60.5 -21.5t-64.5 -43.5l-28 -21l-39 132q104 115 192 114q57 0 167 -49t134 -49q20 0 57.5 20.5t63.5 40.5z" />
<glyph unicode="&#x1e4e;" horiz-adv-x="1331" d="M209 2025v199h168v-199h-168zM637 2025v199h168v-199h-168zM665.5 143q206.5 0 287.5 128t81 431q0 299 -84 438.5t-284 139.5q-203 0 -286 -138t-83 -440q0 -299 81 -429t287.5 -130zM666 -23q-299 0 -426 175.5t-127 550t128 558t425 183.5t425 -183.5t128 -558.5 q0 -379 -126 -552t-427 -173zM997 1886l41 -133q-12 -14 -31.5 -33.5t-71.5 -53.5t-91 -34q-51 0 -178 55.5t-158 55.5q-23 0 -64 -24.5t-71 -49.5l-29 -24l-39 133q12 14 33.5 34.5t75 55.5t92.5 35q59 0 184 -54.5t150 -54.5q44 0 157 92z" />
<glyph unicode="&#x1e4f;" horiz-adv-x="1091" d="M67 1626v199h168v-199h-168zM483 1626v199h168v-199h-168zM543 1044q227 0 328.5 -135t101.5 -389q0 -266 -96.5 -404.5t-333.5 -138.5q-244 0 -340.5 135.5t-96.5 409.5q0 260 99.5 391t337.5 131zM543 129q150 0 202 97.5t52 293.5q0 186 -58.5 279.5t-195.5 93.5 q-143 0 -200.5 -89t-57.5 -282q0 -205 52 -299t206 -94zM807 1487l39 -135q-96 -109 -184 -109q-51 0 -162 50t-142 50q-23 0 -60.5 -21.5t-64.5 -43.5l-28 -21l-39 132q104 115 192 114q57 0 167 -49t134 -49q20 0 57.5 20.5t63.5 40.5z" />
<glyph unicode="&#x1e50;" horiz-adv-x="1331" d="M260 2294l461 -192l-57 -144l-465 174zM665.5 143q206.5 0 287.5 128t81 431q0 299 -84 438.5t-284 139.5q-203 0 -286 -138t-83 -440q0 -299 81 -429t287.5 -130zM666 -23q-299 0 -426 175.5t-127 550t128 558t425 183.5t425 -183.5t128 -558.5q0 -379 -126 -552 t-427 -173zM338 1683v152h649v-152h-649z" />
<glyph unicode="&#x1e51;" horiz-adv-x="1081" d="M133 1904l461 -192l-57 -144l-465 174zM543 1044q227 0 328.5 -135t101.5 -389q0 -266 -96.5 -404.5t-333.5 -138.5q-244 0 -340.5 135.5t-96.5 409.5q0 260 99.5 391t337.5 131zM543 129q150 0 202 97.5t52 293.5q0 186 -58.5 279.5t-195.5 93.5q-143 0 -200.5 -89 t-57.5 -282q0 -205 52 -299t206 -94zM233 1294v152h609v-152h-609z" />
<glyph unicode="&#x1e52;" horiz-adv-x="1331" d="M604 2101l461 192l61 -161l-465 -175zM665.5 143q206.5 0 287.5 128t81 431q0 299 -84 438.5t-284 139.5q-203 0 -286 -138t-83 -440q0 -299 81 -429t287.5 -130zM666 -23q-299 0 -426 175.5t-127 550t128 558t425 183.5t425 -183.5t128 -558.5q0 -379 -126 -552 t-427 -173zM338 1683v152h649v-152h-649z" />
<glyph unicode="&#x1e53;" horiz-adv-x="1081" d="M482 1712l461 192l61 -162l-465 -174zM543 1044q227 0 328.5 -135t101.5 -389q0 -266 -96.5 -404.5t-333.5 -138.5q-244 0 -340.5 135.5t-96.5 409.5q0 260 99.5 391t337.5 131zM543 129q150 0 202 97.5t52 293.5q0 186 -58.5 279.5t-195.5 93.5q-143 0 -200.5 -89 t-57.5 -282q0 -205 52 -299t206 -94zM233 1294v152h609v-152h-609z" />
<glyph unicode="&#x1e54;" horiz-adv-x="1234" d="M379 1710l461 192l61 -161l-465 -175zM684 465h-319v-465h-179v1423h498q225 0 342 -118.5t117 -343.5q0 -231 -119 -363.5t-340 -132.5zM365 629h317q139 0 209 90t70 242q0 299 -279 299h-317v-631z" />
<glyph unicode="&#x1e55;" horiz-adv-x="1112" d="M580 1311l461 192l61 -162l-465 -174zM186 -451v1473h174v-64q133 86 277 86q373 0 373 -522q0 -289 -106.5 -417t-338.5 -128q-92 0 -205 21v-449h-174zM610 889q-123 0 -250 -76v-663q102 -18 195 -19q152 0 214 95.5t62 299.5q0 172 -56 267.5t-165 95.5z" />
<glyph unicode="&#x1e56;" horiz-adv-x="1234" d="M348 1566v195h174v-195h-174zM684 465h-319v-465h-179v1423h498q225 0 342 -118.5t117 -343.5q0 -231 -119 -363.5t-340 -132.5zM365 629h317q139 0 209 90t70 242q0 299 -279 299h-317v-631z" />
<glyph unicode="&#x1e57;" horiz-adv-x="1112" d="M549 1168v194h174v-194h-174zM186 -451v1473h174v-64q133 86 277 86q373 0 373 -522q0 -289 -106.5 -417t-338.5 -128q-92 0 -205 21v-449h-174zM610 889q-123 0 -250 -76v-663q102 -18 195 -19q152 0 214 95.5t62 299.5q0 172 -56 267.5t-165 95.5z" />
<glyph unicode="&#x1e58;" horiz-adv-x="1271" d="M353 1566v195h174v-195h-174zM725 530l-47 -2h-316v-528h-176v1423h506q459 0 459 -440q0 -326 -250 -412l260 -571h-196zM967 981q0 133 -72 204.5t-203 71.5h-330v-567h332q139 0 206 80t67 211z" />
<glyph unicode="&#x1e59;" horiz-adv-x="731" d="M336 1168v194h174v-194h-174zM172 0v1022h172v-127q147 113 330 149v-182q-82 -16 -165 -48t-124 -56l-41 -23v-735h-172z" />
<glyph unicode="&#x1e5a;" horiz-adv-x="1271" d="M586 -318v195h174v-195h-174zM725 530l-47 -2h-316v-528h-176v1423h506q459 0 459 -440q0 -326 -250 -412l260 -571h-196zM967 981q0 133 -72 204.5t-203 71.5h-330v-567h332q139 0 206 80t67 211z" />
<glyph unicode="&#x1e5b;" horiz-adv-x="731" d="M172 -317v194h174v-194h-174zM172 0v1022h172v-127q147 113 330 149v-182q-82 -16 -165 -48t-124 -56l-41 -23v-735h-172z" />
<glyph unicode="&#x1e5c;" horiz-adv-x="1271" d="M114 1567v152h650v-152h-650zM586 -318v195h174v-195h-174zM725 530l-47 -2h-316v-528h-176v1423h506q459 0 459 -440q0 -326 -250 -412l260 -571h-196zM967 981q0 133 -72 204.5t-203 71.5h-330v-567h332q139 0 206 80t67 211z" />
<glyph unicode="&#x1e5d;" horiz-adv-x="731" d="M371 1167v152h608v-152h-608zM172 -317v194h174v-194h-174zM172 0v1022h172v-127q147 113 330 149v-182q-82 -16 -165 -48t-124 -56l-41 -23v-735h-172z" />
<glyph unicode="&#x1e5e;" horiz-adv-x="1271" d="M350 -275v152h650v-152h-650zM725 530l-47 -2h-316v-528h-176v1423h506q459 0 459 -440q0 -326 -250 -412l260 -571h-196zM967 981q0 133 -72 204.5t-203 71.5h-330v-567h332q139 0 206 80t67 211z" />
<glyph unicode="&#x1e5f;" horiz-adv-x="731" d="M-47 -275v152h608v-152h-608zM172 0v1022h172v-127q147 113 330 149v-182q-82 -16 -165 -48t-124 -56l-41 -23v-735h-172z" />
<glyph unicode="&#x1e60;" horiz-adv-x="1091" d="M475 1568v195h174v-195h-174zM977 1405l-8 -156q-279 33 -398 33q-283 0 -282 -217q0 -117 68.5 -168t256.5 -102q223 -59 310.5 -137t87.5 -248q0 -223 -110.5 -326.5t-344.5 -103.5l-430 40l10 156q270 -31 406 -31q291 0 291 258q0 98 -67 147.5t-241 94.5 q-231 63 -323 148.5t-92 267.5q0 190 116.5 287.5t335.5 97.5z" />
<glyph unicode="&#x1e61;" horiz-adv-x="1003" d="M398 1168v194h174v-194h-174zM848 1004l-4 -144q-231 31 -350 31q-199 0 -199 -146q0 -61 47 -91.5t184 -53.5q201 -33 278 -94.5t77 -204.5q0 -324 -392 -324q-59 0 -148 10.5t-148 20.5l-62 10l8 146q231 -33 336 -33q121 0 176.5 37t55.5 127q0 70 -44.5 97.5 t-187.5 51.5q-190 35 -273 95.5t-83 199.5q0 158 105.5 231.5t258.5 73.5q68 0 159 -10t149 -20z" />
<glyph unicode="&#x1e62;" horiz-adv-x="1091" d="M471 -338v195h174v-195h-174zM977 1405l-8 -156q-279 33 -398 33q-283 0 -282 -217q0 -117 68.5 -168t256.5 -102q223 -59 310.5 -137t87.5 -248q0 -223 -110.5 -326.5t-344.5 -103.5l-430 40l10 156q270 -31 406 -31q291 0 291 258q0 98 -67 147.5t-241 94.5 q-231 63 -323 148.5t-92 267.5q0 190 116.5 287.5t335.5 97.5z" />
<glyph unicode="&#x1e63;" horiz-adv-x="1003" d="M402 -340v194h174v-194h-174zM848 1004l-4 -144q-231 31 -350 31q-199 0 -199 -146q0 -61 47 -91.5t184 -53.5q201 -33 278 -94.5t77 -204.5q0 -324 -392 -324q-59 0 -148 10.5t-148 20.5l-62 10l8 146q231 -33 336 -33q121 0 176.5 37t55.5 127q0 70 -44.5 97.5 t-187.5 51.5q-190 35 -273 95.5t-83 199.5q0 158 105.5 231.5t258.5 73.5q68 0 159 -10t149 -20z" />
<glyph unicode="&#x1e64;" horiz-adv-x="1091" d="M656 2056v195h174v-195h-174zM977 1405l-8 -156q-279 33 -398 33q-283 0 -282 -217q0 -117 68.5 -168t256.5 -102q223 -59 310.5 -137t87.5 -248q0 -223 -110.5 -326.5t-344.5 -103.5l-430 40l10 156q270 -31 406 -31q291 0 291 258q0 98 -67 147.5t-241 94.5 q-231 63 -323 148.5t-92 267.5q0 190 116.5 287.5t335.5 97.5zM283 1741l460 192l62 -161l-465 -175z" />
<glyph unicode="&#x1e65;" horiz-adv-x="1003" d="M615 1667v194h174v-194h-174zM848 1004l-4 -144q-231 31 -350 31q-199 0 -199 -146q0 -61 47 -91.5t184 -53.5q201 -33 278 -94.5t77 -204.5q0 -324 -392 -324q-59 0 -148 10.5t-148 20.5l-62 10l8 146q231 -33 336 -33q121 0 176.5 37t55.5 127q0 70 -44.5 97.5 t-187.5 51.5q-190 35 -273 95.5t-83 199.5q0 158 105.5 231.5t258.5 73.5q68 0 159 -10t149 -20zM240 1352l460 192l62 -162l-465 -174z" />
<glyph unicode="&#x1e66;" horiz-adv-x="1091" d="M486 2031v195h174v-195h-174zM977 1405l-8 -156q-279 33 -398 33q-283 0 -282 -217q0 -117 68.5 -168t256.5 -102q223 -59 310.5 -137t87.5 -248q0 -223 -110.5 -326.5t-344.5 -103.5l-430 40l10 156q270 -31 406 -31q291 0 291 258q0 98 -67 147.5t-241 94.5 q-231 63 -323 148.5t-92 267.5q0 190 116.5 287.5t335.5 97.5zM922 1909l-271 -281h-155l-273 281h203l147 -146l148 146h201z" />
<glyph unicode="&#x1e67;" horiz-adv-x="1003" d="M416 1643v194h174v-194h-174zM848 1004l-4 -144q-231 31 -350 31q-199 0 -199 -146q0 -61 47 -91.5t184 -53.5q201 -33 278 -94.5t77 -204.5q0 -324 -392 -324q-59 0 -148 10.5t-148 20.5l-62 10l8 146q231 -33 336 -33q121 0 176.5 37t55.5 127q0 70 -44.5 97.5 t-187.5 51.5q-190 35 -273 95.5t-83 199.5q0 158 105.5 231.5t258.5 73.5q68 0 159 -10t149 -20zM430 1208l-256 312h191l139 -164l137 164h190l-258 -312h-143z" />
<glyph unicode="&#x1e68;" horiz-adv-x="1091" d="M475 1568v195h174v-195h-174zM471 -338v195h174v-195h-174zM977 1405l-8 -156q-279 33 -398 33q-283 0 -282 -217q0 -117 68.5 -168t256.5 -102q223 -59 310.5 -137t87.5 -248q0 -223 -110.5 -326.5t-344.5 -103.5l-430 40l10 156q270 -31 406 -31q291 0 291 258 q0 98 -67 147.5t-241 94.5q-231 63 -323 148.5t-92 267.5q0 190 116.5 287.5t335.5 97.5z" />
<glyph unicode="&#x1e69;" horiz-adv-x="1003" d="M398 1168v194h174v-194h-174zM402 -340v194h174v-194h-174zM848 1004l-4 -144q-231 31 -350 31q-199 0 -199 -146q0 -61 47 -91.5t184 -53.5q201 -33 278 -94.5t77 -204.5q0 -324 -392 -324q-59 0 -148 10.5t-148 20.5l-62 10l8 146q231 -33 336 -33q121 0 176.5 37 t55.5 127q0 70 -44.5 97.5t-187.5 51.5q-190 35 -273 95.5t-83 199.5q0 158 105.5 231.5t258.5 73.5q68 0 159 -10t149 -20z" />
<glyph unicode="&#x1e6a;" horiz-adv-x="1003" d="M414 1566v195h174v-195h-174zM16 1251v172h969v-172h-393v-1251h-176v1251h-400z" />
<glyph unicode="&#x1e6b;" horiz-adv-x="739" d="M193 1456v194h174v-194h-174zM662 868h-297v-469q0 -150 28.5 -208t108.5 -58l164 10l8 -143q-121 -23 -193 -23q-156 0 -222 86.5t-66 290.5v514h-138v154h138v311h172v-311h297v-154z" />
<glyph unicode="&#x1e6c;" horiz-adv-x="1003" d="M418 -318v195h174v-195h-174zM16 1251v172h969v-172h-393v-1251h-176v1251h-400z" />
<glyph unicode="&#x1e6d;" horiz-adv-x="739" d="M393 -340v194h174v-194h-174zM662 868h-297v-469q0 -150 28.5 -208t108.5 -58l164 10l8 -143q-121 -23 -193 -23q-156 0 -222 86.5t-66 290.5v514h-138v154h138v311h172v-311h297v-154z" />
<glyph unicode="&#x1e6e;" horiz-adv-x="1003" d="M178 -275v152h650v-152h-650zM16 1251v172h969v-172h-393v-1251h-176v1251h-400z" />
<glyph unicode="&#x1e6f;" horiz-adv-x="739" d="M178 -297v152h608v-152h-608zM662 868h-297v-469q0 -150 28.5 -208t108.5 -58l164 10l8 -143q-121 -23 -193 -23q-156 0 -222 86.5t-66 290.5v514h-138v154h138v311h172v-311h297v-154z" />
<glyph unicode="&#x1e70;" horiz-adv-x="1003" d="M153 -404l271 281h157l271 -281h-199l-149 142l-148 -142h-203zM16 1251v172h969v-172h-393v-1251h-176v1251h-400z" />
<glyph unicode="&#x1e71;" horiz-adv-x="739" d="M154 -457l258 312h139l260 -312h-190l-137 164l-140 -164h-190zM662 868h-297v-469q0 -150 28.5 -208t108.5 -58l164 10l8 -143q-121 -23 -193 -23q-156 0 -222 86.5t-66 290.5v514h-138v154h138v311h172v-311h297v-154z" />
<glyph unicode="&#x1e72;" horiz-adv-x="1318" d="M356 -340v199h168v-199h-168zM784 -340v199h168v-199h-168zM342 436q0 -150 78 -218t233 -68q162 0 243 68.5t81 217.5v987h176v-987q0 -236 -122 -345t-378 -109q-248 0 -368.5 109.5t-120.5 344.5v987h178v-987z" />
<glyph unicode="&#x1e73;" horiz-adv-x="1144" d="M223 -344v199h168v-199h-168zM639 -344v199h168v-199h-168zM795 1022h172v-1022h-172v61q-156 -84 -281 -84q-197 0 -269.5 116t-72.5 396v533h172v-530q0 -201 40 -281t159 -80q51 0 113.5 18.5t101.5 34.5l37 19v819z" />
<glyph unicode="&#x1e74;" horiz-adv-x="1318" d="M979 -158l41 -133q-12 -14 -31.5 -33.5t-72 -53t-91.5 -33.5q-51 0 -178 55t-158 55q-23 0 -63.5 -24.5t-71.5 -49.5l-28 -24l-39 133q12 14 33.5 34.5t74.5 55.5t92 35q59 0 184.5 -54.5t149.5 -54.5q45 0 158 92zM342 436q0 -150 78 -218t233 -68q162 0 243 68.5 t81 217.5v987h176v-987q0 -236 -122 -345t-378 -109q-248 0 -368.5 109.5t-120.5 344.5v987h178v-987z" />
<glyph unicode="&#x1e75;" horiz-adv-x="1144" d="M815 -162l39 -135q-96 -109 -185 -109q-51 0 -161.5 50t-141.5 50q-23 0 -60.5 -21.5t-66.5 -43.5l-26 -21l-39 132q104 115 192 114q57 0 167 -49t134 -49q20 0 57.5 20.5t63.5 40.5zM795 1022h172v-1022h-172v61q-156 -84 -281 -84q-197 0 -269.5 116t-72.5 396v533 h172v-530q0 -201 40 -281t159 -80q51 0 113.5 18.5t101.5 34.5l37 19v819z" />
<glyph unicode="&#x1e76;" horiz-adv-x="1318" d="M305 -422l271 281h157l271 -281h-199l-149 142l-148 -142h-203zM342 436q0 -150 78 -218t233 -68q162 0 243 68.5t81 217.5v987h176v-987q0 -236 -122 -345t-378 -109q-248 0 -368.5 109.5t-120.5 344.5v987h178v-987z" />
<glyph unicode="&#x1e77;" horiz-adv-x="1144" d="M186 -457l258 312h139l260 -312h-190l-137 164l-140 -164h-190zM795 1022h172v-1022h-172v61q-156 -84 -281 -84q-197 0 -269.5 116t-72.5 396v533h172v-530q0 -201 40 -281t159 -80q51 0 113.5 18.5t101.5 34.5l37 19v819z" />
<glyph unicode="&#x1e78;" horiz-adv-x="1318" d="M430 2169l461 192l61 -161l-465 -175zM342 436q0 -150 78 -218t233 -68q162 0 243 68.5t81 217.5v987h176v-987q0 -236 -122 -345t-378 -109q-248 0 -368.5 109.5t-120.5 344.5v987h178v-987zM979 1886l41 -133q-12 -14 -31.5 -33.5t-72 -53.5t-91.5 -34q-51 0 -178 55.5 t-158 55.5q-23 0 -63.5 -24.5t-69.5 -49.5l-30 -24l-39 133q12 14 33.5 34.5t75 55.5t91.5 35q59 0 184.5 -54.5t149.5 -54.5q45 0 158 92z" />
<glyph unicode="&#x1e79;" horiz-adv-x="1144" d="M359 1770l461 192l61 -162l-465 -174zM795 1022h172v-1022h-172v61q-156 -84 -281 -84q-197 0 -269.5 116t-72.5 396v533h172v-530q0 -201 40 -281t159 -80q51 0 113.5 18.5t101.5 34.5l37 19v819zM864 1487l39 -135q-96 -109 -184 -109q-51 0 -162 50t-141 50 q-23 0 -61 -21.5t-64 -43.5l-29 -21l-39 132q104 115 193 114q57 0 166.5 -49t134.5 -49q20 0 57 20.5t64 40.5z" />
<glyph unicode="&#x1e7a;" horiz-adv-x="1318" d="M358 1958v199h168v-199h-168zM786 1958v199h168v-199h-168zM342 436q0 -150 78 -218t233 -68q162 0 243 68.5t81 217.5v987h176v-987q0 -236 -122 -345t-378 -109q-248 0 -368.5 109.5t-120.5 344.5v987h178v-987zM332 1683v152h649v-152h-649z" />
<glyph unicode="&#x1e7b;" horiz-adv-x="1144" d="M278 1569v199h168v-199h-168zM694 1569v199h168v-199h-168zM795 1022h172v-1022h-172v61q-156 -84 -281 -84q-197 0 -269.5 116t-72.5 396v533h172v-530q0 -201 40 -281t159 -80q51 0 113.5 18.5t101.5 34.5l37 19v819zM266 1294v152h608v-152h-608z" />
<glyph unicode="&#x1e7c;" horiz-adv-x="1220" d="M936 1820l41 -133q-12 -14 -31.5 -33.5t-72 -53t-91.5 -33.5q-51 0 -178 55t-158 55q-23 0 -63.5 -24.5t-71.5 -49.5l-28 -24l-39 133q12 14 33.5 34.5t74.5 55.5t92 35q59 0 184.5 -54.5t149.5 -54.5q45 0 158 92zM969 1423h184l-356 -1423h-371l-360 1423h186 l311 -1261h96z" />
<glyph unicode="&#x1e7d;" horiz-adv-x="987" d="M795 1411l39 -135q-96 -109 -185 -109q-51 0 -161.5 50t-141.5 50q-23 0 -60.5 -21.5t-66.5 -43.5l-26 -21l-39 132q104 115 192 114q57 0 167 -49t134 -49q20 0 57.5 20.5t63.5 40.5zM53 1022h180l230 -879h61l232 879h178l-281 -1022h-323z" />
<glyph unicode="&#x1e7e;" horiz-adv-x="1220" d="M525 -318v195h174v-195h-174zM969 1423h184l-356 -1423h-371l-360 1423h186l311 -1261h96z" />
<glyph unicode="&#x1e7f;" horiz-adv-x="987" d="M406 -317v194h174v-194h-174zM53 1022h180l230 -879h61l232 879h178l-281 -1022h-323z" />
<glyph unicode="&#x1e80;" horiz-adv-x="1855" d="M80 1423h184l248 -1261h55l260 1241h201l266 -1241h54l243 1261h185l-291 -1423h-318l-239 1167l-234 -1167h-319zM717 1921l461 -192l-58 -144l-465 174z" />
<glyph unicode="&#x1e81;" horiz-adv-x="1546" d="M55 1022h172l189 -866h49l217 848h182l217 -848h47l191 866h172l-231 -1022h-299l-189 772l-190 -772h-297zM571 1542l461 -192l-57 -144l-465 174z" />
<glyph unicode="&#x1e82;" horiz-adv-x="1855" d="M80 1423h184l248 -1261h55l260 1241h201l266 -1241h54l243 1261h185l-291 -1423h-318l-239 1167l-234 -1167h-319zM676 1741l461 192l61 -161l-465 -175z" />
<glyph unicode="&#x1e83;" horiz-adv-x="1546" d="M55 1022h172l189 -866h49l217 848h182l217 -848h47l191 866h172l-231 -1022h-299l-189 772l-190 -772h-297zM510 1352l461 192l61 -162l-465 -174z" />
<glyph unicode="&#x1e84;" horiz-adv-x="1855" d="M80 1423h184l248 -1261h55l260 1241h201l266 -1241h54l243 1261h185l-291 -1423h-318l-239 1167l-234 -1167h-319zM629 1671v199h168v-199h-168zM1057 1671v199h168v-199h-168z" />
<glyph unicode="&#x1e85;" horiz-adv-x="1546" d="M55 1022h172l189 -866h49l217 848h182l217 -848h47l191 866h172l-231 -1022h-299l-189 772l-190 -772h-297zM481 1274v199h168v-199h-168zM897 1274v199h168v-199h-168z" />
<glyph unicode="&#x1e86;" horiz-adv-x="1855" d="M840 1566v195h174v-195h-174zM80 1423h184l248 -1261h55l260 1241h201l266 -1241h54l243 1261h185l-291 -1423h-318l-239 1167l-234 -1167h-319z" />
<glyph unicode="&#x1e87;" horiz-adv-x="1546" d="M686 1168v194h174v-194h-174zM55 1022h172l189 -866h49l217 848h182l217 -848h47l191 866h172l-231 -1022h-299l-189 772l-190 -772h-297z" />
<glyph unicode="&#x1e88;" horiz-adv-x="1855" d="M844 -318v195h174v-195h-174zM80 1423h184l248 -1261h55l260 1241h201l266 -1241h54l243 1261h185l-291 -1423h-318l-239 1167l-234 -1167h-319z" />
<glyph unicode="&#x1e89;" horiz-adv-x="1546" d="M684 -317v194h174v-194h-174zM55 1022h172l189 -866h49l217 848h182l217 -848h47l191 866h172l-231 -1022h-299l-189 772l-190 -772h-297z" />
<glyph unicode="&#x1e8a;" horiz-adv-x="1189" d="M508 1566v195h174v-195h-174zM266 1423l330 -589l326 589h200l-409 -718l409 -705h-200l-326 578l-330 -578h-200l417 705l-417 718h200z" />
<glyph unicode="&#x1e8b;" horiz-adv-x="944" d="M385 1168v194h174v-194h-174zM57 1022h189l225 -387l227 387h189l-309 -512l307 -510h-189l-225 385l-223 -385h-189l308 510z" />
<glyph unicode="&#x1e8c;" horiz-adv-x="1189" d="M295 1567v199h168v-199h-168zM723 1567v199h168v-199h-168zM266 1423l330 -589l326 589h200l-409 -718l409 -705h-200l-326 578l-330 -578h-200l417 705l-417 718h200z" />
<glyph unicode="&#x1e8d;" horiz-adv-x="944" d="M180 1168v199h168v-199h-168zM596 1168v199h168v-199h-168zM57 1022h189l225 -387l227 387h189l-309 -512l307 -510h-189l-225 385l-223 -385h-189l308 510z" />
<glyph unicode="&#x1e8e;" horiz-adv-x="1136" d="M482 1566v195h174v-195h-174zM659 610v-610h-176v610l-438 813h199l325 -624l322 624h201z" />
<glyph unicode="&#x1e8f;" horiz-adv-x="987" d="M406 1168v194h174v-194h-174zM53 1022h172l238 -856h59l240 856h172l-410 -1473h-172l127 451h-147z" />
<glyph unicode="&#x1e90;" horiz-adv-x="1167" d="M235 1566l271 281h157l271 -281h-199l-149 142l-148 -142h-203zM133 1255v168h901v-204l-688 -1016v-37h688v-168h-901v203l686 1016v38h-686z" />
<glyph unicode="&#x1e91;" horiz-adv-x="980" d="M162 1167l258 312h139l260 -312h-190l-137 164l-140 -164h-190zM121 868v156h737l2 -156l-536 -714h536v-154h-737l-2 154l536 714h-536z" />
<glyph unicode="&#x1e92;" horiz-adv-x="1167" d="M496 -320v195h174v-195h-174zM133 1255v168h901v-204l-688 -1016v-37h688v-168h-901v203l686 1016v38h-686z" />
<glyph unicode="&#x1e93;" horiz-adv-x="980" d="M406 -317v194h174v-194h-174zM121 868v156h737l2 -156l-536 -714h536v-154h-737l-2 154l536 714h-536z" />
<glyph unicode="&#x1e94;" horiz-adv-x="1167" d="M260 -277v152h650v-152h-650zM133 1255v168h901v-204l-688 -1016v-37h688v-168h-901v203l686 1016v38h-686z" />
<glyph unicode="&#x1e95;" horiz-adv-x="980" d="M186 -275v152h608v-152h-608zM121 868v156h737l2 -156l-536 -714h536v-154h-737l-2 154l536 714h-536z" />
<glyph unicode="&#x1e96;" horiz-adv-x="1155" d="M277 -275v152h608v-152h-608zM350 0h-174v1464h174v-485q164 66 289 65q197 0 270.5 -120.5t73.5 -388.5v-535h-174v532q0 188 -39 271.5t-160 83.5q-51 0 -115.5 -13.5t-105.5 -27.5l-39 -15v-831z" />
<glyph unicode="&#x1e97;" horiz-adv-x="739" d="M-15 1456v199h168v-199h-168zM401 1456v199h168v-199h-168zM662 868h-297v-469q0 -150 28.5 -208t108.5 -58l164 10l8 -143q-121 -23 -193 -23q-156 0 -222 86.5t-66 290.5v514h-138v154h138v311h172v-311h297v-154z" />
<glyph unicode="&#x1e98;" horiz-adv-x="1546" d="M557 1385q0 90 62.5 153.5t154.5 63.5q90 0 153.5 -63.5t63.5 -153.5q0 -92 -62.5 -154.5t-154.5 -62.5t-154.5 61.5t-62.5 155.5zM680 1385q0 -41 27.5 -69.5t68.5 -28.5q39 0 65.5 28.5t26.5 69.5q0 39 -26.5 66.5t-65.5 27.5q-41 0 -68.5 -27.5t-27.5 -66.5zM55 1022 h172l189 -866h49l217 848h182l217 -848h47l191 866h172l-231 -1022h-299l-189 772l-190 -772h-297z" />
<glyph unicode="&#x1e99;" horiz-adv-x="987" d="M277 1385q0 90 62.5 153.5t154.5 63.5q90 0 153.5 -63.5t63.5 -153.5q0 -92 -62.5 -154.5t-154.5 -62.5t-154.5 61.5t-62.5 155.5zM400 1385q0 -41 27.5 -69.5t68.5 -28.5q39 0 65.5 28.5t26.5 69.5q0 39 -26.5 66.5t-65.5 27.5q-41 0 -68.5 -27.5t-27.5 -66.5zM53 1022 h172l238 -856h59l240 856h172l-410 -1473h-172l127 451h-147z" />
<glyph unicode="&#x1e9b;" horiz-adv-x="1003" d="M398 1168v194h174v-194h-174zM848 1004l-4 -144q-231 31 -350 31q-199 0 -199 -146q0 -61 47 -91.5t184 -53.5q201 -33 278 -94.5t77 -204.5q0 -324 -392 -324q-59 0 -148 10.5t-148 20.5l-62 10l8 146q231 -33 336 -33q121 0 176.5 37t55.5 127q0 70 -44.5 97.5 t-187.5 51.5q-190 35 -273 95.5t-83 199.5q0 158 105.5 231.5t258.5 73.5q68 0 159 -10t149 -20z" />
<glyph unicode="&#x1ea0;" horiz-adv-x="1236" d="M533 -318v195h174v-195h-174zM66 0l376 1423h357l372 -1423h-178l-100 342h-553l-96 -342h-178zM580 1266l-201 -760h477l-197 760h-79z" />
<glyph unicode="&#x1ea1;" horiz-adv-x="1071" d="M324 -340v194h174v-194h-174zM889 709v-484q12 -49 38.5 -69.5t78.5 -28.5l-11 -147q-166 0 -250 77q-160 -80 -335 -80q-131 0 -214 88.5t-83 229.5q0 281 319 307l285 27v82q0 174 -160 174l-387 -27l-6 146q244 41 401 40q162 0 243 -80.5t81 -254.5zM717 496 l-266 -21q-162 -12 -162 -176q0 -76 39 -125t102.5 -49t135 14.5t110.5 28.5l41 14v314z" />
<glyph unicode="&#x1ea4;" horiz-adv-x="1236" d="M555 2173l461 192l61 -161l-465 -175zM66 0l376 1423h357l372 -1423h-178l-100 342h-553l-96 -342h-178zM580 1266l-201 -760h477l-197 760h-79zM264 1626l271 281h157l271 -281h-199l-150 141l-147 -141h-203z" />
<glyph unicode="&#x1ea5;" horiz-adv-x="1089" d="M453 1786l461 192l61 -162l-465 -174zM889 709v-484q12 -49 38.5 -69.5t78.5 -28.5l-11 -147q-166 0 -250 77q-160 -80 -335 -80q-131 0 -214 88.5t-83 229.5q0 281 319 307l285 27v82q0 174 -160 174l-387 -27l-6 146q244 41 401 40q162 0 243 -80.5t81 -254.5zM717 496 l-266 -21q-162 -12 -162 -176q0 -76 39 -125t102.5 -49t135 14.5t110.5 28.5l41 14v314zM182 1208l258 312h140l260 -312h-191l-137 164l-139 -164h-191z" />
<glyph unicode="&#x1ea6;" horiz-adv-x="1236" d="M211 2365l461 -192l-57 -144l-465 174zM66 0l376 1423h357l372 -1423h-178l-100 342h-553l-96 -342h-178zM580 1266l-201 -760h477l-197 760h-79zM264 1626l271 281h157l271 -281h-199l-150 141l-147 -141h-203z" />
<glyph unicode="&#x1ea7;" horiz-adv-x="1089" d="M106 1978l461 -192l-57 -144l-465 174zM889 709v-484q12 -49 38.5 -69.5t78.5 -28.5l-11 -147q-166 0 -250 77q-160 -80 -335 -80q-131 0 -214 88.5t-83 229.5q0 281 319 307l285 27v82q0 174 -160 174l-387 -27l-6 146q244 41 401 40q162 0 243 -80.5t81 -254.5z M717 496l-266 -21q-162 -12 -162 -176q0 -76 39 -125t102.5 -49t135 14.5t110.5 28.5l41 14v314zM182 1208l258 312h140l260 -312h-191l-137 164l-139 -164h-191z" />
<glyph unicode="&#x1eaa;" horiz-adv-x="1236" d="M940 2283l41 -133q-12 -14 -31.5 -33.5t-72 -53t-91.5 -33.5q-51 0 -178 55t-158 55q-23 0 -63.5 -24.5t-71.5 -49.5l-28 -24l-39 133q12 14 33.5 34.5t74.5 55.5t92 35q59 0 184.5 -54.5t149.5 -54.5q45 0 158 92zM66 0l376 1423h357l372 -1423h-178l-100 342h-553 l-96 -342h-178zM580 1266l-201 -760h477l-197 760h-79zM264 1626l271 281h157l271 -281h-199l-150 141l-147 -141h-203z" />
<glyph unicode="&#x1eab;" horiz-adv-x="1089" d="M889 709v-484q12 -49 38.5 -69.5t78.5 -28.5l-11 -147q-166 0 -250 77q-160 -80 -335 -80q-131 0 -214 88.5t-83 229.5q0 281 319 307l285 27v82q0 174 -160 174l-387 -27l-6 146q244 41 401 40q162 0 243 -80.5t81 -254.5zM717 496l-266 -21q-162 -12 -162 -176 q0 -76 39 -125t102.5 -49t135 14.5t110.5 28.5l41 14v314zM207 1147l258 311h139l260 -311h-190l-137 164l-140 -164h-190zM836 1753l38 -135q-96 -109 -184 -109q-51 0 -161.5 50.5t-141.5 50.5q-23 0 -60.5 -21.5t-64.5 -44.5l-29 -20l-38 131q104 115 192 114 q57 0 167 -49t134 -49q20 0 57 20.5t64 41.5z" />
<glyph unicode="&#x1eac;" horiz-adv-x="1236" d="M272 1566l271 281h157l271 -281h-199l-149 142l-148 -142h-203zM533 -318v195h174v-195h-174zM66 0l376 1423h357l372 -1423h-178l-100 342h-553l-96 -342h-178zM580 1266l-201 -760h477l-197 760h-79z" />
<glyph unicode="&#x1ead;" horiz-adv-x="1071" d="M236 1167l258 312h139l260 -312h-190l-137 164l-140 -164h-190zM324 -340v194h174v-194h-174zM889 709v-484q12 -49 38.5 -69.5t78.5 -28.5l-11 -147q-166 0 -250 77q-160 -80 -335 -80q-131 0 -214 88.5t-83 229.5q0 281 319 307l285 27v82q0 174 -160 174l-387 -27 l-6 146q244 41 401 40q162 0 243 -80.5t81 -254.5zM717 496l-266 -21q-162 -12 -162 -176q0 -76 39 -125t102.5 -49t135 14.5t110.5 28.5l41 14v314z" />
<glyph unicode="&#x1eae;" horiz-adv-x="1236" d="M561 2163l461 192l61 -161l-465 -175zM66 0l376 1423h357l372 -1423h-178l-100 342h-553l-96 -342h-178zM580 1266l-201 -760h477l-197 760h-79zM287 1896h178q2 -59 46 -94t107 -35q66 0 109 35t45 94h178q-8 -125 -96 -200.5t-235.5 -75.5t-235.5 75.5t-96 200.5z" />
<glyph unicode="&#x1eaf;" horiz-adv-x="1071" d="M477 1772l461 192l61 -162l-465 -174zM889 709v-484q12 -49 38.5 -69.5t78.5 -28.5l-11 -147q-166 0 -250 77q-160 -80 -335 -80q-131 0 -214 88.5t-83 229.5q0 281 319 307l285 27v82q0 174 -160 174l-387 -27l-6 146q244 41 401 40q162 0 243 -80.5t81 -254.5zM717 496 l-266 -21q-162 -12 -162 -176q0 -76 39 -125t102.5 -49t135 14.5t110.5 28.5l41 14v314zM195 1505h178q4 -66 46 -104.5t115.5 -38.5t115.5 39t46 104h178q-8 -133 -97 -215t-242 -82q-156 0 -244 82t-96 215z" />
<glyph unicode="&#x1eb0;" horiz-adv-x="1236" d="M66 0l376 1423h357l372 -1423h-178l-100 342h-553l-96 -342h-178zM580 1266l-201 -760h477l-197 760h-79zM287 1827h178q2 -59 46 -94t107 -35q66 0 109 34.5t45 94.5h178q-8 -125 -96 -201t-235.5 -76t-235.5 76t-96 201zM418 2249l461 -193l-58 -143l-465 174z" />
<glyph unicode="&#x1eb1;" horiz-adv-x="1071" d="M131 1964l461 -192l-57 -144l-465 174zM889 709v-484q12 -49 38.5 -69.5t78.5 -28.5l-11 -147q-166 0 -250 77q-160 -80 -335 -80q-131 0 -214 88.5t-83 229.5q0 281 319 307l285 27v82q0 174 -160 174l-387 -27l-6 146q244 41 401 40q162 0 243 -80.5t81 -254.5z M717 496l-266 -21q-162 -12 -162 -176q0 -76 39 -125t102.5 -49t135 14.5t110.5 28.5l41 14v314zM195 1505h178q4 -66 46 -104.5t115.5 -38.5t115.5 39t46 104h178q-8 -133 -97 -215t-242 -82q-156 0 -244 82t-96 215z" />
<glyph unicode="&#x1eb4;" horiz-adv-x="1236" d="M944 2273l41 -133q-12 -14 -31.5 -33.5t-72 -53t-91.5 -33.5q-51 0 -178 55t-158 55q-23 0 -63.5 -24.5t-71.5 -49.5l-28 -24l-39 133q12 14 33.5 34.5t74.5 55.5t92 35q59 0 184.5 -54.5t149.5 -54.5q45 0 158 92zM66 0l376 1423h357l372 -1423h-178l-100 342h-553 l-96 -342h-178zM580 1266l-201 -760h477l-197 760h-79zM287 1896h178q2 -59 46 -94t107 -35q66 0 109 35t45 94h178q-8 -125 -96 -200.5t-235.5 -75.5t-235.5 75.5t-96 200.5z" />
<glyph unicode="&#x1eb5;" horiz-adv-x="1071" d="M836 1872l39 -135q-96 -109 -185 -109q-51 0 -161.5 50t-141.5 50q-23 0 -60.5 -21.5t-66.5 -43.5l-26 -21l-39 132q104 115 192 114q57 0 167 -49t134 -49q20 0 57.5 20.5t63.5 40.5zM889 709v-484q12 -49 38.5 -69.5t78.5 -28.5l-11 -147q-166 0 -250 77 q-160 -80 -335 -80q-131 0 -214 88.5t-83 229.5q0 281 319 307l285 27v82q0 174 -160 174l-387 -27l-6 146q244 41 401 40q162 0 243 -80.5t81 -254.5zM717 496l-266 -21q-162 -12 -162 -176q0 -76 39 -125t102.5 -49t135 14.5t110.5 28.5l41 14v314zM195 1505h178 q4 -66 46 -104.5t115.5 -38.5t115.5 39t46 104h178q-8 -133 -97 -215t-242 -82q-156 0 -244 82t-96 215z" />
<glyph unicode="&#x1eb6;" horiz-adv-x="1236" d="M289 1843h178q2 -59 46 -94t108 -35q66 0 108.5 35t44.5 94h178q-8 -125 -96 -200.5t-235.5 -75.5t-235.5 75.5t-96 200.5zM533 -318v195h174v-195h-174zM66 0l376 1423h357l372 -1423h-178l-100 342h-553l-96 -342h-178zM580 1266l-201 -760h477l-197 760h-79z" />
<glyph unicode="&#x1eb7;" horiz-adv-x="1071" d="M226 1464h178q4 -66 46 -104.5t115.5 -38.5t115.5 39t46 104h179q-8 -133 -97.5 -215t-242.5 -82q-156 0 -244 82t-96 215zM324 -340v194h174v-194h-174zM889 709v-484q12 -49 38.5 -69.5t78.5 -28.5l-11 -147q-166 0 -250 77q-160 -80 -335 -80q-131 0 -214 88.5 t-83 229.5q0 281 319 307l285 27v82q0 174 -160 174l-387 -27l-6 146q244 41 401 40q162 0 243 -80.5t81 -254.5zM717 496l-266 -21q-162 -12 -162 -176q0 -76 39 -125t102.5 -49t135 14.5t110.5 28.5l41 14v314z" />
<glyph unicode="&#x1eb8;" horiz-adv-x="1150" d="M525 -318v195h174v-195h-174zM186 0v1423h848v-166h-672v-460h549v-162h-549v-471h672v-164h-848z" />
<glyph unicode="&#x1eb9;" horiz-adv-x="1038" d="M434 -340v194h174v-194h-174zM532 131q66 0 157 4t151 8l57 7l4 -134q-203 -39 -381 -39q-221 0 -317.5 134.5t-96.5 392.5q0 266 111 403t313 137q408 0 408 -475l-10 -129h-645q-1 -309 249 -309zM281 575h483q0 166 -56.5 244t-177.5 78q-247 0 -249 -322z" />
<glyph unicode="&#x1ebc;" horiz-adv-x="1150" d="M936 1820l41 -133q-12 -14 -31.5 -33.5t-72 -53t-91.5 -33.5q-51 0 -178 55t-158 55q-23 0 -63.5 -24.5t-71.5 -49.5l-28 -24l-39 133q12 14 33.5 34.5t74.5 55.5t92 35q59 0 184.5 -54.5t149.5 -54.5q45 0 158 92zM186 0v1423h848v-166h-672v-460h549v-162h-549v-471 h672v-164h-848z" />
<glyph unicode="&#x1ebd;" horiz-adv-x="1038" d="M832 1411l39 -135q-96 -109 -185 -109q-51 0 -161.5 50t-141.5 50q-23 0 -60.5 -21.5t-66.5 -43.5l-26 -21l-39 132q104 115 192 114q57 0 167 -49t134 -49q20 0 57.5 20.5t63.5 40.5zM532 131q66 0 157 4t151 8l57 7l4 -134q-203 -39 -381 -39q-221 0 -317.5 134.5 t-96.5 392.5q0 266 111 403t313 137q408 0 408 -475l-10 -129h-645q-1 -309 249 -309zM281 575h483q0 166 -56.5 244t-177.5 78q-247 0 -249 -322z" />
<glyph unicode="&#x1ebe;" horiz-adv-x="1150" d="M559 2177l461 192l61 -161l-465 -175zM186 0v1423h848v-166h-672v-460h549v-162h-549v-471h672v-164h-848zM268 1630l271 281h157l271 -281h-199l-150 142l-147 -142h-203z" />
<glyph unicode="&#x1ebf;" horiz-adv-x="1038" d="M475 1786l461 192l61 -162l-465 -174zM532 131q66 0 157 4t151 8l57 7l4 -134q-203 -39 -381 -39q-221 0 -317.5 134.5t-96.5 392.5q0 266 111 403t313 137q408 0 408 -475l-10 -129h-645q-1 -309 249 -309zM281 575h483q0 166 -56.5 244t-177.5 78q-247 0 -249 -322z M205 1208l258 312h139l260 -312h-190l-137 164l-140 -164h-190z" />
<glyph unicode="&#x1ec0;" horiz-adv-x="1150" d="M215 2370l461 -192l-57 -144l-465 174zM186 0v1423h848v-166h-672v-460h549v-162h-549v-471h672v-164h-848zM268 1630l271 281h157l271 -281h-199l-150 142l-147 -142h-203z" />
<glyph unicode="&#x1ec1;" horiz-adv-x="1038" d="M129 1978l461 -192l-57 -144l-465 174zM532 131q66 0 157 4t151 8l57 7l4 -134q-203 -39 -381 -39q-221 0 -317.5 134.5t-96.5 392.5q0 266 111 403t313 137q408 0 408 -475l-10 -129h-645q-1 -309 249 -309zM281 575h483q0 166 -56.5 244t-177.5 78q-247 0 -249 -322z M205 1208l258 312h139l260 -312h-190l-137 164l-140 -164h-190z" />
<glyph unicode="&#x1ec4;" horiz-adv-x="1150" d="M944 2287l41 -133q-12 -14 -31.5 -33.5t-72 -53t-91.5 -33.5q-51 0 -178 55t-158 55q-23 0 -63.5 -24.5t-71.5 -49.5l-28 -24l-39 133q12 14 33.5 34.5t74.5 55.5t92 35q59 0 184.5 -54.5t149.5 -54.5q45 0 158 92zM186 0v1423h848v-166h-672v-460h549v-162h-549v-471 h672v-164h-848zM268 1630l271 281h157l271 -281h-199l-150 142l-147 -142h-203z" />
<glyph unicode="&#x1ec5;" horiz-adv-x="1038" d="M532 131q66 0 157 4t151 8l57 7l4 -134q-203 -39 -381 -39q-221 0 -317.5 134.5t-96.5 392.5q0 266 111 403t313 137q408 0 408 -475l-10 -129h-645q-1 -309 249 -309zM281 575h483q0 166 -56.5 244t-177.5 78q-247 0 -249 -322zM195 1147l258 311h139l260 -311h-190 l-138 164l-139 -164h-190zM813 1753l39 -135q-96 -109 -184 -109q-51 0 -162 50.5t-141 50.5q-23 0 -61 -21.5t-66 -44.5l-27 -20l-39 131q104 115 193 114q57 0 166.5 -49t134.5 -49q20 0 57 20.5t63 41.5z" />
<glyph unicode="&#x1ec6;" horiz-adv-x="1150" d="M260 1566l271 281h157l271 -281h-199l-149 142l-148 -142h-203zM525 -318v195h174v-195h-174zM186 0v1423h848v-166h-672v-460h549v-162h-549v-471h672v-164h-848z" />
<glyph unicode="&#x1ec7;" horiz-adv-x="1038" d="M203 1167l258 312h139l260 -312h-190l-137 164l-140 -164h-190zM434 -340v194h174v-194h-174zM532 131q66 0 157 4t151 8l57 7l4 -134q-203 -39 -381 -39q-221 0 -317.5 134.5t-96.5 392.5q0 266 111 403t313 137q408 0 408 -475l-10 -129h-645q-1 -309 249 -309z M281 575h483q0 166 -56.5 244t-177.5 78q-247 0 -249 -322z" />
<glyph unicode="&#x1eca;" horiz-adv-x="516" d="M170 -318v195h174v-195h-174zM168 0v1423h178v-1423h-178z" />
<glyph unicode="&#x1ecb;" horiz-adv-x="493" d="M160 -317v194h174v-194h-174zM160 0v1022h174v-1022h-174zM160 1229v194h174v-194h-174z" />
<glyph unicode="&#x1ecc;" horiz-adv-x="1331" d="M578 -340v195h174v-195h-174zM665.5 143q206.5 0 287.5 128t81 431q0 299 -84 438.5t-284 139.5q-203 0 -286 -138t-83 -440q0 -299 81 -429t287.5 -130zM666 -23q-299 0 -426 175.5t-127 550t128 558t425 183.5t425 -183.5t128 -558.5q0 -379 -126 -552t-427 -173z" />
<glyph unicode="&#x1ecd;" horiz-adv-x="1081" d="M455 -340v194h174v-194h-174zM543 1044q227 0 328.5 -135t101.5 -389q0 -266 -96.5 -404.5t-333.5 -138.5q-244 0 -340.5 135.5t-96.5 409.5q0 260 99.5 391t337.5 131zM543 129q150 0 202 97.5t52 293.5q0 186 -58.5 279.5t-195.5 93.5q-143 0 -200.5 -89t-57.5 -282 q0 -205 52 -299t206 -94z" />
<glyph unicode="&#x1ed0;" horiz-adv-x="1331" d="M613 2179l461 192l61 -161l-465 -175zM665.5 143q206.5 0 287.5 128t81 431q0 299 -84 438.5t-284 139.5q-203 0 -286 -138t-83 -440q0 -299 81 -429t287.5 -130zM666 -23q-299 0 -426 175.5t-127 550t128 558t425 183.5t425 -183.5t128 -558.5q0 -379 -126 -552 t-427 -173zM322 1632l270 281h158l270 -281h-199l-149 142l-148 -142h-202z" />
<glyph unicode="&#x1ed1;" horiz-adv-x="1091" d="M457 1786l461 192l61 -162l-465 -174zM543 1044q227 0 328.5 -135t101.5 -389q0 -266 -96.5 -404.5t-333.5 -138.5q-244 0 -340.5 135.5t-96.5 409.5q0 260 99.5 391t337.5 131zM543 129q150 0 202 97.5t52 293.5q0 186 -58.5 279.5t-195.5 93.5q-143 0 -200.5 -89 t-57.5 -282q0 -205 52 -299t206 -94zM186 1208l258 312h140l260 -312h-191l-137 164l-139 -164h-191z" />
<glyph unicode="&#x1ed2;" horiz-adv-x="1331" d="M268 2372l461 -192l-57 -144l-465 174zM665.5 143q206.5 0 287.5 128t81 431q0 299 -84 438.5t-284 139.5q-203 0 -286 -138t-83 -440q0 -299 81 -429t287.5 -130zM666 -23q-299 0 -426 175.5t-127 550t128 558t425 183.5t425 -183.5t128 -558.5q0 -379 -126 -552 t-427 -173zM322 1632l270 281h158l270 -281h-199l-149 142l-148 -142h-202z" />
<glyph unicode="&#x1ed3;" horiz-adv-x="1091" d="M110 1978l461 -192l-57 -144l-465 174zM543 1044q227 0 328.5 -135t101.5 -389q0 -266 -96.5 -404.5t-333.5 -138.5q-244 0 -340.5 135.5t-96.5 409.5q0 260 99.5 391t337.5 131zM543 129q150 0 202 97.5t52 293.5q0 186 -58.5 279.5t-195.5 93.5q-143 0 -200.5 -89 t-57.5 -282q0 -205 52 -299t206 -94zM186 1208l258 312h140l260 -312h-191l-137 164l-139 -164h-191z" />
<glyph unicode="&#x1ed6;" horiz-adv-x="1331" d="M998 2289l41 -133q-12 -14 -31.5 -33.5t-72 -53t-91.5 -33.5q-51 0 -178 55t-158 55q-23 0 -63.5 -24.5t-71.5 -49.5l-28 -24l-39 133q12 14 33.5 34.5t74.5 55.5t92 35q59 0 184.5 -54.5t149.5 -54.5q45 0 158 92zM665.5 143q206.5 0 287.5 128t81 431q0 299 -84 438.5 t-284 139.5q-203 0 -286 -138t-83 -440q0 -299 81 -429t287.5 -130zM666 -23q-299 0 -426 175.5t-127 550t128 558t425 183.5t425 -183.5t128 -558.5q0 -379 -126 -552t-427 -173zM322 1632l270 281h158l270 -281h-199l-149 142l-148 -142h-202z" />
<glyph unicode="&#x1ed7;" horiz-adv-x="1091" d="M543 1044q227 0 328.5 -135t101.5 -389q0 -266 -96.5 -404.5t-333.5 -138.5q-244 0 -340.5 135.5t-96.5 409.5q0 260 99.5 391t337.5 131zM543 129q150 0 202 97.5t52 293.5q0 186 -58.5 279.5t-195.5 93.5q-143 0 -200.5 -89t-57.5 -282q0 -205 52 -299t206 -94z M207 1147l258 311h139l260 -311h-190l-137 164l-140 -164h-190zM836 1753l38 -135q-96 -109 -184 -109q-51 0 -161.5 50.5t-141.5 50.5q-23 0 -60.5 -21.5t-64.5 -44.5l-29 -20l-38 131q104 115 192 114q57 0 167 -49t134 -49q20 0 57 20.5t64 41.5z" />
<glyph unicode="&#x1ed8;" horiz-adv-x="1331" d="M317 1566l271 281h157l271 -281h-199l-149 142l-148 -142h-203zM578 -340v195h174v-195h-174zM665.5 143q206.5 0 287.5 128t81 431q0 299 -84 438.5t-284 139.5q-203 0 -286 -138t-83 -440q0 -299 81 -429t287.5 -130zM666 -23q-299 0 -426 175.5t-127 550t128 558 t425 183.5t425 -183.5t128 -558.5q0 -379 -126 -552t-427 -173z" />
<glyph unicode="&#x1ed9;" horiz-adv-x="1081" d="M215 1167l258 312h139l260 -312h-190l-137 164l-140 -164h-190zM455 -340v194h174v-194h-174zM543 1044q227 0 328.5 -135t101.5 -389q0 -266 -96.5 -404.5t-333.5 -138.5q-244 0 -340.5 135.5t-96.5 409.5q0 260 99.5 391t337.5 131zM543 129q150 0 202 97.5t52 293.5 q0 186 -58.5 279.5t-195.5 93.5q-143 0 -200.5 -89t-57.5 -282q0 -205 52 -299t206 -94z" />
<glyph unicode="&#x1eda;" horiz-adv-x="1331" d="M781 1710l461 192l61 -161l-465 -175zM727 962l96 481h189l-115 -481h-170zM665.5 143q206.5 0 287.5 128t81 431q0 299 -84 438.5t-284 139.5q-203 0 -286 -138t-83 -440q0 -299 81 -429t287.5 -130zM666 -23q-299 0 -426 175.5t-127 550t128 558t425 183.5t425 -183.5 t128 -558.5q0 -379 -126 -552t-427 -173z" />
<glyph unicode="&#x1edb;" horiz-adv-x="1081" d="M658 1311l461 192l61 -162l-465 -174zM604 563l96 481h189l-115 -481h-170zM543 1044q227 0 328.5 -135t101.5 -389q0 -266 -96.5 -404.5t-333.5 -138.5q-244 0 -340.5 135.5t-96.5 409.5q0 260 99.5 391t337.5 131zM543 129q150 0 202 97.5t52 293.5q0 186 -58.5 279.5 t-195.5 93.5q-143 0 -200.5 -89t-57.5 -282q0 -205 52 -299t206 -94z" />
<glyph unicode="&#x1edc;" horiz-adv-x="1331" d="M436 1903l461 -192l-57 -144l-465 174zM727 962l96 481h189l-115 -481h-170zM665.5 143q206.5 0 287.5 128t81 431q0 299 -84 438.5t-284 139.5q-203 0 -286 -138t-83 -440q0 -299 81 -429t287.5 -130zM666 -23q-299 0 -426 175.5t-127 550t128 558t425 183.5t425 -183.5 t128 -558.5q0 -379 -126 -552t-427 -173z" />
<glyph unicode="&#x1edd;" horiz-adv-x="1081" d="M313 1503l461 -192l-57 -144l-465 174zM604 563l96 481h189l-115 -481h-170zM543 1044q227 0 328.5 -135t101.5 -389q0 -266 -96.5 -404.5t-333.5 -138.5q-244 0 -340.5 135.5t-96.5 409.5q0 260 99.5 391t337.5 131zM543 129q150 0 202 97.5t52 293.5q0 186 -58.5 279.5 t-195.5 93.5q-143 0 -200.5 -89t-57.5 -282q0 -205 52 -299t206 -94z" />
<glyph unicode="&#x1ee0;" horiz-adv-x="1331" d="M1165 1820l41 -133q-12 -14 -31.5 -33.5t-72 -53t-91.5 -33.5q-51 0 -178 55t-158 55q-23 0 -63.5 -24.5t-71.5 -49.5l-28 -24l-39 133q12 14 33.5 34.5t74.5 55.5t92 35q59 0 184.5 -54.5t149.5 -54.5q45 0 158 92zM727 962l96 481h189l-115 -481h-170zM665.5 143 q206.5 0 287.5 128t81 431q0 299 -84 438.5t-284 139.5q-203 0 -286 -138t-83 -440q0 -299 81 -429t287.5 -130zM666 -23q-299 0 -426 175.5t-127 550t128 558t425 183.5t425 -183.5t128 -558.5q0 -379 -126 -552t-427 -173z" />
<glyph unicode="&#x1ee1;" horiz-adv-x="1081" d="M1018 1411l39 -135q-96 -109 -185 -109q-51 0 -161.5 50t-141.5 50q-23 0 -60.5 -21.5t-66.5 -43.5l-26 -21l-39 132q104 115 192 114q57 0 167 -49t134 -49q20 0 57.5 20.5t63.5 40.5zM604 563l96 481h189l-115 -481h-170zM543 1044q227 0 328.5 -135t101.5 -389 q0 -266 -96.5 -404.5t-333.5 -138.5q-244 0 -340.5 135.5t-96.5 409.5q0 260 99.5 391t337.5 131zM543 129q150 0 202 97.5t52 293.5q0 186 -58.5 279.5t-195.5 93.5q-143 0 -200.5 -89t-57.5 -282q0 -205 52 -299t206 -94z" />
<glyph unicode="&#x1ee2;" horiz-adv-x="1331" d="M578 -340v195h174v-195h-174zM727 962l96 481h189l-115 -481h-170zM665.5 143q206.5 0 287.5 128t81 431q0 299 -84 438.5t-284 139.5q-203 0 -286 -138t-83 -440q0 -299 81 -429t287.5 -130zM666 -23q-299 0 -426 175.5t-127 550t128 558t425 183.5t425 -183.5 t128 -558.5q0 -379 -126 -552t-427 -173z" />
<glyph unicode="&#x1ee3;" horiz-adv-x="1081" d="M455 -340v194h174v-194h-174zM604 563l96 481h189l-115 -481h-170zM543 1044q227 0 328.5 -135t101.5 -389q0 -266 -96.5 -404.5t-333.5 -138.5q-244 0 -340.5 135.5t-96.5 409.5q0 260 99.5 391t337.5 131zM543 129q150 0 202 97.5t52 293.5q0 186 -58.5 279.5 t-195.5 93.5q-143 0 -200.5 -89t-57.5 -282q0 -205 52 -299t206 -94z" />
<glyph unicode="&#x1ee4;" horiz-adv-x="1318" d="M566 -336v195h174v-195h-174zM342 436q0 -150 78 -218t233 -68q162 0 243 68.5t81 217.5v987h176v-987q0 -236 -122 -345t-378 -109q-248 0 -368.5 109.5t-120.5 344.5v987h178v-987z" />
<glyph unicode="&#x1ee5;" horiz-adv-x="1144" d="M426 -340v194h174v-194h-174zM795 1022h172v-1022h-172v61q-156 -84 -281 -84q-197 0 -269.5 116t-72.5 396v533h172v-530q0 -201 40 -281t159 -80q51 0 113.5 18.5t101.5 34.5l37 19v819z" />
<glyph unicode="&#x1ee8;" horiz-adv-x="1318" d="M1348 1710l461 192l61 -161l-465 -175zM1215 962l96 481h189l-115 -481h-170zM342 436q0 -150 78 -218t233 -68q162 0 243 68.5t81 217.5v987h176v-987q0 -236 -122 -345t-378 -109q-248 0 -368.5 109.5t-120.5 344.5v987h178v-987z" />
<glyph unicode="&#x1ee9;" horiz-adv-x="1144" d="M1162 1311l461 192l61 -162l-465 -174zM1028 563l96 481h189l-115 -481h-170zM795 1022h172v-1022h-172v61q-156 -84 -281 -84q-197 0 -269.5 116t-72.5 396v533h172v-530q0 -201 40 -281t159 -80q51 0 113.5 18.5t101.5 34.5l37 19v819z" />
<glyph unicode="&#x1eea;" horiz-adv-x="1318" d="M1001 1903l461 -192l-57 -144l-465 174zM1215 962l96 481h189l-115 -481h-170zM342 436q0 -150 78 -218t233 -68q162 0 243 68.5t81 217.5v987h176v-987q0 -236 -122 -345t-378 -109q-248 0 -368.5 109.5t-120.5 344.5v987h178v-987z" />
<glyph unicode="&#x1eeb;" horiz-adv-x="1144" d="M815 1503l461 -192l-57 -144l-465 174zM1028 563l96 481h189l-115 -481h-170zM795 1022h172v-1022h-172v61q-156 -84 -281 -84q-197 0 -269.5 116t-72.5 396v533h172v-530q0 -201 40 -281t159 -80q51 0 113.5 18.5t101.5 34.5l37 19v819z" />
<glyph unicode="&#x1eee;" horiz-adv-x="1318" d="M1731 1820l41 -133q-12 -14 -31.5 -33.5t-72 -53t-91.5 -33.5q-51 0 -178 55t-158 55q-23 0 -63.5 -24.5t-71.5 -49.5l-28 -24l-39 133q12 14 33.5 34.5t74.5 55.5t92 35q59 0 184.5 -54.5t149.5 -54.5q45 0 158 92zM1215 962l96 481h189l-115 -481h-170zM342 436 q0 -150 78 -218t233 -68q162 0 243 68.5t81 217.5v987h176v-987q0 -236 -122 -345t-378 -109q-248 0 -368.5 109.5t-120.5 344.5v987h178v-987z" />
<glyph unicode="&#x1eef;" horiz-adv-x="1144" d="M1520 1411l39 -135q-96 -109 -185 -109q-51 0 -161.5 50t-141.5 50q-23 0 -60.5 -21.5t-66.5 -43.5l-26 -21l-39 132q104 115 192 114q57 0 167 -49t134 -49q20 0 57.5 20.5t63.5 40.5zM1028 563l96 481h189l-115 -481h-170zM795 1022h172v-1022h-172v61 q-156 -84 -281 -84q-197 0 -269.5 116t-72.5 396v533h172v-530q0 -201 40 -281t159 -80q51 0 113.5 18.5t101.5 34.5l37 19v819z" />
<glyph unicode="&#x1ef0;" horiz-adv-x="1318" d="M566 -336v195h174v-195h-174zM1215 962l96 481h189l-115 -481h-170zM342 436q0 -150 78 -218t233 -68q162 0 243 68.5t81 217.5v987h176v-987q0 -236 -122 -345t-378 -109q-248 0 -368.5 109.5t-120.5 344.5v987h178v-987z" />
<glyph unicode="&#x1ef1;" horiz-adv-x="1144" d="M426 -340v194h174v-194h-174zM1028 563l96 481h189l-115 -481h-170zM795 1022h172v-1022h-172v61q-156 -84 -281 -84q-197 0 -269.5 116t-72.5 396v533h172v-530q0 -201 40 -281t159 -80q51 0 113.5 18.5t101.5 34.5l37 19v819z" />
<glyph unicode="&#x1ef2;" horiz-adv-x="1136" d="M659 610v-610h-176v610l-438 813h199l325 -624l322 624h201zM369 1921l460 -192l-57 -144l-465 174z" />
<glyph unicode="&#x1ef3;" horiz-adv-x="987" d="M53 1022h172l238 -856h59l240 856h172l-410 -1473h-172l127 451h-147zM293 1542l461 -192l-58 -144l-465 174z" />
<glyph unicode="&#x1ef4;" horiz-adv-x="1136" d="M484 -318v195h174v-195h-174zM659 610v-610h-176v610l-438 813h199l325 -624l322 624h201z" />
<glyph unicode="&#x1ef5;" horiz-adv-x="987" d="M353 -768v194h174v-194h-174zM53 1022h172l238 -856h59l240 856h172l-410 -1473h-172l127 451h-147z" />
<glyph unicode="&#x1ef8;" horiz-adv-x="1136" d="M659 610v-610h-176v610l-438 813h199l325 -624l322 624h201zM868 1886l39 -135q-96 -109 -184 -109q-51 0 -161.5 50.5t-141.5 50.5q-23 0 -60.5 -21.5t-64.5 -42.5l-29 -22l-39 131q104 115 193 115q57 0 166.5 -49.5t134.5 -49.5q20 0 57 20.5t64 41.5z" />
<glyph unicode="&#x1ef9;" horiz-adv-x="987" d="M53 1022h172l238 -856h59l240 856h172l-410 -1473h-172l127 451h-147zM795 1487l39 -135q-96 -109 -185 -109q-51 0 -161.5 50t-141.5 50q-23 0 -60.5 -21.5t-64.5 -43.5l-28 -21l-39 132q104 115 192 114q57 0 167 -49t134 -49q20 0 57 20.5t64 40.5z" />
<glyph unicode="&#x2000;" horiz-adv-x="1024" />
<glyph unicode="&#x2001;" horiz-adv-x="2048" />
<glyph unicode="&#x2002;" horiz-adv-x="1024" />
<glyph unicode="&#x2003;" horiz-adv-x="2048" />
<glyph unicode="&#x2004;" horiz-adv-x="681" />
<glyph unicode="&#x2005;" horiz-adv-x="512" />
<glyph unicode="&#x2006;" horiz-adv-x="339" />
<glyph unicode="&#x2007;" />
<glyph unicode="&#x2008;" horiz-adv-x="507" />
<glyph unicode="&#x2009;" horiz-adv-x="204" />
<glyph unicode="&#x200a;" horiz-adv-x="20" />
<glyph unicode="&#x200b;" horiz-adv-x="0" />
<glyph unicode="&#x200c;" horiz-adv-x="0" />
<glyph unicode="&#x200d;" horiz-adv-x="0" />
<glyph unicode="&#x200e;" horiz-adv-x="681" />
<glyph unicode="&#x200f;" horiz-adv-x="681" />
<glyph unicode="&#x2010;" horiz-adv-x="901" d="M143 471v164h615v-164h-615z" />
<glyph unicode="&#x2011;" horiz-adv-x="901" d="M143 471v164h615v-164h-615z" />
<glyph unicode="&#x2012;" d="M143 471v164h799v-164h-799z" />
<glyph unicode="&#x2013;" horiz-adv-x="1024" d="M0 635h1024v-160h-1024v160z" />
<glyph unicode="&#x2014;" horiz-adv-x="2048" d="M0 635h2048v-160h-2048v160z" />
<glyph unicode="&#x2015;" horiz-adv-x="4096" d="M143 471v164h3810v-164h-3810z" />
<glyph unicode="&#x2016;" horiz-adv-x="2170" d="M1527 -512v2048h179v-2048h-179zM442 -512v2048h179v-2048h-179z" />
<glyph unicode="&#x2018;" horiz-adv-x="403" d="M328 1511l-92 -456h-179l109 456h162z" />
<glyph unicode="&#x2019;" horiz-adv-x="403" d="M74 1055l92 456h178l-108 -456h-162z" />
<glyph unicode="&#x201a;" horiz-adv-x="403" d="M74 -176l92 457h178l-108 -457h-162z" />
<glyph unicode="&#x201c;" horiz-adv-x="829" d="M371 1370l-92 -457h-179l109 457h162zM723 1370l-92 -457h-178l108 457h162z" />
<glyph unicode="&#x201d;" horiz-adv-x="782" d="M98 1053l92 456h179l-109 -456h-162zM451 1053l92 456h178l-109 -456h-161z" />
<glyph unicode="&#x201e;" horiz-adv-x="782" d="M98 -176l92 457h179l-109 -457h-162zM451 -176l92 457h178l-109 -457h-161z" />
<glyph unicode="&#x2020;" d="M119 848v170h338v383h170v-383h338v-170h-338v-1002h-170v1002h-338z" />
<glyph unicode="&#x2021;" d="M457 -154v383h-338v168h338v451h-338v170h338v383h170v-383h336v-170h-336v-451h338v-168h-338v-383h-170z" />
<glyph unicode="&#x2022;" d="M291 215v584h502v-584h-502z" />
<glyph unicode="&#x2024;" horiz-adv-x="507" d="M145 0v252h189v-252h-189z" />
<glyph unicode="&#x2025;" horiz-adv-x="1015" d="M653 0v252h189v-252h-189zM145 0v252h189v-252h-189z" />
<glyph unicode="&#x2026;" horiz-adv-x="1523" d="M164 0v252h188v-252h-188zM686 0v252h188v-252h-188zM1206 0v252h189v-252h-189z" />
<glyph unicode="&#x202a;" horiz-adv-x="0" />
<glyph unicode="&#x202f;" horiz-adv-x="473" />
<glyph unicode="&#x2030;" horiz-adv-x="1705" d="M262 1321q-92 0 -92 -170q0 -178 92 -178q51 0 71.5 43t20.5 133t-20.5 131t-71.5 41zM305 6l385 1448l123 -31l-387 -1448zM35 1151q0 285 227 285q229 0 230 -287q0 -143 -60.5 -217t-169 -74t-168 74t-59.5 219zM618 291q0 285 230 284q227 0 227 -284 q0 -145 -60.5 -218t-166.5 -73q-109 0 -169.5 73t-60.5 218zM756 291q0 -90 20.5 -133t71.5 -43t71.5 43t20.5 133t-20.5 130t-71.5 40t-71.5 -40t-20.5 -130zM1147 291q0 285 227 284q229 0 230 -284q0 -145 -60.5 -218t-169.5 -73q-227 0 -227 291zM1282 291 q0 -176 92 -176q51 0 71.5 43t20.5 133t-20.5 130t-71.5 40q-49 0 -70.5 -40t-21.5 -130z" />
<glyph unicode="&#x2032;" horiz-adv-x="204" d="M14 952l-4 471h170l-6 -471h-160z" />
<glyph unicode="&#x2033;" horiz-adv-x="409" d="M219 952l-4 471h170l-6 -471h-160zM14 952l-4 471h170l-6 -471h-160z" />
<glyph unicode="&#x2034;" horiz-adv-x="614" d="M424 952l-4 471h170l-6 -471h-160zM219 952l-4 471h170l-6 -471h-160zM14 952l-4 471h170l-6 -471h-160z" />
<glyph unicode="&#x2035;" horiz-adv-x="1116" d="M305 1542l461 -192l-57 -144l-465 174z" />
<glyph unicode="&#x2036;" horiz-adv-x="2232" d="M1421 1542l461 -192l-57 -144l-465 174zM305 1542l461 -192l-57 -144l-465 174z" />
<glyph unicode="&#x2037;" horiz-adv-x="3348" d="M2537 1542l461 -192l-57 -144l-465 174zM1421 1542l461 -192l-57 -144l-465 174zM305 1542l461 -192l-57 -144l-465 174z" />
<glyph unicode="&#x2039;" horiz-adv-x="901" d="M512 694l-250 -184l250 -209v-180l-399 317v135l399 299v-178z" />
<glyph unicode="&#x203a;" horiz-adv-x="901" d="M373 520l-250 185v178l399 -299v-135l-399 -318v180z" />
<glyph unicode="&#x203c;" horiz-adv-x="1622" d="M1128 0v252h189v-252h-189zM1135 483l-7 949h189l-6 -949h-176zM317 0v252h189v-252h-189zM324 483l-7 949h189l-6 -949h-176z" />
<glyph unicode="&#x203e;" horiz-adv-x="481" d="M-305 123v152h608v-152h-608z" />
<glyph unicode="&#x2047;" horiz-adv-x="1581" d="M1575 1092q0 -78 -36.5 -153t-89.5 -132l-103 -111q-51 -53 -88 -107t-37 -102v-77h-174q-8 84 -8 104q0 61 35.5 126t87.5 119l103 105q52 51 88 105.5t36 103.5q0 113 -53 159t-191 46q-45 0 -121.5 -10.5t-130.5 -22.5l-55 -10l-20 158q223 63 344 63q215 0 314 -82.5 t99 -281.5zM1037 0v242h188v-242h-188zM784 1092q0 -78 -36.5 -153t-89.5 -132l-103 -111q-51 -53 -88 -107t-37 -102v-77h-174q-8 84 -8 104q0 61 35.5 126t87.5 119l103 105q52 51 88 105.5t36 103.5q0 113 -53 159t-191 46q-45 0 -121.5 -10.5t-130.5 -22.5l-55 -10 l-20 158q223 63 344 63q215 0 314 -82.5t99 -281.5zM246 0v242h188v-242h-188z" />
<glyph unicode="&#x2048;" horiz-adv-x="1601" d="M1108 0v252h189v-252h-189zM1115 483l-7 949h189l-6 -949h-176zM784 1092q0 -78 -36.5 -153t-89.5 -132l-103 -111q-51 -53 -88 -107t-37 -102v-77h-174q-8 84 -8 104q0 61 35.5 126t87.5 119l103 105q52 51 88 105.5t36 103.5q0 113 -53 159t-191 46q-45 0 -121.5 -10.5 t-130.5 -22.5l-55 -10l-20 158q223 63 344 63q215 0 314 -82.5t99 -281.5zM246 0v242h188v-242h-188z" />
<glyph unicode="&#x2049;" horiz-adv-x="1601" d="M1595 1092q0 -78 -36.5 -153t-89.5 -132l-103 -111q-51 -53 -88 -107t-37 -102v-77h-174q-8 84 -8 104q0 61 35.5 126t87.5 119l103 105q52 51 88 105.5t36 103.5q0 113 -53 159t-191 46q-45 0 -121.5 -10.5t-130.5 -22.5l-55 -10l-20 158q223 63 344 63q215 0 314 -82.5 t99 -281.5zM1057 0v242h188v-242h-188zM317 0v252h189v-252h-189zM324 483l-7 949h189l-6 -949h-176z" />
<glyph unicode="&#x2057;" horiz-adv-x="819" d="M628 952l-4 471h170l-6 -471h-160zM424 952l-4 471h170l-6 -471h-160zM219 952l-4 471h170l-6 -471h-160zM14 952l-4 471h170l-6 -471h-160z" />
<glyph unicode="&#x205f;" horiz-adv-x="591" />
<glyph unicode="&#x2060;" horiz-adv-x="0" />
<glyph unicode="&#x20a8;" horiz-adv-x="2275" d="M2120 1004l-4 -144q-231 31 -350 31q-199 0 -199 -146q0 -61 47 -91.5t184 -53.5q201 -33 278 -94.5t77 -204.5q0 -324 -392 -324q-59 0 -148 10.5t-148 20.5l-62 10l8 146q231 -33 336 -33q121 0 176.5 37t55.5 127q0 70 -44.5 97.5t-187.5 51.5q-190 35 -273 95.5 t-83 199.5q0 158 105.5 231.5t258.5 73.5q68 0 159 -10t149 -20zM725 530l-47 -2h-316v-528h-176v1423h506q459 0 459 -440q0 -326 -250 -412l260 -571h-196zM967 981q0 133 -72 204.5t-203 71.5h-330v-567h332q139 0 206 80t67 211z" />
<glyph unicode="&#x20ac;" horiz-adv-x="1148" d="M74 907h127q27 248 139.5 360.5t361.5 112.5l363 -39l-12 -151q-193 29 -330 29q-176 0 -249 -75t-87 -239h533v-139h-543q-4 -41 -4 -92q0 -55 4 -88h543v-142h-533q14 -158 89 -231.5t251 -73.5l330 27l6 -150q-199 -39 -361 -39q-250 0 -363.5 112t-137.5 355h-127 v142h119q-4 33 -5 88q0 51 5 92h-119v141z" />
<glyph unicode="&#x2122;" d="M14 1208v64h410v-64h-170v-528h-68v528h-172zM496 678v594h102l172 -496l178 496h103v-594h-66v528l-180 -506h-72l-172 506v-528h-65z" />
<glyph unicode="&#x2202;" d="M248 1184l-19 155q152 35 314 35q240 0 357.5 -156.5t117.5 -517.5q0 -350 -138.5 -534t-383.5 -184q-207 0 -317.5 113.5t-110.5 310.5q0 205 123.5 320.5t324.5 115.5q176 0 313 -111l9 -6q0 258 -70 370.5t-225 112.5zM528 688q-129 0 -204.5 -75.5t-75.5 -206.5 q0 -262 256 -263q147 0 226 115t95 311q-14 12 -40.5 33t-104.5 53.5t-152 32.5z" />
<glyph unicode="&#x220f;" d="M53 1352h979v-174h-121v-1368h-176v1368h-385v-1368h-178v1368h-119v174z" />
<glyph unicode="&#x2211;" d="M967 -190h-842v229l362 541l-362 538v230h842v-174h-637v-48l377 -546l-377 -549v-47h637v-174z" />
<glyph unicode="&#x221a;" d="M23 678l303 92l213 -793h43l307 1682h186l-356 -1843h-305l-215 759l-133 -43z" />
<glyph unicode="&#x221e;" horiz-adv-x="1089" d="M303 948q88 0 142.5 -43t97.5 -137q45 94 99 137t142 43q127 0 192.5 -90t65.5 -260q0 -350 -262 -350q-86 0 -139 41t-96 133q-43 -100 -94.5 -137t-143.5 -37q-260 0 -260 348q0 352 256 352zM610 598q6 -12 20.5 -46t20.5 -47t20.5 -36t27 -32t32 -17t41.5 -8 q106 0 107 184q0 188 -107 188q-23 0 -42 -8t-31.5 -17t-27 -31.5t-20.5 -36l-20.5 -47.5t-20.5 -46zM477 598l-20 47l-21 46q-6 13 -20.5 36t-26.5 32t-31.5 17t-42.5 8q-104 0 -104 -188q0 -184 104 -184q23 0 42.5 8t31.5 17t26.5 32t20.5 36l21 46z" />
<glyph unicode="&#x222b;" d="M907 1599q-115 10 -155 11q-92 0 -124 -45t-32 -154l61 -1534q0 -197 -61 -277.5t-242 -80.5l-184 16l2 154q115 -8 158 -8q88 0 121.5 46t33.5 150l-61 1534q0 205 60.5 283t242.5 78l182 -17z" />
<glyph unicode="&#x2248;" d="M940 913l16 -165l-32.5 -31t-79 -48.5t-109.5 -29.5q-61 0 -200.5 50t-180.5 50q-86 0 -209 -94l-16 164q12 12 34.5 30.5t84 49.5t114.5 31q61 0 196.5 -50.5t180.5 -50.5q78 0 201 94zM938 514l16 -166q-12 -12 -32.5 -30.5t-79 -48t-109.5 -29.5q-61 0 -200.5 50 t-180.5 50q-86 0 -209 -94l-16 164q12 12 34.5 30.5t84 49t114.5 30.5q61 0 196.5 -50t180.5 -50q78 0 201 94z" />
<glyph unicode="&#x2260;" d="M117 676v170h475l139 313l137 -57l-112 -256h217v-170h-291l-98 -219h389v-170h-463l-141 -320l-138 58l117 262h-231v170h303l98 219h-401z" />
<glyph unicode="&#x2264;" d="M899 934l-573 -201l573 -215v-186l-741 286v222l741 276v-182zM158 68v172h741v-172h-741z" />
<glyph unicode="&#x2265;" d="M770 733l-584 201v182l752 -276v-222l-752 -286v186zM186 68v172h752v-172h-752z" />
<glyph unicode="&#x25ca;" d="M989 680l-352 -680h-180l-363 680l361 672h180zM805 680l-258 506l-268 -506l268 -512z" />
<glyph unicode="&#xe000;" horiz-adv-x="1020" d="M0 1020h1020v-1020h-1020v1020z" />
<glyph unicode="&#xfb01;" horiz-adv-x="1179" d="M846 0v1022h174v-1022h-174zM846 1229v194h174v-194h-174zM352 870v-870h-174v870h-121v152h121v86q0 203 66.5 289t214.5 86l194 -17l-2 -143q-94 6 -155 6q-80 0 -112 -51t-32 -172v-84h285v-152h-285z" />
<glyph unicode="&#xfb02;" horiz-adv-x="1189" d="M852 0v1464h172v-1464h-172zM352 870v-870h-174v870h-121v152h121v86q0 203 66.5 289t214.5 86l194 -17l-2 -143q-94 6 -155 6q-80 0 -112 -51t-32 -172v-84h285v-152h-285z" />
<glyph unicode="&#xfb03;" horiz-adv-x="1865" d="M1532 0v1022h174v-1022h-174zM1532 1229v194h174v-194h-174zM1038 870v-870h-174v870h-121v152h121v86q0 203 66.5 289t214.5 86l194 -17l-2 -143q-94 6 -155 6q-80 0 -112 -51t-32 -172v-84h285v-152h-285zM352 870v-870h-174v870h-121v152h121v86q0 203 66.5 289 t214.5 86l194 -17l-2 -143q-94 6 -155 6q-80 0 -112 -51t-32 -172v-84h285v-152h-285z" />
<glyph unicode="&#xfb04;" horiz-adv-x="1875" d="M1538 0v1464h172v-1464h-172zM1038 870v-870h-174v870h-121v152h121v86q0 203 66.5 289t214.5 86l194 -17l-2 -143q-94 6 -155 6q-80 0 -112 -51t-32 -172v-84h285v-152h-285zM352 870v-870h-174v870h-121v152h121v86q0 203 66.5 289t214.5 86l194 -17l-2 -143 q-94 6 -155 6q-80 0 -112 -51t-32 -172v-84h285v-152h-285z" />
<glyph horiz-adv-x="481" />
<glyph horiz-adv-x="954" d="M100 1632l271 281h157l271 -281h-199l-149 142l-148 -142h-203z" />
<glyph horiz-adv-x="954" d="M799 1909l-271 -281h-155l-273 281h203l148 -146l147 146h201z" />
<glyph horiz-adv-x="942" d="M805 1898l41 -133q-12 -14 -31.5 -33.5t-72 -53t-91.5 -33.5q-51 0 -178 55t-158 55q-23 0 -63.5 -24.5t-71.5 -49.5l-28 -24l-39 133q12 14 33.5 34.5t74.5 55.5t92 35q59 0 184.5 -54.5t149.5 -54.5q45 0 158 92z" />
<glyph horiz-adv-x="843" d="M176 1671v199h168v-199h-168zM604 1671v199h168v-199h-168z" />
<glyph horiz-adv-x="954" d="M145 1673v152h650v-152h-650z" />
<glyph horiz-adv-x="954" d="M123 1898h178q2 -59 46 -94t108 -35q66 0 108.5 35t44.5 94h178q-8 -125 -96 -200.5t-235.5 -75.5t-235.5 75.5t-96 200.5z" />
<glyph horiz-adv-x="688" d="M578 1579q0 -102 -72 -162.5t-180 -60.5q-111 0 -182.5 60.5t-71.5 162.5q0 104 71.5 163.5t182 59.5t181.5 -59.5t71 -163.5zM211 1579q0 -96 115 -96q53 0 82.5 25.5t29.5 70.5t-29.5 71.5t-83 26.5t-84 -25.5t-30.5 -72.5z" />
<glyph horiz-adv-x="493" d="M160 1597v195h174v-195h-174z" />
<glyph horiz-adv-x="1064" d="M305 1921l461 -192l-57 -144l-465 174z" />
<glyph horiz-adv-x="1097" d="M244 1741l461 192l61 -161l-465 -175z" />
<glyph horiz-adv-x="954" d="M145 1673v152h650v-152h-650z" />
</font>
</defs>
</svg>
